<svg xmlns="http://www.w3.org/2000/svg" xmlns:xlink="http://www.w3.org/1999/xlink" width="400.208" height="356.869" viewBox="0 0 400.208 356.869">
  <defs>
    <clipPath id="clip-path">
      <path id="Path_227" data-name="Path 227" d="M491.87,233.7l22.74-92.83L428.7,90l49.59-22.9,63.78,24.6s.39,112.39,0,113.53-23.63,38.84-23.63,38.84Z" transform="translate(-164.56 -49.33)" fill="none"/>
    </clipPath>
    <clipPath id="clip-path-2">
      <path id="Path_267" data-name="Path 267" d="M491.87,233.7l22.74-92.83L428.7,90,324,128.91,404.34,233.8s66.36,37.82,66,38.95,48.12-28.68,48.12-28.68Z" transform="translate(-164.56 -49.33)" fill="none"/>
    </clipPath>
  </defs>
  <g id="_1021" data-name="1021" transform="translate(0 -0.021)">
    <path id="Path_86" data-name="Path 86" d="M404.92,361.16,262.15,278.74c-4-2.34-3.53-6.41,1.13-9.1l97.22-56.11c4.66-2.69,11.71-3,15.75-.65L519,295.3c4,2.34,3.53,6.41-1.13,9.1l-97.22,56.11C416,363.2,409,363.49,404.92,361.16Z" transform="translate(-164.56 -49.33)" fill="#173d7a" opacity="0.5"/>
    <path id="Path_87" data-name="Path 87" d="M559,136,410.46,50.25a6,6,0,0,0-5-.61h0l-.27.1h-.07l-5.36,2,4.81,2.36-.06.26-24.2,110.15c-1.21,5.51,1.21,11.94,5.41,14.37l145,83.71-.52,6.14,5.87-2.27c2-.93,3.55-3,4.2-6l24.2-110.14C565.65,144.88,563.22,138.45,559,136Z" transform="translate(-164.56 -49.33)" fill="#173d7a"/>
    <path id="Path_88" data-name="Path 88" d="M559,136,410.46,50.25a6,6,0,0,0-5-.61h0l-.27.1h-.07l-5.36,2,4.81,2.36-.06.26L388.54,127l72.68,56.63,102.49-41.7A11.541,11.541,0,0,0,559,136Z" transform="translate(-164.56 -49.33)" fill="#396caa"/>
    <path id="Path_89" data-name="Path 89" d="M553.42,153l11.31-4.81c.2-4.38-1.61-8.91-4.58-11.33l-17.9,7.53Z" transform="translate(-164.56 -49.33)" fill="#274f89"/>
    <path id="Path_90" data-name="Path 90" d="M525,268.21,376.45,182.44c-4.2-2.43-6.62-8.86-5.41-14.38L395.23,57.92c1.22-5.51,5.6-8,9.81-5.59L553.59,138.1c4.2,2.43,6.63,8.86,5.42,14.37l-24.2,110.15C533.6,268.13,529.21,270.63,525,268.21Z" transform="translate(-164.56 -49.33)" fill="#d4ecff"/>
    <path id="Path_91" data-name="Path 91" d="M555,137.58,406.46,51.81a5.88,5.88,0,0,0-5.85-.25,6.09,6.09,0,0,1,4.43.77L553.59,138.1c4.2,2.43,6.63,8.86,5.42,14.37l-24.2,110.15a8.37,8.37,0,0,1-3.95,5.84c2.51-.55,4.6-2.82,5.38-6.36L560.43,152C561.64,146.44,559.22,140,555,137.58Z" transform="translate(-164.56 -49.33)" fill="#fff"/>
    <path id="Path_92" data-name="Path 92" d="M521.79,260,382.08,179.39c-3.85-2.22-6.07-8.11-5-13.15L399.26,65.45c1.11-5.05,5.13-7.34,9-5.12L547.94,141c3.85,2.22,6.07,8.11,5,13.15L530.76,254.9C529.65,259.94,525.63,262.23,521.79,260Z" transform="translate(-164.56 -49.33)" fill="#fff"/>
    <path id="Path_93" data-name="Path 93" d="M521.79,260,382.08,179.39c-3.85-2.22-6.07-8.11-5-13.15L399.26,65.45c1.11-5.05,5.13-7.34,9-5.12L547.94,141c3.85,2.22,6.07,8.11,5,13.15L530.76,254.9C529.65,259.94,525.63,262.23,521.79,260Z" transform="translate(-164.56 -49.33)" fill="#173d7a"/>
    <path id="Path_94" data-name="Path 94" d="M523,259.52,383.29,178.89c-3.84-2.22-6.06-8.11-5-13.15L400.48,65A7.76,7.76,0,0,1,404,59.64c-2.22.57-4.05,2.65-4.74,5.81L377.12,166.24c-1.11,5,1.11,10.93,5,13.15L521.79,260a5.37,5.37,0,0,0,5.45.2,5.58,5.58,0,0,1-4.24-.68Z" transform="translate(-164.56 -49.33)" fill="#5793ce"/>
    <path id="Path_95" data-name="Path 95" d="M527.06,271.94l-20.31-2.68L375.67,193.58c-4.2-2.43-11.54-2.12-16.39.68l-92.89,53.61-12.28-1.62v7h0c-.08,1.61.84,3.16,2.82,4.31L405.5,343.29c4.2,2.42,11.54,2.12,16.39-.68l101.16-58.39c2.73-1.57,4.09-3.6,4-5.51h0Z" transform="translate(-164.56 -49.33)" fill="#173d7a"/>
    <path id="Path_96" data-name="Path 96" d="M428.57,224.12l-9.31-5.38H316.87l-50.48,29.13-12.28-1.62v7h0c-.08,1.61.84,3.16,2.82,4.31L405.5,343.29a15.38,15.38,0,0,0,8.46,1.58Z" transform="translate(-164.56 -49.33)" fill="#396caa"/>
    <path id="Path_97" data-name="Path 97" d="M259.56,247l-5.45-.71v7h0c-.08,1.61.84,3.16,2.82,4.31l2.62,1.51Z" transform="translate(-164.56 -49.33)" fill="#5793ce"/>
    <path id="Path_98" data-name="Path 98" d="M407,344a19.09,19.09,0,0,0,13.94-.86V327.58H407Z" transform="translate(-164.56 -49.33)" fill="#274f89"/>
    <path id="Path_99" data-name="Path 99" d="M405.5,336.33,256.94,250.56c-4.2-2.43-3.67-6.67,1.18-9.47l101.16-58.38c4.85-2.8,12.19-3.11,16.39-.68L524.23,267.8c4.2,2.43,3.67,6.66-1.18,9.46L421.89,335.65C417,338.45,409.7,338.75,405.5,336.33Z" transform="translate(-164.56 -49.33)" fill="#d4ecff"/>
    <path id="Path_100" data-name="Path 100" d="M523.05,274.72,421.89,333.1c-4.85,2.8-12.19,3.11-16.39.68L256.94,248a5.55,5.55,0,0,1-2.61-2.85c-.66,2,.18,4,2.61,5.4L405.5,336.33c4.2,2.42,11.54,2.12,16.39-.68l101.16-58.39c3.26-1.88,4.56-4.41,3.79-6.6A8,8,0,0,1,523.05,274.72Z" transform="translate(-164.56 -49.33)" fill="#fff"/>
    <path id="Path_101" data-name="Path 101" d="M320.13,222.16l-6.73-3.88c-.54-.31-.47-.85.16-1.21l7.93-4.58a2.35,2.35,0,0,1,2.11-.09l6.72,3.88c.54.31.47.86-.15,1.22l-7.94,4.58A2.3,2.3,0,0,1,320.13,222.16Z" transform="translate(-164.56 -49.33)" fill="#5793ce"/>
    <path id="Path_102" data-name="Path 102" d="M330.51,228.16l-6.73-3.88c-.53-.31-.47-.86.16-1.22l7.93-4.58a2.35,2.35,0,0,1,2.11-.09l6.72,3.88c.54.32.47.86-.15,1.22l-7.94,4.58a2.33,2.33,0,0,1-2.1.09Z" transform="translate(-164.56 -49.33)" fill="#5793ce"/>
    <path id="Path_103" data-name="Path 103" d="M340.89,234.15l-6.73-3.88c-.53-.31-.47-.86.16-1.22l7.93-4.58a2.32,2.32,0,0,1,2.11-.08l6.72,3.88c.54.31.47.85-.15,1.21L343,234.06A2.33,2.33,0,0,1,340.89,234.15Z" transform="translate(-164.56 -49.33)" fill="#5793ce"/>
    <path id="Path_104" data-name="Path 104" d="M355.24,229.2l-6.72-3.88c-.54-.31-.47-.86.15-1.22l6.66-3.84a2.36,2.36,0,0,1,2.11-.09l6.72,3.88c.54.31.47.86-.15,1.22l-6.66,3.84a2.36,2.36,0,0,1-2.11.09Z" transform="translate(-164.56 -49.33)" fill="#5793ce"/>
    <path id="Path_105" data-name="Path 105" d="M365.62,235.19l-6.72-3.88c-.54-.31-.47-.85.15-1.21l6.66-3.85a2.32,2.32,0,0,1,2.11-.08l6.72,3.88c.54.31.47.85-.15,1.21l-6.66,3.85a2.32,2.32,0,0,1-2.11.08Z" transform="translate(-164.56 -49.33)" fill="#5793ce"/>
    <path id="Path_106" data-name="Path 106" d="M376,241.19l-6.72-3.88c-.54-.32-.47-.86.15-1.22l6.66-3.84a2.36,2.36,0,0,1,2.11-.09l6.72,3.88c.54.31.47.85-.15,1.21l-6.66,3.85A2.36,2.36,0,0,1,376,241.19Z" transform="translate(-164.56 -49.33)" fill="#5793ce"/>
    <path id="Path_107" data-name="Path 107" d="M386.38,247.18l-6.72-3.88c-.54-.31-.47-.86.15-1.22l6.66-3.84a2.36,2.36,0,0,1,2.11-.09L395.3,242c.54.31.47.86-.15,1.22l-6.66,3.84a2.36,2.36,0,0,1-2.11.12Z" transform="translate(-164.56 -49.33)" fill="#5793ce"/>
    <path id="Path_108" data-name="Path 108" d="M396.76,253.17,390,249.29c-.54-.31-.47-.85.15-1.21l6.66-3.85a2.36,2.36,0,0,1,2.11-.09l6.72,3.88c.54.32.47.86-.15,1.22l-6.66,3.85a2.35,2.35,0,0,1-2.07.08Z" transform="translate(-164.56 -49.33)" fill="#5793ce"/>
    <path id="Path_109" data-name="Path 109" d="M407.14,259.17l-6.72-3.89c-.54-.31-.47-.85.15-1.21l6.66-3.85a2.35,2.35,0,0,1,2.11-.08l6.72,3.88c.54.31.47.85-.15,1.21l-6.66,3.85a2.36,2.36,0,0,1-2.11.09Z" transform="translate(-164.56 -49.33)" fill="#5793ce"/>
    <path id="Path_110" data-name="Path 110" d="M417.52,265.16l-6.72-3.88c-.54-.31-.47-.86.15-1.22l6.66-3.84a2.36,2.36,0,0,1,2.11-.09l6.72,3.88c.54.31.47.86-.15,1.22l-6.66,3.84a2.36,2.36,0,0,1-2.11.09Z" transform="translate(-164.56 -49.33)" fill="#5793ce"/>
    <path id="Path_111" data-name="Path 111" d="M427.9,271.15l-6.72-3.88c-.54-.31-.47-.86.15-1.21l6.66-3.85a2.36,2.36,0,0,1,2.11-.09l6.72,3.88c.54.31.47.86-.15,1.22L430,271.06a2.36,2.36,0,0,1-2.1.09Z" transform="translate(-164.56 -49.33)" fill="#5793ce"/>
    <path id="Path_112" data-name="Path 112" d="M438.28,277.14l-6.72-3.88c-.54-.31-.47-.85.15-1.21l6.66-3.85a2.32,2.32,0,0,1,2.11-.08L447.2,272c.54.31.47.85-.15,1.21l-6.66,3.85a2.32,2.32,0,0,1-2.11.08Z" transform="translate(-164.56 -49.33)" fill="#5793ce"/>
    <path id="Path_113" data-name="Path 113" d="M448.66,283.14l-6.72-3.88c-.54-.32-.47-.86.15-1.22l6.66-3.84a2.36,2.36,0,0,1,2.11-.09l6.72,3.88c.54.31.47.86-.15,1.21l-6.66,3.85A2.35,2.35,0,0,1,448.66,283.14Z" transform="translate(-164.56 -49.33)" fill="#5793ce"/>
    <path id="Path_114" data-name="Path 114" d="M370.54,226.36l-6.72-3.88c-.54-.31-.48-.85.15-1.21l6.66-3.85a2.3,2.3,0,0,1,2.1-.08l6.72,3.88c.54.31.48.85-.15,1.21l-6.66,3.85a2.3,2.3,0,0,1-2.1.08Z" transform="translate(-164.56 -49.33)" fill="#5793ce"/>
    <path id="Path_115" data-name="Path 115" d="M360,220.28l-6.72-3.88c-.54-.31-.47-.86.15-1.22l6.66-3.84a2.35,2.35,0,0,1,2.11-.09l6.72,3.88c.54.31.47.86-.15,1.22l-6.66,3.84a2.36,2.36,0,0,1-2.11.09Z" transform="translate(-164.56 -49.33)" fill="#5793ce"/>
    <path id="Path_116" data-name="Path 116" d="M349.45,214.19,335,205.83c-.54-.31-.47-.85.15-1.21l6.66-3.85a2.36,2.36,0,0,1,2.11-.09L358.37,209c.54.31.47.86-.16,1.22l-6.65,3.84a2.36,2.36,0,0,1-2.11.13Z" transform="translate(-164.56 -49.33)" fill="#5793ce"/>
    <path id="Path_117" data-name="Path 117" d="M356.83,206.78,345.08,200c-.54-.31-.47-.86.15-1.22l6.66-3.84a2.33,2.33,0,0,1,2.1-.09l11.75,6.78c.54.31.47.86-.15,1.22l-6.66,3.84A2.33,2.33,0,0,1,356.83,206.78Z" transform="translate(-164.56 -49.33)" fill="#5793ce"/>
    <path id="Path_118" data-name="Path 118" d="M380.92,232.36l-6.72-3.88c-.54-.32-.48-.86.15-1.22l6.66-3.84a2.33,2.33,0,0,1,2.1-.09l6.72,3.88c.54.31.48.85-.15,1.21L383,232.27A2.33,2.33,0,0,1,380.92,232.36Z" transform="translate(-164.56 -49.33)" fill="#5793ce"/>
    <path id="Path_119" data-name="Path 119" d="M391.3,238.35l-6.72-3.88c-.54-.31-.48-.86.15-1.22l6.66-3.84a2.33,2.33,0,0,1,2.1-.09l6.72,3.88c.54.31.48.86-.15,1.22l-6.66,3.84a2.33,2.33,0,0,1-2.1.09Z" transform="translate(-164.56 -49.33)" fill="#5793ce"/>
    <path id="Path_120" data-name="Path 120" d="M401.68,244.34,395,240.46c-.54-.31-.48-.85.15-1.21l6.66-3.85a2.33,2.33,0,0,1,2.1-.09l6.72,3.88c.54.32.48.86-.15,1.22l-6.66,3.85a2.36,2.36,0,0,1-2.14.08Z" transform="translate(-164.56 -49.33)" fill="#5793ce"/>
    <path id="Path_121" data-name="Path 121" d="M412.06,250.34l-6.72-3.89c-.54-.31-.48-.85.15-1.21l6.66-3.85a2.33,2.33,0,0,1,2.1-.08l6.72,3.88c.54.31.48.85-.15,1.21l-6.66,3.85a2.33,2.33,0,0,1-2.1.09Z" transform="translate(-164.56 -49.33)" fill="#5793ce"/>
    <path id="Path_122" data-name="Path 122" d="M422.44,256.33l-6.72-3.88c-.54-.31-.48-.86.15-1.22l6.66-3.84a2.33,2.33,0,0,1,2.1-.09l6.72,3.88c.54.31.48.86-.15,1.22l-6.66,3.84a2.33,2.33,0,0,1-2.1.09Z" transform="translate(-164.56 -49.33)" fill="#5793ce"/>
    <path id="Path_123" data-name="Path 123" d="M432.82,262.32l-6.72-3.88c-.54-.31-.48-.86.15-1.22l6.66-3.84a2.33,2.33,0,0,1,2.1-.09l6.72,3.88c.54.31.48.86-.15,1.22l-6.66,3.84a2.33,2.33,0,0,1-2.1.09Z" transform="translate(-164.56 -49.33)" fill="#5793ce"/>
    <path id="Path_124" data-name="Path 124" d="M443.2,268.31l-6.72-3.88c-.54-.31-.48-.85.15-1.21l6.66-3.85a2.3,2.3,0,0,1,2.1-.08l6.72,3.88c.54.31.48.85-.15,1.21l-6.66,3.85a2.3,2.3,0,0,1-2.1.08Z" transform="translate(-164.56 -49.33)" fill="#5793ce"/>
    <path id="Path_125" data-name="Path 125" d="M453.58,274.31l-6.72-3.88c-.54-.32-.48-.86.15-1.22l6.66-3.84a2.33,2.33,0,0,1,2.1-.09l6.72,3.88c.54.31.48.85-.15,1.21l-6.66,3.85a2.33,2.33,0,0,1-2.1.09Z" transform="translate(-164.56 -49.33)" fill="#5793ce"/>
    <path id="Path_126" data-name="Path 126" d="M464,280.3l-6.72-3.88c-.54-.31-.48-.86.15-1.22l6.66-3.84a2.33,2.33,0,0,1,2.1-.09l6.72,3.88c.54.31.48.86-.15,1.22l-6.66,3.84a2.33,2.33,0,0,1-2.1.09Z" transform="translate(-164.56 -49.33)" fill="#5793ce"/>
    <path id="Path_127" data-name="Path 127" d="M482.41,291l-14.67-8.46c-.54-.31-.47-.86.16-1.22l6.66-3.84a2.33,2.33,0,0,1,2.1-.09l14.67,8.47c.54.31.47.85-.15,1.21l-6.66,3.85A2.32,2.32,0,0,1,482.41,291Z" transform="translate(-164.56 -49.33)" fill="#5793ce"/>
    <path id="Path_128" data-name="Path 128" d="M502.62,279.29l-12.38-7.15c-.54-.31-.47-.86.15-1.22l6.66-3.84a2.35,2.35,0,0,1,2.11-.09l12.38,7.15c.54.31.47.85-.16,1.21l-6.66,3.85a2.33,2.33,0,0,1-2.1.09Z" transform="translate(-164.56 -49.33)" fill="#5793ce"/>
    <path id="Path_129" data-name="Path 129" d="M399.09,231.18l-6.72-3.88c-.54-.31-.47-.85.15-1.21l6.66-3.85a2.32,2.32,0,0,1,2.11-.08L408,226c.54.31.47.85-.15,1.21l-6.66,3.85a2.32,2.32,0,0,1-2.1.12Z" transform="translate(-164.56 -49.33)" fill="#5793ce"/>
    <path id="Path_130" data-name="Path 130" d="M388.46,225l-6.73-3.88c-.54-.31-.47-.85.16-1.21l6.66-3.85a2.33,2.33,0,0,1,2.1-.09l6.72,3.88c.54.32.47.86-.15,1.22L390.56,225a2.33,2.33,0,0,1-2.1,0Z" transform="translate(-164.56 -49.33)" fill="#5793ce"/>
    <path id="Path_131" data-name="Path 131" d="M377.82,218.9,371.1,215c-.54-.31-.48-.86.15-1.22l6.66-3.84a2.33,2.33,0,0,1,2.1-.09l6.72,3.88c.54.31.48.86-.15,1.22l-6.66,3.84a2.33,2.33,0,0,1-2.1.11Z" transform="translate(-164.56 -49.33)" fill="#5793ce"/>
    <path id="Path_132" data-name="Path 132" d="M367.18,212.76l-6.72-3.88c-.54-.31-.47-.86.15-1.22l6.66-3.84a2.33,2.33,0,0,1,2.1-.09l6.73,3.88c.54.31.47.86-.15,1.22l-6.66,3.84A2.36,2.36,0,0,1,367.18,212.76Z" transform="translate(-164.56 -49.33)" fill="#5793ce"/>
    <path id="Path_133" data-name="Path 133" d="M409.47,237.18l-6.72-3.88c-.54-.32-.47-.86.15-1.22l6.66-3.84a2.36,2.36,0,0,1,2.11-.09l6.72,3.88c.54.31.47.85-.15,1.21l-6.66,3.85a2.35,2.35,0,0,1-2.11.09Z" transform="translate(-164.56 -49.33)" fill="#5793ce"/>
    <path id="Path_134" data-name="Path 134" d="M419.85,243.17l-6.72-3.88c-.54-.31-.47-.86.15-1.22l6.66-3.84a2.36,2.36,0,0,1,2.11-.09l6.72,3.88c.54.31.47.86-.15,1.22L422,243.08a2.35,2.35,0,0,1-2.15.09Z" transform="translate(-164.56 -49.33)" fill="#5793ce"/>
    <path id="Path_135" data-name="Path 135" d="M430.23,249.16l-6.72-3.88c-.54-.31-.47-.85.15-1.21l6.66-3.85a2.36,2.36,0,0,1,2.11-.09l6.72,3.88c.54.32.47.86-.15,1.22l-6.66,3.85a2.35,2.35,0,0,1-2.11.08Z" transform="translate(-164.56 -49.33)" fill="#5793ce"/>
    <path id="Path_136" data-name="Path 136" d="M440.61,255.16l-6.72-3.89c-.54-.31-.47-.85.15-1.21l6.66-3.85a2.35,2.35,0,0,1,2.11-.08l6.72,3.88c.54.31.47.85-.15,1.21l-6.66,3.85A2.35,2.35,0,0,1,440.61,255.16Z" transform="translate(-164.56 -49.33)" fill="#5793ce"/>
    <path id="Path_137" data-name="Path 137" d="M451,261.15l-6.72-3.88c-.54-.31-.47-.86.15-1.22l6.66-3.84a2.36,2.36,0,0,1,2.11-.09l6.72,3.88c.54.31.47.86-.15,1.22l-6.66,3.84A2.35,2.35,0,0,1,451,261.15Z" transform="translate(-164.56 -49.33)" fill="#5793ce"/>
    <path id="Path_138" data-name="Path 138" d="M461.37,267.14l-6.72-3.88c-.54-.31-.47-.86.15-1.21l6.66-3.85a2.36,2.36,0,0,1,2.11-.09l6.72,3.88c.54.32.47.86-.15,1.22l-6.66,3.84A2.35,2.35,0,0,1,461.37,267.14Z" transform="translate(-164.56 -49.33)" fill="#5793ce"/>
    <path id="Path_139" data-name="Path 139" d="M471.75,273.13,465,269.25c-.54-.31-.47-.85.15-1.21l6.66-3.85a2.32,2.32,0,0,1,2.11-.08l6.72,3.88c.54.31.47.85-.15,1.21l-6.66,3.85a2.32,2.32,0,0,1-2.08.08Z" transform="translate(-164.56 -49.33)" fill="#5793ce"/>
    <path id="Path_140" data-name="Path 140" d="M482.13,279.13l-6.72-3.88c-.54-.31-.47-.86.15-1.22l6.66-3.84a2.36,2.36,0,0,1,2.11-.09l6.72,3.88c.54.31.47.86-.15,1.21L484.24,279A2.35,2.35,0,0,1,482.13,279.13Z" transform="translate(-164.56 -49.33)" fill="#5793ce"/>
    <path id="Path_141" data-name="Path 141" d="M492.51,285.12l-6.72-3.88c-.54-.31-.47-.86.15-1.22l6.66-3.84a2.36,2.36,0,0,1,2.11-.09l6.72,3.88c.54.31.47.86-.15,1.22L494.62,285a2.35,2.35,0,0,1-2.11.12Z" transform="translate(-164.56 -49.33)" fill="#5793ce"/>
    <path id="Path_142" data-name="Path 142" d="M393.63,216.36l-6.72-3.88c-.54-.31-.47-.86.15-1.22l6.66-3.84a2.33,2.33,0,0,1,2.1-.09l6.73,3.88c.53.31.47.86-.16,1.22l-6.66,3.84a2.33,2.33,0,0,1-2.1.09Z" transform="translate(-164.56 -49.33)" fill="#5793ce"/>
    <path id="Path_143" data-name="Path 143" d="M383.3,210.4l-6.72-3.88c-.54-.31-.47-.86.15-1.22l6.66-3.84a2.35,2.35,0,0,1,2.11-.09l6.72,3.88c.54.31.47.86-.15,1.22l-6.66,3.84a2.36,2.36,0,0,1-2.11.09Z" transform="translate(-164.56 -49.33)" fill="#5793ce"/>
    <path id="Path_144" data-name="Path 144" d="M373,204.43l-6.72-3.88c-.54-.31-.47-.85.15-1.21l6.66-3.85a2.32,2.32,0,0,1,2.11-.08l6.72,3.88c.54.31.47.85-.15,1.21l-6.66,3.85a2.32,2.32,0,0,1-2.11.08Z" transform="translate(-164.56 -49.33)" fill="#5793ce"/>
    <path id="Path_145" data-name="Path 145" d="M362.64,198.47l-6.72-3.88c-.54-.31-.47-.85.15-1.21l6.66-3.85a2.36,2.36,0,0,1,2.11-.09l6.72,3.88c.54.32.47.86-.15,1.22l-6.66,3.84a2.35,2.35,0,0,1-2.11.09Z" transform="translate(-164.56 -49.33)" fill="#5793ce"/>
    <path id="Path_146" data-name="Path 146" d="M373.26,192.34l-6.72-3.88c-.54-.31-.47-.86.15-1.22L368.9,186a2.3,2.3,0,0,1,2.1-.08l6.72,3.88c.54.31.47.85-.15,1.21l-2.2,1.27a2.35,2.35,0,0,1-2.11.06Z" transform="translate(-164.56 -49.33)" fill="#5793ce"/>
    <path id="Path_147" data-name="Path 147" d="M386.74,200.12,380,196.24c-.54-.31-.47-.85.15-1.21l2.2-1.28a2.35,2.35,0,0,1,2.11-.08l6.72,3.88c.54.31.47.85-.15,1.21l-2.2,1.27A2.35,2.35,0,0,1,386.74,200.12Z" transform="translate(-164.56 -49.33)" fill="#5793ce"/>
    <path id="Path_148" data-name="Path 148" d="M397,206.06l-6.72-3.88c-.54-.31-.48-.86.15-1.22l2.2-1.27a2.3,2.3,0,0,1,2.1-.08l6.73,3.88c.54.31.47.85-.15,1.21l-2.18,1.3a2.33,2.33,0,0,1-2.13.06Z" transform="translate(-164.56 -49.33)" fill="#5793ce"/>
    <path id="Path_149" data-name="Path 149" d="M407.31,212l-6.72-3.88c-.54-.31-.47-.86.15-1.22l2.2-1.27a2.36,2.36,0,0,1,2.11-.09l6.72,3.88c.54.32.47.86-.15,1.22l-2.2,1.27A2.35,2.35,0,0,1,407.31,212Z" transform="translate(-164.56 -49.33)" fill="#5793ce"/>
    <path id="Path_150" data-name="Path 150" d="M417.6,217.94l-6.72-3.88c-.54-.32-.47-.86.15-1.22l2.2-1.27a2.35,2.35,0,0,1,2.11-.09l6.72,3.88c.54.31.47.86-.15,1.22l-2.21,1.27a2.33,2.33,0,0,1-2.1.09Z" transform="translate(-164.56 -49.33)" fill="#5793ce"/>
    <path id="Path_151" data-name="Path 151" d="M475,251.09l-6.72-3.88c-.54-.31-.47-.86.15-1.22l2.2-1.27a2.35,2.35,0,0,1,2.11-.09l6.72,3.88c.54.32.47.86-.15,1.22l-2.2,1.27a2.36,2.36,0,0,1-2.11.09Z" transform="translate(-164.56 -49.33)" fill="#5793ce"/>
    <path id="Path_152" data-name="Path 152" d="M485.31,257l-6.73-3.88c-.54-.32-.47-.86.16-1.22l2.2-1.27a2.33,2.33,0,0,1,2.1-.09l6.72,3.88c.54.31.48.86-.15,1.22l-2.2,1.27a2.33,2.33,0,0,1-2.1.09Z" transform="translate(-164.56 -49.33)" fill="#5793ce"/>
    <path id="Path_153" data-name="Path 153" d="M495.59,263l-6.72-3.89c-.54-.31-.47-.85.15-1.21l2.2-1.27a2.36,2.36,0,0,1,2.11-.09l6.72,3.88c.54.31.47.86-.15,1.22l-2.2,1.27A2.36,2.36,0,0,1,495.59,263Z" transform="translate(-164.56 -49.33)" fill="#5793ce"/>
    <path id="Path_154" data-name="Path 154" d="M505.88,268.9l-6.73-3.9c-.53-.31-.47-.85.16-1.21l2.2-1.27a2.33,2.33,0,0,1,2.1-.09l6.72,3.88c.54.31.48.86-.15,1.22l-2.2,1.27A2.3,2.3,0,0,1,505.88,268.9Z" transform="translate(-164.56 -49.33)" fill="#5793ce"/>
    <path id="Path_155" data-name="Path 155" d="M404,222.35l-6.72-3.88c-.54-.31-.47-.85.15-1.21l6.66-3.85a2.3,2.3,0,0,1,2.1-.08l6.73,3.88c.53.31.47.85-.16,1.21l-6.66,3.85A2.3,2.3,0,0,1,404,222.35Z" transform="translate(-164.56 -49.33)" fill="#5793ce"/>
    <path id="Path_156" data-name="Path 156" d="M414.39,228.35l-6.72-3.88c-.54-.32-.47-.86.15-1.22l6.66-3.84a2.33,2.33,0,0,1,2.1-.09l6.73,3.88c.54.31.47.85-.16,1.21l-6.66,3.85a2.33,2.33,0,0,1-2.1.09Z" transform="translate(-164.56 -49.33)" fill="#5793ce"/>
    <path id="Path_157" data-name="Path 157" d="M424.77,234.34l-6.72-3.88c-.54-.31-.47-.86.15-1.22l6.66-3.84a2.33,2.33,0,0,1,2.1-.09l6.73,3.88c.54.31.47.86-.16,1.22l-6.66,3.84a2.33,2.33,0,0,1-2.1.09Z" transform="translate(-164.56 -49.33)" fill="#5793ce"/>
    <path id="Path_158" data-name="Path 158" d="M435.15,240.33l-6.72-3.88c-.54-.31-.47-.85.15-1.21l6.66-3.85a2.33,2.33,0,0,1,2.1-.09l6.73,3.88c.54.32.47.86-.16,1.22l-6.66,3.85A2.33,2.33,0,0,1,435.15,240.33Z" transform="translate(-164.56 -49.33)" fill="#5793ce"/>
    <path id="Path_159" data-name="Path 159" d="M445.53,246.33l-6.72-3.89c-.54-.31-.47-.85.15-1.21l6.66-3.85a2.33,2.33,0,0,1,2.1-.08l6.73,3.88c.54.31.47.85-.16,1.21l-6.66,3.85a2.33,2.33,0,0,1-2.1.09Z" transform="translate(-164.56 -49.33)" fill="#5793ce"/>
    <path id="Path_160" data-name="Path 160" d="M455.91,252.32l-6.72-3.88c-.54-.31-.47-.86.15-1.22l6.66-3.84a2.33,2.33,0,0,1,2.1-.09l6.73,3.88c.54.31.47.86-.16,1.22L458,252.23a2.33,2.33,0,0,1-2.09.09Z" transform="translate(-164.56 -49.33)" fill="#5793ce"/>
    <path id="Path_161" data-name="Path 161" d="M466.29,258.31l-6.72-3.88c-.54-.31-.47-.86.15-1.21l6.66-3.85a2.33,2.33,0,0,1,2.1-.09l6.73,3.88c.54.31.47.86-.16,1.22l-6.66,3.84a2.33,2.33,0,0,1-2.1.09Z" transform="translate(-164.56 -49.33)" fill="#5793ce"/>
    <path id="Path_162" data-name="Path 162" d="M476.67,264.3,470,260.42c-.54-.31-.47-.85.15-1.21l6.66-3.85a2.3,2.3,0,0,1,2.1-.08l6.73,3.88c.54.31.47.85-.16,1.21l-6.66,3.85a2.3,2.3,0,0,1-2.15.08Z" transform="translate(-164.56 -49.33)" fill="#5793ce"/>
    <path id="Path_163" data-name="Path 163" d="M487.05,270.3l-6.72-3.88c-.54-.32-.47-.86.15-1.22l6.66-3.84a2.33,2.33,0,0,1,2.1-.09l6.73,3.88c.54.31.47.86-.16,1.21l-6.66,3.85A2.33,2.33,0,0,1,487.05,270.3Z" transform="translate(-164.56 -49.33)" fill="#5793ce"/>
    <path id="Path_164" data-name="Path 164" d="M344.66,223.09l-19.79-11.43c-.54-.31-.47-.85.15-1.21l6.66-3.85a2.35,2.35,0,0,1,2.11-.08L353.58,218c.54.31.47.85-.15,1.21L346.77,223A2.32,2.32,0,0,1,344.66,223.09Z" transform="translate(-164.56 -49.33)" fill="#5793ce"/>
    <path id="Path_165" data-name="Path 165" d="M472.19,296.72l-19.8-11.43c-.54-.31-.47-.86.15-1.22l6.66-3.84a2.35,2.35,0,0,1,2.11-.09l19.79,11.43c.54.31.47.86-.15,1.22l-6.66,3.84A2.33,2.33,0,0,1,472.19,296.72Z" transform="translate(-164.56 -49.33)" fill="#5793ce"/>
    <path id="Path_166" data-name="Path 166" d="M430.67,286,424,282.11c-.54-.31-.47-.86.15-1.22l7.94-4.58a2.3,2.3,0,0,1,2.1-.08l6.72,3.88c.54.31.48.85-.15,1.21l-7.93,4.58a2.35,2.35,0,0,1-2.16.1Z" transform="translate(-164.56 -49.33)" fill="#5793ce"/>
    <path id="Path_167" data-name="Path 167" d="M355.29,242.47l-10.75-6.21c-.53-.31-.47-.85.16-1.21l7.93-4.58a2.35,2.35,0,0,1,2.11-.09l10.74,6.21c.54.31.48.85-.15,1.21l-7.93,4.58A2.35,2.35,0,0,1,355.29,242.47Z" transform="translate(-164.56 -49.33)" fill="#5793ce"/>
    <path id="Path_168" data-name="Path 168" d="M420.67,280.22,409.92,274c-.54-.31-.47-.86.15-1.22l7.94-4.58a2.3,2.3,0,0,1,2.1-.08l10.75,6.2c.54.31.48.86-.15,1.22l-7.93,4.58a2.35,2.35,0,0,1-2.11.1Z" transform="translate(-164.56 -49.33)" fill="#5793ce"/>
    <path id="Path_169" data-name="Path 169" d="M370.27,251.12l-10.75-6.21c-.54-.31-.47-.86.15-1.22l7.94-4.58a2.3,2.3,0,0,1,2.1-.08l10.75,6.2c.54.31.47.86-.15,1.22L372.38,251a2.36,2.36,0,0,1-2.11.12Z" transform="translate(-164.56 -49.33)" fill="#5793ce"/>
    <path id="Path_170" data-name="Path 170" d="M369.78,239.07l46.74,27c.58.34.58.88,0,1.21l-8.09,4.67a2.29,2.29,0,0,1-2.1,0l-46.74-27Z" transform="translate(-164.56 -49.33)" fill="#5793ce"/>
    <path id="Path_171" data-name="Path 171" d="M459.68,296.86l7.49,4.32c.44.25.39.7-.12,1l-3.25,1.88a1.94,1.94,0,0,1-1.72.07l-7.49-4.32c-.44-.26-.39-.7.12-1l3.25-1.87a1.88,1.88,0,0,1,1.72-.08Z" transform="translate(-164.56 -49.33)" fill="#5793ce"/>
    <path id="Path_172" data-name="Path 172" d="M449.22,290.81l7.49,4.33c.44.25.38.7-.13,1L453.34,298a2,2,0,0,1-1.73.07l-7.49-4.33c-.44-.25-.38-.7.13-1l3.24-1.88A2,2,0,0,1,449.22,290.81Z" transform="translate(-164.56 -49.33)" fill="#5793ce"/>
    <path id="Path_173" data-name="Path 173" d="M438.84,284.82l7.49,4.32c.44.26.38.7-.13,1L443,292a1.9,1.9,0,0,1-1.73.07l-7.49-4.32c-.44-.25-.38-.7.13-1l3.24-1.87A1.93,1.93,0,0,1,438.84,284.82Z" transform="translate(-164.56 -49.33)" fill="#5793ce"/>
    <path id="Path_174" data-name="Path 174" d="M455,287.5l7.49,4.33c.44.25.38.7-.13,1l-3.24,1.88a2,2,0,0,1-1.73.07l-7.48-4.33c-.45-.25-.39-.7.12-1l3.25-1.88a1.94,1.94,0,0,1,1.72-.07Z" transform="translate(-164.56 -49.33)" fill="#5793ce"/>
    <path id="Path_175" data-name="Path 175" d="M331.39,121.23,275.48,88.95l.72-3.64,55.91,32.29Z" fill="#d4ecff"/>
    <path id="Path_176" data-name="Path 176" d="M311.37,127.36l-39.03-22.53.72-3.63,39.02,22.53Z" fill="#d4ecff"/>
    <path id="Path_177" data-name="Path 177" d="M307.67,116.39l-33.76-19.5.72-3.63,33.76,19.49Z" fill="#fff"/>
    <path id="Path_178" data-name="Path 178" d="M329.82,129.17l-16.88-9.75.72-3.63,16.88,9.75Z" fill="#ff2c9c"/>
    <path id="Path_179" data-name="Path 179" d="M269.52,57.24l-16.88-9.75.72-3.64,16.88,9.75Z" fill="#d4ecff"/>
    <path id="Path_180" data-name="Path 180" d="M267.69,65.69l-16.88-9.75.72-3.64,16.88,9.75Z" fill="#fff"/>
    <path id="Path_181" data-name="Path 181" d="M350.55,182.85l-16.88-9.75.72-3.63,16.88,9.75Z" fill="#d4ecff"/>
    <path id="Path_182" data-name="Path 182" d="M264.03,82.58l-16.88-9.75.72-3.63,16.88,9.74Z" fill="#d4ecff"/>
    <path id="Path_183" data-name="Path 183" d="M465.07,134.53a2.12,2.12,0,0,1-3,.94,2.64,2.64,0,0,1-1.08-3.32,2.1,2.1,0,0,1,3-.93,2.63,2.63,0,0,1,1.08,3.31Z" transform="translate(-164.56 -49.33)" fill="#ff2c9c"/>
    <path id="Path_184" data-name="Path 184" d="M472.34,138.73a2.11,2.11,0,0,1-3,.93,2.64,2.64,0,0,1-1.08-3.31,2.11,2.11,0,0,1,3-.94,2.65,2.65,0,0,1,1.08,3.32Z" transform="translate(-164.56 -49.33)" fill="#fff"/>
    <path id="Path_185" data-name="Path 185" d="M479.61,142.93a2.1,2.1,0,0,1-3,.93,2.64,2.64,0,0,1-1.09-3.31,2.11,2.11,0,0,1,3-.94,2.64,2.64,0,0,1,1.09,3.32Z" transform="translate(-164.56 -49.33)" fill="#d4ecff"/>
    <path id="Path_186" data-name="Path 186" d="M486.88,147.13a2.1,2.1,0,0,1-3,.93,2.64,2.64,0,0,1-1.09-3.31,2.11,2.11,0,0,1,3-.94A2.65,2.65,0,0,1,486.88,147.13Z" transform="translate(-164.56 -49.33)" fill="#ff2c9c"/>
    <path id="Path_187" data-name="Path 187" d="M366,298.43l-46.35-26.76c-1.35-.78-1.18-2.14.38-3l28-16.15a5.86,5.86,0,0,1,5.27-.22L399.63,279c1.35.78,1.18,2.14-.38,3l-28,16.15a5.84,5.84,0,0,1-5.25.28Z" transform="translate(-164.56 -49.33)" fill="#fff"/>
    <g id="Group_132" data-name="Group 132" opacity="0.3">
      <g id="Group_131" data-name="Group 131" clip-path="url(#clip-path)">
        <path id="Path_188" data-name="Path 188" d="M466.6,177.91c3.19,1.85,3.19,4.85,0,6.69l-54.27,31.33a3.5,3.5,0,0,1-3.18,0,1,1,0,0,1,0-1.83l54.27-31.34c1.44-.83,1.44-2.18,0-3l-5.26-3c.59-.88,1.12-1.79,1.64-2.73Z" transform="translate(-164.56 -49.33)" fill="#d4ecff"/>
        <path id="Path_189" data-name="Path 189" d="M389.74,202.89,444,171.55a12.84,12.84,0,0,1,11.58,0L459.8,174c-.52.94-1.05,1.85-1.64,2.73l-5.75-3.32a5.78,5.78,0,0,0-5.22,0l-54.28,31.33a3.48,3.48,0,0,1-3.17,0,1,1,0,0,1,0-1.85Z" transform="translate(-164.56 -49.33)" fill="#5793ce"/>
        <path id="Path_190" data-name="Path 190" d="M224.52,154.54l-.01-76.32,56.88-31.7,7.95-.53,7.69,4.98,4.72,4.11-55.41,87.87-18.09,10.67Z" fill="#5793ce"/>
        <path id="Path_191" data-name="Path 191" d="M245.55,164.17l-17-9.81V80.61l17.53,8.14Z" fill="#79b1e0"/>
        <path id="Path_192" data-name="Path 192" d="M304.43,55.67v76.19l-59.7,34.15-.8-.32V89.39Z" fill="#d4ecff"/>
        <path id="Path_193" data-name="Path 193" d="M435.41,105.64l11.87-6.82a5.81,5.81,0,0,1,4.91.15l11,6.36c.86.49,1.2,1.16,1,1.8l-30,17.92L410.1,139.83l-17.05-9.89Z" transform="translate(-164.56 -49.33)" fill="#fff"/>
        <path id="Path_194" data-name="Path 194" d="M410.64,137.53v78.78a3.26,3.26,0,0,1-1.49-.38,1.13,1.13,0,0,1-.66-.9h0v-76.3Z" transform="translate(-164.56 -49.33)" fill="#5793ce"/>
        <path id="Path_195" data-name="Path 195" d="M224.51,79.17v-.95h.31l.09.65Z" fill="#fff"/>
        <path id="Path_196" data-name="Path 196" d="M243.93,90.38v-.97l.29.41Z" fill="#fff"/>
        <path id="Path_197" data-name="Path 197" d="M412.33,139.63,466.6,108.3c3.19-1.85,3.19-4.85,0-6.69l-11-6.36a12.84,12.84,0,0,0-11.58,0l-54.27,31.34a1,1,0,0,0,0,1.83,3.48,3.48,0,0,0,3.17,0L447.2,97.09a5.78,5.78,0,0,1,5.22,0l11,6.36c1.44.83,1.44,2.18,0,3L409.15,137.8a1,1,0,0,0,0,1.83A3.5,3.5,0,0,0,412.33,139.63Z" transform="translate(-164.56 -49.33)" fill="#d4ecff"/>
        <path id="Path_198" data-name="Path 198" d="M261.91,126.42l28.2-16.28V81.86l-28.2,16.29Z" fill="#fff"/>
        <path id="Path_199" data-name="Path 199" d="M389.74,128.42a3.48,3.48,0,0,0,3.17,0l54.28-31.33a5.78,5.78,0,0,1,5.22,0l11,6.36c.94.54,1.27,1.31,1,2a2.16,2.16,0,0,0-1-1l-11-6.36a5.78,5.78,0,0,0-5.22,0l-54.28,31.34a3.54,3.54,0,0,1-3.17,0c-.67-.39-.83-1-.49-1.42A1.46,1.46,0,0,0,389.74,128.42Z" transform="translate(-164.56 -49.33)" fill="#fff"/>
        <path id="Path_200" data-name="Path 200" d="M409.15,139.63a3.5,3.5,0,0,0,3.18,0L466.6,108.3a4.43,4.43,0,0,0,2.35-2.84c.25,1.37-.53,2.79-2.35,3.84l-54.27,31.34a3.56,3.56,0,0,1-3.18,0c-.67-.39-.82-.95-.48-1.42a1.52,1.52,0,0,0,.48.41Z" transform="translate(-164.56 -49.33)" fill="#fff"/>
        <path id="Path_201" data-name="Path 201" d="M491.55,192.68c3.19,1.85,3.19,4.85,0,6.69L437.28,230.7a3.5,3.5,0,0,1-3.18,0,1,1,0,0,1,0-1.83l54.27-31.34c1.44-.83,1.44-2.18,0-3l-5.26-3c.59-.88,1.12-1.79,1.64-2.72Z" transform="translate(-164.56 -49.33)" fill="#ff2c9c"/>
        <path id="Path_202" data-name="Path 202" d="M414.69,217.66,469,186.33a12.77,12.77,0,0,1,11.58,0l4.21,2.43c-.52.93-1.05,1.84-1.64,2.72l-5.75-3.32a5.78,5.78,0,0,0-5.22,0L417.87,219.5a3.56,3.56,0,0,1-3.18,0,1,1,0,0,1,0-1.84Z" transform="translate(-164.56 -49.33)" fill="#d3008d"/>
        <path id="Path_203" data-name="Path 203" d="M249.47,169.31V92.99l56.87-31.7,7.95-.53,7.69,4.99,4.72,4.1-55.41,87.88L253.2,168.39Z" fill="#d3008d"/>
        <path id="Path_204" data-name="Path 204" d="M270.5,178.95l-17-9.82V95.38l17.53,8.14Z" fill="#e573b5"/>
        <path id="Path_205" data-name="Path 205" d="M329.38,70.44v76.19l-59.7,34.16-.8-.32V104.16Z" fill="#ff2c9c"/>
        <path id="Path_206" data-name="Path 206" d="M460.36,120.41l11.87-6.82a5.81,5.81,0,0,1,4.91.15l11,6.36c.86.49,1.2,1.16,1,1.81l-30,17.91-24.08,14.79L418,144.71Z" transform="translate(-164.56 -49.33)" fill="#fff"/>
        <path id="Path_207" data-name="Path 207" d="M435.59,152.3v78.78a3.26,3.26,0,0,1-1.49-.38,1.1,1.1,0,0,1-.65-.9h0V153.5Z" transform="translate(-164.56 -49.33)" fill="#d3008d"/>
        <path id="Path_208" data-name="Path 208" d="M249.47,93.94v-.95h.3l.09.65Z" fill="#fff"/>
        <path id="Path_209" data-name="Path 209" d="M268.88,105.15v-.97l.3.41Z" fill="#fff"/>
        <path id="Path_210" data-name="Path 210" d="M437.28,154.4l54.27-31.33c3.19-1.84,3.19-4.84,0-6.69l-11-6.36A12.84,12.84,0,0,0,469,110l-54.27,31.34a1,1,0,0,0,0,1.83,3.5,3.5,0,0,0,3.18,0l54.27-31.33a5.78,5.78,0,0,1,5.22,0l11,6.36c1.44.83,1.44,2.18,0,3l-54.3,31.37a1,1,0,0,0,0,1.83,3.5,3.5,0,0,0,3.18,0Z" transform="translate(-164.56 -49.33)" fill="#ff2c9c"/>
        <path id="Path_211" data-name="Path 211" d="M286.86,141.19l28.2-16.28V96.64l-28.2,16.28Z" fill="#fff"/>
        <path id="Path_212" data-name="Path 212" d="M414.69,143.19a3.5,3.5,0,0,0,3.18,0l54.27-31.33a5.78,5.78,0,0,1,5.22,0l11,6.36c.95.54,1.27,1.31,1,2a2.24,2.24,0,0,0-1-1l-11-6.36a5.78,5.78,0,0,0-5.22,0L417.87,144.2a3.5,3.5,0,0,1-3.18,0c-.67-.39-.83-.95-.48-1.42a1.42,1.42,0,0,0,.48.41Z" transform="translate(-164.56 -49.33)" fill="#fff"/>
        <path id="Path_213" data-name="Path 213" d="M434.1,154.4a3.5,3.5,0,0,0,3.18,0l54.27-31.33a4.38,4.38,0,0,0,2.35-2.84c.25,1.37-.53,2.79-2.35,3.84l-54.27,31.34a3.56,3.56,0,0,1-3.18,0c-.66-.39-.82-.95-.48-1.42a1.519,1.519,0,0,0,.48.41Z" transform="translate(-164.56 -49.33)" fill="#fff"/>
        <path id="Path_214" data-name="Path 214" d="M517.19,208.47c3.19,1.85,3.19,4.84,0,6.69l-54.27,31.33a3.5,3.5,0,0,1-3.18,0,1,1,0,0,1,0-1.83L514,213.32c1.44-.83,1.44-2.18,0-3l-5.26-3c.59-.88,1.12-1.79,1.64-2.73Z" transform="translate(-164.56 -49.33)" fill="#d4ecff"/>
        <path id="Path_215" data-name="Path 215" d="M440.33,233.45l54.27-31.34a12.84,12.84,0,0,1,11.58,0l4.21,2.43c-.52.94-1.05,1.85-1.64,2.73L503,204a5.78,5.78,0,0,0-5.22,0L443.5,235.28a3.48,3.48,0,0,1-3.17,0,1,1,0,0,1,0-1.83Z" transform="translate(-164.56 -49.33)" fill="#5793ce"/>
        <path id="Path_216" data-name="Path 216" d="M275.11,185.1l-.01-76.32,56.88-31.7,7.95-.53,7.69,4.98,4.72,4.11-55.41,87.87-18.09,10.67Z" fill="#5793ce"/>
        <path id="Path_217" data-name="Path 217" d="M296.14,194.73l-17-9.81V111.17l17.53,8.14Z" fill="#79b1e0"/>
        <path id="Path_218" data-name="Path 218" d="M355.02,86.23v76.19l-59.7,34.15-.8-.32v-76.3Z" fill="#d4ecff"/>
        <path id="Path_219" data-name="Path 219" d="M486,136.2l11.87-6.82a5.81,5.81,0,0,1,4.91.15l11,6.35c.86.5,1.2,1.17,1,1.81l-30,17.92-24.09,14.78-17.05-9.89Z" transform="translate(-164.56 -49.33)" fill="#fff"/>
        <path id="Path_220" data-name="Path 220" d="M461.23,168.09v78.78a3.26,3.26,0,0,1-1.49-.38,1.13,1.13,0,0,1-.66-.9h0v-76.3Z" transform="translate(-164.56 -49.33)" fill="#5793ce"/>
        <path id="Path_221" data-name="Path 221" d="M275.1,109.73v-.95h.31l.09.65Z" fill="#fff"/>
        <path id="Path_222" data-name="Path 222" d="M294.52,120.94v-.97l.29.41Z" fill="#fff"/>
        <path id="Path_223" data-name="Path 223" d="M462.92,170.19l54.27-31.33c3.19-1.85,3.19-4.85,0-6.69l-11-6.36a12.84,12.84,0,0,0-11.58,0l-54.27,31.34a1,1,0,0,0,0,1.83,3.48,3.48,0,0,0,3.17,0l54.28-31.33a5.78,5.78,0,0,1,5.22,0L514,134c1.44.83,1.44,2.18,0,3l-54.27,31.33a1,1,0,0,0,0,1.84,3.5,3.5,0,0,0,3.19.02Z" transform="translate(-164.56 -49.33)" fill="#d4ecff"/>
        <path id="Path_224" data-name="Path 224" d="M312.5,156.98l28.2-16.29V112.42l-28.2,16.29Z" fill="#fff"/>
        <path id="Path_225" data-name="Path 225" d="M440.33,159a3.48,3.48,0,0,0,3.17,0l54.28-31.33a5.78,5.78,0,0,1,5.22,0L514,134c.94.54,1.27,1.31,1,2a2.16,2.16,0,0,0-1-1l-11-6.36a5.78,5.78,0,0,0-5.22,0L443.5,160a3.54,3.54,0,0,1-3.17,0c-.67-.39-.83-1-.49-1.42a1.461,1.461,0,0,0,.49.42Z" transform="translate(-164.56 -49.33)" fill="#fff"/>
        <path id="Path_226" data-name="Path 226" d="M459.74,170.19a3.5,3.5,0,0,0,3.18,0l54.27-31.33a4.43,4.43,0,0,0,2.35-2.84c.25,1.37-.53,2.79-2.35,3.84L462.92,171.2a3.56,3.56,0,0,1-3.18,0c-.67-.39-.82-.95-.48-1.43a1.43,1.43,0,0,0,.48.42Z" transform="translate(-164.56 -49.33)" fill="#fff"/>
      </g>
    </g>
    <g id="Group_133" data-name="Group 133" clip-path="url(#clip-path-2)">
      <path id="Path_228" data-name="Path 228" d="M466.6,177.91c3.19,1.85,3.19,4.85,0,6.69l-54.27,31.33a3.5,3.5,0,0,1-3.18,0,1,1,0,0,1,0-1.83l54.27-31.34c1.44-.83,1.44-2.18,0-3l-5.26-3c.59-.88,1.12-1.79,1.64-2.73Z" transform="translate(-164.56 -49.33)" fill="#d4ecff"/>
      <path id="Path_229" data-name="Path 229" d="M389.74,202.89,444,171.55a12.84,12.84,0,0,1,11.58,0L459.8,174c-.52.94-1.05,1.85-1.64,2.73l-5.75-3.32a5.78,5.78,0,0,0-5.22,0l-54.28,31.33a3.48,3.48,0,0,1-3.17,0,1,1,0,0,1,0-1.85Z" transform="translate(-164.56 -49.33)" fill="#5793ce"/>
      <path id="Path_230" data-name="Path 230" d="M224.52,154.54l-.01-76.32,56.88-31.7,7.95-.53,7.69,4.98,4.72,4.11-55.41,87.87-18.09,10.67Z" fill="#5793ce"/>
      <path id="Path_231" data-name="Path 231" d="M245.55,164.17l-17-9.81V80.61l17.53,8.14Z" fill="#79b1e0"/>
      <path id="Path_232" data-name="Path 232" d="M304.43,55.67v76.19l-59.7,34.15-.8-.32V89.39Z" fill="#d4ecff"/>
      <path id="Path_233" data-name="Path 233" d="M435.41,105.64l11.87-6.82a5.81,5.81,0,0,1,4.91.15l11,6.36c.86.49,1.2,1.16,1,1.8l-30,17.92L410.1,139.83l-17.05-9.89Z" transform="translate(-164.56 -49.33)" fill="#fff"/>
      <path id="Path_234" data-name="Path 234" d="M410.64,137.53v78.78a3.26,3.26,0,0,1-1.49-.38,1.13,1.13,0,0,1-.66-.9h0v-76.3Z" transform="translate(-164.56 -49.33)" fill="#5793ce"/>
      <path id="Path_235" data-name="Path 235" d="M224.51,79.17v-.95h.31l.09.65Z" fill="#fff"/>
      <path id="Path_236" data-name="Path 236" d="M243.93,90.38v-.97l.29.41Z" fill="#fff"/>
      <path id="Path_237" data-name="Path 237" d="M412.33,139.63,466.6,108.3c3.19-1.85,3.19-4.85,0-6.69l-11-6.36a12.84,12.84,0,0,0-11.58,0l-54.27,31.34a1,1,0,0,0,0,1.83,3.48,3.48,0,0,0,3.17,0L447.2,97.09a5.78,5.78,0,0,1,5.22,0l11,6.36c1.44.83,1.44,2.18,0,3L409.15,137.8a1,1,0,0,0,0,1.83A3.5,3.5,0,0,0,412.33,139.63Z" transform="translate(-164.56 -49.33)" fill="#d4ecff"/>
      <path id="Path_238" data-name="Path 238" d="M261.91,126.42l28.2-16.28V81.86l-28.2,16.29Z" fill="#fff"/>
      <path id="Path_239" data-name="Path 239" d="M389.74,128.42a3.48,3.48,0,0,0,3.17,0l54.28-31.33a5.78,5.78,0,0,1,5.22,0l11,6.36c.94.54,1.27,1.31,1,2a2.16,2.16,0,0,0-1-1l-11-6.36a5.78,5.78,0,0,0-5.22,0l-54.28,31.34a3.54,3.54,0,0,1-3.17,0c-.67-.39-.83-1-.49-1.42A1.46,1.46,0,0,0,389.74,128.42Z" transform="translate(-164.56 -49.33)" fill="#fff"/>
      <path id="Path_240" data-name="Path 240" d="M409.15,139.63a3.5,3.5,0,0,0,3.18,0L466.6,108.3a4.43,4.43,0,0,0,2.35-2.84c.25,1.37-.53,2.79-2.35,3.84l-54.27,31.34a3.56,3.56,0,0,1-3.18,0c-.67-.39-.82-.95-.48-1.42a1.52,1.52,0,0,0,.48.41Z" transform="translate(-164.56 -49.33)" fill="#fff"/>
      <path id="Path_241" data-name="Path 241" d="M491.55,192.68c3.19,1.85,3.19,4.85,0,6.69L437.28,230.7a3.5,3.5,0,0,1-3.18,0,1,1,0,0,1,0-1.83l54.27-31.34c1.44-.83,1.44-2.18,0-3l-5.26-3c.59-.88,1.12-1.79,1.64-2.72Z" transform="translate(-164.56 -49.33)" fill="#b10b78"/>
      <path id="Path_242" data-name="Path 242" d="M414.69,217.66,469,186.33a12.77,12.77,0,0,1,11.58,0l4.21,2.43c-.52.93-1.05,1.84-1.64,2.72l-5.75-3.32a5.78,5.78,0,0,0-5.22,0L417.87,219.5a3.56,3.56,0,0,1-3.18,0,1,1,0,0,1,0-1.84Z" transform="translate(-164.56 -49.33)" fill="#d3008d"/>
      <path id="Path_243" data-name="Path 243" d="M249.47,169.31V92.99l56.87-31.7,7.95-.53,7.69,4.99,4.72,4.1-55.41,87.88L253.2,168.39Z" fill="#851c61"/>
      <path id="Path_244" data-name="Path 244" d="M270.5,178.95l-17-9.82V95.38l17.53,8.14Z" fill="#c4468f"/>
      <path id="Path_245" data-name="Path 245" d="M329.38,70.44v76.19l-59.7,34.16-.8-.32V104.16l16.751-9.336Z" fill="#851c61"/>
      <path id="Path_246" data-name="Path 246" d="M460.36,120.41l11.87-6.82a5.81,5.81,0,0,1,4.91.15l11,6.36c.86.49,1.2,1.16,1,1.81l-30,17.91-24.08,14.79L418,144.71Z" transform="translate(-164.56 -49.33)" fill="#fff"/>
      <path id="Path_247" data-name="Path 247" d="M435.59,152.3v78.78a3.26,3.26,0,0,1-1.49-.38,1.1,1.1,0,0,1-.65-.9h0V153.5Z" transform="translate(-164.56 -49.33)" fill="#b10b78"/>
      <path id="Path_248" data-name="Path 248" d="M249.47,93.94v-.95h.3l.09.65Z" fill="#fff"/>
      <path id="Path_249" data-name="Path 249" d="M268.88,105.15v-.97l.3.41Z" fill="#fff"/>
      <path id="Path_250" data-name="Path 250" d="M437.28,154.4l54.27-31.33c3.19-1.84,3.19-4.84,0-6.69l-11-6.36A12.84,12.84,0,0,0,469,110l-54.27,31.34a1,1,0,0,0,0,1.83,3.5,3.5,0,0,0,3.18,0l54.27-31.33a5.78,5.78,0,0,1,5.22,0l11,6.36c1.44.83,1.44,2.18,0,3l-54.3,31.37a1,1,0,0,0,0,1.83,3.5,3.5,0,0,0,3.18,0Z" transform="translate(-164.56 -49.33)" fill="#851c61"/>
      <path id="Path_251" data-name="Path 251" d="M286.86,141.19l28.2-16.28V96.64l-28.2,16.28Z" fill="#fff"/>
      <path id="Path_252" data-name="Path 252" d="M414.69,143.19a3.5,3.5,0,0,0,3.18,0l54.27-31.33a5.78,5.78,0,0,1,5.22,0l11,6.36c.95.54,1.27,1.31,1,2a2.24,2.24,0,0,0-1-1l-11-6.36a5.78,5.78,0,0,0-5.22,0L417.87,144.2a3.5,3.5,0,0,1-3.18,0c-.67-.39-.83-.95-.48-1.42a1.42,1.42,0,0,0,.48.41Z" transform="translate(-164.56 -49.33)" fill="#fff"/>
      <path id="Path_253" data-name="Path 253" d="M434.1,154.4a3.5,3.5,0,0,0,3.18,0l54.27-31.33a4.38,4.38,0,0,0,2.35-2.84c.25,1.37-.53,2.79-2.35,3.84l-54.27,31.34a3.56,3.56,0,0,1-3.18,0c-.66-.39-.82-.95-.48-1.42a1.519,1.519,0,0,0,.48.41Z" transform="translate(-164.56 -49.33)" fill="#fff"/>
      <path id="Path_254" data-name="Path 254" d="M517.19,208.47c3.19,1.85,3.19,4.84,0,6.69l-54.27,31.33a3.5,3.5,0,0,1-3.18,0,1,1,0,0,1,0-1.83L514,213.32c1.44-.83,1.44-2.18,0-3l-5.26-3c.59-.88,1.12-1.79,1.64-2.73Z" transform="translate(-164.56 -49.33)" fill="#d4ecff"/>
      <path id="Path_255" data-name="Path 255" d="M440.33,233.45l54.27-31.34a12.84,12.84,0,0,1,11.58,0l4.21,2.43c-.52.94-1.05,1.85-1.64,2.73L503,204a5.78,5.78,0,0,0-5.22,0L443.5,235.28a3.48,3.48,0,0,1-3.17,0,1,1,0,0,1,0-1.83Z" transform="translate(-164.56 -49.33)" fill="#5793ce"/>
      <path id="Path_256" data-name="Path 256" d="M275.11,185.1l-.01-76.32,56.88-31.7,7.95-.53,7.69,4.98,4.72,4.11-55.41,87.87-18.09,10.67Z" fill="#5793ce"/>
      <path id="Path_257" data-name="Path 257" d="M296.14,194.73l-17-9.81V111.17l17.53,8.14Z" fill="#79b1e0"/>
      <path id="Path_258" data-name="Path 258" d="M355.02,86.23v76.19l-59.7,34.15-.8-.32v-76.3Z" fill="#d4ecff"/>
      <path id="Path_259" data-name="Path 259" d="M486,136.2l11.87-6.82a5.81,5.81,0,0,1,4.91.15l11,6.35c.86.5,1.2,1.17,1,1.81l-30,17.92-24.09,14.78-17.05-9.89Z" transform="translate(-164.56 -49.33)" fill="#fff"/>
      <path id="Path_260" data-name="Path 260" d="M461.23,168.09v78.78a3.26,3.26,0,0,1-1.49-.38,1.13,1.13,0,0,1-.66-.9h0v-76.3Z" transform="translate(-164.56 -49.33)" fill="#5793ce"/>
      <path id="Path_261" data-name="Path 261" d="M275.1,109.73v-.95h.31l.09.65Z" fill="#fff"/>
      <path id="Path_262" data-name="Path 262" d="M294.52,120.94v-.97l.29.41Z" fill="#fff"/>
      <path id="Path_263" data-name="Path 263" d="M462.92,170.19l54.27-31.33c3.19-1.85,3.19-4.85,0-6.69l-11-6.36a12.84,12.84,0,0,0-11.58,0l-54.27,31.34a1,1,0,0,0,0,1.83,3.48,3.48,0,0,0,3.17,0l54.28-31.33a5.78,5.78,0,0,1,5.22,0L514,134c1.44.83,1.44,2.18,0,3l-54.27,31.33a1,1,0,0,0,0,1.84,3.5,3.5,0,0,0,3.19.02Z" transform="translate(-164.56 -49.33)" fill="#d4ecff"/>
      <path id="Path_264" data-name="Path 264" d="M312.5,156.98l28.2-16.29V112.42l-28.2,16.29Z" fill="#fff"/>
      <path id="Path_265" data-name="Path 265" d="M440.33,159a3.48,3.48,0,0,0,3.17,0l54.28-31.33a5.78,5.78,0,0,1,5.22,0L514,134c.94.54,1.27,1.31,1,2a2.16,2.16,0,0,0-1-1l-11-6.36a5.78,5.78,0,0,0-5.22,0L443.5,160a3.54,3.54,0,0,1-3.17,0c-.67-.39-.83-1-.49-1.42a1.461,1.461,0,0,0,.49.42Z" transform="translate(-164.56 -49.33)" fill="#fff"/>
      <path id="Path_266" data-name="Path 266" d="M459.74,170.19a3.5,3.5,0,0,0,3.18,0l54.27-31.33a4.43,4.43,0,0,0,2.35-2.84c.25,1.37-.53,2.79-2.35,3.84L462.92,171.2a3.56,3.56,0,0,1-3.18,0c-.67-.39-.82-.95-.48-1.43a1.43,1.43,0,0,0,.48.42Z" transform="translate(-164.56 -49.33)" fill="#fff"/>
    </g>
    <path id="Path_268" data-name="Path 268" d="M540.36,331a8.58,8.58,0,0,0-7.77,0L432.35,388.9c-2.15,1.23-2.15,3.24,0,4.48a8.58,8.58,0,0,0,7.77,0l100.24-57.89C542.51,334.25,542.51,332.24,540.36,331Z" transform="translate(-164.56 -49.33)" fill="#173d7a" opacity="0.5"/>
    <path id="Path_269" data-name="Path 269" d="M557.49,299.64h0a.44.44,0,0,0-.47-.21L551,300.74l2.38,4.07,4.1-4.66a.42.42,0,0,0,.01-.51Z" transform="translate(-164.56 -49.33)" fill="#d4ecff"/>
    <path id="Path_270" data-name="Path 270" d="M555.1,302.63a3,3,0,0,0-1.39-2.36,1,1,0,0,0-.91-.11,38.69,38.69,0,0,0-19.94,5.33l-.44.26L540,318.57l2.23-1.48a38.63,38.63,0,0,0,11.62-12l1-1.56A1,1,0,0,0,555.1,302.63Z" transform="translate(-164.56 -49.33)" fill="#5793ce"/>
    <path id="Path_271" data-name="Path 271" d="M541.47,315.15a11.61,11.61,0,0,0-5.33-9.06c-2.91-1.65-5.26-.28-5.23,3.08a11.63,11.63,0,0,0,5.33,9.06C539.15,319.88,541.49,318.5,541.47,315.15Z" transform="translate(-164.56 -49.33)" fill="#d4ecff"/>
    <path id="Path_272" data-name="Path 272" d="M330.69,297.08l44.7-27.85-7.53-12.81-46.07,25.52Z" fill="#d4ecff"/>
    <path id="Path_273" data-name="Path 273" d="M497,342.38a13.75,13.75,0,0,0-6.29-10.71c-3.45-1.95-6.21-.32-6.18,3.64a13.72,13.72,0,0,0,6.29,10.7C494.3,348,497.07,346.34,497,342.38Z" transform="translate(-164.56 -49.33)" fill="#d4ecff"/>
    <path id="Path_274" data-name="Path 274" d="M494.49,343.88a13.75,13.75,0,0,0-6.29-10.71c-3.45-1.95-6.21-.32-6.18,3.64a13.72,13.72,0,0,0,6.29,10.7C491.75,349.46,494.52,347.84,494.49,343.88Z" transform="translate(-164.56 -49.33)" fill="#d4ecff"/>
    <rect id="Rectangle_5" data-name="Rectangle 5" width="68.6" height="17.56" transform="matrix(0.862, -0.507, 0.507, 0.862, 260.113, 318.164)" fill="#d4ecff"/>
    <path id="Path_275" data-name="Path 275" d="M435.35,378.64a13.75,13.75,0,0,0-6.29-10.71c-3.44-1.95-6.21-.32-6.18,3.64a13.72,13.72,0,0,0,6.29,10.7C432.62,384.23,435.38,382.6,435.35,378.64Z" transform="translate(-164.56 -49.33)" fill="#d4ecff"/>
    <path id="Path_276" data-name="Path 276" d="M433.12,377.37a9.1,9.1,0,0,0-4.25-6.5c-2.21-1.25-3.89-.37-3.76,2a9.07,9.07,0,0,0,4.25,6.5C431.57,380.59,433.26,379.71,433.12,377.37Z" transform="translate(-164.56 -49.33)" fill="#396caa"/>
    <path id="Path_277" data-name="Path 277" d="M497.49,342.12a13.73,13.73,0,0,0-6.29-10.71,4.85,4.85,0,0,0-3.69-.69c1.12-1.17,2.95-1.31,5-.12a13.72,13.72,0,0,1,6.29,10.7c0,2.37-1,3.89-2.49,4.33A4.9,4.9,0,0,0,497.49,342.12Z" transform="translate(-164.56 -49.33)" fill="#fff"/>
    <path id="Path_278" data-name="Path 278" d="M497.49,342.12a13.73,13.73,0,0,0-6.29-10.71c-1.73-1-3.28-1.06-4.4-.4l-3.35,2,1.6,2.71a14,14,0,0,0,5.71,9.71l1.59,2.72,3.35-2h0C496.82,345.49,497.51,344.1,497.49,342.12Z" transform="translate(-164.56 -49.33)" fill="#5793ce"/>
    <path id="Path_279" data-name="Path 279" d="M494.14,344.08a13.73,13.73,0,0,0-6.29-10.7c-3.45-1.95-6.22-.33-6.18,3.63A13.72,13.72,0,0,0,488,347.72C491.4,349.67,494.17,348,494.14,344.08Z" transform="translate(-164.56 -49.33)" fill="#d4ecff"/>
    <path id="Path_280" data-name="Path 280" d="M430.34,379.13l-3.84-6.53L414,380a3.78,3.78,0,0,0-1.34,5.18h0a3.78,3.78,0,0,0,5.18,1.35Z" transform="translate(-164.56 -49.33)" fill="#851c61"/>
    <path id="Path_281" data-name="Path 281" d="M431.11,377.39a5.93,5.93,0,0,0-2.72-4.62c-1.48-.84-2.68-.14-2.66,1.57a5.89,5.89,0,0,0,2.71,4.62C429.93,379.8,431.12,379.1,431.11,377.39Z" transform="translate(-164.56 -49.33)" fill="#851c61"/>
    <path id="Path_282" data-name="Path 282" d="M445,354.33l-1.88-1.06a3.939,3.939,0,0,0-4,.43l-6.44,3.78a4.92,4.92,0,0,0-2.19,3.86v3.22a2.66,2.66,0,0,1-.65,1.62l.24,1.49-1.6-.92h0a.82.82,0,0,1-.38-.78v-3.23a10.21,10.21,0,0,1,4.56-8l6.44-3.79c2.15-1.26,4.18-1.48,5.72-.61l1.88,1.07a3.987,3.987,0,0,0,4-.43l26-15.27a.85.85,0,0,1,.86-.08h0l1.6.92-1.37.52a2.63,2.63,0,0,1-1.07,1.42l-26,15.26C448.61,355,446.58,355.2,445,354.33Z" transform="translate(-164.56 -49.33)" fill="#5793ce"/>
    <path id="Path_283" data-name="Path 283" d="M444.79,354.2a4,4,0,0,0-4,.43l-6.44,3.78a4.92,4.92,0,0,0-2.19,3.86v3.22a2.67,2.67,0,0,1-1.19,2.09c-.66.39-1.2.08-1.21-.68v-3.23a10.2,10.2,0,0,1,4.55-8l6.44-3.79c2.16-1.26,4.19-1.48,5.72-.61l1.88,1.07a4,4,0,0,0,4-.43l26-15.27c.66-.38,1.2-.08,1.21.69a2.67,2.67,0,0,1-1.19,2.09l-26,15.26c-2.16,1.27-4.19,1.48-5.72.61Z" transform="translate(-164.56 -49.33)" fill="#5793ce"/>
    <path id="Path_284" data-name="Path 284" d="M432.06,362.8v3.22a.17.17,0,0,1,0,.07,2.149,2.149,0,0,0,.1-.6v-3.22a2.653,2.653,0,0,1,0-.28,3.821,3.821,0,0,0-.1.81Z" transform="translate(-164.56 -49.33)" fill="#fff"/>
    <ellipse id="Ellipse_1" data-name="Ellipse 1" cx="20.39" cy="11.77" rx="20.39" ry="11.77" transform="translate(224.61 238.41)" fill="#173d7a" opacity="0.5"/>
    <path id="Path_285" data-name="Path 285" d="M432.75,289.45v-6.52h-1.23a14.75,14.75,0,0,0-5.56-5.2c-9.06-5.23-23.74-5.23-32.8,0a14.75,14.75,0,0,0-5.56,5.2h-1.23v6.48h0c0,3.44,2.25,6.88,6.79,9.5,9.06,5.23,23.74,5.23,32.8,0C430.49,296.3,432.75,292.87,432.75,289.45Z" transform="translate(-164.56 -49.33)" fill="#851c61"/>
    <ellipse id="Ellipse_2" data-name="Ellipse 2" cx="23.19" cy="13.39" rx="23.19" ry="13.39" transform="translate(221.81 220.21)" fill="#851c61"/>
    <path id="Path_286" data-name="Path 286" d="M426,292.4c-9.06,5.23-23.74,5.23-32.8,0-4.34-2.5-6.58-5.76-6.76-9-.19,3.57,2,7.17,6.76,9.89,9.06,5.23,23.74,5.23,32.8,0,4.72-2.72,7-6.32,6.76-9.89C432.54,286.64,430.3,289.9,426,292.4Z" transform="translate(-164.56 -49.33)" fill="#fff"/>
    <path id="Path_287" data-name="Path 287" d="M398.38,287.37a1.06,1.06,0,0,1-.61-.86v-8.72c0-.67.94-1.21,2.09-1.2s2.09.54,2.09,1.2v7.24l21-2.57c1.13-.14,2.24.27,2.48.92s-.48,1.3-1.61,1.43l-23.52,2.88a3.26,3.26,0,0,1-1.75-.24Z" transform="translate(-164.56 -49.33)" fill="#fff"/>
    <path id="Path_288" data-name="Path 288" d="M125.13,165.99l-17.23-9.95,17.23-9.95,17.23,9.95Z" fill="#173d7a" opacity="0.5"/>
    <path id="Path_289" data-name="Path 289" d="M142.36,143.41l-17.23,9.95v-19.9l17.23-9.94Z" fill="#a31e76"/>
    <path id="Path_290" data-name="Path 290" d="M125.13,133.46l-17.23-9.94,17.23-9.95,17.23,9.95Z" fill="#851c61"/>
    <path id="Path_291" data-name="Path 291" d="M125.13,153.36l-17.23-9.95V123.52l17.23,9.94Z" fill="#b41d80"/>
    <path id="Path_292" data-name="Path 292" d="M118.93,142.61l-4.82-2.78v-5.57l4.82,2.78Z" fill="#fff"/>
    <path id="Path_293" data-name="Path 293" d="M17.94,344.36,0,334l17.94-10.35L35.88,334Z" fill="#173d7a" opacity="0.5"/>
    <path id="Path_294" data-name="Path 294" d="M35.88,320.86,17.94,331.21V310.5l17.94-10.36Z" fill="#173d7a"/>
    <path id="Path_295" data-name="Path 295" d="M17.94,310.5,0,300.14l17.94-10.35,17.94,10.35Z" fill="#d4ecff"/>
    <path id="Path_296" data-name="Path 296" d="M17.94,331.21,0,320.86V300.14L17.94,310.5Z" fill="#5793ce"/>
    <path id="Path_297" data-name="Path 297" d="M11.48,320.02l-5.02-2.89v-5.8l5.02,2.9Z" fill="#fff"/>
    <path id="Path_298" data-name="Path 298" d="M247.75,369.53l-66.85-38.6a2.25,2.25,0,0,1,0-3.9l63.56-36.69,71.11,41.06a2.25,2.25,0,0,1,0,3.9l-59.29,34.23a8.55,8.55,0,0,1-8.53,0Z" transform="translate(-164.56 -49.33)" fill="#173d7a" opacity="0.5"/>
    <path id="Path_299" data-name="Path 299" d="M245.82,263.58c0-4.25-3-6-6.67-3.86l-62.52,36a4.05,4.05,0,0,0-1.83,3.17c0,1.17.82,1.64,1.83,1.06l62.52-36c1.66-1,3-.18,3,1.74v7c1.21-.08,2.43-.08,3.66-.06Z" transform="translate(-164.56 -49.33)" fill="#bc0f80"/>
    <path id="Path_300" data-name="Path 300" d="M176.61,312.54l62.52-22.78a14.77,14.77,0,0,0,6.67-11.54v-5.6c-1.23,0-2.45,0-3.66.06v7.65a6.63,6.63,0,0,1-3,5.2l-62.52,22.79a4,4,0,0,0-1.83,3.16C174.78,312.65,175.59,313.12,176.61,312.54Z" transform="translate(-164.56 -49.33)" fill="#d3008d"/>
    <path id="Path_301" data-name="Path 301" d="M10.69,263.29,86.74,307.3l64.39-38.4,5.11-7.63-.53,2.71-1.37-7.08L34.81,261.46l-21.06-1.35Z" fill="#851c61"/>
    <path id="Path_302" data-name="Path 302" d="M13.21,250.01l-.02,9.36,73.5,42.53,1.99-8.92Z" fill="#c4468f"/>
    <path id="Path_303" data-name="Path 303" d="M155.29,253.89,79.36,209.96,10.9,249.78l-.14.97,76.04,44Z" fill="#852d1c"/>
    <path id="Path_304" data-name="Path 304" d="M295.65,325.79,313.5,315.2a6.74,6.74,0,0,0,2.69-5v-1.4c0-1.14-.47-1.87-1.2-2.08l-35.15,19.55-28.62,15.48v9.46Z" transform="translate(-164.56 -49.33)" fill="#fff"/>
    <path id="Path_305" data-name="Path 305" d="M253.8,342.63,178.35,299l-1.6-.93-1.46-.84a3.67,3.67,0,0,0-.49,1.7,1.28,1.28,0,0,0,.52,1.17h0l76,44Z" transform="translate(-164.56 -49.33)" fill="#a91d79"/>
    <path id="Path_306" data-name="Path 306" d="M85.79,306.75l.95.55.18-.3-.59-.47Z" fill="#fff"/>
    <path id="Path_307" data-name="Path 307" d="M85.82,294.18l.97.56-.24-.53Z" fill="#fff"/>
    <path id="Path_308" data-name="Path 308" d="M252.68,339.74l62.52-36c3.68-2.12,6.66-.39,6.66,3.85V309a14.78,14.78,0,0,1-6.68,11.55l-62.52,36c-1,.58-1.83.11-1.83-1.06a4,4,0,0,1,1.83-3.17l62.52-36a6.69,6.69,0,0,0,3-5.21v-1.4c0-1.91-1.35-2.69-3-1.74l-62.52,36c-1,.59-1.83.11-1.83-1A4,4,0,0,1,252.68,339.74Z" transform="translate(-164.56 -49.33)" fill="#851c61"/>
    <path id="Path_309" data-name="Path 309" d="M250.82,355.48a4,4,0,0,1,1.83-3.17l62.52-36a6.69,6.69,0,0,0,3-5.21v-1.4c0-1.25-.58-2-1.44-2.13a2.59,2.59,0,0,1,.44,1.55v1.4a6.65,6.65,0,0,1-3,5.21l-62.52,36a4,4,0,0,0-1.83,3.17c0,.88.47,1.37,1.14,1.3a1.74,1.74,0,0,1-.14-.72Z" transform="translate(-164.56 -49.33)" fill="#fff"/>
    <path id="Path_310" data-name="Path 310" d="M250.84,342.91a4,4,0,0,1,1.84-3.17l62.52-36a5,5,0,0,1,4.18-.7c-1.22-1-3.09-1.09-5.18.12l-62.53,36a4,4,0,0,0-1.83,3.17c0,.88.47,1.36,1.14,1.29A1.66,1.66,0,0,1,250.84,342.91Z" transform="translate(-164.56 -49.33)" fill="#fff"/>
    <path id="Path_311" data-name="Path 311" d="M57.37,254.76l34.49-19.88,29.92,17.31-34.5,19.88Z" fill="#fff"/>
    <path id="Path_312" data-name="Path 312" d="M307.24,400.22c13.81,8,36.2,8,50,0s13.81-20.9,0-28.87-36.2-8-50,0S293.43,392.25,307.24,400.22Zm13.51-21.07c6.34-3.67,16.64-3.67,23,0s6.35,9.6,0,13.27-16.64,3.66-23,0S314.4,382.81,320.75,379.15Z" transform="translate(-164.56 -49.33)" fill="#173d7a" opacity="0.5"/>
    <path id="Path_313" data-name="Path 313" d="M362.46,366.62l-12.61.2a13.3,13.3,0,0,0-4-3.35c-6.93-4-17.84-4.32-25.4-.94l-7.49-7-11.55.17c.58-.37,1.16-.74,1.78-1.09,16-9.26,42-9.26,58.08,0a30.351,30.351,0,0,1,7.22,5.62Z" transform="translate(-164.56 -49.33)" fill="#631046"/>
    <path id="Path_314" data-name="Path 314" d="M136.86,288.01v18.32l11.54-.18V287.83Z" fill="#510b39"/>
    <path id="Path_315" data-name="Path 315" d="M155.9,294.88V313.2l-7.5-7.05V287.83Z" fill="#631046"/>
    <path id="Path_316" data-name="Path 316" d="M349.85,348.5v18.32l-16.6-13.52-12.79,9.23V344.22l11.78-5.72s16.22,5,17.06,5.18S349.85,348.5,349.85,348.5Z" transform="translate(-164.56 -49.33)" fill="#631046"/>
    <path id="Path_317" data-name="Path 317" d="M197.9,298.97v18.32l-12.62.19V299.17Z" fill="#631046"/>
    <path id="Path_318" data-name="Path 318" d="M203.94,292.54v18.31l-6.04,6.44V298.97Z" fill="#991f6f"/>
    <path id="Path_319" data-name="Path 319" d="M362.46,348.3l-12.61.2a13.59,13.59,0,0,0-4-3.35c-6.93-4-17.84-4.31-25.4-.93L313,337.17l-11.55.18c.58-.38,1.16-.74,1.78-1.1,16-9.26,42-9.26,58.08,0a30.35,30.35,0,0,1,7.22,5.62Z" transform="translate(-164.56 -49.33)" fill="#851c61"/>
    <path id="Path_320" data-name="Path 320" d="M316.66,346.47v16.84l-10.92-2.62s.64-9.85.88-10.11S316.66,346.47,316.66,346.47Z" transform="translate(-164.56 -49.33)" fill="#5793ce"/>
    <path id="Path_321" data-name="Path 321" d="M324.93,363.31v18.32l-1.18,1.25-7.7-4.43s1.19-14,1.33-14.27S324.93,363.31,324.93,363.31Z" transform="translate(-164.56 -49.33)" fill="#173d7a"/>
    <path id="Path_322" data-name="Path 322" d="M310.06,358.58l6.6,6.21c-5.5,4.35-4.85,10.48,2,14.41a23.461,23.461,0,0,0,6.31,2.43l-6.83,7.27,6,5.68a54.72,54.72,0,0,1-20.95-6.48c-13.79-8-15.71-20.17-5.79-29.32Z" transform="translate(-164.56 -49.33)" fill="#396caa"/>
    <path id="Path_323" data-name="Path 323" d="M159.59,326.93v18.32l-14.97-5.78-18.01-17.18.07-19.45,19.05,15.1Z" fill="#396caa"/>
    <path id="Path_324" data-name="Path 324" d="M310.06,340.26l6.6,6.21c-5.5,4.35-4.85,10.48,2,14.41a23.13,23.13,0,0,0,6.31,2.43l-6.83,7.27,6,5.68a54.721,54.721,0,0,1-20.95-6.48c-13.79-8-15.71-20.17-5.79-29.32Z" transform="translate(-164.56 -49.33)" fill="#d4ecff"/>
    <path id="Path_325" data-name="Path 325" d="M324.2,388.8l6-6.41c5.58.34,11.37-.72,15.65-3.19s6.24-6,5.47-9.36l14.32-.22,5.51-5.87c4.81,8.27,1.53,17.77-9.88,24.35-8.38,4.84-19.48,7.15-30.46,6.93Z" transform="translate(-164.56 -49.33)" fill="#396caa"/>
    <path id="Path_326" data-name="Path 326" d="M166.25,327.37v18.32l42.49-23.54V303.82l-6.2,2.51Z" fill="#396caa"/>
    <path id="Path_327" data-name="Path 327" d="M159.63,321.15v18.32l6.62,6.22V327.37Z" fill="#173d7a"/>
    <path id="Path_328" data-name="Path 328" d="M324.2,370.48l6-6.4c5.58.34,11.37-.73,15.65-3.2s6.24-6,5.47-9.35l14.32-.23,5.51-5.86c4.81,8.26,1.53,17.76-9.88,24.34-8.38,4.84-19.48,7.15-30.46,6.93Z" transform="translate(-164.56 -49.33)" fill="#5793ce"/>
  </g>
</svg>
