<svg xmlns="http://www.w3.org/2000/svg" width="24" height="31.664" viewBox="0 0 24 31.664">
  <g id="padlock" transform="translate(-70.4 -11)">
    <g id="Group_321" data-name="Group 321" transform="translate(70.4 11)">
      <path id="Path_334" data-name="Path 334" d="M92.319,23.039H91.156v-3.27a8.763,8.763,0,1,0-17.525-.006v3.27H72.474A2.077,2.077,0,0,0,70.4,25.107V40.59a2.077,2.077,0,0,0,2.074,2.074H92.326A2.077,2.077,0,0,0,94.4,40.59V25.107a2.085,2.085,0,0,0-2.081-2.068ZM76.268,19.763a6.126,6.126,0,1,1,12.252,0v3.263H76.268ZM91.751,40.027H73.037V25.675H91.757V40.027Z" transform="translate(-70.4 -11)" fill="#848484"/>
      <path id="Path_335" data-name="Path 335" d="M237.057,342.971a1.454,1.454,0,0,0,1.457-1.457v-3.757a1.457,1.457,0,1,0-2.914,0v3.757A1.459,1.459,0,0,0,237.057,342.971Z" transform="translate(-225.064 -316.4)" fill="#848484"/>
    </g>
  </g>
</svg>
