<svg height="488pt" viewBox="-34 0 488 488.359" width="488pt" xmlns="http://www.w3.org/2000/svg"><path d="m254.816406 338.960938h-16.257812c-.035156 0-.070313-.007813-.105469-.007813l-.003906.007813h-106.945313c-28.25 0-51.15625 21.179687-51.15625 47.300781v42.941406h225.628906v-42.941406c-.003906-26.121094-22.90625-47.300781-51.160156-47.300781zm0 0" fill="#a4c9ff"/><path d="m204.324219 401.890625h-22.328125l-7.445313 27.386719h37.222657zm0 0" fill="#f9a7a7"/><path d="m192.992188 362.75.542968-.449219h-1.089844zm0 0" fill="#f9a7a7"/><path d="m207.78125 389.136719-14.789062-25.972657-14.792969 25.972657c-.066407.117187-.164063.203125-.238281.3125l4.039062 12.441406h22.328125l3.933594-12.125c-.167969-.203125-.34375-.394531-.480469-.628906zm0 0" fill="#f9a7a7"/><path d="m305.976562 433.203125h-225.628906c-2.207031 0-4-1.789063-4-4v-42.941406c0-28.289063 24.746094-51.300781 55.15625-51.300781h106.738282c.128906-.007813.261718-.007813.425781 0h16.152343c30.414063 0 55.15625 23.015624 55.15625 51.300781v42.941406c0 2.210937-1.792968 4-4 4zm-221.628906-8h217.628906v-38.941406c0-23.875-21.15625-43.300781-47.15625-43.300781h-16.257812c-.035156 0-.074219 0-.113281 0h-106.945313c-26 0-47.15625 19.425781-47.15625 43.300781zm0 0" fill="#3762cc"/><path d="m304.007812 185.300781h-18.164062c.179688 2.289063.273438 4.605469.273438 6.941407v8.695312c.199218-.003906.386718-.027344.585937-.027344 7.339844 0 14.007813 2.789063 19.042969 7.324219v-23.085937c-.570313.089843-1.144532.152343-1.738282.152343zm0 0" fill="#4671c6"/><path d="m305.742188 212.234375c-.96875 0-1.925782-.355469-2.675782-1.03125-4.507812-4.058594-10.320312-6.292969-16.363281-6.292969-.195313.015625-.351563.023438-.507813.027344-1.105468-.015625-2.113281-.390625-2.878906-1.140625-.765625-.753906-1.199218-1.785156-1.199218-2.859375v-8.695312c0-2.191407-.085938-4.421876-.257813-6.632813-.085937-1.113281.296875-2.207031 1.050781-3.027344.757813-.816406 1.824219-1.28125 2.9375-1.28125h18.164063c.320312 0 .671875-.035156 1.105469-.105469 1.15625-.183593 2.332031.152344 3.222656.910157.890625.761719 1.402344 1.875 1.402344 3.042969v23.085937c0 1.578125-.929688 3.011719-2.375 3.652344-.519532.234375-1.074219.347656-1.625.347656zm-15.628907-15.144531c4.078125.429687 8.019531 1.628906 11.628907 3.519531v-11.308594h-11.675782c.03125.984375.046875 1.964844.046875 2.941407zm0 0" fill="#3762cc"/><path d="m193.160156 327.988281c-15.179687 0-29.503906-3.609375-42.152344-10.011719v19.140626c0 .667968.097657 1.320312.234376 1.964843h.011718c.136719.644531.34375 1.265625.605469 1.867188.035156.078125.066406.15625.105469.234375.113281.246094.242187.484375.378906.71875.136719.230468.28125.449218.4375.664062.082031.117188.15625.242188.246094.355469l5.988281 7.609375c5.964844 7.582031 14.230469 13.074219 23.589844 15.265625 1.257812.292969 2.5625.546875 3.90625.75 15.203125 2.277344 30.402343-4.195313 39.851562-16.386719l8.730469-11.257812c.121094-.605469.199219-1.21875.199219-1.839844v-19.074219c-12.644531 6.394531-26.960938 10-42.132813 10zm0 0" fill="#f9cfcf"/><path d="m286.644531 200.910156c-.199219 0-.390625.023438-.589843.027344v-8.695312c0-50.84375-41.589844-92.058594-92.894532-92.058594-51.304687 0-92.898437 41.214844-92.898437 92.058594v8.695312c-.195313-.003906-.390625-.027344-.585938-.027344-15.652343 0-28.339843 12.574219-28.339843 28.085938 0 15.511718 12.6875 28.085937 28.339843 28.085937 1.027344 0 2.039063-.0625 3.039063-.167969 9.585937 40.726563 46.425781 71.074219 90.441406 71.074219s80.855469-30.347656 90.441406-71.074219c1 .105469 2.011719.167969 3.042969.167969 15.648437 0 28.339844-12.574219 28.339844-28.085937.003906-15.511719-12.683594-28.085938-28.335938-28.085938zm0 0" fill="#f9cfcf"/><path d="m147 243.605469c-5.378906 0-9.753906-4.371094-9.753906-9.75v-16.25c0-5.375 4.375-9.753907 9.753906-9.753907 5.375 0 9.75 4.375 9.75 9.753907v16.25c0 5.378906-4.375 9.75-9.75 9.75zm0 0" fill="#3762cc"/><path d="m238.886719 243.605469c-5.378907 0-9.753907-4.371094-9.753907-9.75v-16.25c0-5.375 4.375-9.753907 9.753907-9.753907 5.375 0 9.75 4.375 9.75 9.753907v16.25c0 5.378906-4.375 9.75-9.75 9.75zm0 0" fill="#3762cc"/><path d="m193.160156 331.988281c-44.132812 0-82.113281-28.992187-93.507812-70.90625-17.820313-.015625-32.3125-14.40625-32.3125-32.085937 0-16.550782 12.691406-30.210938 28.925781-31.910156v-4.84375c0-52.96875 43.46875-96.058594 96.898437-96.058594 53.429688 0 96.894532 43.089844 96.894532 96.058594v4.84375c16.234375 1.699218 28.929687 15.359374 28.929687 31.910156 0 17.679687-14.496093 32.070312-32.3125 32.085937-11.402343 41.914063-49.382812 70.90625-93.515625 70.90625zm-90.4375-79.074219c1.835938 0 3.460938 1.261719 3.890625 3.085938 9.421875 40.03125 45.011719 67.988281 86.546875 67.988281s77.125-27.960937 86.546875-67.988281c.464844-1.960938 2.296875-3.246094 4.316407-3.0625.917968.097656 1.777343.144531 2.621093.144531 13.421875 0 24.339844-10.804687 24.339844-24.085937 0-13.269532-10.898437-24.066406-24.300781-24.085938-.238282.015625-.390625.023438-.546875.027344-1.082031-.015625-2.113281-.390625-2.878907-1.140625-.765624-.753906-1.199218-1.785156-1.199218-2.859375v-8.695312c0-48.558594-39.878906-88.058594-88.898438-88.058594-49.015625 0-88.894531 39.5-88.894531 88.058594v8.695312c0 1.074219-.433594 2.105469-1.199219 2.859375-.769531.75-1.804687 1.128906-2.882812 1.140625-.160156-.003906-.316406-.011719-.46875-.023438-.003906 0-.007813 0-.011719 0-13.453125 0-24.367187 10.800782-24.367187 24.082032s10.917968 24.085937 24.339843 24.085937c.84375 0 1.703125-.046875 2.621094-.144531.144531-.015625.285156-.023438.425781-.023438zm0 0" fill="#3762cc"/><path d="m80.921875 174.171875v33.554687c4.964844-4.238281 11.410156-6.816406 18.476563-6.816406.195312 0 .386718.023438.585937.027344v-8.695312c0-2.621094.128906-5.207032.351563-7.765626-7.394532-1.695312-14.046876-5.316406-19.414063-10.304687zm0 0" fill="#4671c6"/><path d="m80.921875 211.726562c-.570313 0-1.140625-.125-1.675781-.371093-1.414063-.652344-2.324219-2.070313-2.324219-3.628907v-33.554687c0-1.59375.941406-3.03125 2.402344-3.667969 1.457031-.632812 3.15625-.34375 4.320312.738282 4.953125 4.605468 11.035157 7.832031 17.585938 9.335937 1.941406.445313 3.261719 2.253906 3.089843 4.242187-.226562 2.609376-.335937 5.035157-.335937 7.421876v8.695312c0 1.074219-.433594 2.105469-1.203125 2.859375-.765625.75-1.835938 1.128906-2.875 1.140625-.160156-.003906-.316406-.011719-.472656-.023438-.007813 0-.015625 0-.019532 0-5.84375 0-11.476562 2.078126-15.894531 5.855469-.742187.628907-1.664062.957031-2.597656.957031zm4-29.429687v18.023437c3.453125-1.722656 7.199219-2.820312 11.0625-3.230468v-4.847656c0-1.5625.039063-3.140626.128906-4.761719-3.941406-1.222657-7.707031-2.96875-11.191406-5.183594zm0 0" fill="#3762cc"/><path d="m368.066406 202.871094c-4.773437 0-8.640625-3.878906-8.640625-8.660156v-108.785157c0-4.78125 3.867188-8.660156 8.640625-8.660156 4.773438 0 8.640625 3.878906 8.640625 8.660156v108.785157c0 4.785156-3.867187 8.660156-8.640625 8.660156zm0 0" fill="#ffea92"/><path d="m381.398438 235.347656h-26.664063c-2.382813 0-4.3125-1.929687-4.3125-4.3125v-27.875c0-9.726562 7.886719-17.609375 17.613281-17.609375h.066406c9.726563 0 17.613282 7.882813 17.613282 17.609375v27.875c-.003906 2.382813-1.933594 4.3125-4.316406 4.3125zm0 0" fill="#ffea92"/><path d="m297.953125 188.910156h-33.378906c-14.554688 0-26.347657-11.796875-26.347657-26.347656v-25.824219c0-8.730469 7.078126-15.808593 15.804688-15.808593h16.773438c19.710937 0 35.691406 15.980468 35.691406 35.691406v23.742187c.003906 4.71875-3.824219 8.546875-8.542969 8.546875zm0 0" fill="#4671c6"/><path d="m297.953125 192.910156h-33.378906c-16.734375 0-30.347657-13.613281-30.347657-30.347656v-25.824219c0-10.921875 8.882813-19.808593 19.804688-19.808593h16.773438c21.886718 0 39.691406 17.804687 39.691406 39.691406v23.742187c.003906 6.917969-5.625 12.546875-12.542969 12.546875zm-43.917969-67.980468c-6.511718 0-11.808594 5.296874-11.808594 11.808593v25.824219c0 12.320312 10.027344 22.347656 22.347657 22.347656h33.378906c2.507813 0 4.546875-2.042968 4.546875-4.546875v-23.742187c0-17.472656-14.21875-31.691406-31.691406-31.691406zm0 0" fill="#3762cc"/><path d="m199.292969 188.910156h-92.28125c-16.949219 0-30.6875-13.742187-30.6875-30.691406v-10.109375c0-16.613281 13.464843-30.085937 30.082031-30.085937h106.222656c14.136719 0 25.597656 11.460937 25.597656 25.597656v6.355468c0 21.503907-17.433593 38.933594-38.933593 38.933594zm0 0" fill="#4671c6"/><path d="m199.292969 192.910156h-92.277344c-19.128906 0-34.691406-15.5625-34.691406-34.691406v-10.113281c0-18.792969 15.289062-34.082031 34.082031-34.082031h106.222656c16.320313 0 29.597656 13.277343 29.597656 29.597656v6.355468c0 23.671876-19.257812 42.933594-42.933593 42.933594zm-92.886719-70.886718c-14.382812 0-26.082031 11.703124-26.082031 26.085937v10.109375c0 14.714844 11.972656 26.691406 26.691406 26.691406h92.277344c19.261719 0 34.933593-15.671875 34.933593-34.933594v-6.355468c0-11.90625-9.6875-21.597656-21.597656-21.597656zm0 0" fill="#3762cc"/><path d="m305.4375 93.40625c-26.519531-4.324219-125.839844-18.058594-224.921875-.039062-3.933594.714843-6.484375 2.503906-6.484375 4.457031v44.644531c0 2.027344 2.71875 3.832031 6.855469 4.503906 26.515625 4.324219 125.835937 18.058594 224.921875.039063 3.929687-.714844 6.480468-2.503907 6.480468-4.457031v-44.640626c0-2.027343-2.714843-3.832031-6.851562-4.507812zm0 0" fill="#a4c9ff"/><path d="m198.097656 160.066406c-55.421875.003906-100.414062-6.300781-117.855468-9.144531-6.296876-1.027344-10.210938-4.269531-10.210938-8.453125v-44.550781c0-4.171875 3.746094-7.386719 9.769531-8.484375 99.195313-18.039063 198.277344-4.539063 226.28125.027344 6.300781 1.027343 10.210938 4.265624 10.210938 8.453124v44.550782c0 4.171875-3.742188 7.386718-9.769531 8.480468-37.417969 6.804688-74.84375 9.121094-108.425782 9.121094zm-120.066406-18.226562c.460938.324218 1.558594.871094 3.5 1.1875 27.691406 4.511718 125.648438 17.855468 223.5625.046875 1.757812-.320313 2.765625-.835938 3.199219-1.144531v-43.386719c-.460938-.324219-1.554688-.871094-3.5-1.1875-27.683594-4.515625-125.625-17.863281-223.558594-.046875-1.761719.320312-2.765625.832031-3.203125 1.140625zm230.488281-43.101563h.019531zm0 0" fill="#3762cc"/><path d="m192.5625 371c-2.210938 0-4.425781-.164062-6.644531-.496094-1.414063-.210937-2.835938-.484375-4.226563-.8125-10.035156-2.347656-19.203125-8.273437-25.820312-16.683594l-5.988282-7.613281c-.113281-.140625-.234374-.316406-.355468-.496093-.214844-.300782-.429688-.625-.625-.960938-.207032-.347656-.390625-.695312-.558594-1.054688-.019531-.039062-.109375-.242187-.128906-.285156-.34375-.78125-.605469-1.550781-.792969-2.328125-.035156-.113281-.066406-.230469-.089844-.351562-.21875-1.007813-.320312-1.925781-.320312-2.796875v-19.140625c0-1.390625.722656-2.679688 1.90625-3.410157 1.183593-.726562 2.660156-.789062 3.898437-.160156 12.570313 6.359375 26.140625 9.582032 40.347656 9.582032 14.199219 0 27.765626-3.21875 40.324219-9.570313 1.238281-.625 2.714844-.566406 3.898438.160156 1.183593.730469 1.902343 2.019531 1.902343 3.410157v19.074218c0 .828125-.089843 1.6875-.273437 2.621094-.121094.609375-.382813 1.179688-.761719 1.667969l-8.726562 11.261719c-9.054688 11.679687-22.785156 18.382812-36.964844 18.382812zm-37.460938-33c.023438.078125.042969.160156.0625.246094.078126.363281.199219.734375.359376 1.097656.125.28125.195312.410156.269531.539062.066406.113282.148437.230469.230469.34375.03125.046876.148437.214844.175781.261719l5.957031 7.578125c5.5 6.988282 13.082031 11.902344 21.359375 13.839844 1.183594.277344 2.390625.507812 3.589844.691406 13.566406 2.023438 27.402343-3.667968 36.09375-14.878906l8.082031-10.429688c.003906-.074218.007812-.148437.007812-.21875v-12.804687c-12.03125 5.132813-24.828124 7.726563-38.128906 7.726563-13.308594 0-26.113281-2.597657-38.152344-7.738282v12.871094c0 .242188.03125.53125.09375.875zm0 0" fill="#3762cc"/><path d="m151.007812 327.988281h-14.359374c-1.929688 0-3.78125.691407-5.136719 1.921875l-8.617188 7.808594c-1.324219 1.199219-1.394531 3.109375-.160156 4.382812l46.546875 48.007813c2.519531 2.597656 7.171875 2.089844 8.917969-.972656l14.953125-26.253907zm0 0" fill="#e0ebfc"/><path d="m234.972656 327.988281h14.359375c1.929688 0 3.78125.691407 5.140625 1.921875l8.617188 7.808594c1.324218 1.199219 1.394531 3.109375.15625 4.382812l-46.546875 48.007813c-2.519531 2.597656-7.171875 2.089844-8.917969-.972656l-14.949219-26.253907zm0 0" fill="#e0ebfc"/><g fill="#3762cc"><path d="m173.371094 395.78125c-2.628906 0-5.164063-1.035156-6.960938-2.882812l-46.546875-48.011719c-1.355469-1.398438-2.070312-3.21875-2.007812-5.125.0625-1.914063.898437-3.691407 2.355469-5.011719l8.617187-7.804688c2.105469-1.90625 4.886719-2.957031 7.824219-2.957031h14.359375c.933593 0 1.835937.324219 2.550781.917969l42.140625 34.898438c1.496094 1.234374 1.886719 3.371093.921875 5.054687l-14.949219 26.253906c-1.441406 2.535157-4.007812 4.203125-7.039062 4.585938-.421875.054687-.84375.082031-1.265625.082031zm-47.070313-55.75 45.855469 47.296875c.398438.410156 1.027344.5 1.476562.4375.5-.0625.910157-.292969 1.089844-.609375l13.289063-23.332031-38.441407-31.835938h-12.917968c-.9375 0-1.832032.320313-2.453125.882813zm0 0"/><path d="m212.609375 395.78125c-.421875 0-.84375-.027344-1.265625-.078125-3.03125-.382813-5.59375-2.054687-7.035156-4.585937l-14.953125-26.253907c-.960938-1.6875-.574219-3.820312.921875-5.058593l42.140625-34.894532c.71875-.597656 1.621093-.921875 2.550781-.921875h14.359375c2.941406 0 5.71875 1.050781 7.824219 2.957031l8.621094 7.808594c1.453124 1.320313 2.289062 3.097656 2.351562 5.011719.0625 1.90625-.652344 3.722656-2.007812 5.125l-46.546876 48.011719c-1.796874 1.84375-4.328124 2.878906-6.960937 2.878906zm-14.640625-31.957031 13.289062 23.335937c.179688.3125.589844.539063 1.09375.605469.449219.0625 1.078126-.027344 1.476563-.4375l45.855469-47.296875-7.898438-7.15625c-.621094-.5625-1.515625-.886719-2.453125-.886719h-12.917969zm0 0"/><path d="m173.371094 395.78125c-2.628906 0-5.164063-1.035156-6.960938-2.882812l-46.546875-48.011719c-1.355469-1.398438-2.070312-3.21875-2.007812-5.125.0625-1.914063.898437-3.691407 2.355469-5.011719l8.617187-7.804688c2.105469-1.90625 4.886719-2.957031 7.824219-2.957031h14.359375c.933593 0 1.835937.324219 2.550781.917969l42.140625 34.898438c1.496094 1.234374 1.886719 3.371093.921875 5.054687l-14.949219 26.253906c-1.441406 2.535157-4.007812 4.203125-7.039062 4.585938-.421875.054687-.84375.082031-1.265625.082031zm-47.070313-55.75 45.855469 47.296875c.398438.410156 1.027344.5 1.476562.4375.5-.0625.910157-.292969 1.089844-.609375l13.289063-23.332031-38.441407-31.835938h-12.917968c-.9375 0-1.832032.320313-2.453125.882813zm0 0"/><path d="m212.609375 395.78125c-.421875 0-.84375-.027344-1.265625-.078125-3.03125-.382813-5.59375-2.054687-7.035156-4.585937l-14.953125-26.253907c-.960938-1.6875-.574219-3.820312.921875-5.058593l42.140625-34.894532c.71875-.597656 1.621093-.921875 2.550781-.921875h14.359375c2.941406 0 5.71875 1.050781 7.824219 2.957031l8.621094 7.808594c1.453124 1.320313 2.289062 3.097656 2.351562 5.011719.0625 1.90625-.652344 3.722656-2.007812 5.125l-46.546876 48.011719c-1.796874 1.84375-4.328124 2.878906-6.960937 2.878906zm-14.640625-31.957031 13.289062 23.335937c.179688.3125.589844.539063 1.09375.605469.449219.0625 1.078126-.027344 1.476563-.4375l45.855469-47.296875-7.898438-7.15625c-.621094-.5625-1.515625-.886719-2.453125-.886719h-12.917969zm0 0"/></g><path d="m208.703125 270.757812h-31.085937c-1.695313 0-3.066407 1.375-3.066407 3.066407v7.671875c0 2.835937 1.210938 5.59375 3.445313 7.847656 2.679687 2.699219 6.613281 4.445312 10.925781 4.941406h8.480469c4.304687-.496094 8.242187-2.238281 10.921875-4.941406 2.238281-2.257812 3.449219-5.011719 3.449219-7.847656v-7.671875c0-1.691407-1.375-3.066407-3.070313-3.066407zm0 0" fill="#f9a7a7"/><path d="m197.402344 297.285156h-8.480469c-.113281 0-.226563-.003906-.339844-.019531-5.058593-.578125-9.570312-2.644531-12.714843-5.808594-2.785157-2.804687-4.316407-6.34375-4.316407-9.957031v-7.671875c0-3.347656 2.71875-6.070313 6.066407-6.070313h31.085937c3.347656 0 6.070313 2.722657 6.070313 6.070313v7.671875c0 3.613281-1.535157 7.152344-4.320313 9.957031-3.140625 3.164063-7.65625 5.230469-12.710937 5.808594-.113282.015625-.226563.019531-.339844.019531zm-8.300782-6h8.125c3.585938-.441406 6.847657-1.917968 8.96875-4.054687 1.691407-1.699219 2.582032-3.679688 2.582032-5.730469l-.070313-7.742188h-31.089843l-.066407 7.742188c0 2.050781.890625 4.03125 2.574219 5.730469 2.125 2.136719 5.386719 3.613281 8.976562 4.054687zm0 0" fill="#3762cc"/><path d="m379.878906 398.574219c-2.953125 6.960937-15.195312 7.535156-20.273437 12.523437-5.265625 5.167969-6.140625 17.332032-12.878907 20.054688-6.738281 2.722656-15.816406-5.417969-23.199218-5.480469-7.117188-.058594-16.320313 8.03125-23.28125 5.074219-6.964844-2.953125-7.539063-15.191406-12.523438-20.273438-5.171875-5.265625-17.335937-6.140625-20.058594-12.878906-2.722656-6.738281 5.421876-15.816406 5.480469-23.195312.058594-7.121094-8.03125-16.324219-5.074219-23.285157 2.953126-6.960937 15.195313-7.535156 20.273438-12.523437 5.265625-5.171875 6.144531-17.335938 12.882812-20.058594 6.734376-2.71875 15.8125 5.421875 23.195313 5.480469 7.117187.0625 16.320313-8.027344 23.28125-5.074219 6.964844 2.957031 7.539063 15.195312 12.527344 20.277344 5.167969 5.265625 17.332031 6.140625 20.054687 12.878906 2.722656 6.734375-5.421875 15.816406-5.480468 23.195312-.058594 7.117188 8.027343 16.320313 5.074218 23.285157zm0 0" fill="#f9a7a7"/><path d="m359.113281 374.84375c0 19.40625-15.730469 35.136719-35.136719 35.136719s-35.140624-15.730469-35.140624-35.136719 15.734374-35.140625 35.140624-35.140625 35.136719 15.734375 35.136719 35.140625zm0 0" fill="#ffea92"/><path d="m346.726562 431.152344c-6.738281 2.722656-15.816406-5.417969-23.199218-5.480469-7.117188-.058594-16.320313 8.027344-23.28125 5.074219-.777344-.328125-1.464844-.789063-2.097656-1.328125v52.328125c0 2.1875 3.128906 3.199218 4.773437 1.542968l18.371094-18.441406c1.066406-1.070312 2.96875-1.09375 4.0625-.046875l19.71875 18.78125c1.671875 1.59375 4.726562.566407 4.726562-1.59375v-53.089843c-.882812.984374-1.882812 1.769531-3.074219 2.253906zm0 0" fill="#6bdddd"/><path d="m343.726562 435.710938c-4.003906 0-8.039062-1.75-11.71875-3.34375-3.035156-1.316407-6.171874-2.675782-8.511718-2.695313-.015625 0-.03125 0-.046875 0-2.152344 0-5.171875 1.265625-8.089844 2.488281-5.191406 2.179688-11.078125 4.644532-16.675781 2.269532s-7.914063-8.324219-9.953125-13.570313c-1.15625-2.96875-2.347657-6.042969-3.863281-7.585937-1.636719-1.667969-4.796876-2.980469-7.855469-4.253907-5.09375-2.117187-10.867188-4.515625-13.054688-9.929687-2.1875-5.410156.300781-11.148438 2.492188-16.210938 1.316406-3.035156 2.675781-6.175781 2.699219-8.515625.015624-2.15625-1.257813-5.199219-2.492188-8.136719-2.175781-5.191406-4.644531-11.074218-2.265625-16.675781 2.375-5.601562 8.324219-7.910156 13.570313-9.953125 2.972656-1.15625 6.042968-2.351562 7.582031-3.863281 1.671875-1.640625 2.984375-4.796875 4.253906-7.851563 2.117187-5.097656 4.519531-10.875 9.929687-13.058593 5.410157-2.183594 11.148438.296875 16.214844 2.496093 3.035156 1.316407 6.171875 2.675782 8.511719 2.695313 2.1875 0 5.199219-1.257813 8.136719-2.492187 5.191406-2.175782 11.074218-4.640626 16.675781-2.265626s7.914063 8.324219 9.953125 13.570313c1.15625 2.972656 2.351562 6.042969 3.863281 7.582031 1.640625 1.671875 4.796875 2.984375 7.851563 4.253906 5.097656 2.117188 10.875 4.519532 13.058594 9.929688 2.1875 5.414062-.300782 11.148438-2.496094 16.214844-1.316406 3.035156-2.675782 6.171875-2.695313 8.511718-.019531 2.160157 1.257813 5.199219 2.488281 8.136719 2.179688 5.191407 4.644532 11.074219 2.269532 16.679688-2.378906 5.601562-8.324219 7.910156-13.570313 9.953125-2.972656 1.152344-6.046875 2.347656-7.585937 3.859375-1.667969 1.640625-2.984375 4.800781-4.25 7.855469-2.121094 5.097656-4.519532 10.871093-9.929688 13.054687-1.480468.601563-2.988281.851563-4.496094.851563zm-20.277343-14.039063h.113281c3.960938.03125 7.859375 1.722656 11.625 3.355469 3.800781 1.644531 7.730469 3.347656 10.039062 2.414062 2.304688-.929687 3.949219-4.882812 5.539063-8.707031 1.578125-3.792969 3.207031-7.710937 6.035156-10.488281 2.714844-2.664063 6.566407-4.164063 10.289063-5.613282 3.957031-1.539062 8.046875-3.128906 9.105468-5.621093 1.058594-2.496094-.636718-6.542969-2.28125-10.457031-1.542968-3.6875-3.144531-7.496094-3.109374-11.296876.03125-3.964843 1.71875-7.863281 3.351562-11.628906 1.648438-3.800781 3.351562-7.726562 2.417969-10.035156-.929688-2.308594-4.886719-3.949219-8.710938-5.539062-3.789062-1.578126-7.710937-3.210938-10.492187-6.039063-2.664063-2.710937-4.160156-6.5625-5.609375-10.289063-1.535157-3.957031-3.125-8.046874-5.621094-9.109374-2.496094-1.054688-6.542969.640624-10.457031 2.285156-3.6875 1.542968-7.503906 3.066406-11.296875 3.113281-3.964844-.035156-7.863281-1.722656-11.628907-3.355469-3.800781-1.648437-7.730468-3.355468-10.035156-2.417968-2.308594.933593-3.953125 4.886718-5.539062 8.707031-1.578125 3.792969-3.207032 7.714843-6.035156 10.492187-2.714844 2.664063-6.566407 4.160156-10.292969 5.613282-3.953125 1.535156-8.042969 3.125-9.101563 5.621093-1.0625 2.492188.636719 6.542969 2.277344 10.457031 1.546875 3.6875 3.144531 7.496094 3.113281 11.296876-.035156 3.964843-1.722656 7.863281-3.355469 11.628906-1.644531 3.796875-3.347656 7.726562-2.414062 10.035156s4.886719 3.953125 8.710938 5.542969c3.789062 1.574219 7.714843 3.207031 10.492187 6.035156 2.664063 2.710937 4.160156 6.5625 5.609375 10.292969 1.539062 3.953125 3.128906 8.042968 5.625 9.105468 2.492188 1.058594 6.539062-.640624 10.453125-2.285156 3.648437-1.53125 7.421875-3.113281 11.183594-3.113281zm56.429687-23.097656h.019532zm0 0" fill="#3762cc"/><path d="m347.058594 488.359375c-1.746094 0-3.449219-.648437-4.742188-1.882813l-18.949218-18.046874-17.609376 17.683593c-1.972656 1.980469-4.953124 2.550781-7.59375 1.457031-2.476562-1.019531-4.015624-3.253906-4.015624-5.824218v-52.328125c0-1.558594.90625-2.976563 2.320312-3.628907 1.417969-.652343 3.082031-.425781 4.269531.582032.378907.320312.730469.550781 1.070313.695312 2.496094 1.054688 6.539062-.640625 10.457031-2.28125 3.683594-1.542968 7.464844-3.125 11.296875-3.113281 3.960938.035156 7.859375 1.722656 11.625 3.355469 3.800781 1.648437 7.730469 3.351562 10.039062 2.417968.535157-.214843 1.058594-.617187 1.597657-1.214843 1.109375-1.234375 2.863281-1.65625 4.410156-1.0625 1.542969.59375 2.566406 2.078125 2.566406 3.734375v53.089844c0 2.53125-1.507812 4.75-3.933593 5.789062-.910157.386719-1.863282.578125-2.808594.578125zm-23.707032-28.316406c1.730469 0 3.460938.617187 4.761719 1.859375l17.6875 16.847656v-43.210938c-4.667969.78125-9.476562-1.300781-13.792969-3.171874-3.035156-1.316407-6.171874-2.675782-8.511718-2.695313-.015625 0-.03125 0-.046875 0-2.152344 0-5.171875 1.265625-8.089844 2.488281-4.128906 1.730469-8.703125 3.65625-13.210937 3.160156v43.078126l16.3125-16.378907c1.308593-1.316406 3.101562-1.976562 4.890624-1.976562zm0 0" fill="#3762cc"/><path d="m323.976562 413.980469c-21.582031 0-39.140624-17.558594-39.140624-39.136719 0-21.582031 17.558593-39.140625 39.140624-39.140625 21.582032 0 39.136719 17.558594 39.136719 39.140625 0 21.578125-17.554687 39.136719-39.136719 39.136719zm0-70.277344c-17.167968 0-31.140624 13.96875-31.140624 31.140625 0 17.167969 13.96875 31.136719 31.140624 31.136719 17.167969 0 31.136719-13.96875 31.136719-31.136719 0-17.171875-13.96875-31.140625-31.136719-31.140625zm0 0" fill="#3762cc"/><path d="m313.898438 356.164062v5.578126c0 1.101562.894531 2 2 2h.988281c1.101562 0 2 .894531 2 2v29.511718c0 1.101563.894531 2 2 2h6.164062c1.105469 0 2-.898437 2-2v-39.089844c0-1.101562-.894531-2-2-2h-11.152343c-1.105469 0-2 .894532-2 2zm0 0" fill="#f9a7a7"/><path d="m39.59375 277.667969c-7.078125 15.472656-18.824219 28.367187-33.445312 36.886719-2.625 1.527343-2.625 5.234374 0 6.765624 14.617187 8.515626 26.363281 21.410157 33.445312 36.886719 1.375 3.007813 5.660156 3.007813 7.035156 0 7.078125-15.476562 18.824219-28.367187 33.445313-36.886719 2.625-1.53125 2.625-5.238281 0-6.765624-14.621094-8.519532-26.367188-21.410157-33.449219-36.886719-1.371094-3.007813-5.65625-3.007813-7.03125 0zm0 0" fill="#ffea92"/><path d="m394.96875 418.160156c-4.152344 9.074219-11.039062 16.632813-19.609375 21.625-1.539063.898438-1.539063 3.070313 0 3.96875 8.570313 4.992188 15.457031 12.550782 19.609375 21.625.804688 1.761719 3.316406 1.761719 4.125 0 4.152344-9.070312 11.039062-16.632812 19.605469-21.625 1.539062-.898437 1.539062-3.070312 0-3.96875-8.570313-4.992187-15.457031-12.550781-19.605469-21.625-.808594-1.761718-3.320312-1.761718-4.125 0zm0 0" fill="#ffea92"/><path d="m368.140625 75.917969-171.8125-70.5c-4.597656-1.886719-9.710937-1.886719-14.3125 0l-171.757813 70.480469c-8.222656 3.371093-8.066406 15.570312.234376 18.714843l63.539062 24.085938v-20.871094c0-1.953125 2.550781-3.742187 6.484375-4.457031 99.082031-18.019532 198.402344-4.285156 224.921875.039062 4.136719.671875 6.851562 2.476563 6.851562 4.503906v17.761719l55.617188-21.078125c8.28125-3.140625 8.433594-15.316406.234375-18.679687zm0 0" fill="#a4c9ff"/><path d="m74.03125 122.699219c-.476562 0-.957031-.085938-1.417969-.261719l-63.539062-24.082031c-5.324219-2.019531-8.816407-7.101563-8.894531-12.949219-.078126-5.859375 3.28125-11.042969 8.558593-13.210938l171.761719-70.476562c5.59375-2.292969 11.753906-2.292969 17.347656 0l171.808594 70.5c5.269531 2.164062 8.625 7.339844 8.546875 13.1875-.082031 5.839844-3.566406 10.917969-8.882813 12.929688l-55.613281 21.082031c-1.226562.460937-2.605469.296875-3.6875-.449219s-1.730469-1.976562-1.730469-3.292969v-17.132812c-.457031-.324219-1.554687-.871094-3.496093-1.1875-27.6875-4.515625-125.628907-17.859375-223.5625-.050781-1.761719.320312-2.765625.835937-3.199219 1.144531v20.25c0 1.3125-.644531 2.542969-1.726562 3.292969-.679688.46875-1.472657.707031-2.273438.707031zm115.140625-114.699219c-1.910156 0-3.820313.375-5.636719 1.121094l-171.757812 70.476562c-2.695313 1.105469-3.625 3.667969-3.597656 5.703125.027343 2.019531 1.023437 4.546875 3.734374 5.574219l58.117188 22.03125v-14.988281c0-4.171875 3.746094-7.386719 9.769531-8.484375 99.191407-18.039063 198.277344-4.539063 226.28125.03125 6.300781 1.023437 10.210938 4.261718 10.210938 8.453125v11.96875l50.195312-19.03125c2.699219-1.023438 3.691407-3.539063 3.71875-5.554688.027344-2.023437-.898437-4.578125-3.585937-5.679687l-171.808594-70.5c-1.820312-.746094-3.730469-1.121094-5.640625-1.121094zm0 0" fill="#3762cc"/></svg>