<svg xmlns="http://www.w3.org/2000/svg" width="502" height="574.849" viewBox="0 0 502 574.849">
  <g id="Group_310" data-name="Group 310" transform="translate(-10247 -1150)">
    <circle id="Ellipse_18" data-name="Ellipse 18" cx="251" cy="251" r="251" transform="translate(10247 1150)" fill="#fff"/>
    <g id="courses" transform="translate(10291.821 1199.001)">
      <path id="Path_306" data-name="Path 306" d="M268.209,338.962H250.7c-.038,0-.076-.008-.114-.008l0,.008H135.431c-30.419,0-55.083,22.806-55.083,50.932v46.238H323.3V389.893c0-28.126-24.665-50.932-55.087-50.932Zm0,0" transform="translate(6.154 26.019)" fill="#a4c9ff"/>
      <path id="Path_307" data-name="Path 307" d="M206.61,401.891H182.567l-8.017,29.489h40.08Zm0,0" transform="translate(13.385 30.851)" fill="#851c61"/>
      <path id="Path_308" data-name="Path 308" d="M193.034,362.784l.585-.484h-1.173Zm0,0" transform="translate(14.759 27.812)" fill="#f9a7a7"/>
      <path id="Path_309" data-name="Path 309" d="M210.07,391.131l-15.924-27.966-15.929,27.966c-.072.126-.177.219-.257.336l4.349,13.4h24.042l4.236-13.056a5.141,5.141,0,0,1-.517-.677Zm0,0" transform="translate(13.647 27.878)" fill="#851c61"/>
      <path id="Path_310" data-name="Path 310" d="M323.6,440.745H80.655a4.307,4.307,0,0,1-4.307-4.307V390.2c0-30.461,26.646-55.239,59.39-55.239H250.67a4.146,4.146,0,0,1,.458,0h17.392c32.749,0,59.39,24.782,59.39,55.239v46.238a4.307,4.307,0,0,1-4.307,4.307ZM84.962,432.131H319.3V390.2c0-25.708-22.78-46.625-50.776-46.625H135.739c-28,0-50.776,20.917-50.776,46.625Zm0,0" transform="translate(5.847 25.712)" fill="#3762cc"/>
      <path id="Path_311" data-name="Path 311" d="M305.4,185.313H285.844q.29,3.7.294,7.474v9.363c.215,0,.416-.029.631-.029a30.538,30.538,0,0,1,20.5,7.886V185.149a11.955,11.955,0,0,1-1.872.164Zm0,0" transform="translate(21.929 14.213)" fill="#4671c6"/>
      <path id="Path_312" data-name="Path 312" d="M307.576,214.62a4.3,4.3,0,0,1-2.881-1.11,26.3,26.3,0,0,0-17.619-6.776c-.21.017-.379.025-.547.029a4.423,4.423,0,0,1-3.1-1.228,4.325,4.325,0,0,1-1.291-3.079v-9.363c0-2.36-.093-4.761-.278-7.142a4.3,4.3,0,0,1,4.294-4.639h19.558a7.437,7.437,0,0,0,1.19-.114,4.309,4.309,0,0,1,4.98,4.257v24.858a4.3,4.3,0,0,1-2.557,3.933,4.252,4.252,0,0,1-1.75.374Zm-16.829-16.307a34.847,34.847,0,0,1,12.522,3.79V189.926H290.7q.05,1.59.05,3.167Zm0,0" transform="translate(21.622 13.905)" fill="#3762cc"/>
      <path id="Path_313" data-name="Path 313" d="M196.4,328.757a100.22,100.22,0,0,1-45.388-10.78v20.61a10.172,10.172,0,0,0,.252,2.116h.013a10.489,10.489,0,0,0,.652,2.01c.038.084.072.168.114.252.122.265.261.522.408.774s.3.484.471.715c.088.126.168.261.265.383l6.448,8.194a45.773,45.773,0,0,0,25.4,16.437c1.354.315,2.759.589,4.206.808a45.944,45.944,0,0,0,42.911-17.645l9.4-12.122a10.094,10.094,0,0,0,.215-1.981V317.989A100.245,100.245,0,0,1,196.4,328.757Zm0,0" transform="translate(11.578 24.409)" fill="#f9cfcf"/>
      <path id="Path_314" data-name="Path 314" d="M303.173,208.642c-.215,0-.421.025-.635.029v-9.363c0-54.747-44.782-99.125-100.025-99.125s-100.03,44.379-100.03,99.125v9.363c-.21,0-.421-.029-.631-.029a30.243,30.243,0,1,0,0,60.484,31.152,31.152,0,0,0,3.272-.181c10.322,43.853,49.99,76.53,97.384,76.53s87.062-32.677,97.384-76.53a31.169,31.169,0,0,0,3.277.181,30.243,30.243,0,1,0,0-60.484Zm0,0" transform="translate(5.462 7.691)" fill="#f9cfcf"/>
      <path id="Path_315" data-name="Path 315" d="M147.749,246.35a10.51,10.51,0,0,1-10.5-10.5v-17.5a10.5,10.5,0,1,1,21,0v17.5A10.509,10.509,0,0,1,147.749,246.35Zm0,0" transform="translate(10.522 15.955)" fill="#3762cc"/>
      <path id="Path_316" data-name="Path 316" d="M239.636,246.35a10.51,10.51,0,0,1-10.5-10.5v-17.5a10.5,10.5,0,1,1,21,0v17.5A10.509,10.509,0,0,1,239.636,246.35Zm0,0" transform="translate(17.575 15.955)" fill="#3762cc"/>
      <path id="Path_317" data-name="Path 317" d="M202.818,350.089c-47.521,0-88.417-31.218-100.686-76.349a34.538,34.538,0,0,1-3.647-68.909v-5.216c0-57.035,46.806-103.432,104.337-103.432s104.332,46.4,104.332,103.432v5.216a34.538,34.538,0,0,1-3.642,68.909C291.235,318.871,250.339,350.089,202.818,350.089Zm-97.38-85.144a4.308,4.308,0,0,1,4.189,3.323c10.145,43.1,48.467,73.207,93.191,73.207s83.045-30.107,93.191-73.207a4.33,4.33,0,0,1,4.648-3.3,26.477,26.477,0,0,0,2.822.156,25.936,25.936,0,1,0,.042-51.87c-.257.017-.421.025-.589.029a4.467,4.467,0,0,1-3.1-1.228,4.325,4.325,0,0,1-1.291-3.079v-9.363c0-52.286-42.94-94.818-95.723-94.818S107.1,147.33,107.1,199.616v9.363a4.325,4.325,0,0,1-1.291,3.079,4.474,4.474,0,0,1-3.1,1.228q-.259-.006-.5-.025h-.013a25.934,25.934,0,1,0-.03,51.865,26.477,26.477,0,0,0,2.822-.156A4.247,4.247,0,0,1,105.439,264.945Zm0,0" transform="translate(5.156 7.383)" fill="#3762cc"/>
      <path id="Path_318" data-name="Path 318" d="M80.922,174.172V210.3a30.535,30.535,0,0,1,19.895-7.34c.21,0,.416.025.631.029v-9.363c0-2.822.139-5.607.379-8.362A45.707,45.707,0,0,1,80.922,174.172Zm0,0" transform="translate(6.198 13.37)" fill="#4671c6"/>
      <path id="Path_319" data-name="Path 319" d="M81.229,214.917a4.316,4.316,0,0,1-4.307-4.307v-36.13a4.306,4.306,0,0,1,7.239-3.155A41.49,41.49,0,0,0,103.1,181.377a4.306,4.306,0,0,1,3.327,4.568c-.244,2.81-.362,5.422-.362,7.992V203.3a4.312,4.312,0,0,1-1.3,3.079,4.521,4.521,0,0,1-3.1,1.228c-.172,0-.341-.013-.509-.025h-.021a26.322,26.322,0,0,0-17.115,6.3,4.323,4.323,0,0,1-2.8,1.031Zm4.307-31.689v19.407a34.951,34.951,0,0,1,11.912-3.478v-5.22c0-1.682.042-3.382.139-5.127a50.2,50.2,0,0,1-12.05-5.582Zm0,0" transform="translate(5.891 13.063)" fill="#3762cc"/>
      <path id="Path_320" data-name="Path 320" d="M368.729,212.551a9.315,9.315,0,0,1-9.3-9.325V86.091a9.3,9.3,0,1,1,18.608,0V203.226A9.312,9.312,0,0,1,368.729,212.551Zm0,0" transform="translate(27.577 5.893)" fill="#851c61"/>
      <path id="Path_321" data-name="Path 321" d="M383.776,239.171H355.065a4.642,4.642,0,0,1-4.644-4.644V204.512a18.963,18.963,0,0,1,18.965-18.961h.072a18.963,18.963,0,0,1,18.965,18.961v30.015a4.648,4.648,0,0,1-4.648,4.644Zm0,0" transform="translate(26.886 14.244)" fill="#851c61"/>
      <path id="Path_322" data-name="Path 322" d="M302.538,194.128H266.6a28.368,28.368,0,0,1-28.37-28.37V137.952a17.022,17.022,0,0,1,17.018-17.022h18.061a38.432,38.432,0,0,1,38.431,38.431v25.565a9.2,9.2,0,0,1-9.2,9.2Zm0,0" transform="translate(18.273 9.283)" fill="#4671c6"/>
      <path id="Path_323" data-name="Path 323" d="M302.845,198.743H266.9a32.713,32.713,0,0,1-32.677-32.677V138.259a21.351,21.351,0,0,1,21.325-21.329h18.061a42.786,42.786,0,0,1,42.738,42.738v25.565a13.52,13.52,0,0,1-13.506,13.51Zm-47.289-73.2a12.729,12.729,0,0,0-12.715,12.715v27.807A24.093,24.093,0,0,0,266.9,190.128h35.941a4.9,4.9,0,0,0,4.9-4.9V159.668a34.166,34.166,0,0,0-34.124-34.124Zm0,0" transform="translate(17.966 8.976)" fill="#3762cc"/>
      <path id="Path_324" data-name="Path 324" d="M208.733,194.352H109.367A33.045,33.045,0,0,1,76.324,161.3V150.419a32.393,32.393,0,0,1,32.391-32.4H223.092a27.563,27.563,0,0,1,27.563,27.563v6.843a41.923,41.923,0,0,1-41.922,41.922Zm0,0" transform="translate(5.845 9.06)" fill="#4671c6"/>
      <path id="Path_325" data-name="Path 325" d="M209.04,198.966H109.679a37.4,37.4,0,0,1-37.354-37.354v-10.89a36.74,36.74,0,0,1,36.7-36.7H223.4a31.906,31.906,0,0,1,31.87,31.87v6.843a46.281,46.281,0,0,1-46.229,46.229ZM109.023,122.637a28.118,28.118,0,0,0-28.084,28.088v10.885a28.774,28.774,0,0,0,28.74,28.74H209.04a37.659,37.659,0,0,0,37.615-37.615v-6.843A23.283,23.283,0,0,0,223.4,122.637Zm0,0" transform="translate(5.538 8.753)" fill="#3762cc"/>
      <path id="Path_326" data-name="Path 326" d="M323.2,94.1c-28.555-4.656-135.5-19.445-242.188-.042-4.236.77-6.982,2.7-6.982,4.8v48.072c0,2.183,2.927,4.126,7.382,4.85,28.551,4.656,135.5,19.445,242.188.042,4.231-.77,6.978-2.7,6.978-4.8V98.958c0-2.183-2.923-4.126-7.378-4.854Zm0,0" transform="translate(5.669 6.473)" fill="#a4c9ff"/>
      <path id="Path_327" data-name="Path 327" d="M207.929,166.188a819.9,819.9,0,0,1-126.9-9.846c-6.78-1.106-10.995-4.6-10.995-9.1V99.269c0-4.492,4.034-7.954,10.519-9.136,106.81-19.424,213.5-4.887,243.651.029,6.784,1.106,10.995,4.593,10.995,9.1v47.971c0,4.492-4.029,7.954-10.52,9.131-40.29,7.327-80.589,9.821-116.749,9.821ZM78.646,146.563a9.446,9.446,0,0,0,3.769,1.279c29.817,4.858,135.293,19.226,240.724.05a8.9,8.9,0,0,0,3.445-1.232V99.942a9.417,9.417,0,0,0-3.769-1.279C293.007,93.8,187.547,79.429,82.1,98.613a8.951,8.951,0,0,0-3.449,1.228Zm248.181-46.41h.021Zm0,0" transform="translate(5.362 6.165)" fill="#3762cc"/>
      <path id="Path_328" data-name="Path 328" d="M196.06,375.377a48.276,48.276,0,0,1-7.155-.534c-1.523-.227-3.054-.522-4.551-.875A50.223,50.223,0,0,1,156.552,356l-6.448-8.2c-.122-.151-.252-.341-.383-.534-.231-.324-.463-.673-.673-1.035a12.788,12.788,0,0,1-.6-1.136c-.021-.042-.118-.261-.139-.307a14.831,14.831,0,0,1-.854-2.507,3.556,3.556,0,0,1-.1-.379,14.112,14.112,0,0,1-.345-3.012v-20.61a4.306,4.306,0,0,1,6.25-3.844,96.627,96.627,0,0,0,86.865.013,4.3,4.3,0,0,1,6.246,3.844v20.538a14.537,14.537,0,0,1-.294,2.822,4.294,4.294,0,0,1-.82,1.8l-9.4,12.126a50.583,50.583,0,0,1-39.8,19.794Zm-40.337-35.533c.025.084.046.172.067.265a6.155,6.155,0,0,0,.387,1.182,5.526,5.526,0,0,0,.29.58c.072.122.16.248.248.37.034.05.16.231.189.282l6.414,8.16a41.6,41.6,0,0,0,23,14.9c1.274.3,2.574.547,3.865.744a41.658,41.658,0,0,0,38.864-16.021l8.7-11.23c0-.08.008-.16.008-.236V325.055a105.449,105.449,0,0,1-82.137-.013V338.9a5.381,5.381,0,0,0,.1.942Zm0,0" transform="translate(11.272 24.102)" fill="#3762cc"/>
      <path id="Path_329" data-name="Path 329" d="M153.246,327.988H137.784a8.247,8.247,0,0,0-5.531,2.069l-9.279,8.408a3.214,3.214,0,0,0-.172,4.719l50.12,51.693a6.21,6.21,0,0,0,9.6-1.047l16.1-28.269Zm0,0" transform="translate(9.34 25.178)" fill="#e0ebfc"/>
      <path id="Path_330" data-name="Path 330" d="M238.208,327.988H253.67a8.266,8.266,0,0,1,5.535,2.069l9.279,8.408a3.21,3.21,0,0,1,.168,4.719l-50.12,51.693a6.21,6.21,0,0,1-9.6-1.047l-16.1-28.269Zm0,0" transform="translate(14.789 25.178)" fill="#e0ebfc"/>
      <g id="Group_309" data-name="Group 309" transform="translate(126.885 348.859)">
        <path id="Path_331" data-name="Path 331" d="M177.633,401.292a10.468,10.468,0,0,1-7.5-3.1l-50.12-51.7a7.52,7.52,0,0,1,.374-10.915l9.279-8.4a12.507,12.507,0,0,1,8.425-3.184h15.462a4.3,4.3,0,0,1,2.747.988l45.375,37.577a4.293,4.293,0,0,1,.993,5.443l-16.1,28.269A10.021,10.021,0,0,1,179,401.2a10.588,10.588,0,0,1-1.363.088Zm-50.684-60.03,49.376,50.928a1.912,1.912,0,0,0,1.59.471,1.545,1.545,0,0,0,1.174-.656L193.4,366.882,152.005,332.6H138.1a3.958,3.958,0,0,0-2.641.951Zm0,0" transform="translate(-117.852 -323.988)" fill="#3762cc"/>
        <path id="Path_332" data-name="Path 332" d="M214.434,401.292a11.4,11.4,0,0,1-1.363-.084,10.025,10.025,0,0,1-7.575-4.938L189.4,368a4.3,4.3,0,0,1,.993-5.447l45.375-37.573a4.294,4.294,0,0,1,2.747-.993h15.462a12.5,12.5,0,0,1,8.425,3.184l9.283,8.408a7.524,7.524,0,0,1,.37,10.915l-50.12,51.7a10.474,10.474,0,0,1-7.5,3.1Zm-15.764-34.41,14.309,25.127a1.568,1.568,0,0,0,1.178.652,1.912,1.912,0,0,0,1.59-.471l49.376-50.928-8.5-7.706a3.962,3.962,0,0,0-2.641-.955h-13.91Zm0,0" transform="translate(-112.403 -323.988)" fill="#3762cc"/>
        <path id="Path_333" data-name="Path 333" d="M177.633,401.292a10.468,10.468,0,0,1-7.5-3.1l-50.12-51.7a7.52,7.52,0,0,1,.374-10.915l9.279-8.4a12.507,12.507,0,0,1,8.425-3.184h15.462a4.3,4.3,0,0,1,2.747.988l45.375,37.577a4.293,4.293,0,0,1,.993,5.443l-16.1,28.269A10.021,10.021,0,0,1,179,401.2a10.588,10.588,0,0,1-1.363.088Zm-50.684-60.03,49.376,50.928a1.912,1.912,0,0,0,1.59.471,1.545,1.545,0,0,0,1.174-.656L193.4,366.882,152.005,332.6H138.1a3.958,3.958,0,0,0-2.641.951Zm0,0" transform="translate(-117.852 -323.988)" fill="#3762cc"/>
        <path id="Path_334" data-name="Path 334" d="M214.434,401.292a11.4,11.4,0,0,1-1.363-.084,10.025,10.025,0,0,1-7.575-4.938L189.4,368a4.3,4.3,0,0,1,.993-5.447l45.375-37.573a4.294,4.294,0,0,1,2.747-.993h15.462a12.5,12.5,0,0,1,8.425,3.184l9.283,8.408a7.524,7.524,0,0,1,.37,10.915l-50.12,51.7a10.474,10.474,0,0,1-7.5,3.1Zm-15.764-34.41,14.309,25.127a1.568,1.568,0,0,0,1.178.652,1.912,1.912,0,0,0,1.59-.471l49.376-50.928-8.5-7.706a3.962,3.962,0,0,0-2.641-.955h-13.91Zm0,0" transform="translate(-112.403 -323.988)" fill="#3762cc"/>
      </g>
      <path id="Path_335" data-name="Path 335" d="M211.325,270.758H177.852a3.3,3.3,0,0,0-3.3,3.3v8.261a12.014,12.014,0,0,0,3.71,8.45,19.773,19.773,0,0,0,11.764,5.321h9.131a19.759,19.759,0,0,0,11.76-5.321,12.009,12.009,0,0,0,3.714-8.45V274.06a3.306,3.306,0,0,0-3.306-3.3Zm0,0" transform="translate(13.385 20.784)" fill="#f9a7a7"/>
      <path id="Path_336" data-name="Path 336" d="M199.386,299.552h-9.131a2.666,2.666,0,0,1-.366-.021,22.892,22.892,0,0,1-13.691-6.254,15.265,15.265,0,0,1-4.648-10.721v-8.261a6.539,6.539,0,0,1,6.532-6.536h33.472a6.543,6.543,0,0,1,6.536,6.536v8.261a15.27,15.27,0,0,1-4.652,10.721,22.88,22.88,0,0,1-13.687,6.254,2.666,2.666,0,0,1-.366.021Zm-8.938-6.461H199.2a16.584,16.584,0,0,0,9.657-4.366,8.732,8.732,0,0,0,2.78-6.17l-.076-8.337H178.083l-.072,8.337a8.756,8.756,0,0,0,2.772,6.17,16.609,16.609,0,0,0,9.666,4.366Zm0,0" transform="translate(13.155 20.554)" fill="#3762cc"/>
      <path id="Path_337" data-name="Path 337" d="M388.536,404.761c-3.18,7.5-16.362,8.114-21.83,13.485-5.67,5.565-6.612,18.662-13.868,21.594s-17.031-5.834-24.98-5.9c-7.664-.063-17.573,8.648-25.068,5.464s-8.118-16.358-13.485-21.83c-5.569-5.67-18.667-6.612-21.6-13.868s5.838-17.031,5.9-24.976c.063-7.668-8.648-17.577-5.464-25.073s16.362-8.114,21.83-13.485c5.67-5.569,6.616-18.667,13.872-21.6s17.026,5.838,24.976,5.9c7.664.067,17.573-8.644,25.068-5.464s8.118,16.362,13.489,21.834c5.565,5.67,18.662,6.612,21.594,13.868s-5.838,17.031-5.9,24.976c-.063,7.664,8.644,17.573,5.464,25.073Zm0,0" transform="translate(20.49 24.409)" fill="#f9a7a7"/>
      <path id="Path_338" data-name="Path 338" d="M364.508,377.542A37.836,37.836,0,1,1,326.674,339.7,37.833,37.833,0,0,1,364.508,377.542Zm0,0" transform="translate(22.158 26.077)" fill="#851c61"/>
      <path id="Path_339" data-name="Path 339" d="M350.456,431.573c-7.256,2.932-17.031-5.834-24.98-5.9-7.664-.063-17.573,8.643-25.068,5.464a8.708,8.708,0,0,1-2.259-1.43V486.05c0,2.355,3.369,3.445,5.14,1.661l19.781-19.857a3.225,3.225,0,0,1,4.374-.05l21.232,20.223c1.8,1.716,5.089.61,5.089-1.716V429.146a9.022,9.022,0,0,1-3.31,2.427Zm0,0" transform="translate(22.873 32.676)" fill="#6bdddd"/>
      <path id="Path_340" data-name="Path 340" d="M349.915,445.056c-4.311,0-8.656-1.884-12.618-3.6-3.268-1.417-6.646-2.881-9.165-2.9h-.05c-2.318,0-5.569,1.363-8.711,2.679-5.59,2.347-11.928,5-17.956,2.444s-8.522-8.963-10.717-14.612c-1.245-3.2-2.528-6.507-4.16-8.168-1.762-1.8-5.165-3.209-8.458-4.58-5.485-2.28-11.7-4.862-14.057-10.692s.324-12,2.684-17.455c1.417-3.268,2.881-6.65,2.906-9.169.017-2.322-1.354-5.6-2.684-8.761-2.343-5.59-5-11.924-2.44-17.956s8.963-8.517,14.612-10.717c3.2-1.245,6.507-2.532,8.164-4.16,1.8-1.767,3.213-5.165,4.58-8.454,2.28-5.489,4.866-11.71,10.692-14.061s12,.32,17.46,2.688c3.268,1.417,6.646,2.881,9.165,2.9,2.355,0,5.6-1.354,8.761-2.684,5.59-2.343,11.924-5,17.956-2.44s8.522,8.963,10.717,14.612c1.245,3.2,2.532,6.507,4.16,8.164,1.767,1.8,5.165,3.213,8.454,4.58,5.489,2.28,11.71,4.866,14.061,10.692s-.324,12-2.688,17.46c-1.417,3.268-2.881,6.646-2.9,9.165-.021,2.326,1.354,5.6,2.679,8.761,2.347,5.59,5,11.924,2.444,17.96s-8.963,8.517-14.612,10.717c-3.2,1.241-6.511,2.528-8.168,4.156-1.8,1.767-3.213,5.169-4.576,8.458-2.284,5.489-4.866,11.706-10.692,14.057a12.725,12.725,0,0,1-4.841.917Zm-21.834-15.117h.122c4.265.034,8.463,1.855,12.517,3.613,4.093,1.771,8.324,3.6,10.81,2.6s4.252-5.258,5.964-9.375c1.7-4.084,3.453-8.3,6.5-11.293,2.923-2.869,7.07-4.484,11.079-6.044,4.261-1.657,8.665-3.369,9.8-6.053s-.686-7.045-2.456-11.26c-1.661-3.971-3.386-8.072-3.348-12.164.034-4.269,1.851-8.467,3.609-12.522,1.775-4.093,3.609-8.32,2.6-10.806s-5.262-4.252-9.38-5.964c-4.08-1.7-8.3-3.457-11.3-6.5-2.869-2.919-4.48-7.066-6.04-11.079-1.653-4.261-3.365-8.665-6.053-9.809s-7.045.69-11.26,2.461c-3.971,1.661-8.08,3.3-12.164,3.352-4.269-.038-8.467-1.855-12.522-3.613-4.093-1.775-8.324-3.613-10.806-2.6s-4.257,5.262-5.964,9.375c-1.7,4.084-3.453,8.307-6.5,11.3-2.923,2.869-7.07,4.479-11.083,6.044-4.257,1.653-8.66,3.365-9.8,6.053s.686,7.045,2.452,11.26c1.666,3.971,3.386,8.072,3.352,12.164-.038,4.269-1.855,8.467-3.613,12.522-1.771,4.088-3.6,8.32-2.6,10.806s5.262,4.257,9.38,5.968c4.08,1.7,8.307,3.453,11.3,6.5,2.869,2.919,4.479,7.066,6.04,11.083,1.657,4.257,3.369,8.66,6.057,9.8s7.041-.69,11.256-2.461c3.928-1.649,7.992-3.352,12.042-3.352Zm60.761-24.871h.021Zm0,0" transform="translate(20.184 24.102)" fill="#3762cc"/>
      <path id="Path_341" data-name="Path 341" d="M351.121,493.478a7.374,7.374,0,0,1-5.106-2.027l-20.4-19.432L306.649,491.06a7.458,7.458,0,0,1-8.177,1.569,6.742,6.742,0,0,1-4.324-6.271V430.012a4.307,4.307,0,0,1,7.1-3.281,4.633,4.633,0,0,0,1.152.749c2.688,1.136,7.041-.69,11.26-2.456,3.966-1.661,8.038-3.365,12.164-3.352,4.265.038,8.463,1.855,12.517,3.613,4.093,1.775,8.324,3.609,10.81,2.6a4.807,4.807,0,0,0,1.72-1.308,4.307,4.307,0,0,1,7.512,2.877v57.165a6.753,6.753,0,0,1-4.236,6.233,7.724,7.724,0,0,1-3.024.622Zm-25.527-30.49a7.406,7.406,0,0,1,5.127,2l19.045,18.141V436.6c-5.026.841-10.2-1.4-14.852-3.415-3.268-1.417-6.646-2.881-9.165-2.9h-.05c-2.318,0-5.569,1.363-8.711,2.679-4.446,1.863-9.371,3.937-14.225,3.4v46.385l17.565-17.636A7.414,7.414,0,0,1,325.594,462.988Zm0,0" transform="translate(22.566 32.369)" fill="#3762cc"/>
      <path id="Path_342" data-name="Path 342" d="M326.982,419.989a42.143,42.143,0,1,1,42.141-42.141A42.192,42.192,0,0,1,326.982,419.989Zm0-75.672a33.529,33.529,0,1,0,33.527,33.531A33.571,33.571,0,0,0,326.982,344.317Zm0,0" transform="translate(21.851 25.77)" fill="#3762cc"/>
      <path id="Path_343" data-name="Path 343" d="M313.9,356.318v6.006a2.155,2.155,0,0,0,2.154,2.154h1.064a2.155,2.155,0,0,1,2.154,2.154v31.777a2.155,2.155,0,0,0,2.154,2.154h6.637a2.155,2.155,0,0,0,2.154-2.154v-42.09a2.155,2.155,0,0,0-2.154-2.154H316.052a2.152,2.152,0,0,0-2.154,2.154Zm0,0" transform="translate(24.082 27.187)" fill="#fff"/>
      <path id="Path_344" data-name="Path 344" d="M42.312,277.841A88.813,88.813,0,0,1,6.3,317.559a4.189,4.189,0,0,0,0,7.285,88.818,88.818,0,0,1,36.013,39.718,4.168,4.168,0,0,0,7.575,0A88.792,88.792,0,0,1,85.9,324.844a4.189,4.189,0,0,0,0-7.285,88.825,88.825,0,0,1-36.017-39.718,4.164,4.164,0,0,0-7.571,0Zm0,0" transform="translate(0.307 21.142)" fill="#851c61"/>
      <path id="Path_345" data-name="Path 345" d="M396.563,418.261a52.066,52.066,0,0,1-21.115,23.285,2.458,2.458,0,0,0,0,4.273A52.066,52.066,0,0,1,396.563,469.1a2.445,2.445,0,0,0,4.442,0,52.1,52.1,0,0,1,21.11-23.285,2.458,2.458,0,0,0,0-4.273A52.033,52.033,0,0,1,401,418.261,2.445,2.445,0,0,0,396.563,418.261Zm0,0" transform="translate(28.712 31.998)" fill="#851c61"/>
      <path id="Path_346" data-name="Path 346" d="M396.08,81.438l-185-75.912a20.246,20.246,0,0,0-15.411,0L10.724,81.417c-8.854,3.63-8.686,16.766.252,20.151L79.393,127.5V105.03c0-2.1,2.747-4.029,6.982-4.8,106.688-19.4,213.632-4.614,242.188.042,4.454.723,7.378,2.667,7.378,4.85v19.125l59.887-22.7c8.917-3.382,9.081-16.492.252-20.114Zm0,0" transform="translate(0.307 0.307)" fill="#a4c9ff"/>
      <path id="Path_347" data-name="Path 347" d="M79.7,132.118a4.283,4.283,0,0,1-1.527-.282L9.757,105.905A15.254,15.254,0,0,1,9.4,77.737L194.342,1.851a24.479,24.479,0,0,1,18.679,0l185,75.912a15.228,15.228,0,0,1-.362,28.122l-59.882,22.7a4.31,4.31,0,0,1-5.834-4.029V106.107a9.388,9.388,0,0,0-3.764-1.279C298.364,99.966,192.9,85.6,87.453,104.774a8.871,8.871,0,0,0-3.445,1.232v21.8a4.3,4.3,0,0,1-4.307,4.307ZM203.68,8.614a15.956,15.956,0,0,0-6.069,1.207L12.668,85.708a6.643,6.643,0,0,0,.147,12.143l62.578,23.723V105.435c0-4.492,4.034-7.954,10.519-9.136,106.806-19.424,213.5-4.887,243.651.034,6.784,1.1,10.995,4.589,10.995,9.1v12.888L394.607,97.83a6.618,6.618,0,0,0,.143-12.1l-185-75.912a15.993,15.993,0,0,0-6.074-1.207Zm0,0" transform="translate(0)" fill="#3762cc"/>
    </g>
  </g>
</svg>
