<svg id="new" xmlns="http://www.w3.org/2000/svg" width="43.487" height="43.483" viewBox="0 0 43.487 43.483">
  <path id="Path_140" data-name="Path 140" d="M41.014,18.548c-.669-.493-1.513-1.11-1.615-1.513a5.062,5.062,0,0,1,.65-2.218c.59-1.354,1.2-2.757.522-3.923s-2.216-1.356-3.7-1.513a5.036,5.036,0,0,1-2.21-.527,5.034,5.034,0,0,1-.526-2.218c-.166-1.48-.338-3.012-1.513-3.7s-2.579-.085-3.932.512a5.077,5.077,0,0,1-2.22.65c-.408-.11-1.023-.945-1.513-1.615C24.1,1.332,23.138.02,21.742.02s-2.361,1.312-3.214,2.469c-.5.671-1.11,1.513-1.513,1.616a5.186,5.186,0,0,1-2.22-.65c-1.361-.6-2.764-1.2-3.927-.524S9.512,5.147,9.345,6.637a5.06,5.06,0,0,1-.526,2.21,5.051,5.051,0,0,1-2.2.518c-1.482.166-3.016.338-3.7,1.513s-.083,2.577.514,3.933a5.059,5.059,0,0,1,.65,2.225c-.11.408-.945,1.025-1.615,1.513C1.312,19.4,0,20.367,0,21.762s1.312,2.363,2.471,3.214c.669.493,1.513,1.11,1.615,1.513a5.062,5.062,0,0,1-.65,2.218c-.59,1.354-1.2,2.757-.522,3.923s2.216,1.356,3.7,1.513a5.036,5.036,0,0,1,2.21.527,5.034,5.034,0,0,1,.526,2.218c.166,1.48.338,3.012,1.513,3.7s2.568.068,3.923-.522a5.192,5.192,0,0,1,2.235-.643c.408.11,1.023.945,1.513,1.615.853,1.157,1.819,2.469,3.214,2.469s2.361-1.312,3.214-2.469c.5-.671,1.11-1.513,1.513-1.616a5.1,5.1,0,0,1,2.22.65c1.354.59,2.757,1.195,3.921.524s1.357-2.216,1.524-3.7a5.06,5.06,0,0,1,.526-2.21,5.051,5.051,0,0,1,2.208-.524c1.482-.166,3.016-.338,3.7-1.513s.066-2.568-.522-3.923a5.059,5.059,0,0,1-.643-2.235c.11-.408.945-1.025,1.615-1.513,1.157-.853,2.471-1.821,2.471-3.214S42.173,19.4,41.014,18.548Z" transform="translate(0 -0.02)" fill="#ff4f19"/>
  <g id="Group_96" data-name="Group 96" transform="translate(9.453 17.015)">
    <path id="Path_141" data-name="Path 141" d="M113.283,201.474a.945.945,0,0,1-.756-.378l-3.97-5.294v4.727a.945.945,0,1,1-1.891,0v-7.563a.945.945,0,0,1,1.7-.567l3.97,5.294v-4.727a.945.945,0,1,1,1.891,0v7.563a.945.945,0,0,1-.647.9A.93.93,0,0,1,113.283,201.474Z" transform="translate(-106.666 -192.02)" fill="#fafafa"/>
    <path id="Path_142" data-name="Path 142" d="M218.06,201.474h-3.781a.945.945,0,0,1-.945-.945v-7.563a.945.945,0,0,1,.945-.945h3.781a.945.945,0,0,1,0,1.891h-2.836v5.672h2.836a.945.945,0,1,1,0,1.891Z" transform="translate(-203.88 -192.02)" fill="#fafafa"/>
    <path id="Path_143" data-name="Path 143" d="M218.06,236.578h-3.781a.945.945,0,0,1,0-1.891h3.781a.945.945,0,0,1,0,1.891Z" transform="translate(-203.88 -230.905)" fill="#fafafa"/>
    <path id="Path_144" data-name="Path 144" d="M305.285,201.466a.945.945,0,0,1-.9-.647l-.993-2.982-.993,2.982a.9.9,0,0,1-.934.645.945.945,0,0,1-.881-.715l-1.891-7.563a.946.946,0,1,1,1.836-.458l1.1,4.413.864-2.592a.985.985,0,0,1,1.794,0l.864,2.592,1.1-4.413a.946.946,0,0,1,1.836.458l-1.891,7.563a.945.945,0,0,1-.881.715Z" transform="translate(-281.652 -192.012)" fill="#fafafa"/>
  </g>
</svg>
