<?xml version="1.0" standalone="no"?>
<!DOCTYPE svg PUBLIC "-//W3C//DTD SVG 1.1//EN" "http://www.w3.org/Graphics/SVG/1.1/DTD/svg11.dtd" >
<svg xmlns="http://www.w3.org/2000/svg" xmlns:xlink="http://www.w3.org/1999/xlink" version="1.1">
<metadata>
Created by FontForge 20170731 at Sat Mar 26 12:39:22 2011
 By Aleksey,,,
Copyright (c) 2011 by Jos Buivenga. All rights reserved. wf-rip
</metadata>
<defs>
<font id="MuseoSansRounded-700" horiz-adv-x="584" >
  <font-face 
    font-family="Museo Sans Rounded 700"
    font-weight="600"
    font-stretch="normal"
    units-per-em="1000"
    panose-1="2 0 0 0 0 0 0 0 0 0"
    ascent="750"
    descent="-250"
    x-height="510"
    cap-height="710"
    bbox="-108.25 -219 1129 902"
    underline-thickness="50"
    underline-position="-150"
    unicode-range="U+0020-FB04"
  />
<missing-glyph horiz-adv-x="571" 
d="M35 42v616q0 42 42 42h417q41 0 41 -42v-616q0 -42 -41 -42h-417q-42 0 -42 42zM115 650l170 -255l170 255h-340zM485 605l-170 -255l170 -255v510zM85 605v-510l170 255zM285 305l-170 -255h340z" />
    <glyph glyph-name="uniFB00" unicode="ff" horiz-adv-x="676" 
d="M90 42v367h-24q-42 0 -42 42v17q0 42 42 42h24v17q0 46 15.5 81.5t38 54.5t51 31.5t50.5 16t41 3.5h14q42 0 42 -42v-26q0 -38 -43 -41q-30 -1 -53 -14q-29 -17 -29 -69v-12h211v17q0 46 15.5 81.5t38 54.5t51 31.5t50.5 16t41 3.5h14q42 0 42 -42v-26q0 -38 -43 -41
q-30 -2 -52 -14q-30 -17 -30 -69v-12h68q42 0 42 -42v-17q0 -42 -36 -42h-74v-367q0 -42 -41 -42h-44q-42 0 -42 42v367h-211v-367q0 -42 -42 -42h-43q-42 0 -42 42z" />
    <glyph glyph-name="uniFB01" unicode="fi" horiz-adv-x="590" 
d="M90 42v367h-25q-41 0 -41 42v17q0 42 41 42h25v17q0 90 53 136q62 51 142 51h15q41 0 41 -42v-26q0 -38 -43 -41q-29 -1 -52 -14q-29 -17 -29 -69v-12h269q42 0 42 -42v-426q0 -42 -42 -42h-44q-41 0 -41 42v367h-184v-367q0 -42 -42 -42h-44q-41 0 -41 42zM486 597h-44
q-41 0 -41 41v30q0 42 41 42h44q42 0 42 -42v-30q0 -41 -42 -41z" />
    <glyph glyph-name="uniFB02" unicode="fl" horiz-adv-x="618" 
d="M400 159v509q0 42 41 42h44q41 0 41 -42v-499q0 -57 40 -61q31 -3 31 -36v-34q0 -43 -42 -43q-59 0 -102 26q-53 34 -53 138zM90 42v360h-25q-41 0 -41 42v17q0 42 41 42h25v24q0 90 53 136q62 51 142 51h15q41 0 41 -42v-26q0 -38 -43 -41q-29 -1 -52 -14
q-29 -17 -29 -69v-19h68q41 0 41 -42v-17q0 -42 -41 -42h-68v-360q0 -42 -42 -42h-44q-41 0 -41 42z" />
    <glyph glyph-name="uniFB03" unicode="ffi" horiz-adv-x="929" 
d="M90 42l-3 367h-22q-41 0 -41 42v17q0 42 41 42h22l3 17q0 90 53 136q62 51 142 51h15q41 0 41 -42v-26q0 -38 -43 -41q-29 -1 -52 -14q-29 -17 -29 -69v-12h211v17q0 46 15.5 81.5t38 54.5t51 31.5t50.5 16t41 3.5h14q41 0 41 -42v-26q0 -38 -43 -41q-29 -1 -52 -14
q-29 -17 -29 -69v-12h269q42 0 42 -42v-426q0 -42 -42 -42h-43q-42 0 -42 42v367h-184v-367q0 -42 -42 -42h-43q-42 0 -42 42v367h-211v-367q0 -42 -42 -42h-44q-41 0 -41 42zM739 638v30q0 42 42 42h43q42 0 42 -42v-30q0 -41 -42 -41h-43q-42 0 -42 41z" />
    <glyph glyph-name="uniFB04" unicode="ffl" horiz-adv-x="956" 
d="M90 42l-3 367h-21q-42 0 -42 42v17q0 42 42 42h21l3 17q0 46 15.5 81.5t38 54.5t51 31.5t50.5 16t41 3.5h14q42 0 42 -42v-26q0 -38 -43 -41q-30 -1 -53 -14q-29 -17 -29 -69v-12h211v17q0 46 15.5 81.5t38 54.5t51 31.5t50.5 16t41 3.5h14q42 0 42 -42v-26
q0 -38 -43 -41q-30 -2 -52 -14q-30 -17 -30 -69v-12h68q42 0 42 -42v-17q0 -42 -36 -42h-74v-367q0 -42 -41 -42h-44q-42 0 -42 42v367h-211v-367q0 -42 -42 -42h-43q-42 0 -42 42zM739 159v509q0 42 41 42h44q41 0 41 -42v-499q0 -57 40 -61q31 -3 31 -36v-34
q0 -43 -43 -43q-58 0 -101 26q-53 34 -53 138z" />
    <glyph glyph-name="f_j" unicode="fj" horiz-adv-x="593" 
d="M90 42v367h-24q-42 0 -42 42v17q0 42 42 42h24v17q0 46 15.5 81.5t38 54.5t51 31.5t50.5 16t41 3.5h14q42 0 42 -42v-26q0 -38 -43 -41q-30 -1 -53 -14q-29 -17 -29 -69v-12h271q41 0 41 -42v-481q0 -47 -15.5 -83.5t-38 -56.5t-51.5 -33t-50.5 -17t-39.5 -4h-14
q-42 0 -42 42v26q0 37 42 41q83 8 83 93v414h-186v-367q0 -42 -42 -42h-43q-42 0 -42 42zM488 597h-44q-42 0 -42 41v30q0 42 42 42h44q41 0 41 -42v-30q0 -41 -41 -41z" />
    <glyph glyph-name=".notdef" horiz-adv-x="571" 
d="M35 42v616q0 42 42 42h417q41 0 41 -42v-616q0 -42 -41 -42h-417q-42 0 -42 42zM115 650l170 -255l170 255h-340zM485 605l-170 -255l170 -255v510zM85 605v-510l170 255zM285 305l-170 -255h340z" />
    <glyph glyph-name=".null" horiz-adv-x="0" 
 />
    <glyph glyph-name="nonmarkingreturn" horiz-adv-x="333" 
 />
    <glyph glyph-name="space" unicode=" " horiz-adv-x="250" 
 />
    <glyph glyph-name="exclam" unicode="!" horiz-adv-x="270" 
d="M149 205h-29q-40 0 -42 41l-8 421q0 43 41 43h47q42 0 41 -43l-8 -421q0 -41 -42 -41zM74 42v35q0 42 41 42h40q42 0 42 -42v-35q0 -42 -42 -42h-40q-41 0 -41 42z" />
    <glyph glyph-name="quotedbl" unicode="&#x22;" horiz-adv-x="354" 
d="M263 500h-11q-42 0 -42 41v140q0 42 42 42h11q41 0 41 -42v-140q0 -41 -41 -41zM102 500h-11q-41 0 -41 41v140q0 42 41 42h11q42 0 42 -42v-140q0 -41 -42 -41z" />
    <glyph glyph-name="numbersign" unicode="#" horiz-adv-x="696" 
d="M124 45l25 142h-73q-46 0 -38 44l2 10q4 37 44 37h81l25 140h-73q-21 0 -31 12t-7 32l2 10q6 38 44 38h80l28 162q8 38 46 38h17q22 0 32 -12t6 -33l-27 -155h136l29 162q6 38 45 38h18q44 0 38 -45l-28 -155h75q22 0 32 -12t6 -33l-1 -9q-6 -38 -45 -38h-82l-25 -140h74
q44 0 38 -44l-2 -10q-6 -37 -45 -37h-80l-26 -149q-6 -38 -45 -38h-18q-22 0 -32 12t-6 33l25 142h-137l-25 -149q-8 -38 -46 -38h-18q-44 0 -38 45zM291 418l-24 -140h136l25 140h-137z" />
    <glyph glyph-name="dollar" unicode="$" horiz-adv-x="549" 
d="M63 59q-33 23 -7 58l22 31q23 32 58 9q71 -50 143 -50q46 0 75 23t29 63q0 56 -120 104q-55 23 -99 46q-53 27 -86 71.5t-33 101.5q0 77 52 132q53 56 136 69v53q0 41 40 41h7q39 0 39 -35v-57q81 -6 145 -50q31 -19 12 -56l-17 -34q-19 -34 -57 -13q-59 37 -120 37
q-46 0 -77 -24t-31 -61q0 -12 4.5 -23t14.5 -20.5t20 -17t28 -16.5t31 -14.5t35.5 -15t35.5 -15.5q39 -19 81 -44q40 -23 64 -63.5t24 -92.5q0 -80 -52 -136q-52 -57 -141 -69v-50q0 -42 -39 -42h-7q-40 0 -40 35v57q-97 11 -170 68z" />
    <glyph glyph-name="percent" unicode="%" horiz-adv-x="792" 
d="M39 564q0 64 47 111q49 47 116 47q66 0 115 -47q48 -47 48 -111q0 -66 -48 -112q-46 -46 -115 -46t-116 46q-47 47 -47 112zM104 51l486 634q19 25 51 25h20q27 0 34.5 -15t-9.5 -36l-486 -634q-19 -25 -51 -25h-21q-26 0 -33 15t9 36zM269 564q0 27 -19.5 46.5
t-47.5 19.5t-47 -19.5t-19 -46.5q0 -28 19 -47t47 -19t47.5 19t19.5 47zM590 303q66 0 115 -47q48 -46 48 -111t-48 -111q-46 -46 -115 -46t-116 46q-47 47 -47 111t47 111q49 47 116 47zM524 146q0 -28 19 -47t47 -19t47.5 19t19.5 47q0 27 -19.5 46.5t-47.5 19.5
t-47 -19.5t-19 -46.5z" />
    <glyph glyph-name="ampersand" unicode="&#x26;" horiz-adv-x="652" 
d="M39 201q0 59 33 108q33 50 88 69v2q-8 2 -32 20q-58 51 -58 135q0 90 63 138q62 49 161 49h42q42 0 42 -42v-25q0 -41 -42 -41h-33q-46 0 -74.5 -27t-28.5 -68t26.5 -67.5t81.5 -26.5h113v51q0 41 42 41h43q42 0 42 -34v-58h50q42 0 42 -42v-28q0 -42 -42 -42h-50v-84
q0 -110 -68 -176q-68 -65 -188 -65q-112 0 -183 60q-70 61 -70 153zM171 209q0 -45 33.5 -74t87.5 -29q62 0 95.5 33t33.5 97v77h-120q-61 0 -95.5 -27t-34.5 -77z" />
    <glyph glyph-name="quotesingle" unicode="'" horiz-adv-x="194" 
d="M104 514h-13q-42 0 -42 42v125q0 42 42 42h13q41 0 41 -42v-125q0 -42 -41 -42z" />
    <glyph glyph-name="parenleft" unicode="(" horiz-adv-x="285" 
d="M147 -70q-104 188 -104 413q0 195 101 370q16 28 50 28h19q24 0 32 -13.5t-3 -35.5q-86 -174 -86 -350q0 -199 89 -388q10 -22 2 -35.5t-32 -13.5h-21q-34 0 -47 25z" />
    <glyph glyph-name="parenright" unicode=")" horiz-adv-x="285" 
d="M40 -44q88 186 88 386q0 180 -86 350q-11 22 -4 35.5t31 13.5h21q34 0 50 -28q102 -175 102 -370q0 -223 -103 -410q-15 -28 -49 -28h-20q-24 0 -32 14.5t2 36.5z" />
    <glyph glyph-name="asterisk" unicode="*" horiz-adv-x="469" 
d="M129 347l-21 15q-35 26 -7 57l55 68v2l-83 22q-42 9 -30 50l8 25q13 42 52 25l82 -32l-5 87q-2 21 8.5 32.5t31.5 11.5h28q43 0 39 -43l-5 -88l81 32q42 17 54 -24l8 -25q14 -41 -28 -50l-86 -23v-2l55 -66q29 -32 -6 -59l-21 -15q-34 -27 -57 11l-47 73h-2l-46 -72
q-23 -38 -58 -12z" />
    <glyph glyph-name="plus" unicode="+" horiz-adv-x="619" 
d="M258 236h-174q-42 0 -42 42v15q0 42 42 42h174v195q0 42 42 42h20q41 0 41 -42v-195h175q41 0 41 -42v-15q0 -42 -41 -42h-175v-194q0 -42 -41 -42h-20q-42 0 -42 42v194z" />
    <glyph glyph-name="comma" unicode="," horiz-adv-x="244" 
d="M21 -72l49 166q11 35 47 35h38q23 0 32 -13.5t0 -35.5l-69 -167q-14 -32 -48 -32h-13q-23 0 -32.5 12.5t-3.5 34.5z" />
    <glyph glyph-name="hyphen" unicode="-" horiz-adv-x="417" 
d="M317 230h-217q-42 0 -42 42v28q0 41 42 41h217q42 0 42 -41v-28q0 -42 -42 -42z" />
    <glyph glyph-name="period" unicode="." horiz-adv-x="238" 
d="M55 42v45q0 41 42 41h44q42 0 42 -41v-45q0 -42 -42 -42h-44q-42 0 -42 42z" />
    <glyph glyph-name="slash" unicode="/" horiz-adv-x="406" 
d="M36 5l229 707q12 34 48 34h22q23 0 32.5 -12.5t2.5 -34.5l-229 -707q-10 -34 -47 -34h-23q-23 0 -32.5 12.5t-2.5 34.5z" />
    <glyph glyph-name="zero" unicode="0" horiz-adv-x="624" 
d="M55 356q0 366 257 366q200 0 244 -222q14 -67 14 -144q0 -161 -56 -260q-28 -51 -81 -80q-50 -28 -121 -28q-70 0 -122 28q-132 77 -135 340zM437 356q0 247 -125 247t-125 -247q0 -250 125 -250t125 250z" />
    <glyph glyph-name="one" unicode="1" horiz-adv-x="492" 
d="M43 42v28q0 41 41 41h113v394l1 48h-2q-9 -19 -27 -36l-31 -30q-31 -28 -58 2l-19 20q-29 29 1 59l126 121q24 21 52 21h42q41 0 41 -42v-557h112q42 0 42 -41v-28q0 -42 -42 -42h-351q-41 0 -41 42z" />
    <glyph glyph-name="two" unicode="2" horiz-adv-x="567" 
d="M43 42v21q0 52 18.5 97t47.5 77.5t64.5 60.5t71 52t64.5 47t47.5 49.5t18.5 54.5q0 44 -30.5 71.5t-77.5 27.5q-61 0 -105 -53q-32 -32 -59 -9l-27 21q-33 25 -11 56q81 107 213 107q96 0 164 -57q67 -55 67 -153q0 -63 -33 -115t-80 -86.5t-94.5 -65t-81.5 -64.5
t-35 -70h293q42 0 42 -41v-28q0 -42 -42 -42h-390q-21 0 -33 11t-12 31z" />
    <glyph glyph-name="three" unicode="3" horiz-adv-x="560" 
d="M54 57q-32 24 -8 58l20 31q21 32 57 9q65 -45 128 -45q55 0 91.5 30t36.5 76q0 53 -42 81.5t-110 28.5h-15q-32 0 -46 29l-4 8q-14 29 9 54l109 129q27 33 51 54v2q-23 -3 -63 -3h-171q-41 0 -41 41v28q0 42 41 42h350q42 0 42 -41v-11q0 -32 -19 -51l-155 -179
q82 -11 137 -66q57 -54 57 -141q0 -95 -68 -165q-68 -68 -182 -68q-112 0 -205 69z" />
    <glyph glyph-name="four" unicode="4" horiz-adv-x="607" 
d="M352 183h-291q-41 0 -41 41v10q0 28 15 51l274 398q17 27 50 27h78q42 0 42 -42v-378h50q42 0 42 -41v-25q0 -41 -34 -41h-58v-141q0 -42 -42 -42h-44q-41 0 -41 42v141zM156 292v-2h196v220l5 74h-2q-19 -42 -35 -65z" />
    <glyph glyph-name="five" unicode="5" horiz-adv-x="560" 
d="M63 59q-31 23 -6 57l20 30q21 33 57 8q56 -44 118 -44q54 0 93 33q40 34 40 88q0 55 -40 89t-102 34q-39 0 -82 -18q-32 -11 -56 -2l-9 3q-34 13 -31 50l26 283q3 40 43 40h292q42 0 42 -42v-28q0 -41 -42 -41h-220l-11 -117l-5 -33h2q32 16 76 16q115 0 182 -67
q68 -68 68 -166q0 -105 -73 -175q-73 -69 -183 -69q-113 0 -199 71z" />
    <glyph glyph-name="six" unicode="6" horiz-adv-x="599" 
d="M49 321q0 153 81 273q40 59 104.5 93.5t141.5 34.5q62 0 107 -16q39 -12 25 -53l-12 -33q-11 -35 -49 -27q-33 10 -64 10q-80 0 -128 -56q-48 -55 -63 -140h2q19 25 57.5 40.5t85.5 15.5q99 0 159 -66q61 -65 61 -162q0 -103 -66 -175q-65 -72 -168 -72q-115 0 -195 90
q-79 91 -79 243zM183 274q0 -57 41 -113q42 -55 99 -55q48 0 77.5 34t29.5 87q0 58 -36 94t-100 36q-48 0 -79.5 -23t-31.5 -60z" />
    <glyph glyph-name="seven" unicode="7" horiz-adv-x="527" 
d="M92 49l242 485q24 46 40 65v2q-14 -2 -46 -2h-262q-41 0 -41 41v28q0 42 41 42h405q42 0 42 -41v-22q0 -29 -12 -51l-284 -566q-17 -30 -50 -30h-45q-24 0 -32.5 13.5t2.5 35.5z" />
    <glyph glyph-name="eight" unicode="8" horiz-adv-x="605" 
d="M48 201q0 75 47 127q36 41 62 59q-81 57 -81 142q0 79 59 136t168 57q102 0 167 -53q66 -53 66 -139q0 -41 -18 -83q-25 -58 -62 -95q98 -59 98 -154q0 -85 -69 -148q-70 -62 -183 -62t-184 62q-70 61 -70 151zM336 408l28 -11l6 8l8 13l9 14q24 41 24 83q0 45 -29 70
t-78 25q-48 0 -75 -23t-27 -60q0 -7 2 -21q5 -11 10 -19l11 -16q4 -7 17 -15l19 -12l48 -24zM177 215q0 -50 36 -82.5t90 -32.5q49 0 84 29t35 71q0 30 -18 48l-19 18q-10 9 -60 34l-39 17l-42 18l-28 -26q-10 -10 -24 -37q-15 -28 -15 -57z" />
    <glyph glyph-name="nine" unicode="9" horiz-adv-x="599" 
d="M91 56l12 34q6 19 17 24.5t32 2.5q42 -11 64 -11q80 0 128 56t63 141h-2q-19 -25 -59.5 -41t-85.5 -16q-95 0 -157 68q-61 67 -61 165q0 101 65 172t168 71q116 0 195 -91q80 -91 80 -242q0 -99 -35 -189t-111 -151t-181 -61q-62 0 -107 16q-38 12 -25 52zM305 352
q48 0 79.5 23.5t31.5 60.5q0 58 -42 112q-40 55 -98 55q-48 0 -77 -33.5t-29 -87.5q0 -58 35.5 -94t99.5 -36z" />
    <glyph glyph-name="colon" unicode=":" horiz-adv-x="245" 
d="M144 383h-43q-41 0 -41 41v44q0 42 41 42h43q42 0 42 -42v-44q0 -41 -42 -41zM60 42v43q0 42 41 42h43q42 0 42 -42v-43q0 -42 -42 -42h-43q-41 0 -41 42z" />
    <glyph glyph-name="semicolon" unicode=";" horiz-adv-x="276" 
d="M171 381h-41q-41 0 -41 42v45q0 42 41 42h41q42 0 42 -42v-45q0 -42 -42 -42zM37 -73l42 166q9 36 46 36h38q24 0 33 -13t0 -35l-61 -167q-11 -33 -48 -33h-14q-22 0 -31.5 12.5t-4.5 33.5z" />
    <glyph glyph-name="less" unicode="&#x3c;" horiz-adv-x="619" 
d="M488 52l-401 179q-31 13 -31 49v12q0 36 31 49l401 178q22 10 35.5 1t13.5 -32v-23q0 -35 -33 -48l-314 -130v-2l314 -130q33 -13 33 -48v-23q0 -24 -13.5 -32.5t-35.5 0.5z" />
    <glyph glyph-name="equal" unicode="=" horiz-adv-x="619" 
d="M512 339h-405q-41 0 -41 42v15q0 41 41 41h405q42 0 42 -41v-15q0 -42 -42 -42zM512 134h-405q-41 0 -41 41v15q0 42 41 42h405q42 0 42 -42v-15q0 -41 -42 -41z" />
    <glyph glyph-name="greater" unicode="&#x3e;" horiz-adv-x="619" 
d="M83 84v23q0 34 32 48l314 130v2l-314 130q-32 14 -32 48v23q0 23 13 32t35 -1l401 -178q32 -15 32 -49v-12q0 -35 -32 -49l-401 -178q-22 -10 -35 -1t-13 32z" />
    <glyph glyph-name="question" unicode="?" horiz-adv-x="469" 
d="M211 205h-40q-42 0 -42 41v16q0 34 17 66q17 29 42 52l48 44q58 51 58 100q0 35 -28 59t-69 24q-32 0 -74 -20q-41 -21 -60 10l-17 25q-25 34 7 56q68 46 155 46q90 0 154 -52q65 -51 65 -136q0 -43 -17 -79t-41.5 -60.5t-49.5 -46t-44 -47t-22 -52.5l-2 -17
q-8 -29 -40 -29zM129 42v35q0 42 42 42h40q41 0 41 -42v-35q0 -42 -41 -42h-40q-42 0 -42 42z" />
    <glyph glyph-name="at" unicode="@" horiz-adv-x="810" 
d="M46 240q0 156 109 264q109 109 268 109q144 0 209 -61q66 -62 66 -157v-250h31q41 0 41 -41v-8q0 -42 -41 -42h-235q-98 0 -156 55q-59 56 -59 131t58 129q59 54 157 54h84q-1 39 -43.5 63.5t-107.5 24.5q-107 0 -181 -81q-74 -82 -74 -190q0 -103 63 -178
q63 -74 168 -88q40 -6 40 -43v-16q0 -45 -43 -40q-160 14 -256 116q-98 104 -98 249zM405 243q0 -42 27.5 -70t69.5 -28h76v196h-74q-44 0 -71.5 -28t-27.5 -70z" />
    <glyph glyph-name="A" unicode="A" horiz-adv-x="634" 
d="M16 48l222 628q12 34 47 34h64q37 0 47 -34l222 -628q4 -9 4 -18t-6 -17q-9 -13 -32 -13h-46q-37 0 -47 34l-50 148h-249l-49 -147q-11 -35 -47 -35h-46q-23 0 -32 13q-6 8 -6 17t4 18zM288 477l-64 -190h185l-63 190l-28 110h-2q-17 -74 -28 -110z" />
    <glyph glyph-name="B" unicode="B" horiz-adv-x="624" 
d="M82 42v626q0 42 41 42h212q98 0 159 -49q61 -48 61 -134q0 -50 -23 -90t-63 -62v-2q53 -15 83.5 -61.5t30.5 -105.5q0 -102 -70 -154q-68 -52 -175 -52h-215q-41 0 -41 42zM210 599v-179h126q40 0 63.5 25t23.5 66t-23.5 64.5t-66.5 23.5h-123zM210 316v-205h138
q47 0 75 28.5t28 74.5t-28 74t-75 28h-138z" />
    <glyph glyph-name="C" unicode="C" horiz-adv-x="704" 
d="M40 358q0 157 103 260q104 104 263 104q131 0 232 -71q17 -14 17 -31q0 -12 -9 -27l-18 -29q-12 -19 -29 -19q-13 0 -28 9q-77 50 -160 50q-112 0 -175 -71t-63 -173q0 -106 64 -180q65 -74 175 -74q88 0 174 62q16 11 29 11q15 0 29 -18l20 -27q11 -14 11 -27
q0 -17 -17 -31q-109 -88 -251 -88q-165 0 -266 105q-101 106 -101 265z" />
    <glyph glyph-name="D" unicode="D" horiz-adv-x="728" 
d="M82 42v626q0 42 41 42h201q167 0 264 -94q98 -95 98 -260q0 -166 -98 -261t-264 -95h-201q-41 0 -41 42zM210 599v-488h107q111 0 173.5 64t62.5 181q0 115 -63 179t-173 64h-107z" />
    <glyph glyph-name="E" unicode="E" horiz-adv-x="557" 
d="M82 42v626q0 42 41 42h342q42 0 42 -42v-28q0 -41 -42 -41h-255v-186h198q42 0 42 -41v-28q0 -42 -42 -42h-198v-191h271q42 0 42 -41v-28q0 -42 -42 -42h-358q-41 0 -41 42z" />
    <glyph glyph-name="F" unicode="F" horiz-adv-x="512" 
d="M82 42v626q0 42 41 42h325q42 0 42 -42v-28q0 -41 -42 -41h-238v-201h194q42 0 42 -41v-28q0 -42 -42 -42h-194v-245q0 -42 -41 -42h-46q-41 0 -41 42z" />
    <glyph glyph-name="G" unicode="G" horiz-adv-x="754" 
d="M407 722q71 0 132.5 -19t99.5 -46q18 -13 18 -31q0 -14 -9 -27l-18 -28q-13 -19 -31 -19q-11 0 -27 8q-77 44 -158 44q-112 0 -177 -71q-64 -70 -64 -175q0 -110 68 -181q69 -71 169 -71q103 0 171 68l9 10v79h-68q-42 0 -42 42v27q0 42 42 42h142q41 0 41 -42v-290
q0 -42 -41 -42h-25q-41 0 -41 34v17l1 17h-2l-9 -8q-19 -22 -67 -45q-60 -27 -132 -27q-145 0 -247 102q-102 104 -102 262t104 264q103 106 263 106z" />
    <glyph glyph-name="H" unicode="H" horiz-adv-x="745" 
d="M82 42v626q0 42 41 42h46q41 0 41 -42v-259h325v259q0 42 42 42h45q41 0 41 -42v-626q0 -42 -41 -42h-45q-42 0 -42 42v256h-325v-256q0 -42 -41 -42h-46q-41 0 -41 42z" />
    <glyph glyph-name="I" unicode="I" horiz-adv-x="292" 
d="M82 42v626q0 42 41 42h46q41 0 41 -42v-626q0 -42 -41 -42h-46q-41 0 -41 42z" />
    <glyph glyph-name="J" unicode="J" horiz-adv-x="535" 
d="M19 210q0 41 41 41h47q20 0 29 -9t11 -31q3 -49 26.5 -77t66.5 -28q42 0 67 27t25 79v387h-141q-42 0 -42 41v28q0 42 42 42h228q42 0 42 -42v-458q0 -109 -66 -166q-65 -56 -155 -56t-156 57q-65 59 -65 165z" />
    <glyph glyph-name="K" unicode="K" horiz-adv-x="628" 
d="M82 42v626q0 42 41 42h46q41 0 41 -42v-247h93l150 260q17 29 49 29h49q25 0 33 -14q3 -6 3 -13q0 -10 -7 -23l-172 -288v-2l185 -320q8 -14 8 -24q0 -6 -3 -12q-9 -14 -34 -14h-55q-32 0 -49 29l-157 281h-93v-268q0 -42 -41 -42h-46q-41 0 -41 42z" />
    <glyph glyph-name="L" unicode="L" horiz-adv-x="521" 
d="M82 42v626q0 42 41 42h46q41 0 41 -42v-557h265q42 0 42 -41v-28q0 -42 -42 -42h-352q-41 0 -41 42z" />
    <glyph glyph-name="M" unicode="M" horiz-adv-x="853" 
d="M59 38v5l51 627q4 40 43 40h63q35 0 47 -34l127 -317l36 -104h2q25 77 35 104l127 317q12 34 48 34h62q40 0 43 -40l51 -627v-5q0 -38 -40 -38h-45q-40 0 -43 40l-27 357q-2 38 -2 62q0 31 1 48h-2q-27 -84 -38 -110l-103 -242q-12 -33 -47 -33h-42q-36 0 -48 33
l-102 242l-39 111h-2q1 -17 1 -48q0 -25 -2 -63l-27 -357q-3 -40 -43 -40h-45q-40 0 -40 38z" />
    <glyph glyph-name="N" unicode="N" horiz-adv-x="743" 
d="M82 42v626q0 42 41 42h54q35 0 50 -28l252 -382l27 -46l23 -46l9 -18h2q-7 63 -7 110v368q0 42 42 42h45q42 0 42 -42v-626q0 -42 -42 -42h-54q-34 0 -49 28l-253 381q-16 26 -26 47l-24 45l-9 18h-2q7 -63 7 -110v-367q0 -42 -41 -42h-46q-41 0 -41 42z" />
    <glyph glyph-name="O" unicode="O" horiz-adv-x="814" 
d="M40 360q0 155 103 258q104 104 264 104q159 0 263 -104t104 -258q0 -158 -104 -265t-263 -107q-160 0 -264 107q-103 106 -103 265zM173 360q0 -108 66 -182q67 -72 168 -72t167 72q67 73 67 182q0 104 -67 174q-66 70 -167 70t-168 -70q-66 -70 -66 -174z" />
    <glyph glyph-name="P" unicode="P" horiz-adv-x="604" 
d="M82 42v626q0 42 41 42h232q100 0 163 -64t63 -167t-63 -169q-63 -65 -163 -65h-145v-203q0 -42 -41 -42h-46q-41 0 -41 42zM210 599v-242h121q56 0 87.5 32.5t31.5 89.5q0 55 -31.5 87.5t-85.5 32.5h-123z" />
    <glyph glyph-name="Q" unicode="Q" horiz-adv-x="814" 
d="M40 359q0 154 104 258q104 105 263 105t263 -104t104 -259q0 -125 -78 -225l48 -45q17 -14 17 -30q0 -15 -13 -29l-18 -19q-16 -16 -30 -16q-13 0 -25 12l-51 51q-92 -70 -217 -70q-159 0 -263 107t-104 264zM173 359q0 -108 67 -181q67 -72 167 -72q71 0 124 38l-49 47
q-16 13 -16 29q0 15 13 29l18 19q15 17 30 17q13 0 25 -12l50 -51q39 62 39 137q0 105 -67 175t-167 70t-167 -70t-67 -175z" />
    <glyph glyph-name="R" unicode="R" horiz-adv-x="626" 
d="M82 42v626q0 42 41 42h192q93 0 135 -19q56 -24 87.5 -74.5t31.5 -119.5q0 -65 -32.5 -118.5t-85.5 -75.5v-2q9 -10 23 -37l117 -214q8 -14 8 -24q0 -6 -3 -12q-9 -14 -34 -14h-54q-32 0 -49 29l-125 236h-124v-223q0 -42 -41 -42h-46q-41 0 -41 42zM210 599v-222h116
q52 0 82 30.5t30 82.5q0 74 -56 97q-26 12 -77 12h-95z" />
    <glyph glyph-name="S" unicode="S" horiz-adv-x="549" 
d="M57 60q-17 14 -17 31q0 13 11 27l22 32q12 17 30 17q12 0 28 -8q74 -52 144 -52q48 0 77 22.5t29 58.5q0 37 -34 64t-82.5 47t-97.5 44t-83 68t-34 105q0 92 68 149t171 57q53 0 102.5 -16t80.5 -38q20 -14 20 -33q0 -11 -7 -24l-18 -33q-10 -22 -31 -22q-10 0 -26 8
q-68 39 -123 39q-50 0 -79 -22q-29 -23 -29 -58q0 -37 34 -62q20 -16 49 -30t69 -31t62 -28q52 -25 84.5 -69.5t32.5 -104.5q0 -90 -64 -150q-63 -60 -171 -60q-62 0 -120.5 21t-97.5 51z" />
    <glyph glyph-name="T" unicode="T" horiz-adv-x="605" 
d="M239 42v557h-191q-42 0 -42 41v28q0 42 42 42h510q41 0 41 -42v-28q0 -41 -41 -41h-191v-557q0 -42 -42 -42h-45q-41 0 -41 42z" />
    <glyph glyph-name="U" unicode="U" horiz-adv-x="719" 
d="M74 255v413q0 42 41 42h45q42 0 42 -42v-412q0 -71 42 -110.5t115 -39.5t115.5 39.5t42.5 110.5v412q0 42 41 42h46q41 0 41 -42v-413q0 -120 -79 -193q-79 -74 -206 -74q-129 0 -208 73q-78 73 -78 194z" />
    <glyph glyph-name="V" unicode="V" horiz-adv-x="638" 
d="M240 33l-228 629q-4 9 -4 18q0 10 6 17q9 13 32 13h53q36 0 47 -35l145 -428l27 -104h2q14 64 27 104l147 428q9 35 46 35h51q23 0 33 -13q5 -8 5 -17t-4 -18l-227 -629q-11 -33 -47 -33h-64q-37 0 -47 33z" />
    <glyph glyph-name="W" unicode="W" horiz-adv-x="960" 
d="M192 36l-157 628q-2 10 -2 13q0 13 7 21q9 12 31 12h50q36 0 45 -37l103 -454l11 -75h2q4 34 15 75l118 455q11 36 47 36h34q38 0 45 -36l117 -455l15 -75h2q3 34 12 75l109 454q7 37 46 37h47q22 0 32 -12q7 -8 7 -21q0 -3 -2 -13l-163 -629q-11 -35 -47 -35h-71
q-37 0 -46 36l-101 384q-11 41 -19 93h-3q-8 -47 -18 -93l-102 -384q-9 -36 -46 -36h-72q-37 0 -46 36z" />
    <glyph glyph-name="X" unicode="X" horiz-adv-x="608" 
d="M36 50l190 310l-182 300q-8 14 -8 24q0 6 3 12q8 14 33 14h56q32 0 49 -29l82 -145l44 -87h2q18 38 44 87l83 145q17 29 49 29h56q25 0 33 -14q3 -6 3 -12q0 -10 -8 -24l-183 -300l190 -310q8 -14 8 -25q0 -5 -2 -11q-8 -14 -34 -14h-52q-32 0 -49 29l-95 162l-44 84h-2
q-15 -34 -43 -84l-94 -162q-17 -29 -49 -29h-51q-26 0 -34 14q-3 4 -3 12q0 10 8 24z" />
    <glyph glyph-name="Y" unicode="Y" horiz-adv-x="580" 
d="M226 42v255l-208 363q-8 14 -8 23q0 8 4 13q8 14 32 14h56q33 0 48 -31l96 -178l43 -95h2q24 58 43 95l96 178q15 31 48 31h56q25 0 33 -14q3 -6 3 -13q0 -10 -7 -23l-209 -363v-255q0 -42 -41 -42h-45q-42 0 -42 42z" />
    <glyph glyph-name="Z" unicode="Z" horiz-adv-x="601" 
d="M31 42v12q0 28 17 53l298 428q24 36 45 57l7 7v2q-26 -2 -53 -2h-256q-42 0 -42 41v28q0 42 42 42h430q41 0 41 -41v-12q0 -31 -16 -53l-299 -429q-24 -36 -45 -57l-7 -7v-2q26 2 53 2h277q42 0 42 -41v-28q0 -42 -42 -42h-450q-42 0 -42 42z" />
    <glyph glyph-name="bracketleft" unicode="[" horiz-adv-x="303" 
d="M72 -53v753q0 41 42 41h114q42 0 42 -41v-9q0 -42 -39 -42h-50v-652h47q42 0 42 -42v-8q0 -42 -42 -42h-114q-42 0 -42 42z" />
    <glyph glyph-name="backslash" unicode="\" horiz-adv-x="406" 
d="M264 -8l-228 707q-7 22 2.5 34.5t32.5 12.5h22q36 0 48 -34l228 -707q7 -22 -2 -34.5t-32 -12.5h-23q-36 0 -48 34z" />
    <glyph glyph-name="bracketright" unicode="]" horiz-adv-x="303" 
d="M34 -53v8q0 42 41 42h48v652h-48q-41 0 -41 42v9q0 41 41 41h115q41 0 41 -41v-753q0 -42 -41 -42h-115q-41 0 -41 42z" />
    <glyph glyph-name="asciicircum" unicode="^" horiz-adv-x="619" 
d="M139 245h-21q-24 0 -33 13.5t0 34.5l167 385q14 32 48 32h11q35 0 49 -32l166 -385q9 -21 0.5 -34.5t-32.5 -13.5h-22q-34 0 -48 33l-118 298l-119 -298q-11 -33 -48 -33z" />
    <glyph glyph-name="underscore" unicode="_" horiz-adv-x="564" 
d="M1 -57v15q0 42 42 42h478q41 0 41 -42v-15q0 -41 -41 -41h-478q-42 0 -42 41z" />
    <glyph glyph-name="grave" unicode="`" horiz-adv-x="493" 
d="M305 757h-26q-30 0 -51 25l-45 61q-17 20 -11 35t32 15h37q32 0 49 -29l35 -61q12 -17 6.5 -31.5t-26.5 -14.5z" />
    <glyph glyph-name="a" unicode="a" horiz-adv-x="525" 
d="M24 141q0 52 28.5 88.5t78.5 54.5q88 31 191 31h21v12q0 90 -95 90q-51 0 -106 -29q-14 -6 -24 -6q-21 0 -32 23l-10 19q-7 13 -7 24q0 20 23 32q82 42 167 42q99 0 155 -53.5t56 -149.5v-277q0 -42 -42 -42h-34q-41 0 -41 42v20l2 22h-2q-11 -18 -24 -34
q-55 -62 -136 -62q-71 0 -120 42q-49 43 -49 111zM150 152q0 -28 21 -47.5t56 -19.5q51 0 84 42t33 92v19h-21q-173 0 -173 -86z" />
    <glyph glyph-name="b" unicode="b" horiz-adv-x="603" 
d="M63 42v626q0 42 42 42h43q42 0 42 -42v-185l-3 -43h2l5 8q16 25 48 45q41 29 103 29q101 0 163 -74t62 -192q0 -120 -66 -194t-167 -74q-59 0 -98 26t-53 51l-5 9h-2q2 -10 2 -22v-16q0 -36 -42 -36h-34q-42 0 -42 42zM186 255q0 -66 33 -113q35 -47 93 -47
q56 0 92.5 43.5t36.5 114.5q0 72 -35 116t-91 44t-92.5 -41.5t-36.5 -116.5z" />
    <glyph glyph-name="c" unicode="c" horiz-adv-x="530" 
d="M31 255q0 113 76 189q77 78 201 78q94 0 167 -51q18 -12 18 -29q0 -14 -10 -28l-13 -20q-12 -18 -30 -18q-13 0 -26 7q-46 31 -99 31q-69 0 -112 -46q-43 -44 -43 -112q0 -67 44 -114q43 -46 115 -46q59 0 114 39q16 8 26 8q19 0 31 -21l10 -19q7 -13 7 -25
q0 -17 -18 -31q-80 -59 -181 -59q-125 0 -201 76t-76 191z" />
    <glyph glyph-name="d" unicode="d" horiz-adv-x="603" 
d="M33 255q0 120 64 193q65 74 167 74q58 0 96 -22t48 -44l5 -7h2q-2 18 -2 29v190q0 42 41 42h44q41 0 41 -42v-626q0 -42 -41 -42h-37q-41 0 -41 38v20l2 18h-2q-10 -17 -23 -31q-48 -57 -137 -57q-103 0 -165 74t-62 193zM161 255q0 -72 35 -116t92 -44q56 0 92 42
t36 119q0 63 -33 110t-94 47q-55 0 -91.5 -43.5t-36.5 -114.5z" />
    <glyph glyph-name="e" unicode="e" horiz-adv-x="546" 
d="M32 255q0 119 72 192q72 75 187 75q106 0 166 -68t60 -175q0 -17 -13 -30t-31 -13h-311q6 -65 48.5 -102.5t104.5 -37.5q57 0 110 33q13 6 25 6q19 0 31 -20l12 -20q7 -13 7 -24q0 -18 -21 -32q-79 -51 -173 -51q-122 0 -199 77q-75 78 -75 190zM165 313h226
q-1 51 -29.5 82t-73.5 31q-48 0 -81 -30.5t-42 -82.5z" />
    <glyph glyph-name="f" unicode="f" horiz-adv-x="338" 
d="M90 42v360h-25q-41 0 -41 42v17q0 42 41 42h25v24q0 90 53 136q62 51 142 51h15q41 0 41 -42v-26q0 -38 -43 -41q-29 -1 -52 -14q-29 -17 -29 -69v-19h68q41 0 41 -42v-17q0 -42 -41 -42h-68v-360q0 -42 -42 -42h-44q-41 0 -41 42z" />
    <glyph glyph-name="g" unicode="g" horiz-adv-x="595" 
d="M97 -129l8 23q12 26 35 26q9 0 18 -3q50 -19 103 -19q66 0 105 31t39 93v38l2 26h-2q-43 -76 -140 -76q-108 0 -170 74q-61 73 -61 185q0 111 60 181q60 72 170 72q62 0 99 -23t48 -47l4 -8h2q-1 3 -1 13v19q0 34 41 34h34q41 0 41 -42v-437q0 -121 -79 -181
q-78 -60 -185 -60q-86 0 -149 27q-27 11 -27 33q0 9 5 21zM290 117q54 0 86 37t32 112q0 148 -124 148q-57 0 -89.5 -38t-32.5 -102q0 -72 34 -114.5t94 -42.5z" />
    <glyph glyph-name="h" unicode="h" horiz-adv-x="599" 
d="M63 42v626q0 42 42 42h43q42 0 42 -42v-206l-3 -43h2q22 43 70.5 73t106.5 30q178 0 178 -194v-286q0 -42 -42 -42h-43q-42 0 -42 42v260q0 53 -18 78.5t-62 25.5q-67 0 -107 -48q-40 -46 -40 -121v-195q0 -42 -42 -42h-43q-42 0 -42 42z" />
    <glyph glyph-name="i" unicode="i" horiz-adv-x="252" 
d="M148 597h-44q-41 0 -41 41v30q0 42 41 42h44q42 0 42 -42v-30q0 -41 -42 -41zM63 42v426q0 42 41 42h44q41 0 41 -42v-426q0 -42 -41 -42h-44q-41 0 -41 42z" />
    <glyph glyph-name="j" unicode="j" horiz-adv-x="253" 
d="M149 597h-44q-42 0 -42 41v30q0 42 42 42h44q41 0 41 -42v-30q0 -41 -41 -41zM63 -5v473q0 42 42 42h43q42 0 42 -42v-481q0 -47 -15.5 -83.5t-38 -56.5t-51.5 -33t-50.5 -17t-39.5 -4h-15q-41 0 -41 42v26q0 20 10 29t31 12q16 2 28 5.5t26 13t21.5 28t7.5 46.5z" />
    <glyph glyph-name="k" unicode="k" horiz-adv-x="533" 
d="M63 42v626q0 42 42 42h43q42 0 42 -42v-338h63l106 152q16 28 50 28h48q25 0 33 -15q2 -6 2 -11q0 -10 -9 -24l-127 -178v-2l150 -230q8 -14 8 -24q0 -8 -3 -12q-8 -14 -33 -14h-54q-32 0 -49 29l-119 194h-66v-181q0 -42 -42 -42h-43q-42 0 -42 42z" />
    <glyph glyph-name="l" unicode="l" horiz-adv-x="279" 
d="M62 159v509q0 42 41 42h44q41 0 41 -42v-499q0 -57 40 -61q31 -3 31 -36v-34q0 -43 -42 -43q-59 0 -102 26q-53 34 -53 138z" />
    <glyph glyph-name="m" unicode="m" horiz-adv-x="898" 
d="M63 42v426q0 42 41 42h39q41 0 41 -42v-31l-2 -23h2q22 45 68 76.5t99 31.5q117 0 149 -105h2q23 44 71 74.5t103 30.5q167 0 167 -194v-286q0 -42 -42 -42h-43q-42 0 -42 42v262q0 53 -15 77.5t-55 24.5q-61 0 -96 -53q-34 -52 -34 -124v-187q0 -42 -41 -42h-44
q-42 0 -42 42v262q0 52 -14.5 77t-53.5 25q-63 0 -98 -53q-34 -52 -34 -124v-187q0 -42 -41 -42h-44q-41 0 -41 42z" />
    <glyph glyph-name="n" unicode="n" horiz-adv-x="599" 
d="M63 42v426q0 42 41 42h39q41 0 41 -42v-31l-2 -23h2q23 46 69.5 77t111.5 31q178 0 178 -194v-286q0 -42 -42 -42h-43q-42 0 -42 42v260q0 53 -18 78.5t-62 25.5q-66 0 -107 -48q-40 -47 -40 -119v-197q0 -42 -41 -42h-44q-41 0 -41 42z" />
    <glyph glyph-name="o" unicode="o" horiz-adv-x="622" 
d="M592 255q0 -116 -82 -192q-81 -75 -199 -75t-199 75q-81 77 -81 192q0 116 81 191q80 76 199 76t199 -76q82 -76 82 -191zM160 255q0 -71 43 -115q44 -44 108 -44t108 44q44 46 44 115t-45 114q-43 45 -107 45q-63 0 -107 -45q-44 -46 -44 -114z" />
    <glyph glyph-name="p" unicode="p" horiz-adv-x="603" 
d="M63 -158v626q0 42 42 42h32q41 0 41 -35v-23l-1 -20h2q11 18 23 31q55 59 141 59q103 0 165 -74t62 -193q0 -121 -66 -194t-168 -73q-91 0 -140 67l-7 11h-2q3 -18 3 -44v-180q0 -42 -42 -42h-43q-42 0 -42 42zM186 252q0 -65 34 -111t93 -46q56 0 92 43t36 115t-35 116
t-91 44q-57 0 -93 -42t-36 -119z" />
    <glyph glyph-name="q" unicode="q" horiz-adv-x="603" 
d="M33 255q0 119 65 193t168 74q60 0 98.5 -25t53.5 -51l5 -8h2q-2 10 -2 20v18q0 15 11 24.5t31 9.5h33q41 0 41 -42v-626q0 -42 -41 -42h-44q-41 0 -41 42v185l2 44h-2q0 -1 -4.5 -9t-16.5 -20.5t-29 -24t-45.5 -20.5t-61.5 -9q-99 0 -161 74t-62 193zM161 255
q0 -72 35 -116t92 -44q56 0 92 42t36 119q0 63 -33 110t-94 47q-55 0 -91.5 -43.5t-36.5 -114.5z" />
    <glyph glyph-name="r" unicode="r" horiz-adv-x="375" 
d="M63 42v426q0 42 41 42h39q42 0 42 -42v-48l-3 -35h2q16 51 57 90t91 39q38 0 38 -42v-39q0 -42 -43 -42q-66 0 -102 -55q-36 -54 -36 -130v-164q0 -42 -41 -42h-44q-41 0 -41 42z" />
    <glyph glyph-name="s" unicode="s" horiz-adv-x="447" 
d="M51 40q-20 12 -20 29q0 14 10 28l12 18q13 18 31 18q12 0 26 -8q65 -35 114 -35q33 0 52 14t19 38q0 38 -90 66q-34 11 -57 21t-50.5 28.5t-41.5 46.5t-14 65q0 72 55 112q56 41 140 41q75 0 142 -37q21 -11 21 -31q0 -12 -6 -25l-10 -18q-10 -22 -32 -22q-10 0 -24 6
q-54 25 -97 25q-69 0 -69 -50q0 -37 89 -66q33 -10 57 -20.5t51.5 -28.5t42 -46t13.5 -64q0 -68 -54 -113q-53 -44 -140 -44q-94 0 -170 52z" />
    <glyph glyph-name="t" unicode="t" horiz-adv-x="364" 
d="M91 182v220h-27q-41 0 -41 42v17q0 42 42 42h29v104q0 42 42 42h40q42 0 42 -42v-104h74q42 0 42 -42v-17q0 -42 -41 -42h-75v-198q0 -86 82 -95q23 -2 32.5 -11t9.5 -30v-31q0 -42 -52 -42q-80 0 -139 46q-60 47 -60 141z" />
    <glyph glyph-name="u" unicode="u" horiz-adv-x="594" 
d="M56 182v286q0 42 42 42h43q42 0 42 -42v-260q0 -53 18 -78.5t61 -25.5q66 0 104 50q39 50 39 122v192q0 42 42 42h43q42 0 42 -42v-426q0 -42 -42 -42h-39q-41 0 -41 42v30l2 23h-2q-21 -45 -70 -76t-107 -31q-177 0 -177 194z" />
    <glyph glyph-name="v" unicode="v" horiz-adv-x="520" 
d="M174 34l-156 428q-4 9 -4 19q0 8 5 16q9 13 32 13h47q36 0 47 -35l95 -281l19 -77h2q8 47 18 77l95 281q11 35 47 35h47q23 0 32 -13q6 -8 6 -17t-4 -18l-154 -428q-10 -34 -47 -34h-80q-37 0 -47 34z" />
    <glyph glyph-name="w" unicode="w" horiz-adv-x="810" 
d="M154 35l-132 428q-2 10 -2 15q0 12 6 19q9 13 31 13h48q38 0 45 -37l82 -298l10 -54h2q6 36 11 54l86 298q7 36 46 36h38q37 0 46 -36l85 -298l11 -54h2q6 36 11 54l81 298q9 37 46 37h46q22 0 31 -13q6 -8 6 -19q0 -5 -2 -15l-131 -428q-11 -35 -47 -35h-67
q-38 0 -47 36l-77 255l-12 55h-2q-3 -19 -13 -55l-77 -255q-9 -36 -46 -36h-69q-35 0 -46 35z" />
    <glyph glyph-name="x" unicode="x" horiz-adv-x="498" 
d="M37 50l136 208l-132 202q-9 14 -9 25q0 3 2 11q8 14 34 14h51q33 0 49 -30l64 -109l16 -32h2l16 32l64 109q16 30 49 30h51q26 0 34 -14q2 -8 2 -11q0 -11 -9 -25l-131 -202l136 -208q9 -14 9 -24q0 -6 -3 -12q-9 -14 -34 -14h-48q-32 0 -49 29l-73 119l-14 27h-2
q-9 -20 -14 -27l-72 -119q-17 -29 -49 -29h-49q-26 0 -34 14q-2 8 -2 11q0 12 9 25z" />
    <glyph glyph-name="y" unicode="y" horiz-adv-x="514" 
d="M15 -141l9 22q10 24 34 24q7 0 11 -1q19 -9 36 -9q25 0 47 19t34 49l19 45l-194 453q-5 13 -5 21q0 9 4 14q9 14 33 14h54q35 0 47 -34l96 -260l19 -69h2q6 29 17 67l90 261q11 35 47 35h50q23 0 33 -13q5 -8 5 -17t-4 -18l-210 -538q-24 -65 -73 -99.5t-111 -34.5
q-32 0 -71 15q-19 8 -23 22q-2 6 -2 11q0 10 6 21z" />
    <glyph glyph-name="z" unicode="z" horiz-adv-x="510" 
d="M28 34v10q0 24 18 47l211 264l43 47v2q-18 -2 -47 -2h-173q-42 0 -42 42v24q0 42 42 42h350q42 0 42 -34v-10q0 -24 -18 -47l-211 -265q-11 -14 -21 -24l-17 -18l-6 -5v-2q15 3 48 3h190q42 0 42 -42v-24q0 -42 -42 -42h-367q-42 0 -42 34z" />
    <glyph glyph-name="braceleft" unicode="{" horiz-adv-x="343" 
d="M109 71v97q0 66 -51 94q-34 18 -34 46v39q0 16 7 25t26 22q52 22 52 95v85q0 103 61 139q49 31 92 31h13q42 0 42 -42v-15q0 -41 -42 -41q-58 0 -58 -85v-105q0 -83 -68 -121l-14 -6v-2q10 -2 28 -15q54 -32 54 -111v-117q0 -84 58 -84q42 0 42 -42v-15q0 -42 -42 -42
h-13q-43 0 -92 31q-28 16 -44.5 53t-16.5 86z" />
    <glyph glyph-name="bar" unicode="|" horiz-adv-x="251" 
d="M71 -120v874q0 42 42 42h25q42 0 42 -42v-874q0 -41 -42 -41h-25q-42 0 -42 41z" />
    <glyph glyph-name="braceright" unicode="}" horiz-adv-x="344" 
d="M26 -57v15q0 42 42 42q58 0 58 84v117q0 86 67 120l15 6v2q-7 2 -29 16q-53 38 -53 111v105q0 85 -58 85q-42 0 -42 41v15q0 42 42 42h13q43 0 92 -31q61 -36 61 -139v-85q0 -73 52 -95q25 -17 29 -27q4 -8 4 -20v-39q0 -28 -34 -46q-51 -28 -51 -94v-97q0 -49 -16.5 -86
t-44.5 -53q-49 -31 -92 -31h-13q-42 0 -42 42z" />
    <glyph glyph-name="asciitilde" unicode="~" horiz-adv-x="593" 
d="M110 199h-20q-21 0 -32 14t-7 38q21 130 149 130q32 0 60.5 -13.5t44.5 -32.5q41 -45 79 -45q40 0 56 49q9 21 18 29.5t26 8.5h20q21 0 32 -11.5t8 -32.5q-18 -138 -150 -138q-64 0 -105 45t-80 45q-41 0 -54 -49q-9 -21 -18.5 -29t-26.5 -8z" />
    <glyph glyph-name="uni00A0" unicode="&#xa0;" horiz-adv-x="250" 
 />
    <glyph glyph-name="exclamdown" unicode="&#xa1;" horiz-adv-x="262" 
d="M116 304h29q40 0 42 -41l8 -421q0 -43 -41 -43h-47q-42 0 -41 43l8 421q0 41 42 41zM191 467v-35q0 -42 -41 -42h-40q-42 0 -42 42v35q0 42 42 42h40q41 0 41 -42z" />
    <glyph glyph-name="cent" unicode="&#xa2;" horiz-adv-x="563" 
d="M253 29v45q-95 17 -153 94q-58 79 -58 187t58 187q58 78 153 95v42q0 42 40 42h7q40 0 40 -33v-51q54 -9 101 -44q48 -34 71 -79q19 -37 -22 -54l-38 -15q-23 -6 -32.5 -1.5t-22.5 20.5q-38 56 -95 56q-59 0 -95.5 -46t-36.5 -121q0 -73 35.5 -118t95.5 -45q58 0 96 56
q25 31 55 20l38 -15q40 -16 22 -55q-22 -43 -71 -81q-47 -37 -101 -41v-45q0 -41 -40 -41h-7q-40 0 -40 41z" />
    <glyph glyph-name="sterling" unicode="&#xa3;" horiz-adv-x="591" 
d="M52 42v28q0 41 41 41h21v200h-17q-38 0 -38 40v6q0 41 38 41h17v121q0 89 64 146t163 57q78 0 146 -46q34 -23 5 -58l-19 -25q-22 -28 -59 -8t-70 20q-44 0 -71.5 -25.5t-27.5 -64.5v-117h135q41 0 41 -41v-6q0 -40 -41 -40h-135v-200h269q42 0 42 -41v-28q0 -42 -42 -42
h-421q-41 0 -41 42z" />
    <glyph glyph-name="yen" unicode="&#xa5;" horiz-adv-x="600" 
d="M235 186h-122q-41 0 -41 36v6q0 35 41 35h122v33l-26 48h-96q-41 0 -41 35v6q0 35 36 35h62l-129 241q-11 21 -2.5 35t32.5 14h58q35 0 47 -33l81 -157l43 -114h2q15 45 43 114l80 157q12 33 47 33h57q25 0 33.5 -14t-2.5 -35l-130 -241h57q41 0 41 -35v-6q0 -35 -41 -35
h-96l-25 -48v-33h121q41 0 41 -35v-6q0 -36 -41 -36h-121v-144q0 -42 -42 -42h-48q-41 0 -41 42v144z" />
    <glyph glyph-name="section" unicode="&#xa7;" horiz-adv-x="468" 
d="M129 174l-64 308q-7 25 -7 57q0 82 55 132.5t150 50.5q73 0 135 -38q34 -20 9 -57l-11 -15q-20 -28 -57 -12q-36 18 -75 18q-47 0 -75 -23.5t-28 -70.5q0 -25 7 -50l58 -290q5 -21 -4.5 -33.5t-31.5 -12.5h-15q-37 0 -46 36zM61 33l10 17q19 32 57 12q38 -21 78 -21
q47 0 75 26t28 75q0 28 -9 57l-54 277q-6 21 3.5 33.5t31.5 12.5h15q37 0 46 -36l63 -308q7 -32 7 -57q0 -82 -55 -132.5t-150 -50.5q-76 0 -135 38q-34 21 -11 57z" />
    <glyph glyph-name="dieresis" unicode="&#xa8;" horiz-adv-x="493" 
d="M346 777h-15q-41 0 -41 42v33q0 41 41 41h15q41 0 41 -41v-33q0 -42 -41 -42zM162 777h-14q-42 0 -42 42v33q0 41 42 41h14q42 0 42 -41v-33q0 -42 -42 -42z" />
    <glyph glyph-name="copyright" unicode="&#xa9;" horiz-adv-x="808" 
d="M149 95q-104 109 -104 260q0 152 104 259q105 107 254 107t254 -107q106 -106 106 -259t-106 -260q-105 -107 -254 -107t-254 107zM211 557q-77 -83 -77 -202q0 -120 77 -203q78 -83 192 -83t192 83q79 82 79 203q0 120 -79 202q-78 83 -192 83t-192 -83zM410 548
q46 0 84 -21q36 -20 55 -47q18 -26 -4 -44l-15 -13q-26 -19 -49 9q-30 33 -69 33q-45 0 -72.5 -31.5t-27.5 -82.5q0 -48 27 -79t73 -31t74 36q22 24 44 6l14 -12q24 -20 4 -46q-54 -67 -138 -67t-137 57q-53 58 -53 138t53 138q54 57 137 57z" />
    <glyph glyph-name="ordfeminine" unicode="&#xaa;" horiz-adv-x="398" 
d="M162 383q-46 0 -77 27t-31 72q0 109 186 109h8v7q0 52 -57 52q-28 0 -52 -12q-34 -13 -46 12l-3 7q-14 29 23 44q42 19 91 19q65 0 99.5 -34.5t34.5 -95.5v-159q0 -42 -38 -42h-3q-38 0 -38 39v14h-2l-3 -6q-9 -17 -33 -35t-59 -18zM184 453q26 0 44.5 22t18.5 50v7h-11
q-92 0 -92 -45q0 -15 11 -24.5t29 -9.5zM300 266h-203q-42 0 -42 32v5q0 31 42 31h203q42 0 42 -31v-5q0 -32 -42 -32z" />
    <glyph glyph-name="guillemotleft" unicode="&#xab;" horiz-adv-x="554" 
d="M395 101l-121 152q-24 29 0 58l121 153q21 24 51 24h24q27 0 34 -15t-10 -36l-123 -155l123 -154q17 -21 11.5 -36t-30.5 -15h-29q-30 0 -51 24zM170 101l-121 152q-24 29 0 58l121 153q21 24 51 24h25q26 0 33 -15t-9 -36l-123 -155l123 -154q17 -21 11 -36t-31 -15h-29
q-30 0 -51 24z" />
    <glyph glyph-name="logicalnot" unicode="&#xac;" horiz-adv-x="611" 
d="M440 339h-345q-41 0 -41 42v15q0 41 41 41h405q42 0 42 -41v-211q0 -42 -42 -42h-19q-41 0 -41 42v154z" />
    <glyph glyph-name="uni00AD" unicode="&#xad;" horiz-adv-x="417" 
d="M317 230h-217q-42 0 -42 42v28q0 41 42 41h217q42 0 42 -41v-28q0 -42 -42 -42z" />
    <glyph glyph-name="registered" unicode="&#xae;" horiz-adv-x="808" 
d="M402 721q151 0 256 -107t105 -259t-105 -260q-105 -107 -256 -107q-148 0 -253 107q-104 109 -104 260q0 152 104 259q105 107 253 107zM402 69q115 0 193 83q79 82 79 203q0 120 -79 202q-78 83 -193 83q-113 0 -191 -83q-77 -83 -77 -202q0 -120 77 -203
q78 -83 191 -83zM277 216v282q0 42 42 42h110q55 0 87.5 -31.5t32.5 -84.5q0 -37 -19.5 -62.5t-44.5 -32.5v-2q3 -3 13 -21l43 -83q11 -22 5 -35.5t-26 -13.5h-13q-35 0 -48 31l-48 104h-49v-93q0 -42 -39 -42h-7q-39 0 -39 42zM362 478v-109h47q25 0 39 14.5t14 40.5
q0 54 -51 54h-49z" />
    <glyph glyph-name="overscore" unicode="&#xaf;" horiz-adv-x="493" 
d="M336 783h-179q-41 0 -41 40v7q0 40 41 40h179q42 0 42 -40v-7q0 -40 -42 -40z" />
    <glyph glyph-name="degree" unicode="&#xb0;" horiz-adv-x="392" 
d="M33 565q0 64 47 111q49 47 116 47q66 0 115 -47q48 -46 48 -111t-48 -112q-47 -45 -115 -45t-116 45q-47 47 -47 112zM263 565q0 27 -19.5 46.5t-47.5 19.5t-47 -19.5t-19 -46.5q0 -28 19 -47t47 -19t47.5 19t19.5 47z" />
    <glyph glyph-name="plusminus" unicode="&#xb1;" horiz-adv-x="619" 
d="M258 236h-174q-42 0 -42 42v15q0 42 42 42h174v195q0 42 42 42h20q41 0 41 -42v-195h175q41 0 41 -42v-15q0 -42 -41 -42h-175v-194q0 -42 -41 -42h-20q-42 0 -42 42v194zM97 -85h425q42 0 42 -42v-15q0 -41 -42 -41h-425q-41 0 -41 41v15q0 42 41 42z" />
    <glyph glyph-name="uni00B2" unicode="&#xb2;" horiz-adv-x="367" 
d="M294 423h-226q-42 0 -42 42q0 45 20.5 83t52.5 61q14 10 39 26t43 28.5t30 24.5q37 35 14 70q-20 30 -61 25q-23 -3 -43 -18q-35 -23 -57 -2l-5 4q-33 29 -2 57q52 48 121 48q63 0 106 -37q45 -36 45 -99q0 -34 -14 -62t-35.5 -45.5t-47 -34t-47 -28.5t-37 -27.5
t-17.5 -32.5h163q42 0 42 -39v-5q0 -39 -42 -39z" />
    <glyph glyph-name="uni00B3" unicode="&#xb3;" horiz-adv-x="362" 
d="M166 413q-71 0 -124 41q-30 20 -8 54l5 6q19 27 54 9q32 -23 68 -23q30 0 50.5 18t20.5 45q0 25 -21.5 41t-51.5 16h-11q-28 0 -39 23q-10 23 13 48l56 64l24 24v2q-20 -3 -35 -3h-88q-41 0 -41 40v5q0 39 41 39h197q42 0 42 -30v-6q0 -24 -20 -47l-79 -90
q50 -9 79.5 -42.5t29.5 -84.5q0 -62 -45 -105q-44 -44 -117 -44z" />
    <glyph glyph-name="acute" unicode="&#xb4;" horiz-adv-x="493" 
d="M214 757h-21q-22 0 -29 13.5t4 33.5l35 60q17 29 49 29h36q27 0 33 -15t-11 -35l-45 -61q-21 -25 -51 -25z" />
    <glyph glyph-name="uni00B5" unicode="&#xb5;" horiz-adv-x="637" 
d="M77 -158v626q0 42 42 42h43q42 0 42 -42v-260q0 -53 18 -78.5t61 -25.5q66 0 104 50q39 50 39 122v192q0 42 42 42h43q42 0 42 -42v-426q0 -42 -42 -42h-39q-41 0 -41 42v29l1 23h-2q-20 -39 -65 -72q-46 -34 -112 -34q-49 0 -71 21h-2q7 -46 7 -83v-84q0 -42 -41 -42
h-27q-42 0 -42 42z" />
    <glyph glyph-name="paragraph" unicode="&#xb6;" horiz-adv-x="620" 
d="M270 -8v249q-96 0 -167 68q-69 69 -69 167t69 166q70 68 166 68h264q41 0 41 -42v-28q0 -41 -41 -41h-171v-607q0 -42 -41 -42h-10q-41 0 -41 42zM424 -8v510q0 42 42 42h9q42 0 42 -42v-510q0 -42 -42 -42h-9q-42 0 -42 42z" />
    <glyph glyph-name="middot" unicode="&#xb7;" horiz-adv-x="241" 
d="M141 228h-41q-41 0 -41 41v46q0 41 41 41h41q42 0 42 -41v-46q0 -41 -42 -41z" />
    <glyph glyph-name="cedilla" unicode="&#xb8;" horiz-adv-x="493" 
d="M189 -53l20 73h63l-14 -64q34 -4 53.5 -23.5t19.5 -52.5q0 -44 -30 -66t-78 -22q-57 0 -57 34q0 35 21 35q4 0 13.5 -1.5t11.5 -1.5q37 0 37 29q0 25 -45 29q-23 2 -15 31z" />
    <glyph glyph-name="uni00B9" unicode="&#xb9;" horiz-adv-x="317" 
d="M265 423h-195q-41 0 -41 39v5q0 39 35 39h56v207l3 28h-2q-2 -4 -14 -16l-16 -15q-17 -15 -36 3l-11 11q-27 28 5 57l61 60q24 21 51 21h13q41 0 41 -42v-314h50q41 0 41 -39v-5q0 -39 -41 -39z" />
    <glyph glyph-name="ordmasculine" unicode="&#xba;" horiz-adv-x="447" 
d="M223 384q-73 0 -124 48t-51 121t51 119q51 48 124 48q74 0 125 -48q51 -47 51 -119q0 -73 -51 -121t-125 -48zM223 464q36 0 60.5 25t24.5 64q0 38 -24.5 63t-60.5 25t-60 -25t-24 -63q0 -39 24 -64t60 -25zM344 266h-240q-41 0 -41 32v5q0 31 41 31h240q41 0 41 -31v-5
q0 -32 -41 -32z" />
    <glyph glyph-name="guillemotright" unicode="&#xbb;" horiz-adv-x="554" 
d="M284 128l123 154l-123 155q-17 21 -11 36t31 15h29q30 0 51 -24l120 -153q24 -29 0 -58l-120 -152q-21 -24 -51 -24h-25q-27 0 -34 15t10 36zM108 77h-25q-26 0 -33 15t9 36l123 154l-123 155q-17 21 -11 36t31 15h29q30 0 51 -24l121 -153q24 -29 0 -58l-121 -152
q-21 -24 -51 -24z" />
    <glyph glyph-name="onequarter" unicode="&#xbc;" horiz-adv-x="965" 
d="M829 0h-10q-42 0 -42 42v57h-162q-41 0 -41 32v11q0 22 15 44l156 226q19 27 50 27h34q42 0 42 -42v-216h26q35 0 35 -38v-5q0 -39 -35 -39h-26v-57q0 -42 -42 -42zM670 183v-2h107v110l4 55h-2q-12 -26 -26 -47zM662 661l-299 -630q-15 -31 -48 -31h-14q-20 0 -26 13.5
t4 35.5l299 630q15 31 48 31h14q20 0 26 -13.5t-4 -35.5zM282 272h-195q-41 0 -41 39v5q0 39 35 39h56v207l3 28h-2q-2 -4 -14 -16l-16 -15q-16 -15 -36 3l-11 11q-27 28 5 57l61 60q24 21 51 21h13q41 0 41 -42v-314h50q41 0 41 -39v-5q0 -39 -41 -39z" />
    <glyph glyph-name="onehalf" unicode="&#xbd;" horiz-adv-x="949" 
d="M868 0h-226q-42 0 -42 42q0 45 20.5 83t52.5 61q14 10 39 26t43 28.5t30 24.5q37 35 14 70q-20 30 -61 25q-23 -3 -43 -18q-35 -23 -57 -2l-5 4q-33 29 -2 57q53 48 121 48q63 0 106 -37q45 -36 45 -99q0 -34 -14 -62t-35.5 -45.5t-47 -34t-47 -28.5t-37 -27.5
t-17.5 -32.5h163q42 0 42 -39v-5q0 -39 -42 -39zM661 661l-299 -630q-15 -31 -48 -31h-14q-20 0 -26 13.5t4 35.5l299 630q15 31 48 31h14q20 0 26 -13.5t-4 -35.5zM278 272h-195q-41 0 -41 39v5q0 39 35 39h56v207l3 28h-2q-2 -4 -14 -16l-16 -15q-16 -15 -36 3l-11 11
q-27 28 5 57l61 60q24 21 51 21h13q41 0 41 -42v-314h50q41 0 41 -39v-5q0 -39 -41 -39z" />
    <glyph glyph-name="threequarters" unicode="&#xbe;" horiz-adv-x="977" 
d="M840 0h-10q-42 0 -42 42v57h-162q-41 0 -41 32v11q0 22 15 44l156 226q20 27 50 27h34q42 0 42 -42v-216h26q35 0 35 -38v-5q0 -39 -35 -39h-26v-57q0 -42 -42 -42zM681 183v-2h107v110l4 55h-2q-12 -26 -26 -47zM182 262q-71 0 -124 41q-30 20 -8 54l5 6q19 27 54 9
q32 -23 68 -23q30 0 50.5 18t20.5 45q0 25 -21.5 41t-51.5 16h-11q-28 0 -39 23q-10 23 13 48l56 64l24 24v2q-20 -3 -35 -3h-88q-41 0 -41 40v5q0 39 41 39h197q42 0 42 -30v-6q0 -24 -20 -47l-79 -90q50 -9 79.5 -42.5t29.5 -84.5q0 -61 -45 -105q-44 -44 -117 -44z
M673 661l-299 -630q-15 -31 -48 -31h-14q-20 0 -26 13.5t4 35.5l299 630q15 31 48 31h14q20 0 26 -13.5t-4 -35.5z" />
    <glyph glyph-name="questiondown" unicode="&#xbf;" horiz-adv-x="467" 
d="M262 304h40q42 0 42 -41v-16q0 -34 -17 -65q-16 -31 -41 -54l-48 -43q-59 -52 -59 -100q0 -35 28 -59t69 -24q32 0 74 20q41 21 60 -10l17 -25q25 -34 -7 -56q-68 -46 -155 -46q-90 0 -154 52q-65 51 -65 136q0 43 17 79t41.5 60.5t49.5 46t44 47t22 52.5l2 17
q8 29 40 29zM344 467v-35q0 -42 -42 -42h-40q-41 0 -41 42v35q0 42 41 42h40q42 0 42 -42z" />
    <glyph glyph-name="Agrave" unicode="&#xc0;" horiz-adv-x="634" 
d="M16 48l222 628q12 34 47 34h64q37 0 47 -34l222 -628q8 -22 -1.5 -35t-32.5 -13h-46q-37 0 -47 34l-50 148h-249l-49 -147q-11 -35 -47 -35h-46q-23 0 -32.5 13t-1.5 35zM288 477l-64 -190h185l-63 190l-28 110h-2q-17 -74 -28 -110zM326 757h-26q-30 0 -51 25l-45 61
q-17 20 -11 35t32 15h37q32 0 49 -29l35 -61q12 -17 6 -31.5t-26 -14.5z" />
    <glyph glyph-name="Aacute" unicode="&#xc1;" horiz-adv-x="634" 
d="M16 48l222 628q12 34 47 34h64q37 0 47 -34l222 -628q8 -22 -1.5 -35t-32.5 -13h-46q-37 0 -47 34l-50 148h-249l-49 -147q-11 -35 -47 -35h-46q-23 0 -32.5 13t-1.5 35zM288 477l-64 -190h185l-63 190l-28 110h-2q-17 -74 -28 -110zM333 757h-21q-22 0 -29 13.5t4 33.5
l35 60q17 29 49 29h36q27 0 33 -15t-11 -35l-45 -61q-21 -25 -51 -25z" />
    <glyph glyph-name="Acircumflex" unicode="&#xc2;" horiz-adv-x="634" 
d="M16 48l222 628q12 34 47 34h64q37 0 47 -34l222 -628q8 -22 -1.5 -35t-32.5 -13h-46q-37 0 -47 34l-50 148h-249l-49 -147q-11 -35 -47 -35h-46q-23 0 -32.5 13t-1.5 35zM288 477l-64 -190h185l-63 190l-28 110h-2q-17 -74 -28 -110zM239 757h-26q-22 0 -27 14.5t9 36.5
l40 58q18 27 51 27h62q33 0 51 -27l40 -58q14 -22 9 -36.5t-27 -14.5h-26q-16 0 -25 6t-19 23l-33 52h-2l-34 -52q-17 -29 -43 -29z" />
    <glyph glyph-name="Atilde" unicode="&#xc3;" horiz-adv-x="634" 
d="M16 48l222 628q12 34 47 34h64q37 0 47 -34l222 -628q8 -22 -1.5 -35t-32.5 -13h-46q-37 0 -47 34l-50 148h-249l-49 -147q-11 -35 -47 -35h-46q-23 0 -32.5 13t-1.5 35zM288 477l-64 -190h185l-63 190l-28 110h-2q-17 -74 -28 -110zM185 758h-10q-36 0 -36 38
q0 42 28.5 70.5t72.5 28.5q28 0 55.5 -16.5t48 -32.5t33.5 -16q32 0 35 39q2 23 36 23h10q37 0 37 -34q0 -46 -28 -74.5t-73 -28.5q-29 0 -56 16.5t-47.5 32.5t-33.5 16q-34 0 -38 -40q-3 -22 -34 -22z" />
    <glyph glyph-name="Adieresis" unicode="&#xc4;" horiz-adv-x="634" 
d="M16 48l222 628q12 34 47 34h64q37 0 47 -34l222 -628q8 -22 -1.5 -35t-32.5 -13h-46q-37 0 -47 34l-50 148h-249l-49 -147q-11 -35 -47 -35h-46q-23 0 -32.5 13t-1.5 35zM288 477l-64 -190h185l-63 190l-28 110h-2q-17 -74 -28 -110zM416 777h-15q-41 0 -41 42v33
q0 41 41 41h15q41 0 41 -41v-33q0 -42 -41 -42zM232 777h-14q-42 0 -42 42v33q0 41 42 41h14q42 0 42 -41v-33q0 -42 -42 -42z" />
    <glyph glyph-name="Aring" unicode="&#xc5;" horiz-adv-x="634" 
d="M16 48l222 628q12 34 47 34h64q37 0 47 -34l222 -628q8 -22 -1.5 -35t-32.5 -13h-46q-37 0 -47 34l-50 148h-249l-49 -147q-11 -35 -47 -35h-46q-23 0 -32.5 13t-1.5 35zM288 477l-64 -190h185l-63 190l-28 110h-2q-17 -74 -28 -110zM317 745q-40 0 -67.5 21.5
t-27.5 56.5q0 36 27.5 57.5t67.5 21.5t67 -21.5t27 -57.5q0 -35 -27.5 -56.5t-66.5 -21.5zM317 789q15 0 24.5 9.5t9.5 24.5q0 22 -17 31t-34 0t-17 -31q0 -15 9 -24.5t25 -9.5z" />
    <glyph glyph-name="AE" unicode="&#xc6;" horiz-adv-x="887" 
d="M10 48l261 630q12 32 48 32h477q41 0 41 -42v-28q0 -41 -41 -41h-255v-186h198q41 0 41 -41v-28q0 -42 -41 -42h-198v-191h270q41 0 41 -41v-28q0 -42 -41 -42h-357q-42 0 -42 42v262h-169l-107 -272q-14 -32 -47 -32h-48q-23 0 -32 13.5t1 34.5zM360 599l-76 -190h128
v190h-52z" />
    <glyph glyph-name="Ccedilla" unicode="&#xc7;" horiz-adv-x="706" 
d="M350 -53l12 43q-146 15 -234 117q-87 103 -87 251q0 157 103 260q104 104 263 104q131 0 232 -71q31 -23 8 -58l-18 -29q-19 -33 -57 -10q-79 50 -160 50q-112 0 -175 -71t-63 -173q0 -106 64 -180q65 -74 175 -74q88 0 174 62q35 26 58 -7l20 -27q24 -32 -6 -58
q-101 -81 -233 -87l-7 -33q34 -4 53.5 -23.5t19.5 -52.5q0 -44 -30 -66t-78 -22q-57 0 -57 34q0 35 21 35q2 0 11.5 -1.5t13.5 -1.5q37 0 37 29q0 25 -45 29q-23 2 -15 31z" />
    <glyph glyph-name="Egrave" unicode="&#xc8;" horiz-adv-x="557" 
d="M82 42v626q0 42 41 42h342q42 0 42 -42v-28q0 -41 -42 -41h-255v-186h198q42 0 42 -41v-28q0 -42 -42 -42h-198v-191h271q42 0 42 -41v-28q0 -42 -42 -42h-358q-41 0 -41 42zM313 757h-26q-30 0 -51 25l-45 61q-17 20 -11 35t32 15h37q32 0 49 -29l35 -61
q12 -17 6.5 -31.5t-26.5 -14.5z" />
    <glyph glyph-name="Eacute" unicode="&#xc9;" horiz-adv-x="557" 
d="M319 757h-21q-22 0 -29 13.5t4 33.5l35 60q17 29 49 29h36q27 0 33 -15t-11 -35l-45 -61q-21 -25 -51 -25zM82 42v626q0 42 41 42h342q42 0 42 -42v-28q0 -41 -42 -41h-255v-186h198q42 0 42 -41v-28q0 -42 -42 -42h-198v-191h271q42 0 42 -41v-28q0 -42 -42 -42h-358
q-41 0 -41 42z" />
    <glyph glyph-name="Ecircumflex" unicode="&#xca;" horiz-adv-x="557" 
d="M225 757h-26q-22 0 -27 14.5t9 36.5l40 58q18 27 51 27h62q33 0 51 -27l40 -58q14 -22 9 -36.5t-27 -14.5h-26q-16 0 -25 6t-19 23l-33 52h-2l-34 -52q-17 -29 -43 -29zM82 42v626q0 42 41 42h342q42 0 42 -42v-28q0 -41 -42 -41h-255v-186h198q42 0 42 -41v-28
q0 -42 -42 -42h-198v-191h271q42 0 42 -41v-28q0 -42 -42 -42h-358q-41 0 -41 42z" />
    <glyph glyph-name="Edieresis" unicode="&#xcb;" horiz-adv-x="557" 
d="M403 777h-15q-41 0 -41 42v33q0 41 41 41h15q41 0 41 -41v-33q0 -42 -41 -42zM219 777h-14q-42 0 -42 42v33q0 41 42 41h14q42 0 42 -41v-33q0 -42 -42 -42zM82 42v626q0 42 41 42h342q42 0 42 -42v-28q0 -41 -42 -41h-255v-186h198q42 0 42 -41v-28q0 -42 -42 -42h-198
v-191h271q42 0 42 -41v-28q0 -42 -42 -42h-358q-41 0 -41 42z" />
    <glyph glyph-name="Igrave" unicode="&#xcc;" horiz-adv-x="292" 
d="M82 42v626q0 42 41 42h46q41 0 41 -42v-626q0 -42 -41 -42h-46q-41 0 -41 42zM157 757h-26q-30 0 -51 25l-45 61q-17 20 -11 35t32 15h37q32 0 49 -29l35 -61q12 -17 6.5 -31.5t-26.5 -14.5z" />
    <glyph glyph-name="Iacute" unicode="&#xcd;" horiz-adv-x="292" 
d="M82 42v626q0 42 41 42h46q41 0 41 -42v-626q0 -42 -41 -42h-46q-41 0 -41 42zM163 757h-21q-22 0 -29 13.5t4 33.5l35 60q17 29 49 29h36q27 0 33 -15t-11 -35l-45 -61q-21 -25 -51 -25z" />
    <glyph glyph-name="Icircumflex" unicode="&#xce;" horiz-adv-x="292" 
d="M82 42v626q0 42 41 42h46q41 0 41 -42v-626q0 -42 -41 -42h-46q-41 0 -41 42zM69 757h-26q-22 0 -27 14.5t9 36.5l40 58q18 27 51 27h62q33 0 51 -27l40 -58q14 -22 9 -36.5t-27 -14.5h-26q-16 0 -25 6t-19 23l-33 52h-2l-34 -52q-17 -29 -43 -29z" />
    <glyph glyph-name="Idieresis" unicode="&#xcf;" horiz-adv-x="292" 
d="M82 42v626q0 42 41 42h46q41 0 41 -42v-626q0 -42 -41 -42h-46q-41 0 -41 42zM247 777h-15q-41 0 -41 42v33q0 41 41 41h15q41 0 41 -41v-33q0 -42 -41 -42zM63 777h-14q-42 0 -42 42v33q0 41 42 41h14q42 0 42 -41v-33q0 -42 -42 -42z" />
    <glyph glyph-name="Eth" unicode="&#xd0;" horiz-adv-x="729" 
d="M83 42v259h-16q-42 0 -42 42v21q0 42 25 42h33v262q0 42 42 42h200q167 0 264 -94q98 -95 98 -260q0 -166 -98 -261t-264 -95h-200q-42 0 -42 42zM211 301v-190h107q111 0 173.5 64t62.5 181q0 115 -63 179t-173 64h-107v-193h91q41 0 41 -42v-21q0 -42 -39 -42h-93z" />
    <glyph glyph-name="Ntilde" unicode="&#xd1;" horiz-adv-x="743" 
d="M82 42v626q0 42 41 42h54q35 0 50 -28l252 -382q14 -19 27 -46l23 -46l9 -18h2q-7 63 -7 110v368q0 42 42 42h45q42 0 42 -42v-626q0 -42 -42 -42h-54q-34 0 -49 28l-253 381q-16 26 -26 47l-24 45l-9 18h-2q7 -63 7 -110v-367q0 -42 -41 -42h-46q-41 0 -41 42zM240 758
h-10q-36 0 -36 38q0 42 28.5 70.5t72.5 28.5q28 0 55.5 -16.5t48 -32.5t33.5 -16q32 0 35 39q2 23 36 23h10q37 0 37 -34q0 -46 -28 -74.5t-73 -28.5q-29 0 -56 16.5t-47.5 32.5t-33.5 16q-34 0 -38 -40q-3 -22 -34 -22z" />
    <glyph glyph-name="Ograve" unicode="&#xd2;" horiz-adv-x="814" 
d="M40 360q0 155 103 258q104 104 264 104q159 0 263 -104t104 -258q0 -158 -104 -265t-263 -107q-160 0 -264 107q-103 106 -103 265zM173 360q0 -108 66 -182q67 -72 168 -72t167 72q67 73 67 182q0 104 -67 174q-66 70 -167 70t-168 -70q-66 -70 -66 -174zM416 757h-26
q-30 0 -51 25l-45 61q-17 20 -11 35t32 15h37q32 0 49 -29l35 -61q12 -17 6 -31.5t-26 -14.5z" />
    <glyph glyph-name="Oacute" unicode="&#xd3;" horiz-adv-x="814" 
d="M423 757h-21q-22 0 -29 13.5t4 33.5l35 60q17 29 49 29h36q27 0 33 -15t-11 -35l-45 -61q-21 -25 -51 -25zM40 360q0 155 103 258q104 104 264 104q159 0 263 -104t104 -258q0 -158 -104 -265t-263 -107q-160 0 -264 107q-103 106 -103 265zM173 360q0 -108 66 -182
q67 -72 168 -72t167 72q67 73 67 182q0 104 -67 174q-66 70 -167 70t-168 -70q-66 -70 -66 -174z" />
    <glyph glyph-name="Ocircumflex" unicode="&#xd4;" horiz-adv-x="814" 
d="M329 757h-26q-22 0 -27 14.5t9 36.5l40 58q18 27 51 27h62q33 0 51 -27l40 -58q14 -22 9 -36.5t-27 -14.5h-26q-16 0 -25 6t-19 23l-33 52h-2l-34 -52q-17 -29 -43 -29zM40 360q0 155 103 258q104 104 264 104q159 0 263 -104t104 -258q0 -158 -104 -265t-263 -107
q-160 0 -264 107q-103 106 -103 265zM173 360q0 -108 66 -182q67 -72 168 -72t167 72q67 73 67 182q0 104 -67 174q-66 70 -167 70t-168 -70q-66 -70 -66 -174z" />
    <glyph glyph-name="Otilde" unicode="&#xd5;" horiz-adv-x="814" 
d="M40 360q0 155 103 258q104 104 264 104q159 0 263 -104t104 -258q0 -158 -104 -265t-263 -107q-160 0 -264 107q-103 106 -103 265zM173 360q0 -108 66 -182q67 -72 168 -72t167 72q67 73 67 182q0 104 -67 174q-66 70 -167 70t-168 -70q-66 -70 -66 -174zM275 758h-10
q-36 0 -36 38q0 42 28.5 70.5t72.5 28.5q28 0 55.5 -16.5t48 -32.5t33.5 -16q32 0 35 39q2 23 36 23h10q37 0 37 -34q0 -46 -28 -74.5t-73 -28.5q-29 0 -56 16.5t-47.5 32.5t-33.5 16q-34 0 -38 -40q-3 -22 -34 -22z" />
    <glyph glyph-name="Odieresis" unicode="&#xd6;" horiz-adv-x="814" 
d="M506 777h-15q-41 0 -41 42v33q0 41 41 41h15q41 0 41 -41v-33q0 -42 -41 -42zM322 777h-14q-42 0 -42 42v33q0 41 42 41h14q42 0 42 -41v-33q0 -42 -42 -42zM40 360q0 155 103 258q104 104 264 104q159 0 263 -104t104 -258q0 -158 -104 -265t-263 -107q-160 0 -264 107
q-103 106 -103 265zM173 360q0 -108 66 -182q67 -72 168 -72t167 72q67 73 67 182q0 104 -67 174q-66 70 -167 70t-168 -70q-66 -70 -66 -174z" />
    <glyph glyph-name="multiply" unicode="&#xd7;" horiz-adv-x="619" 
d="M84 30l-10 11q-28 28 -1 59l169 186l-169 186q-27 31 1 59l10 11q31 30 59 -1l166 -183l166 183q28 31 59 1l11 -11q28 -28 1 -59l-170 -186l170 -186q27 -31 -1 -59l-11 -11q-31 -31 -59 1l-166 182l-166 -182q-29 -32 -59 -1z" />
    <glyph glyph-name="Oslash" unicode="&#xd8;" horiz-adv-x="813" 
d="M131 40l29 41q-120 109 -120 278q0 153 105 258q107 105 262 105q99 0 182 -46l19 28q26 32 54 13q27 -21 11 -42l-26 -38q127 -108 127 -278q0 -158 -106 -264q-105 -107 -261 -107q-106 0 -191 52l-22 -33q-25 -33 -54 -13t-9 46zM236 186l280 389q-53 29 -109 29
q-99 0 -166 -70q-68 -71 -68 -175q0 -103 63 -173zM572 533l-284 -393q53 -34 119 -34q99 0 166 72q68 74 68 181q0 105 -69 174z" />
    <glyph glyph-name="Ugrave" unicode="&#xd9;" horiz-adv-x="719" 
d="M74 255v413q0 42 41 42h45q42 0 42 -42v-412q0 -71 42 -110.5t115 -39.5t115.5 39.5t42.5 110.5v412q0 42 41 42h46q41 0 41 -42v-413q0 -120 -79 -193q-79 -74 -206 -74q-129 0 -208 73q-78 73 -78 194zM368 757h-26q-30 0 -51 25l-45 61q-17 20 -11 35t32 15h37
q32 0 49 -29l35 -61q12 -17 6 -31.5t-26 -14.5z" />
    <glyph glyph-name="Uacute" unicode="&#xda;" horiz-adv-x="719" 
d="M375 757h-21q-22 0 -29 13.5t4 33.5l35 60q17 29 49 29h36q27 0 33 -15t-11 -35l-45 -61q-21 -25 -51 -25zM74 255v413q0 42 41 42h45q42 0 42 -42v-412q0 -71 42 -110.5t115 -39.5t115.5 39.5t42.5 110.5v412q0 42 41 42h46q41 0 41 -42v-413q0 -120 -79 -193
q-79 -74 -206 -74q-129 0 -208 73q-78 73 -78 194z" />
    <glyph glyph-name="Ucircumflex" unicode="&#xdb;" horiz-adv-x="719" 
d="M281 757h-26q-22 0 -27 14.5t9 36.5l40 58q18 27 51 27h62q33 0 51 -27l40 -58q14 -22 9 -36.5t-27 -14.5h-26q-16 0 -25 6t-19 23l-33 52h-2l-34 -52q-17 -29 -43 -29zM74 255v413q0 42 41 42h45q42 0 42 -42v-412q0 -71 42 -110.5t115 -39.5t115.5 39.5t42.5 110.5v412
q0 42 41 42h46q41 0 41 -42v-413q0 -120 -79 -193q-79 -74 -206 -74q-129 0 -208 73q-78 73 -78 194z" />
    <glyph glyph-name="Udieresis" unicode="&#xdc;" horiz-adv-x="719" 
d="M459 777h-15q-41 0 -41 42v33q0 41 41 41h15q41 0 41 -41v-33q0 -42 -41 -42zM275 777h-14q-42 0 -42 42v33q0 41 42 41h14q42 0 42 -41v-33q0 -42 -42 -42zM74 255v413q0 42 41 42h45q42 0 42 -42v-412q0 -71 42 -110.5t115 -39.5t115.5 39.5t42.5 110.5v412q0 42 41 42
h46q41 0 41 -42v-413q0 -120 -79 -193q-79 -74 -206 -74q-129 0 -208 73q-78 73 -78 194z" />
    <glyph glyph-name="Yacute" unicode="&#xdd;" horiz-adv-x="580" 
d="M226 42v255l-208 363q-13 21 -4.5 35.5t32.5 14.5h56q33 0 48 -31l96 -178l43 -95h2q24 58 43 95l96 178q15 31 48 31h56q25 0 33 -14.5t-4 -35.5l-209 -363v-255q0 -42 -41 -42h-45q-42 0 -42 42zM306 757h-21q-22 0 -29 13.5t4 33.5l35 60q17 29 49 29h36q27 0 33 -15
t-11 -35l-45 -61q-21 -25 -51 -25z" />
    <glyph glyph-name="Thorn" unicode="&#xde;" horiz-adv-x="606" 
d="M82 42v626q0 42 41 42h46q41 0 41 -41v-74h145q100 0 163 -64q63 -65 63 -167q0 -104 -63 -168q-63 -65 -164 -65h-144v-89q0 -42 -41 -42h-46q-41 0 -41 42zM210 484v-242h121q56 0 87.5 32.5t31.5 89.5q0 56 -31 88t-86 32h-123z" />
    <glyph glyph-name="germandbls" unicode="&#xdf;" horiz-adv-x="597" 
d="M63 42v487q0 90 69 141q68 52 163 52q87 0 146 -50q60 -50 60 -124q1 -34 -22 -68t-46 -62t-21 -46q0 -29 80 -83q34 -22 57.5 -58.5t23.5 -76.5q0 -77 -52 -119t-128 -42q-51 0 -101 15q-34 7 -34 46v25q0 46 38 35q38 -13 79 -13q31 0 50.5 15t19.5 45q0 39 -81 88
q-33 21 -56.5 53.5t-23.5 66.5q0 49 44 93q45 45 45 84q0 29 -22.5 48.5t-59.5 19.5q-45 0 -73 -24t-28 -70v-478q0 -42 -42 -42h-43q-42 0 -42 42z" />
    <glyph glyph-name="agrave" unicode="&#xe0;" horiz-adv-x="525" 
d="M24 141q0 52 28.5 88.5t78.5 54.5q88 31 191 31h21v12q0 90 -95 90q-51 0 -106 -29q-40 -17 -56 17l-10 19q-19 36 16 56q82 42 167 42q99 0 155 -53.5t56 -149.5v-277q0 -42 -42 -42h-34q-41 0 -41 42v20l2 22h-2q-11 -18 -24 -34q-55 -62 -136 -62q-71 0 -120 42
q-49 43 -49 111zM150 152q0 -28 21 -47.5t56 -19.5q51 0 84 42t33 92v19h-21q-173 0 -173 -86zM273 574h-26q-30 0 -51 25l-45 61q-17 20 -11 35t32 15h37q32 0 49 -29l35 -61q12 -17 6.5 -31.5t-26.5 -14.5z" />
    <glyph glyph-name="aacute" unicode="&#xe1;" horiz-adv-x="525" 
d="M24 141q0 52 28.5 88.5t78.5 54.5q88 31 191 31h21v12q0 90 -95 90q-51 0 -106 -29q-40 -17 -56 17l-10 19q-19 36 16 56q82 42 167 42q99 0 155 -53.5t56 -149.5v-277q0 -42 -42 -42h-34q-41 0 -41 42v20l2 22h-2q-11 -18 -24 -34q-55 -62 -136 -62q-71 0 -120 42
q-49 43 -49 111zM150 152q0 -28 21 -47.5t56 -19.5q51 0 84 42t33 92v19h-21q-173 0 -173 -86zM277 574h-21q-22 0 -29 14t4 33l35 60q17 29 49 29h36q27 0 33 -15t-11 -35l-45 -61q-21 -25 -51 -25z" />
    <glyph glyph-name="acircumflex" unicode="&#xe2;" horiz-adv-x="525" 
d="M24 141q0 52 28.5 88.5t78.5 54.5q88 31 191 31h21v12q0 90 -95 90q-51 0 -106 -29q-40 -17 -56 17l-10 19q-19 36 16 56q82 42 167 42q99 0 155 -53.5t56 -149.5v-277q0 -42 -42 -42h-34q-41 0 -41 42v20l2 22h-2q-11 -18 -24 -34q-55 -62 -136 -62q-71 0 -120 42
q-49 43 -49 111zM150 152q0 -28 21 -47.5t56 -19.5q51 0 84 42t33 92v19h-21q-173 0 -173 -86zM184 574h-26q-22 0 -27 14.5t9 36.5l40 58q18 27 51 27h62q33 0 51 -27l40 -58q14 -22 9 -36.5t-27 -14.5h-26q-16 0 -25 6t-19 23l-33 52h-2l-34 -52q-17 -29 -43 -29z" />
    <glyph glyph-name="atilde" unicode="&#xe3;" horiz-adv-x="525" 
d="M24 141q0 52 28.5 88.5t78.5 54.5q88 31 191 31h21v12q0 90 -95 90q-51 0 -106 -29q-40 -17 -56 17l-10 19q-19 36 16 56q82 42 167 42q99 0 155 -53.5t56 -149.5v-277q0 -42 -42 -42h-34q-41 0 -41 42v20l2 22h-2q-11 -18 -24 -34q-55 -62 -136 -62q-71 0 -120 42
q-49 43 -49 111zM150 152q0 -28 21 -47.5t56 -19.5q51 0 84 42t33 92v19h-21q-173 0 -173 -86zM130 575h-10q-36 0 -36 38q0 42 28.5 70.5t72.5 28.5q50 0 81 -33q32 -32 56 -32q32 0 35 39q2 23 36 23h10q37 0 37 -34q0 -46 -28 -74.5t-73 -28.5q-23 0 -45 10t-36 22.5
t-29.5 22.5t-26.5 10q-34 0 -38 -40q-3 -22 -34 -22z" />
    <glyph glyph-name="adieresis" unicode="&#xe4;" horiz-adv-x="525" 
d="M24 141q0 52 28.5 88.5t78.5 54.5q88 31 191 31h21v12q0 90 -95 90q-51 0 -106 -29q-40 -17 -56 17l-10 19q-19 36 16 56q82 42 167 42q99 0 155 -53.5t56 -149.5v-277q0 -42 -42 -42h-34q-41 0 -41 42v20l2 22h-2q-11 -18 -24 -34q-55 -62 -136 -62q-71 0 -120 42
q-49 43 -49 111zM150 152q0 -28 21 -47.5t56 -19.5q51 0 84 42t33 92v19h-21q-173 0 -173 -86zM361 594h-15q-41 0 -41 42v33q0 41 41 41h15q41 0 41 -41v-33q0 -42 -41 -42zM177 594h-14q-42 0 -42 42v33q0 41 42 41h14q42 0 42 -41v-33q0 -42 -42 -42z" />
    <glyph glyph-name="aring" unicode="&#xe5;" horiz-adv-x="525" 
d="M24 141q0 52 28.5 88.5t78.5 54.5q88 31 191 31h21v12q0 90 -95 90q-51 0 -106 -29q-40 -17 -56 17l-10 19q-19 36 16 56q82 42 167 42q99 0 155 -53.5t56 -149.5v-277q0 -42 -42 -42h-34q-41 0 -41 42v20l2 22h-2q-11 -18 -24 -34q-55 -62 -136 -62q-71 0 -120 42
q-49 43 -49 111zM150 152q0 -28 21 -47.5t56 -19.5q51 0 84 42t33 92v19h-21q-173 0 -173 -86zM262 562q-40 0 -67.5 21.5t-27.5 56.5q0 36 27.5 57.5t67.5 21.5t67 -21.5t27 -57.5q0 -35 -27.5 -56.5t-66.5 -21.5zM262 606q15 0 24.5 9.5t9.5 24.5q0 22 -17 31t-34 0
t-17 -31q0 -15 9 -24.5t25 -9.5z" />
    <glyph glyph-name="ae" unicode="&#xe6;" horiz-adv-x="847" 
d="M26 147q0 168 302 168h16v12q0 90 -98 90q-48 0 -103 -29q-39 -17 -57 17l-9 18q-20 38 15 56q76 43 163 43q120 0 166 -75h2q62 75 169 75q106 0 166 -68t60 -174q0 -16 -13 -29.5t-31 -13.5h-308q6 -67 47 -104t103 -37q58 0 110 33q39 19 57 -15l10 -19
q20 -37 -13 -56q-80 -51 -173 -51q-147 0 -214 112h-2q-12 -28 -51 -64q-50 -47 -140 -47q-75 0 -124 42q-50 44 -50 116zM470 315h220q-1 48 -29 78t-70 30q-48 0 -79.5 -28.5t-41.5 -79.5zM154 153q0 -29 20.5 -47.5t57.5 -18.5q50 0 81 42q33 42 33 93v15h-35
q-40 0 -72.5 -6t-58.5 -26t-26 -52z" />
    <glyph glyph-name="ccedilla" unicode="&#xe7;" horiz-adv-x="533" 
d="M248 -53l12 45q-105 15 -166 88q-62 74 -62 175q0 113 76 189q76 78 201 78q94 0 167 -51q31 -21 8 -57l-13 -20q-20 -29 -56 -11q-46 31 -99 31q-69 0 -112 -46q-43 -44 -43 -112q0 -67 44 -114q43 -46 115 -46q58 0 114 39q38 21 57 -13l10 -19q20 -35 -11 -56
q-72 -54 -166 -58l-7 -33q34 -4 53.5 -23.5t19.5 -52.5q0 -44 -30 -66t-78 -22q-57 0 -57 34q0 35 21 35q2 0 11.5 -1.5t13.5 -1.5q37 0 37 29q0 25 -45 29q-23 2 -15 31z" />
    <glyph glyph-name="egrave" unicode="&#xe8;" horiz-adv-x="546" 
d="M32 255q0 119 72 192q72 75 187 75q106 0 166 -68t60 -175q0 -17 -13 -30t-31 -13h-311q6 -65 48.5 -102.5t104.5 -37.5q57 0 110 33q38 18 56 -14l12 -20q20 -36 -14 -56q-79 -51 -173 -51q-122 0 -199 77q-75 78 -75 190zM165 313h226q-1 51 -29.5 82t-73.5 31
q-48 0 -81 -30.5t-42 -82.5zM300 574h-26q-30 0 -51 25l-45 61q-17 20 -11 35t32 15h37q32 0 49 -29l35 -61q12 -17 6 -31.5t-26 -14.5z" />
    <glyph glyph-name="eacute" unicode="&#xe9;" horiz-adv-x="546" 
d="M304 574h-21q-22 0 -29 14t4 33l35 60q17 29 49 29h36q27 0 33 -15t-11 -35l-45 -61q-21 -25 -51 -25zM32 255q0 119 72 192q72 75 187 75q106 0 166 -68t60 -175q0 -17 -13 -30t-31 -13h-311q6 -65 48.5 -102.5t104.5 -37.5q57 0 110 33q38 18 56 -14l12 -20
q20 -36 -14 -56q-79 -51 -173 -51q-122 0 -199 77q-75 78 -75 190zM165 313h226q-1 51 -29.5 82t-73.5 31q-48 0 -81 -30.5t-42 -82.5z" />
    <glyph glyph-name="ecircumflex" unicode="&#xea;" horiz-adv-x="546" 
d="M210 574h-26q-22 0 -27 14.5t9 36.5l40 58q18 27 51 27h62q33 0 51 -27l40 -58q14 -22 9 -36.5t-27 -14.5h-26q-16 0 -25 6t-19 23l-33 52h-2l-34 -52q-17 -29 -43 -29zM32 255q0 119 72 192q72 75 187 75q106 0 166 -68t60 -175q0 -17 -13 -30t-31 -13h-311
q6 -65 48.5 -102.5t104.5 -37.5q57 0 110 33q38 18 56 -14l12 -20q20 -36 -14 -56q-79 -51 -173 -51q-122 0 -199 77q-75 78 -75 190zM165 313h226q-1 51 -29.5 82t-73.5 31q-48 0 -81 -30.5t-42 -82.5z" />
    <glyph glyph-name="edieresis" unicode="&#xeb;" horiz-adv-x="546" 
d="M388 594h-15q-41 0 -41 42v33q0 41 41 41h15q41 0 41 -41v-33q0 -42 -41 -42zM204 594h-14q-42 0 -42 42v33q0 41 42 41h14q42 0 42 -41v-33q0 -42 -42 -42zM32 255q0 119 72 192q72 75 187 75q106 0 166 -68t60 -175q0 -17 -13 -30t-31 -13h-311q6 -65 48.5 -102.5
t104.5 -37.5q57 0 110 33q38 18 56 -14l12 -20q20 -36 -14 -56q-79 -51 -173 -51q-122 0 -199 77q-75 78 -75 190zM165 313h226q-1 51 -29.5 82t-73.5 31q-48 0 -81 -30.5t-42 -82.5z" />
    <glyph glyph-name="igrave" unicode="&#xec;" horiz-adv-x="252" 
d="M63 42v426q0 42 41 42h44q41 0 41 -42v-426q0 -42 -41 -42h-44q-41 0 -41 42zM136 574h-26q-30 0 -51 25l-45 61q-17 20 -11 35t32 15h37q32 0 49 -29l35 -61q12 -17 6 -31.5t-26 -14.5z" />
    <glyph glyph-name="iacute" unicode="&#xed;" horiz-adv-x="252" 
d="M143 574h-21q-22 0 -29 14t4 33l35 60q17 29 49 29h36q27 0 33 -15t-11 -35l-45 -61q-21 -25 -51 -25zM63 42v426q0 42 41 42h44q41 0 41 -42v-426q0 -42 -41 -42h-44q-41 0 -41 42z" />
    <glyph glyph-name="icircumflex" unicode="&#xee;" horiz-adv-x="252" 
d="M49 574h-26q-22 0 -27 14.5t9 36.5l40 58q18 27 51 27h62q33 0 51 -27l40 -58q14 -22 9 -36.5t-27 -14.5h-26q-16 0 -25 6t-19 23l-33 52h-2l-34 -52q-17 -29 -43 -29zM63 42v426q0 42 41 42h44q41 0 41 -42v-426q0 -42 -41 -42h-44q-41 0 -41 42z" />
    <glyph glyph-name="idieresis" unicode="&#xef;" horiz-adv-x="252" 
d="M226 594h-15q-41 0 -41 42v33q0 41 41 41h15q41 0 41 -41v-33q0 -42 -41 -42zM42 594h-14q-42 0 -42 42v33q0 41 42 41h14q42 0 42 -41v-33q0 -42 -42 -42zM63 42v426q0 42 41 42h44q41 0 41 -42v-426q0 -42 -41 -42h-44q-41 0 -41 42z" />
    <glyph glyph-name="eth" unicode="&#xf0;" horiz-adv-x="579" 
d="M33 237q0 93 63 161q64 67 172 67q69 -2 107 -35h2q-28 65 -99 112l-138 -60q-21 -9 -30.5 -6.5t-16.5 18.5l-5 12q-12 27 24 42l86 38q-35 18 -74 28q-41 14 -27 53l7 22q13 39 52 28q100 -26 178 -74l101 44q21 7 30 4.5t15 -15.5l7 -15q12 -24 -23 -39l-64 -29
q137 -120 137 -315q0 -54 -14.5 -103.5t-44 -92.5t-81.5 -68.5t-120 -25.5q-112 0 -178 74t-66 175zM161 234q0 -59 32 -99t87 -40q64 0 96 48q33 48 33 112q0 49 -32.5 80t-85.5 31q-60 0 -95 -38t-35 -94z" />
    <glyph glyph-name="ntilde" unicode="&#xf1;" horiz-adv-x="599" 
d="M63 42v426q0 42 41 42h39q41 0 41 -42v-31l-2 -23h2q23 46 69.5 77t111.5 31q178 0 178 -194v-286q0 -42 -42 -42h-43q-42 0 -42 42v260q0 53 -18 78.5t-62 25.5q-66 0 -107 -48q-40 -47 -40 -119v-197q0 -42 -41 -42h-44q-41 0 -41 42zM177 575h-10q-36 0 -36 38
q0 42 28.5 70.5t72.5 28.5q50 0 81 -33q32 -32 56 -32q32 0 35 39q2 23 36 23h10q37 0 37 -34q0 -46 -28 -74.5t-73 -28.5q-23 0 -45 10t-36 22.5t-29.5 22.5t-26.5 10q-34 0 -38 -40q-3 -22 -34 -22z" />
    <glyph glyph-name="ograve" unicode="&#xf2;" horiz-adv-x="622" 
d="M592 255q0 -116 -82 -192q-81 -75 -199 -75t-199 75q-81 77 -81 192q0 116 81 191q80 76 199 76t199 -76q82 -76 82 -191zM160 255q0 -71 43 -115q44 -44 108 -44t108 44q44 46 44 115t-45 114q-43 45 -107 45q-63 0 -107 -45q-44 -46 -44 -114zM320 574h-26
q-30 0 -51 25l-45 61q-17 20 -11 35t32 15h37q32 0 49 -29l35 -61q12 -17 6 -31.5t-26 -14.5z" />
    <glyph glyph-name="oacute" unicode="&#xf3;" horiz-adv-x="622" 
d="M327 574h-21q-22 0 -29 14t4 33l35 60q17 29 49 29h36q27 0 33 -15t-11 -35l-45 -61q-21 -25 -51 -25zM592 255q0 -116 -82 -192q-81 -75 -199 -75t-199 75q-81 77 -81 192q0 116 81 191q80 76 199 76t199 -76q82 -76 82 -191zM160 255q0 -71 43 -115q44 -44 108 -44
t108 44q44 46 44 115t-45 114q-43 45 -107 45q-63 0 -107 -45q-44 -46 -44 -114z" />
    <glyph glyph-name="ocircumflex" unicode="&#xf4;" horiz-adv-x="622" 
d="M233 574h-26q-22 0 -27 14.5t9 36.5l40 58q18 27 51 27h62q33 0 51 -27l40 -58q14 -22 9 -36.5t-27 -14.5h-26q-16 0 -25 6t-19 23l-33 52h-2l-34 -52q-17 -29 -43 -29zM592 255q0 -116 -82 -192q-81 -75 -199 -75t-199 75q-81 77 -81 192q0 116 81 191q80 76 199 76
t199 -76q82 -76 82 -191zM160 255q0 -71 43 -115q44 -44 108 -44t108 44q44 46 44 115t-45 114q-43 45 -107 45q-63 0 -107 -45q-44 -46 -44 -114z" />
    <glyph glyph-name="otilde" unicode="&#xf5;" horiz-adv-x="622" 
d="M592 255q0 -116 -82 -192q-81 -75 -199 -75t-199 75q-81 77 -81 192q0 116 81 191q80 76 199 76t199 -76q82 -76 82 -191zM160 255q0 -71 43 -115q44 -44 108 -44t108 44q44 46 44 115t-45 114q-43 45 -107 45q-63 0 -107 -45q-44 -46 -44 -114zM179 575h-10
q-36 0 -36 38q0 42 28.5 70.5t72.5 28.5q50 0 81 -33q32 -32 56 -32q32 0 35 39q2 23 36 23h10q37 0 37 -34q0 -46 -28 -74.5t-73 -28.5q-23 0 -45 10t-36 22.5t-29.5 22.5t-26.5 10q-34 0 -38 -40q-3 -22 -34 -22z" />
    <glyph glyph-name="odieresis" unicode="&#xf6;" horiz-adv-x="622" 
d="M410 594h-15q-41 0 -41 42v33q0 41 41 41h15q41 0 41 -41v-33q0 -42 -41 -42zM226 594h-14q-42 0 -42 42v33q0 41 42 41h14q42 0 42 -41v-33q0 -42 -42 -42zM592 255q0 -116 -82 -192q-81 -75 -199 -75t-199 75q-81 77 -81 192q0 116 81 191q80 76 199 76t199 -76
q82 -76 82 -191zM160 255q0 -71 43 -115q44 -44 108 -44t108 44q44 46 44 115t-45 114q-43 45 -107 45q-63 0 -107 -45q-44 -46 -44 -114z" />
    <glyph glyph-name="divide" unicode="&#xf7;" horiz-adv-x="619" 
d="M325 437h-31q-42 0 -42 41v25q0 42 42 42h31q42 0 42 -42v-25q0 -41 -42 -41zM529 236h-438q-42 0 -42 42v15q0 42 42 42h438q41 0 41 -42v-15q0 -42 -41 -42zM252 68v25q0 42 42 42h31q42 0 42 -42v-25q0 -41 -42 -41h-31q-42 0 -42 41z" />
    <glyph glyph-name="oslash" unicode="&#xf8;" horiz-adv-x="623" 
d="M106 19l22 31q-96 75 -96 205q0 116 81 191q80 76 199 76q72 0 133 -31l16 23q24 33 52 15q28 -19 11 -42l-23 -32q92 -80 92 -200q0 -116 -82 -192q-81 -75 -199 -75q-70 0 -126 27l-17 -24q-24 -33 -52 -14t-11 42zM199 149l179 249q-31 16 -66 16q-63 0 -107 -45
q-44 -46 -44 -114q0 -65 38 -106zM429 354l-176 -246q27 -12 59 -12q64 0 108 44q44 46 44 115q0 58 -35 99z" />
    <glyph glyph-name="ugrave" unicode="&#xf9;" horiz-adv-x="594" 
d="M56 182v286q0 42 42 42h43q42 0 42 -42v-260q0 -53 18 -78.5t61 -25.5q66 0 104 50q39 50 39 122v192q0 42 42 42h43q42 0 42 -42v-426q0 -42 -42 -42h-39q-41 0 -41 42v30l2 23h-2q-21 -45 -70 -76t-107 -31q-177 0 -177 194zM305 574h-26q-30 0 -51 25l-45 61
q-17 20 -11 35t32 15h37q32 0 49 -29l35 -61q12 -17 6.5 -31.5t-26.5 -14.5z" />
    <glyph glyph-name="uacute" unicode="&#xfa;" horiz-adv-x="594" 
d="M310 574h-21q-22 0 -29 14t4 33l35 60q17 29 49 29h36q27 0 33 -15t-11 -35l-45 -61q-21 -25 -51 -25zM56 182v286q0 42 42 42h43q42 0 42 -42v-260q0 -53 18 -78.5t61 -25.5q66 0 104 50q39 50 39 122v192q0 42 42 42h43q42 0 42 -42v-426q0 -42 -42 -42h-39
q-41 0 -41 42v30l2 23h-2q-21 -45 -70 -76t-107 -31q-177 0 -177 194z" />
    <glyph glyph-name="ucircumflex" unicode="&#xfb;" horiz-adv-x="594" 
d="M216 574h-26q-22 0 -27 14.5t9 36.5l40 58q18 27 51 27h62q33 0 51 -27l40 -58q14 -22 9 -36.5t-27 -14.5h-26q-16 0 -25 6t-19 23l-33 52h-2l-34 -52q-17 -29 -43 -29zM56 182v286q0 42 42 42h43q42 0 42 -42v-260q0 -53 18 -78.5t61 -25.5q66 0 104 50q39 50 39 122
v192q0 42 42 42h43q42 0 42 -42v-426q0 -42 -42 -42h-39q-41 0 -41 42v30l2 23h-2q-21 -45 -70 -76t-107 -31q-177 0 -177 194z" />
    <glyph glyph-name="udieresis" unicode="&#xfc;" horiz-adv-x="594" 
d="M393 594h-15q-41 0 -41 42v33q0 41 41 41h15q41 0 41 -41v-33q0 -42 -41 -42zM209 594h-14q-42 0 -42 42v33q0 41 42 41h14q42 0 42 -41v-33q0 -42 -42 -42zM56 182v286q0 42 42 42h43q42 0 42 -42v-260q0 -53 18 -78.5t61 -25.5q66 0 104 50q39 50 39 122v192
q0 42 42 42h43q42 0 42 -42v-426q0 -42 -42 -42h-39q-41 0 -41 42v30l2 23h-2q-21 -45 -70 -76t-107 -31q-177 0 -177 194z" />
    <glyph glyph-name="yacute" unicode="&#xfd;" horiz-adv-x="514" 
d="M15 -141l9 22q14 30 45 23q19 -9 36 -9q25 0 47 19t34 49l19 45l-194 453q-10 22 -1 35.5t33 13.5h54q35 0 47 -34l96 -260l19 -69h2q6 29 17 67l90 261q11 35 47 35h50q23 0 32.5 -13t1.5 -35l-210 -538q-24 -65 -73 -99.5t-111 -34.5q-32 0 -71 15q-18 7 -23 22t4 32z
M275 573h-21q-22 0 -29 13.5t4 33.5l35 60q17 29 49 29h36q27 0 33 -15t-11 -35l-45 -61q-21 -25 -51 -25z" />
    <glyph glyph-name="thorn" unicode="&#xfe;" horiz-adv-x="603" 
d="M64 -158v826q0 42 42 42h43q42 0 42 -42v-176l-2 -42h2l29 30q11 11 46 26q33 16 75 16q103 0 166 -76q63 -75 63 -191q0 -115 -65 -192q-65 -75 -166 -75q-45 0 -83 16.5t-52 35.5l-13 17h-2q2 -24 2 -44v-171q0 -42 -42 -42h-43q-42 0 -42 42zM187 254q0 -74 35 -116.5
t94 -42.5q55 0 90.5 45t35.5 115t-34.5 114.5t-89.5 44.5q-60 0 -95.5 -40.5t-35.5 -119.5z" />
    <glyph glyph-name="ydieresis" unicode="&#xff;" horiz-adv-x="514" 
d="M15 -141l9 22q14 30 45 23q19 -9 36 -9q25 0 47 19t34 49l19 45l-194 453q-10 22 -1 35.5t33 13.5h54q35 0 47 -34l96 -260l19 -69h2q6 29 17 67l90 261q11 35 47 35h50q23 0 32.5 -13t1.5 -35l-210 -538q-24 -65 -73 -99.5t-111 -34.5q-32 0 -71 15q-18 7 -23 22t4 32z
M359 593h-15q-41 0 -41 42v33q0 41 41 41h15q41 0 41 -41v-33q0 -42 -41 -42zM175 593h-14q-42 0 -42 42v33q0 41 42 41h14q42 0 42 -41v-33q0 -42 -42 -42z" />
    <glyph glyph-name="Amacron" unicode="&#x100;" horiz-adv-x="634" 
d="M16 48l222 628q12 34 47 34h64q37 0 47 -34l222 -628q8 -22 -1.5 -35t-32.5 -13h-46q-37 0 -47 34l-50 148h-249l-49 -147q-11 -35 -47 -35h-46q-23 0 -32.5 13t-1.5 35zM288 477l-64 -190h185l-63 190l-28 110h-2q-17 -74 -28 -110zM406 783h-179q-41 0 -41 40v7
q0 40 41 40h179q42 0 42 -40v-7q0 -40 -42 -40z" />
    <glyph glyph-name="amacron" unicode="&#x101;" horiz-adv-x="525" 
d="M24 141q0 52 28.5 88.5t78.5 54.5q88 31 191 31h21v12q0 90 -95 90q-51 0 -106 -29q-40 -17 -56 17l-10 19q-19 36 16 56q82 42 167 42q99 0 155 -53.5t56 -149.5v-277q0 -42 -42 -42h-34q-41 0 -41 42v20l2 22h-2q-11 -18 -24 -34q-55 -62 -136 -62q-71 0 -120 42
q-49 43 -49 111zM150 152q0 -28 21 -47.5t56 -19.5q51 0 84 42t33 92v19h-21q-173 0 -173 -86zM351 600h-179q-41 0 -41 40v7q0 40 41 40h179q42 0 42 -40v-7q0 -40 -42 -40z" />
    <glyph glyph-name="Abreve" unicode="&#x102;" horiz-adv-x="634" 
d="M16 48l222 628q12 34 47 34h64q37 0 47 -34l222 -628q8 -22 -1.5 -35t-32.5 -13h-46q-37 0 -47 34l-50 148h-249l-49 -147q-11 -35 -47 -35h-46q-23 0 -32.5 13t-1.5 35zM288 477l-64 -190h185l-63 190l-28 110h-2q-17 -74 -28 -110zM317 753q-55 0 -102 32
q-45 33 -45 83q0 25 35 25h19q30 0 36 -28q9 -43 57 -43q47 0 56 43q9 28 36 28h19q36 0 36 -25q0 -50 -45 -83q-46 -32 -102 -32z" />
    <glyph glyph-name="abreve" unicode="&#x103;" horiz-adv-x="525" 
d="M24 141q0 52 28.5 88.5t78.5 54.5q88 31 191 31h21v12q0 90 -95 90q-51 0 -106 -29q-40 -17 -56 17l-10 19q-19 36 16 56q82 42 167 42q99 0 155 -53.5t56 -149.5v-277q0 -42 -42 -42h-34q-41 0 -41 42v20l2 22h-2q-11 -18 -24 -34q-55 -62 -136 -62q-71 0 -120 42
q-49 43 -49 111zM150 152q0 -28 21 -47.5t56 -19.5q51 0 84 42t33 92v19h-21q-173 0 -173 -86zM262 570q-55 0 -102 32q-45 33 -45 83q0 25 35 25h19q30 0 36 -28q9 -43 57 -43q47 0 56 43q9 28 36 28h19q36 0 36 -25q0 -50 -45 -83q-46 -32 -102 -32z" />
    <glyph glyph-name="Aogonek" unicode="&#x104;" horiz-adv-x="634" 
d="M16 48l222 628q12 34 47 34h64q35 0 47 -34l222 -628q15 -41 -5 -61l-11 -9l-12 -11q-28 -21 -28 -47q0 -22 34 -35q20 -7 15 -39l-3 -21q-1 -15 -12 -22.5t-26 -5.5q-40 6 -75 30q-33 23 -33 65q0 54 66 112q-30 1 -39 35l-48 143h-249l-49 -147q-11 -35 -47 -35h-46
q-23 0 -32.5 13t-1.5 35zM288 477l-64 -190h185l-63 190l-28 110h-2q-17 -74 -28 -110z" />
    <glyph glyph-name="aogonek" unicode="&#x105;" horiz-adv-x="527" 
d="M24 141q0 52 28.5 88.5t78.5 54.5q88 31 191 31h21v12q0 90 -95 90q-51 0 -106 -29q-40 -17 -56 17l-10 19q-19 36 16 56q82 42 167 42q99 0 155 -53.5t56 -149.5v-277q0 -25 -34 -59t-34 -63q0 -22 34 -35q20 -7 15 -39l-3 -21q-5 -33 -38 -28q-40 6 -75 30
q-33 23 -33 65q0 60 64 117q-13 9 -13 33v20l2 22h-2q-11 -18 -24 -34q-55 -62 -136 -62q-71 0 -120 42q-49 43 -49 111zM150 152q0 -28 21 -47.5t56 -19.5q51 0 84 42t33 92v19h-21q-173 0 -173 -86z" />
    <glyph glyph-name="Cacute" unicode="&#x106;" horiz-adv-x="704" 
d="M413 757h-21q-22 0 -29 13.5t4 33.5l35 60q17 29 49 29h36q27 0 33 -15t-11 -35l-45 -61q-21 -25 -51 -25zM40 358q0 157 103 260q104 104 263 104q131 0 232 -71q31 -23 8 -58l-18 -29q-19 -33 -57 -10q-77 50 -160 50q-112 0 -175 -71t-63 -173q0 -106 64 -180
q65 -74 175 -74q88 0 174 62q35 26 58 -7l20 -27q24 -32 -6 -58q-109 -88 -251 -88q-165 0 -266 105q-101 106 -101 265z" />
    <glyph glyph-name="cacute" unicode="&#x107;" horiz-adv-x="530" 
d="M304 574h-21q-22 0 -29 14t4 33l35 60q17 29 49 29h36q27 0 33 -15t-11 -35l-45 -61q-21 -25 -51 -25zM31 255q0 113 76 189q77 78 201 78q94 0 167 -51q31 -21 8 -57l-13 -20q-20 -29 -56 -11q-46 31 -99 31q-69 0 -112 -46q-43 -44 -43 -112q0 -67 44 -114
q43 -46 115 -46q59 0 114 39q38 21 57 -13l10 -19q20 -35 -11 -56q-80 -59 -181 -59q-125 0 -201 76t-76 191z" />
    <glyph glyph-name="Ccircumflex" unicode="&#x108;" horiz-adv-x="704" 
d="M319 757h-26q-22 0 -27 14.5t9 36.5l40 58q18 27 51 27h62q33 0 51 -27l40 -58q14 -22 9 -36.5t-27 -14.5h-26q-16 0 -25 6t-19 23l-33 52h-2l-34 -52q-17 -29 -43 -29zM40 358q0 157 103 260q104 104 263 104q131 0 232 -71q31 -23 8 -58l-18 -29q-19 -33 -57 -10
q-77 50 -160 50q-112 0 -175 -71t-63 -173q0 -106 64 -180q65 -74 175 -74q88 0 174 62q35 26 58 -7l20 -27q24 -32 -6 -58q-109 -88 -251 -88q-165 0 -266 105q-101 106 -101 265z" />
    <glyph glyph-name="ccircumflex" unicode="&#x109;" horiz-adv-x="530" 
d="M210 574h-26q-22 0 -27 14.5t9 36.5l40 58q18 27 51 27h62q33 0 51 -27l40 -58q14 -22 9 -36.5t-27 -14.5h-26q-16 0 -25 6t-19 23l-33 52h-2l-34 -52q-17 -29 -43 -29zM31 255q0 113 76 189q77 78 201 78q94 0 167 -51q31 -21 8 -57l-13 -20q-20 -29 -56 -11
q-46 31 -99 31q-69 0 -112 -46q-43 -44 -43 -112q0 -67 44 -114q43 -46 115 -46q59 0 114 39q38 21 57 -13l10 -19q20 -35 -11 -56q-80 -59 -181 -59q-125 0 -201 76t-76 191z" />
    <glyph glyph-name="Cdotaccent" unicode="&#x10a;" horiz-adv-x="704" 
d="M40 358q0 157 103 260q104 104 263 104q131 0 232 -71q31 -23 8 -58l-18 -29q-19 -33 -57 -10q-77 50 -160 50q-112 0 -175 -71t-63 -173q0 -106 64 -180q65 -74 175 -74q88 0 174 62q35 26 58 -7l20 -27q24 -32 -6 -58q-109 -88 -251 -88q-165 0 -266 105
q-101 106 -101 265zM410 782h-26q-41 0 -41 42v28q0 41 41 41h26q41 0 41 -41v-28q0 -42 -41 -42z" />
    <glyph glyph-name="cdotaccent" unicode="&#x10b;" horiz-adv-x="530" 
d="M31 255q0 113 76 189q77 78 201 78q94 0 167 -51q31 -21 8 -57l-13 -20q-20 -29 -56 -11q-46 31 -99 31q-69 0 -112 -46q-43 -44 -43 -112q0 -67 44 -114q43 -46 115 -46q59 0 114 39q38 21 57 -13l10 -19q20 -35 -11 -56q-80 -59 -181 -59q-125 0 -201 76t-76 191z
M302 599h-26q-41 0 -41 42v28q0 41 41 41h26q41 0 41 -41v-28q0 -42 -41 -42z" />
    <glyph glyph-name="Ccaron" unicode="&#x10c;" horiz-adv-x="704" 
d="M428 757h-62q-33 0 -51 27l-40 59q-14 21 -9 35.5t27 14.5h26q28 0 43 -28l34 -53h2l33 53q10 16 18.5 22t25.5 6h26q22 0 27 -14.5t-9 -35.5l-40 -59q-18 -27 -51 -27zM40 358q0 157 103 260q104 104 263 104q131 0 232 -71q31 -23 8 -58l-18 -29q-19 -33 -57 -10
q-77 50 -160 50q-112 0 -175 -71t-63 -173q0 -106 64 -180q65 -74 175 -74q88 0 174 62q35 26 58 -7l20 -27q24 -32 -6 -58q-109 -88 -251 -88q-165 0 -266 105q-101 106 -101 265z" />
    <glyph glyph-name="ccaron" unicode="&#x10d;" horiz-adv-x="530" 
d="M319 574h-62q-33 0 -51 27l-40 59q-14 21 -9 35.5t27 14.5h26q28 0 43 -28l34 -53h2l33 53q10 16 18.5 22t25.5 6h26q22 0 27 -14.5t-9 -35.5l-40 -59q-18 -27 -51 -27zM31 255q0 113 76 189q77 78 201 78q94 0 167 -51q31 -21 8 -57l-13 -20q-20 -29 -56 -11
q-46 31 -99 31q-69 0 -112 -46q-43 -44 -43 -112q0 -67 44 -114q43 -46 115 -46q59 0 114 39q38 21 57 -13l10 -19q20 -35 -11 -56q-80 -59 -181 -59q-125 0 -201 76t-76 191z" />
    <glyph glyph-name="Dcaron" unicode="&#x10e;" horiz-adv-x="728" 
d="M368 757h-62q-33 0 -51 27l-40 59q-14 21 -9 35.5t27 14.5h26q28 0 43 -28l34 -53h2l33 53q10 16 18.5 22t25.5 6h26q22 0 27 -14.5t-9 -35.5l-40 -59q-18 -27 -51 -27zM82 42v626q0 42 41 42h201q167 0 264 -94q98 -95 98 -260q0 -166 -98 -261t-264 -95h-201
q-41 0 -41 42zM210 599v-488h107q111 0 173.5 64t62.5 181q0 115 -63 179t-173 64h-107z" />
    <glyph glyph-name="dcaron" unicode="&#x10f;" horiz-adv-x="603" 
d="M597 683q0 26 37 26h20q48 0 48 -61q0 -41 -19 -72t-44 -31h-11q-37 0 -37 23q0 2 5.5 26t5.5 40q0 8 -2.5 26t-2.5 23zM33 255q0 120 64 193q65 74 167 74q58 0 96 -22t48 -44l5 -7h2q-2 18 -2 29v190q0 42 41 42h44q41 0 41 -42v-626q0 -42 -41 -42h-37q-41 0 -41 38
v20l2 18h-2q-10 -17 -23 -31q-48 -57 -137 -57q-103 0 -165 74t-62 193zM161 255q0 -72 35 -116t92 -44q56 0 92 42t36 119q0 63 -33 110t-94 47q-55 0 -91.5 -43.5t-36.5 -114.5z" />
    <glyph glyph-name="Dcroat" unicode="&#x110;" horiz-adv-x="729" 
d="M83 42v259h-16q-42 0 -42 42v21q0 42 25 42h33v262q0 42 42 42h200q167 0 264 -94q98 -95 98 -260q0 -166 -98 -261t-264 -95h-200q-42 0 -42 42zM211 301v-190h107q111 0 173.5 64t62.5 181q0 115 -63 179t-173 64h-107v-193h91q41 0 41 -42v-21q0 -42 -39 -42h-93z" />
    <glyph glyph-name="dslash" unicode="&#x111;" horiz-adv-x="603" 
d="M33 255q0 120 64 193q65 74 167 74q58 0 94 -21t50 -43l4 -7h2q-1 8 -1 29v79h-87q-42 0 -42 35v6q0 35 42 35h87v33q0 42 41 42h44q41 0 41 -42v-33h31q41 0 41 -35v-6q0 -35 -27 -35h-45v-517q0 -42 -41 -42h-37q-41 0 -41 38v19l1 18h-2q-9 -16 -23 -30
q-48 -57 -136 -57q-103 0 -165 74t-62 193zM161 255q0 -72 35 -116t92 -44q56 0 92 42t36 119q0 63 -33 110t-94 47q-55 0 -91.5 -43.5t-36.5 -114.5z" />
    <glyph glyph-name="Emacron" unicode="&#x112;" horiz-adv-x="557" 
d="M82 42v626q0 42 41 42h342q42 0 42 -42v-28q0 -41 -42 -41h-255v-186h198q42 0 42 -41v-28q0 -42 -42 -42h-198v-191h271q42 0 42 -41v-28q0 -42 -42 -42h-358q-41 0 -41 42zM393 783h-179q-41 0 -41 40v7q0 40 41 40h179q42 0 42 -40v-7q0 -40 -42 -40z" />
    <glyph glyph-name="emacron" unicode="&#x113;" horiz-adv-x="546" 
d="M32 255q0 119 72 192q72 75 187 75q106 0 166 -68t60 -175q0 -17 -13 -30t-31 -13h-311q6 -65 48.5 -102.5t104.5 -37.5q57 0 110 33q38 18 56 -14l12 -20q20 -36 -14 -56q-79 -51 -173 -51q-122 0 -199 77q-75 78 -75 190zM165 313h226q-1 51 -29.5 82t-73.5 31
q-48 0 -81 -30.5t-42 -82.5zM378 600h-179q-41 0 -41 40v7q0 40 41 40h179q42 0 42 -40v-7q0 -40 -42 -40z" />
    <glyph glyph-name="Ebreve" unicode="&#x114;" horiz-adv-x="557" 
d="M82 42v626q0 42 41 42h342q42 0 42 -42v-28q0 -41 -42 -41h-255v-186h198q42 0 42 -41v-28q0 -42 -42 -42h-198v-191h271q42 0 42 -41v-28q0 -42 -42 -42h-358q-41 0 -41 42zM304 753q-55 0 -102 32q-45 33 -45 83q0 25 35 25h19q30 0 36 -28q9 -43 57 -43q47 0 56 43
q9 28 36 28h19q36 0 36 -25q0 -50 -45 -83q-46 -32 -102 -32z" />
    <glyph glyph-name="ebreve" unicode="&#x115;" horiz-adv-x="546" 
d="M32 255q0 119 72 192q72 75 187 75q106 0 166 -68t60 -175q0 -17 -13 -30t-31 -13h-311q6 -65 48.5 -102.5t104.5 -37.5q57 0 110 33q38 18 56 -14l12 -20q20 -36 -14 -56q-79 -51 -173 -51q-122 0 -199 77q-75 78 -75 190zM165 313h226q-1 51 -29.5 82t-73.5 31
q-48 0 -81 -30.5t-42 -82.5zM289 570q-55 0 -102 32q-45 33 -45 83q0 25 35 25h19q30 0 36 -28q9 -43 57 -43q47 0 56 43q9 28 36 28h19q36 0 36 -25q0 -50 -45 -83q-46 -32 -102 -32z" />
    <glyph glyph-name="Edotaccent" unicode="&#x116;" horiz-adv-x="557" 
d="M82 42v626q0 42 41 42h342q42 0 42 -42v-28q0 -41 -42 -41h-255v-186h198q42 0 42 -41v-28q0 -42 -42 -42h-198v-191h271q42 0 42 -41v-28q0 -42 -42 -42h-358q-41 0 -41 42zM317 782h-26q-41 0 -41 42v28q0 41 41 41h26q41 0 41 -41v-28q0 -42 -41 -42z" />
    <glyph glyph-name="edotaccent" unicode="&#x117;" horiz-adv-x="546" 
d="M32 255q0 119 72 192q72 75 187 75q106 0 166 -68t60 -175q0 -17 -13 -30t-31 -13h-311q6 -65 48.5 -102.5t104.5 -37.5q57 0 110 33q38 18 56 -14l12 -20q20 -36 -14 -56q-79 -51 -173 -51q-122 0 -199 77q-75 78 -75 190zM165 313h226q-1 51 -29.5 82t-73.5 31
q-48 0 -81 -30.5t-42 -82.5zM302 599h-26q-41 0 -41 42v28q0 41 41 41h26q41 0 41 -41v-28q0 -42 -41 -42z" />
    <glyph glyph-name="Eogonek" unicode="&#x118;" horiz-adv-x="557" 
d="M82 42v626q0 42 41 42h342q42 0 42 -42v-28q0 -41 -42 -41h-255v-186h198q42 0 42 -41v-28q0 -42 -42 -42h-198v-191h271q42 0 42 -41v-29q0 -23 -36 -57q-35 -35 -35 -64q0 -22 34 -35q21 -7 16 -39l-3 -21q-5 -32 -39 -28q-39 6 -74 30q-34 22 -34 65q0 52 57 108h-286
q-41 0 -41 42z" />
    <glyph glyph-name="eogonek" unicode="&#x119;" horiz-adv-x="548" 
d="M32 255q0 119 72 192q72 75 187 75q106 0 166 -69t60 -177q-1 -16 -13.5 -28t-30.5 -12h-311q6 -65 48.5 -102.5t104.5 -37.5q57 0 110 33q39 19 57 -15l10 -19q16 -31 -11 -58l-27 -24q-12 -10 -35 -30q-36 -36 -36 -63q0 -22 34 -35q21 -9 16 -39l-3 -21
q-4 -30 -39 -28q-40 5 -74 29q-35 24 -35 62q0 53 57 104q-21 -4 -33 -4q-122 0 -199 77q-75 78 -75 190zM165 313h224q-1 50 -29.5 80.5t-71.5 30.5q-48 0 -81 -30t-42 -81z" />
    <glyph glyph-name="Ecaron" unicode="&#x11a;" horiz-adv-x="557" 
d="M334 757h-62q-33 0 -51 27l-40 59q-14 21 -9 35.5t27 14.5h26q28 0 43 -28l34 -53h2l33 53q10 16 18.5 22t25.5 6h26q22 0 27 -14.5t-9 -35.5l-40 -59q-18 -27 -51 -27zM82 42v626q0 42 41 42h342q42 0 42 -42v-28q0 -41 -42 -41h-255v-186h198q42 0 42 -41v-28
q0 -42 -42 -42h-198v-191h271q42 0 42 -41v-28q0 -42 -42 -42h-358q-41 0 -41 42z" />
    <glyph glyph-name="ecaron" unicode="&#x11b;" horiz-adv-x="546" 
d="M319 574h-62q-33 0 -51 27l-40 59q-14 21 -9 35.5t27 14.5h26q28 0 43 -28l34 -53h2l33 53q10 16 18.5 22t25.5 6h26q22 0 27 -14.5t-9 -35.5l-40 -59q-18 -27 -51 -27zM32 255q0 119 72 192q72 75 187 75q106 0 166 -68t60 -175q0 -17 -13 -30t-31 -13h-311
q6 -65 48.5 -102.5t104.5 -37.5q57 0 110 33q38 18 56 -14l12 -20q20 -36 -14 -56q-79 -51 -173 -51q-122 0 -199 77q-75 78 -75 190zM165 313h226q-1 51 -29.5 82t-73.5 31q-48 0 -81 -30.5t-42 -82.5z" />
    <glyph glyph-name="Gcircumflex" unicode="&#x11c;" horiz-adv-x="754" 
d="M318 757h-26q-22 0 -27 14.5t9 36.5l40 58q18 27 51 27h62q33 0 51 -27l40 -58q14 -22 9 -36.5t-27 -14.5h-26q-16 0 -25 6t-19 23l-33 52h-2l-34 -52q-17 -29 -43 -29zM407 722q71 0 132.5 -19t99.5 -46q31 -24 9 -58l-18 -28q-21 -32 -58 -11q-77 44 -158 44
q-112 0 -177 -71q-64 -70 -64 -175q0 -110 68 -181q69 -71 169 -71q103 0 171 68l9 10v79h-68q-42 0 -42 42v27q0 42 42 42h142q41 0 41 -42v-290q0 -42 -41 -42h-25q-41 0 -41 34v17l1 17h-2l-9 -8q-24 -24 -67 -45q-60 -27 -132 -27q-145 0 -247 102q-102 104 -102 262
t104 264q103 106 263 106z" />
    <glyph glyph-name="gcircumflex" unicode="&#x11d;" horiz-adv-x="595" 
d="M211 574h-26q-22 0 -27 14.5t9 36.5l40 58q18 27 51 27h62q33 0 51 -27l40 -58q14 -22 9 -36.5t-27 -14.5h-26q-16 0 -25 6t-19 23l-33 52h-2l-34 -52q-17 -29 -43 -29zM97 -129l8 23q17 35 53 23q50 -19 103 -19q66 0 105 31t39 93v38l2 26h-2q-43 -76 -140 -76
q-108 0 -170 74q-61 73 -61 185q0 111 60 181q60 72 170 72q62 0 99 -23t48 -47l4 -8h2q-1 3 -1 13v19q0 34 41 34h34q41 0 41 -42v-437q0 -121 -79 -181q-78 -60 -185 -60q-86 0 -149 27q-38 17 -22 54zM290 117q54 0 86 37t32 112q0 148 -124 148q-57 0 -89.5 -38
t-32.5 -102q0 -72 34 -114.5t94 -42.5z" />
    <glyph glyph-name="Gbreve" unicode="&#x11e;" horiz-adv-x="754" 
d="M407 722q71 0 132.5 -19t99.5 -46q31 -24 9 -58l-18 -28q-21 -32 -58 -11q-77 44 -158 44q-112 0 -177 -71q-64 -70 -64 -175q0 -110 68 -181q69 -71 169 -71q103 0 171 68l9 10v79h-68q-42 0 -42 42v27q0 42 42 42h142q41 0 41 -42v-290q0 -42 -41 -42h-25q-41 0 -41 34
v17l1 17h-2l-9 -8q-24 -24 -67 -45q-60 -27 -132 -27q-145 0 -247 102q-102 104 -102 262t104 264q103 106 263 106zM396 753q-55 0 -102 32q-45 33 -45 83q0 25 35 25h19q30 0 36 -28q9 -43 57 -43q47 0 56 43q9 28 36 28h19q36 0 36 -25q0 -50 -45 -83q-46 -32 -102 -32z
" />
    <glyph glyph-name="gbreve" unicode="&#x11f;" horiz-adv-x="595" 
d="M97 -129l8 23q17 35 53 23q50 -19 103 -19q66 0 105 31t39 93v38l2 26h-2q-43 -76 -140 -76q-108 0 -170 74q-61 73 -61 185q0 111 60 181q60 72 170 72q62 0 99 -23t48 -47l4 -8h2q-1 3 -1 13v19q0 34 41 34h34q41 0 41 -42v-437q0 -121 -79 -181q-78 -60 -185 -60
q-86 0 -149 27q-38 17 -22 54zM290 117q54 0 86 37t32 112q0 148 -124 148q-57 0 -89.5 -38t-32.5 -102q0 -72 34 -114.5t94 -42.5zM290 570q-55 0 -102 32q-45 33 -45 83q0 25 35 25h19q30 0 36 -28q9 -43 57 -43q47 0 56 43q9 28 36 28h19q36 0 36 -25q0 -50 -45 -83
q-46 -32 -102 -32z" />
    <glyph glyph-name="Gdotaccent" unicode="&#x120;" horiz-adv-x="754" 
d="M407 722q71 0 132.5 -19t99.5 -46q31 -24 9 -58l-18 -28q-21 -32 -58 -11q-77 44 -158 44q-112 0 -177 -71q-64 -70 -64 -175q0 -110 68 -181q69 -71 169 -71q103 0 171 68l9 10v79h-68q-42 0 -42 42v27q0 42 42 42h142q41 0 41 -42v-290q0 -42 -41 -42h-25q-41 0 -41 34
v17l1 17h-2l-9 -8q-24 -24 -67 -45q-60 -27 -132 -27q-145 0 -247 102q-102 104 -102 262t104 264q103 106 263 106zM409 782h-26q-41 0 -41 42v28q0 41 41 41h26q41 0 41 -41v-28q0 -42 -41 -42z" />
    <glyph glyph-name="gdotaccent" unicode="&#x121;" horiz-adv-x="595" 
d="M97 -129l8 23q17 35 53 23q50 -19 103 -19q66 0 105 31t39 93v38l2 26h-2q-43 -76 -140 -76q-108 0 -170 74q-61 73 -61 185q0 111 60 181q60 72 170 72q62 0 99 -23t48 -47l4 -8h2q-1 3 -1 13v19q0 34 41 34h34q41 0 41 -42v-437q0 -121 -79 -181q-78 -60 -185 -60
q-86 0 -149 27q-38 17 -22 54zM290 117q54 0 86 37t32 112q0 148 -124 148q-57 0 -89.5 -38t-32.5 -102q0 -72 34 -114.5t94 -42.5zM303 599h-26q-41 0 -41 42v28q0 41 41 41h26q41 0 41 -41v-28q0 -42 -41 -42z" />
    <glyph glyph-name="Gcommaaccent" unicode="&#x122;" horiz-adv-x="754" 
d="M339 -81q0 26 37 26h20q48 0 48 -61q0 -41 -19 -72t-44 -31h-11q-37 0 -37 23q0 2 5.5 26t5.5 40q0 8 -2.5 26t-2.5 23zM407 722q71 0 132.5 -19t99.5 -46q31 -24 9 -58l-18 -28q-21 -32 -58 -11q-77 44 -158 44q-112 0 -177 -71q-64 -70 -64 -175q0 -110 68 -181
q69 -71 169 -71q103 0 171 68l9 10v79h-68q-42 0 -42 42v27q0 42 42 42h142q41 0 41 -42v-290q0 -42 -41 -42h-25q-41 0 -41 34v17l1 17h-2l-9 -8q-24 -24 -67 -45q-60 -27 -132 -27q-145 0 -247 102q-102 104 -102 262t104 264q103 106 263 106z" />
    <glyph glyph-name="gcommaaccent" unicode="&#x123;" horiz-adv-x="595" 
d="M340 593q0 -26 -37 -26h-20q-48 0 -48 61q0 41 19 72t44 31h11q37 0 37 -23q0 -2 -5.5 -26t-5.5 -40q0 -8 2.5 -26t2.5 -23zM97 -129l8 23q17 35 53 23q50 -19 103 -19q66 0 105 31t39 93v38l2 26h-2q-43 -76 -140 -76q-108 0 -170 74q-61 73 -61 185q0 111 60 181
q60 72 170 72q62 0 99 -23t48 -47l4 -8h2q-1 3 -1 13v19q0 34 41 34h34q41 0 41 -42v-437q0 -121 -79 -181q-78 -60 -185 -60q-86 0 -149 27q-38 17 -22 54zM290 117q54 0 86 37t32 112q0 148 -124 148q-57 0 -89.5 -38t-32.5 -102q0 -72 34 -114.5t94 -42.5z" />
    <glyph glyph-name="Hcircumflex" unicode="&#x124;" horiz-adv-x="745" 
d="M294 757h-26q-22 0 -27 14.5t9 36.5l40 58q18 27 51 27h62q33 0 51 -27l40 -58q14 -22 9 -36.5t-27 -14.5h-26q-16 0 -25 6t-19 23l-33 52h-2l-34 -52q-17 -29 -43 -29zM82 42v626q0 42 41 42h46q41 0 41 -42v-259h325v259q0 42 42 42h45q41 0 41 -42v-626q0 -42 -41 -42
h-45q-42 0 -42 42v256h-325v-256q0 -42 -41 -42h-46q-41 0 -41 42z" />
    <glyph glyph-name="hcircumflex" unicode="&#x125;" horiz-adv-x="599" 
d="M50 757h-26q-22 0 -27 14.5t9 36.5l40 58q18 27 51 27h62q33 0 51 -27l40 -58q14 -22 9 -36.5t-27 -14.5h-26q-16 0 -25 6t-19 23l-33 52h-2l-34 -52q-17 -29 -43 -29zM63 42v626q0 42 42 42h43q42 0 42 -42v-206l-3 -43h2q22 43 70.5 73t106.5 30q178 0 178 -194v-286
q0 -42 -42 -42h-43q-42 0 -42 42v260q0 53 -18 78.5t-62 25.5q-67 0 -107 -48q-40 -46 -40 -121v-195q0 -42 -42 -42h-43q-42 0 -42 42z" />
    <glyph glyph-name="Hbar" unicode="&#x126;" horiz-adv-x="743" 
d="M84 42v473h-24q-41 0 -41 39v6q0 38 41 38h24v70q0 42 42 42h48q41 0 41 -35v-77h314v70q0 42 41 42h48q42 0 42 -35v-77h23q42 0 42 -38v-6q0 -39 -42 -39h-23v-473q0 -42 -42 -42h-48q-41 0 -41 42v256h-314v-256q0 -42 -41 -42h-48q-42 0 -42 42zM215 515v-106h314
v106h-314z" />
    <glyph glyph-name="hbar" unicode="&#x127;" horiz-adv-x="599" 
d="M63 42v517h-24q-42 0 -42 35v6q0 35 42 35h24v33q0 42 42 42h43q42 0 42 -28v-47h92q42 0 42 -35v-6q0 -35 -42 -35h-92v-95l-2 -43h2q22 43 70 72t106 29q178 0 178 -194v-286q0 -42 -42 -42h-43q-42 0 -42 42v260q0 53 -18 78.5t-62 25.5q-67 0 -107 -49
q-40 -47 -40 -118v-197q0 -42 -42 -42h-43q-42 0 -42 42z" />
    <glyph glyph-name="Itilde" unicode="&#x128;" horiz-adv-x="292" 
d="M82 42v626q0 42 41 42h46q41 0 41 -42v-626q0 -42 -41 -42h-46q-41 0 -41 42zM16 758h-10q-36 0 -36 38q0 42 28.5 70.5t72.5 28.5q28 0 55.5 -16.5t48 -32.5t33.5 -16q32 0 35 39q2 23 36 23h10q37 0 37 -34q0 -46 -28 -74.5t-73 -28.5q-29 0 -56 16.5t-47.5 32.5
t-33.5 16q-34 0 -38 -40q-3 -22 -34 -22z" />
    <glyph glyph-name="itilde" unicode="&#x129;" horiz-adv-x="252" 
d="M63 42v426q0 42 41 42h44q41 0 41 -42v-426q0 -42 -41 -42h-44q-41 0 -41 42zM-5 575h-10q-36 0 -36 38q0 42 28.5 70.5t72.5 28.5q50 0 81 -33q32 -32 56 -32q32 0 35 39q2 23 36 23h10q37 0 37 -34q0 -46 -28 -74.5t-73 -28.5q-23 0 -45 10t-36 22.5t-29.5 22.5
t-26.5 10q-34 0 -38 -40q-3 -22 -34 -22z" />
    <glyph glyph-name="Imacron" unicode="&#x12a;" horiz-adv-x="292" 
d="M82 42v626q0 42 41 42h46q41 0 41 -42v-626q0 -42 -41 -42h-46q-41 0 -41 42zM237 783h-179q-41 0 -41 40v7q0 40 41 40h179q42 0 42 -40v-7q0 -40 -42 -40z" />
    <glyph glyph-name="imacron" unicode="&#x12b;" horiz-adv-x="252" 
d="M63 42v426q0 42 41 42h44q41 0 41 -42v-426q0 -42 -41 -42h-44q-41 0 -41 42zM216 600h-179q-41 0 -41 40v7q0 40 41 40h179q42 0 42 -40v-7q0 -40 -42 -40z" />
    <glyph glyph-name="Ibreve" unicode="&#x12c;" horiz-adv-x="292" 
d="M82 42v626q0 42 41 42h46q41 0 41 -42v-626q0 -42 -41 -42h-46q-41 0 -41 42zM147 753q-55 0 -102 32q-45 33 -45 83q0 25 35 25h19q30 0 36 -28q9 -43 57 -43q47 0 56 43q9 28 36 28h19q36 0 36 -25q0 -50 -45 -83q-46 -32 -102 -32z" />
    <glyph glyph-name="ibreve" unicode="&#x12d;" horiz-adv-x="252" 
d="M63 42v426q0 42 41 42h44q41 0 41 -42v-426q0 -42 -41 -42h-44q-41 0 -41 42zM127 570q-55 0 -102 32q-45 33 -45 83q0 25 35 25h19q30 0 36 -28q9 -43 57 -43q47 0 56 43q9 28 36 28h19q36 0 36 -25q0 -50 -45 -83q-46 -32 -102 -32z" />
    <glyph glyph-name="Iogonek" unicode="&#x12e;" horiz-adv-x="292" 
d="M82 42v626q0 42 41 42h46q41 0 41 -42v-626q0 -20 -35 -57q-34 -35 -34 -65q0 -22 34 -35q21 -7 16 -39l-3 -21q-5 -32 -39 -28q-39 6 -74 30q-34 22 -34 65q0 55 64 112q-23 8 -23 38z" />
    <glyph glyph-name="iogonek" unicode="&#x12f;" horiz-adv-x="252" 
d="M148 597h-44q-41 0 -41 41v30q0 42 41 42h44q42 0 42 -42v-30q0 -41 -42 -41zM63 42v426q0 42 42 42h43q42 0 42 -42v-426q0 -20 -35 -57q-34 -35 -34 -65q0 -22 34 -35q21 -9 16 -39l-3 -21q-5 -32 -39 -28q-41 6 -75 30q-33 23 -33 65q0 55 64 112q-22 7 -22 38z" />
    <glyph glyph-name="Idot" unicode="&#x130;" horiz-adv-x="292" 
d="M82 42v626q0 42 41 42h46q41 0 41 -42v-626q0 -42 -41 -42h-46q-41 0 -41 42zM160 782h-26q-41 0 -41 42v28q0 41 41 41h26q41 0 41 -41v-28q0 -42 -41 -42z" />
    <glyph glyph-name="dotlessi" unicode="&#x131;" horiz-adv-x="252" 
d="M63 42v426q0 42 41 42h44q41 0 41 -42v-426q0 -42 -41 -42h-44q-41 0 -41 42z" />
    <glyph glyph-name="IJ" unicode="&#x132;" horiz-adv-x="627" 
d="M293 38v37q0 32 37 44q92 20 92 133v416q0 42 42 42h47q42 0 42 -42v-424q0 -135 -78 -195q-66 -51 -140 -51q-42 0 -42 40zM82 42v626q0 42 41 42h46q41 0 41 -42v-626q0 -42 -41 -42h-46q-41 0 -41 42z" />
    <glyph glyph-name="ij" unicode="&#x133;" horiz-adv-x="523" 
d="M148 597h-44q-41 0 -41 41v30q0 42 41 42h44q42 0 42 -42v-30q0 -41 -42 -41zM63 42v426q0 42 41 42h44q41 0 41 -42v-426q0 -42 -41 -42h-44q-41 0 -41 42zM419 597h-44q-42 0 -42 41v30q0 42 42 42h44q41 0 41 -42v-30q0 -41 -41 -41zM333 -5v473q0 42 42 42h43
q42 0 42 -42v-481q0 -47 -15.5 -83.5t-38 -56.5t-51.5 -33t-50.5 -17t-39.5 -4h-15q-41 0 -41 42v26q0 20 10 29t31 12q16 2 28 5.5t26 13t21.5 28t7.5 46.5z" />
    <glyph glyph-name="Jcircumflex" unicode="&#x134;" horiz-adv-x="536" 
d="M224 757h-26q-22 0 -27 14.5t9 36.5l40 58q18 27 51 27h62q33 0 51 -27l40 -58q14 -22 9 -36.5t-27 -14.5h-26q-16 0 -25 6t-19 23l-33 52h-2l-34 -52q-17 -29 -43 -29zM19 210q0 41 41 41h47q20 0 29 -9t11 -31q3 -49 26.5 -77t66.5 -28q42 0 67 27t25 79v387h-141
q-42 0 -42 41v28q0 42 42 42h228q42 0 42 -42v-458q0 -109 -66 -166q-65 -56 -155 -56t-156 57q-65 59 -65 165z" />
    <glyph glyph-name="jcircumflex" unicode="&#x135;" horiz-adv-x="253" 
d="M48 573h-26q-22 0 -27 14.5t9 36.5l40 59q18 27 50 27h63q32 0 50 -27l41 -59q14 -22 9 -36.5t-27 -14.5h-27q-25 0 -43 29l-33 53h-2l-34 -53q-17 -29 -43 -29zM63 -5v473q0 42 42 42h43q42 0 42 -42v-481q0 -47 -15.5 -83.5t-38 -56.5t-51.5 -33t-50.5 -17t-39.5 -4
h-15q-41 0 -41 42v26q0 36 41 41q83 8 83 93z" />
    <glyph glyph-name="Kcommaaccent" unicode="&#x136;" horiz-adv-x="628" 
d="M273 -81q0 26 37 26h20q48 0 48 -61q0 -41 -19 -72t-44 -31h-11q-37 0 -37 23q0 2 5.5 26t5.5 40q0 8 -2.5 26t-2.5 23zM82 42v626q0 42 41 42h46q41 0 41 -42v-247h93l150 260q17 29 49 29h49q25 0 33 -14.5t-4 -35.5l-172 -288v-2l185 -320q13 -22 4.5 -36t-33.5 -14
h-55q-32 0 -49 29l-157 281h-93v-268q0 -42 -41 -42h-46q-41 0 -41 42z" />
    <glyph glyph-name="kcommaaccent" unicode="&#x137;" horiz-adv-x="534" 
d="M230 -81q0 26 37 26h20q48 0 48 -61q0 -41 -19 -72t-44 -31h-11q-37 0 -37 23q0 2 5.5 26t5.5 40q0 8 -2.5 26t-2.5 23zM63 42v626q0 42 42 42h43q42 0 42 -42v-338h63l106 152q16 28 50 28h48q25 0 32.5 -15t-6.5 -35l-127 -178v-2l150 -230q13 -22 5 -36t-33 -14h-54
q-32 0 -49 29l-119 194h-66v-181q0 -42 -42 -42h-43q-42 0 -42 42z" />
    <glyph glyph-name="kgreenlandic" unicode="&#x138;" horiz-adv-x="531" 
d="M63 42v426q0 42 41 42h44q41 0 41 -42v-150h62l112 164q18 28 51 28h48q25 0 33 -15t-6 -35l-134 -189v-2l142 -219q14 -22 6 -36t-33 -14h-57q-32 0 -49 29l-109 182h-66v-169q0 -42 -41 -42h-44q-41 0 -41 42z" />
    <glyph glyph-name="Lacute" unicode="&#x139;" horiz-adv-x="521" 
d="M163 757h-21q-22 0 -29 13.5t4 33.5l35 60q17 29 49 29h36q27 0 33 -15t-11 -35l-45 -61q-21 -25 -51 -25zM82 42v626q0 42 41 42h46q41 0 41 -42v-557h265q42 0 42 -41v-28q0 -42 -42 -42h-352q-41 0 -41 42z" />
    <glyph glyph-name="lacute" unicode="&#x13a;" horiz-adv-x="279" 
d="M143 757h-21q-22 0 -29 13.5t4 33.5l35 60q17 29 49 29h36q27 0 33 -15t-11 -35l-45 -61q-21 -25 -51 -25zM62 159v509q0 42 41 42h44q41 0 41 -42v-499q0 -57 40 -61q31 -3 31 -36v-34q0 -43 -42 -43q-59 0 -102 26q-53 34 -53 138z" />
    <glyph glyph-name="Lcommaaccent" unicode="&#x13b;" horiz-adv-x="521" 
d="M255 -81q0 26 37 26h20q48 0 48 -61q0 -41 -19 -72t-44 -31h-11q-37 0 -37 23q0 2 5.5 26t5.5 40q0 8 -2.5 26t-2.5 23zM82 42v626q0 42 41 42h46q41 0 41 -42v-557h265q42 0 42 -41v-28q0 -42 -42 -42h-352q-41 0 -41 42z" />
    <glyph glyph-name="lcommaaccent" unicode="&#x13c;" horiz-adv-x="279" 
d="M113 -81q0 26 37 26h20q48 0 48 -61q0 -41 -19 -72t-44 -31h-11q-37 0 -37 23q0 2 5.5 26t5.5 40q0 8 -2.5 26t-2.5 23zM62 159v509q0 42 41 42h44q41 0 41 -42v-499q0 -57 40 -61q31 -3 31 -36v-34q0 -43 -42 -43q-59 0 -102 26q-53 34 -53 138z" />
    <glyph glyph-name="Lcaron" unicode="&#x13d;" horiz-adv-x="522" 
d="M294 683q0 26 37 26h20q48 0 48 -61q0 -41 -19 -72t-44 -31h-11q-37 0 -37 23q0 2 5.5 26t5.5 40q0 8 -2.5 26t-2.5 23zM82 42v626q0 42 41 42h46q41 0 41 -42v-557h265q42 0 42 -41v-28q0 -42 -42 -42h-352q-41 0 -41 42z" />
    <glyph glyph-name="lcaron" unicode="&#x13e;" horiz-adv-x="279" 
d="M247 683q0 26 37 26h20q48 0 48 -61q0 -41 -19 -72t-44 -31h-11q-37 0 -37 23q0 2 5.5 26t5.5 40q0 8 -2.5 26t-2.5 23zM62 159v509q0 42 41 42h44q41 0 41 -42v-499q0 -57 40 -61q31 -3 31 -36v-34q0 -43 -42 -43q-59 0 -102 26q-53 34 -53 138z" />
    <glyph glyph-name="Ldot" unicode="&#x13f;" horiz-adv-x="523" 
d="M82 42v626q0 42 41 42h46q41 0 41 -42v-557h265q42 0 42 -41v-28q0 -42 -42 -42h-352q-41 0 -41 42zM399 321h-41q-41 0 -41 41v46q0 41 41 41h41q42 0 42 -41v-46q0 -41 -42 -41z" />
    <glyph glyph-name="ldot" unicode="&#x140;" horiz-adv-x="377" 
d="M62 159v509q0 42 41 42h44q41 0 41 -42v-499q0 -57 40 -61q31 -3 31 -36v-34q0 -43 -42 -43q-59 0 -102 26q-53 34 -53 138zM333 321h-41q-41 0 -41 41v46q0 41 41 41h41q42 0 42 -41v-46q0 -41 -42 -41z" />
    <glyph glyph-name="Lslash" unicode="&#x141;" horiz-adv-x="523" 
d="M83 42v221l-20 -11q-15 -7 -26 3t-11 33v33q0 34 21 46l36 20v281q0 42 42 42h45q41 0 41 -42v-207l57 32q21 13 35 4.5t14 -33.5v-33q0 -34 -28 -50l-78 -44v-226h266q41 0 41 -41v-28q0 -42 -41 -42h-352q-42 0 -42 42z" />
    <glyph glyph-name="lslash" unicode="&#x142;" horiz-adv-x="290" 
d="M71 159v121l-26 -14q-16 -9 -27 1t-11 34v33q0 36 21 46l43 24v264q0 42 42 42h43q42 0 42 -42v-191l27 16q22 13 36 5t14 -33v-34q0 -32 -26 -49l-51 -29v-185q0 -56 39 -60q31 -3 31 -36v-34q0 -43 -42 -43q-59 0 -102 26q-53 34 -53 138z" />
    <glyph glyph-name="Nacute" unicode="&#x143;" horiz-adv-x="743" 
d="M387 757h-21q-22 0 -29 13.5t4 33.5l35 60q17 29 49 29h36q27 0 33 -15t-11 -35l-45 -61q-21 -25 -51 -25zM82 42v626q0 42 41 42h54q35 0 50 -28l252 -382q14 -19 27 -46l23 -46l9 -18h2q-7 63 -7 110v368q0 42 42 42h45q42 0 42 -42v-626q0 -42 -42 -42h-54
q-34 0 -49 28l-253 381q-16 26 -26 47l-24 45l-9 18h-2q7 -63 7 -110v-367q0 -42 -41 -42h-46q-41 0 -41 42z" />
    <glyph glyph-name="nacute" unicode="&#x144;" horiz-adv-x="599" 
d="M325 574h-21q-22 0 -29 14t4 33l35 60q17 29 49 29h36q27 0 33 -15t-11 -35l-45 -61q-21 -25 -51 -25zM63 42v426q0 42 41 42h39q41 0 41 -42v-31l-2 -23h2q23 46 69.5 77t111.5 31q178 0 178 -194v-286q0 -42 -42 -42h-43q-42 0 -42 42v260q0 53 -18 78.5t-62 25.5
q-66 0 -107 -48q-40 -47 -40 -119v-197q0 -42 -41 -42h-44q-41 0 -41 42z" />
    <glyph glyph-name="Ncommaaccent" unicode="&#x145;" horiz-adv-x="743" 
d="M321 -81q0 26 37 26h20q48 0 48 -61q0 -41 -19 -72t-44 -31h-11q-37 0 -37 23q0 2 5.5 26t5.5 40q0 8 -2.5 26t-2.5 23zM82 42v626q0 42 41 42h54q35 0 50 -28l252 -382q14 -19 27 -46l23 -46l9 -18h2q-7 63 -7 110v368q0 42 42 42h45q42 0 42 -42v-626q0 -42 -42 -42
h-54q-34 0 -49 28l-253 381q-16 26 -26 47l-24 45l-9 18h-2q7 -63 7 -110v-367q0 -42 -41 -42h-46q-41 0 -41 42z" />
    <glyph glyph-name="ncommaaccent" unicode="&#x146;" horiz-adv-x="599" 
d="M250 -81q0 26 37 26h20q48 0 48 -61q0 -41 -19 -72t-44 -31h-11q-37 0 -37 23q0 2 5.5 26t5.5 40q0 8 -2.5 26t-2.5 23zM63 42v426q0 42 41 42h39q41 0 41 -42v-31l-2 -23h2q23 46 69.5 77t111.5 31q178 0 178 -194v-286q0 -42 -42 -42h-43q-42 0 -42 42v260
q0 53 -18 78.5t-62 25.5q-66 0 -107 -48q-40 -47 -40 -119v-197q0 -42 -41 -42h-44q-41 0 -41 42z" />
    <glyph glyph-name="Ncaron" unicode="&#x147;" horiz-adv-x="743" 
d="M402 757h-62q-33 0 -51 27l-40 59q-14 21 -9 35.5t27 14.5h26q28 0 43 -28l34 -53h2l33 53q10 16 18.5 22t25.5 6h26q22 0 27 -14.5t-9 -35.5l-40 -59q-18 -27 -51 -27zM82 42v626q0 42 41 42h54q35 0 50 -28l252 -382q14 -19 27 -46l23 -46l9 -18h2q-7 63 -7 110v368
q0 42 42 42h45q42 0 42 -42v-626q0 -42 -42 -42h-54q-34 0 -49 28l-253 381q-16 26 -26 47l-24 45l-9 18h-2q7 -63 7 -110v-367q0 -42 -41 -42h-46q-41 0 -41 42z" />
    <glyph glyph-name="ncaron" unicode="&#x148;" horiz-adv-x="599" 
d="M340 574h-62q-33 0 -51 27l-40 59q-14 21 -9 35.5t27 14.5h26q28 0 43 -28l34 -53h2l33 53q10 16 18.5 22t25.5 6h26q22 0 27 -14.5t-9 -35.5l-40 -59q-18 -27 -51 -27zM63 42v426q0 42 41 42h39q41 0 41 -42v-31l-2 -23h2q23 46 69.5 77t111.5 31q178 0 178 -194v-286
q0 -42 -42 -42h-43q-42 0 -42 42v260q0 53 -18 78.5t-62 25.5q-66 0 -107 -48q-40 -47 -40 -119v-197q0 -42 -41 -42h-44q-41 0 -41 42z" />
    <glyph glyph-name="napostrophe" unicode="&#x149;" horiz-adv-x="599" 
d="M-13 683q0 26 37 26h20q48 0 48 -61q0 -41 -19 -72t-44 -31h-11q-37 0 -37 23q0 2 5.5 26t5.5 40q0 8 -2.5 26t-2.5 23zM63 42v426q0 42 41 42h39q41 0 41 -42v-31l-2 -23h2q23 46 69.5 77t111.5 31q178 0 178 -194v-286q0 -42 -42 -42h-43q-42 0 -42 42v260
q0 53 -18 78.5t-62 25.5q-66 0 -107 -48q-40 -47 -40 -119v-197q0 -42 -41 -42h-44q-41 0 -41 42z" />
    <glyph glyph-name="Eng" unicode="&#x14a;" horiz-adv-x="744" 
d="M82 42v626q0 42 41 42h54q35 0 50 -28l252 -382q14 -19 27 -46l23 -46l9 -18h2q-7 63 -7 110v368q0 42 42 42h45q42 0 42 -42v-675q0 -111 -75 -158q-65 -40 -133 -42q-45 0 -45 42v27q0 38 42 42q86 8 86 97l-273 408q-16 26 -26 47l-24 45l-9 18h-2q7 -63 7 -110v-367
q0 -42 -41 -42h-46q-41 0 -41 42z" />
    <glyph glyph-name="eng" unicode="&#x14b;" horiz-adv-x="602" 
d="M63 42v426q0 42 41 42h39q41 0 41 -42v-31l-2 -23h2q23 46 69.5 77t111.5 31q178 0 178 -194v-341q0 -47 -15.5 -83.5t-38 -56.5t-51.5 -33t-50.5 -17t-39.5 -4h-15q-41 0 -41 42v26q0 36 41 41q83 8 83 93v307q0 53 -18 78.5t-62 25.5q-66 0 -107 -48q-40 -47 -40 -119
v-197q0 -42 -41 -42h-44q-41 0 -41 42z" />
    <glyph glyph-name="Omacron" unicode="&#x14c;" horiz-adv-x="814" 
d="M496 783h-179q-41 0 -41 40v7q0 40 41 40h179q42 0 42 -40v-7q0 -40 -42 -40zM40 360q0 155 103 258q104 104 264 104q159 0 263 -104t104 -258q0 -158 -104 -265t-263 -107q-160 0 -264 107q-103 106 -103 265zM173 360q0 -108 66 -182q67 -72 168 -72t167 72
q67 73 67 182q0 104 -67 174q-66 70 -167 70t-168 -70q-66 -70 -66 -174z" />
    <glyph glyph-name="omacron" unicode="&#x14d;" horiz-adv-x="622" 
d="M400 600h-179q-41 0 -41 40v7q0 40 41 40h179q42 0 42 -40v-7q0 -40 -42 -40zM592 255q0 -116 -82 -192q-81 -75 -199 -75t-199 75q-81 77 -81 192q0 116 81 191q80 76 199 76t199 -76q82 -76 82 -191zM160 255q0 -71 43 -115q44 -44 108 -44t108 44q44 46 44 115
t-45 114q-43 45 -107 45q-63 0 -107 -45q-44 -46 -44 -114z" />
    <glyph glyph-name="Obreve" unicode="&#x14e;" horiz-adv-x="814" 
d="M40 360q0 155 103 258q104 104 264 104q159 0 263 -104t104 -258q0 -158 -104 -265t-263 -107q-160 0 -264 107q-103 106 -103 265zM173 360q0 -108 66 -182q67 -72 168 -72t167 72q67 73 67 182q0 104 -67 174q-66 70 -167 70t-168 -70q-66 -70 -66 -174zM407 753
q-55 0 -102 32q-45 33 -45 83q0 25 35 25h19q30 0 36 -28q9 -43 57 -43q47 0 56 43q9 28 36 28h19q36 0 36 -25q0 -50 -45 -83q-46 -32 -102 -32z" />
    <glyph glyph-name="obreve" unicode="&#x14f;" horiz-adv-x="622" 
d="M592 255q0 -116 -82 -192q-81 -75 -199 -75t-199 75q-81 77 -81 192q0 116 81 191q80 76 199 76t199 -76q82 -76 82 -191zM160 255q0 -71 43 -115q44 -44 108 -44t108 44q44 46 44 115t-45 114q-43 45 -107 45q-63 0 -107 -45q-44 -46 -44 -114zM311 570q-55 0 -102 32
q-45 33 -45 83q0 25 35 25h19q30 0 36 -28q9 -43 57 -43q47 0 56 43q9 28 36 28h19q36 0 36 -25q0 -50 -45 -83q-46 -32 -102 -32z" />
    <glyph glyph-name="Ohungarumlaut" unicode="&#x150;" horiz-adv-x="814" 
d="M496 757h-13q-24 0 -31 14t5 36l33 57q17 29 49 29h31q26 0 32 -15t-10 -35l-45 -61q-21 -25 -51 -25zM327 757h-19q-24 0 -31.5 14t3.5 35l31 57q13 30 49 30h21q24 0 31 -13.5t-5 -35.5l-31 -57q-16 -30 -49 -30zM40 360q0 155 103 258q104 104 264 104q159 0 263 -104
t104 -258q0 -158 -104 -265t-263 -107q-160 0 -264 107q-103 106 -103 265zM173 360q0 -108 66 -182q67 -72 168 -72t167 72q67 73 67 182q0 104 -67 174q-66 70 -167 70t-168 -70q-66 -70 -66 -174z" />
    <glyph glyph-name="ohungarumlaut" unicode="&#x151;" horiz-adv-x="622" 
d="M400 574h-13q-24 0 -31 14t5 36l33 57q17 29 49 29h31q26 0 32 -15t-10 -35l-45 -61q-21 -25 -51 -25zM231 574h-19q-24 0 -31.5 14t3.5 35l31 57q13 30 49 30h21q24 0 31 -13.5t-5 -35.5l-31 -57q-16 -30 -49 -30zM592 255q0 -116 -82 -192q-81 -75 -199 -75t-199 75
q-81 77 -81 192q0 116 81 191q80 76 199 76t199 -76q82 -76 82 -191zM160 255q0 -71 43 -115q44 -44 108 -44t108 44q44 46 44 115t-45 114q-43 45 -107 45q-63 0 -107 -45q-44 -46 -44 -114z" />
    <glyph glyph-name="OE" unicode="&#x152;" horiz-adv-x="958" 
d="M411 718q34 0 69 -4q36 -4 57 -4h328q42 0 42 -42v-28q0 -41 -42 -41h-255v-186h198q42 0 42 -41v-28q0 -42 -42 -42h-198v-191h272q41 0 41 -41v-28q0 -42 -41 -42h-345q-21 0 -57 -4q-43 -5 -69 -5q-158 0 -265 106q-108 107 -108 259q0 153 107 257q108 105 266 105z
M171 356q0 -107 68 -181q69 -73 172 -73l71 8v490q-32 8 -71 8q-103 0 -172 -73q-68 -74 -68 -179z" />
    <glyph glyph-name="oe" unicode="&#x153;" horiz-adv-x="977" 
d="M307 522q136 0 211 -105h2q66 105 201 105q106 0 166 -68t60 -175q0 -17 -12.5 -30t-31.5 -13h-310q7 -65 49 -102.5t103 -37.5q55 0 111 33q37 19 56 -14l11 -20q19 -37 -14 -56q-78 -51 -173 -51q-142 0 -213 108h-2q-77 -108 -214 -108q-117 0 -197 74q-79 73 -79 192
q0 118 80 193q79 75 196 75zM596 313h223q-1 50 -29 80.5t-70 30.5q-48 0 -81.5 -30t-42.5 -81zM311 96q63 0 107 44t44 115t-44 115t-107 44q-65 0 -108 -45q-44 -44 -44 -115t44 -115q43 -43 108 -43z" />
    <glyph glyph-name="Racute" unicode="&#x154;" horiz-adv-x="626" 
d="M321 757h-21q-22 0 -29 13.5t4 33.5l35 60q17 29 49 29h36q27 0 33 -15t-11 -35l-45 -61q-21 -25 -51 -25zM82 42v626q0 42 41 42h192q93 0 135 -19q56 -24 87.5 -74.5t31.5 -119.5q0 -65 -32.5 -118.5t-85.5 -75.5v-2q9 -10 23 -37l117 -214q13 -22 4.5 -36t-33.5 -14
h-54q-32 0 -49 29l-125 236h-124v-223q0 -42 -41 -42h-46q-41 0 -41 42zM210 599v-222h116q52 0 82 30.5t30 82.5q0 74 -56 97q-26 12 -77 12h-95z" />
    <glyph glyph-name="racute" unicode="&#x155;" horiz-adv-x="375" 
d="M244 573h-21q-22 0 -29 13.5t4 33.5l35 60q17 29 49 29h36q27 0 33 -15t-11 -35l-45 -61q-21 -25 -51 -25zM63 42v426q0 42 41 42h39q42 0 42 -42v-48l-3 -35h2q16 51 57 90t91 39q38 0 38 -42v-39q0 -42 -43 -42q-66 0 -102 -55q-36 -54 -36 -130v-164q0 -42 -41 -42
h-44q-41 0 -41 42z" />
    <glyph glyph-name="Rcommaaccent" unicode="&#x156;" horiz-adv-x="626" 
d="M276 -81q0 26 37 26h20q48 0 48 -61q0 -41 -19 -72t-44 -31h-11q-37 0 -37 23q0 2 5.5 26t5.5 40q0 8 -2.5 26t-2.5 23zM82 42v626q0 42 41 42h192q93 0 135 -19q56 -24 87.5 -74.5t31.5 -119.5q0 -65 -32.5 -118.5t-85.5 -75.5v-2q9 -10 23 -37l117 -214q13 -22 4.5 -36
t-33.5 -14h-54q-32 0 -49 29l-125 236h-124v-223q0 -42 -41 -42h-46q-41 0 -41 42zM210 599v-222h116q52 0 82 30.5t30 82.5q0 74 -56 97q-26 12 -77 12h-95z" />
    <glyph glyph-name="rcommaaccent" unicode="&#x157;" horiz-adv-x="375" 
d="M78 -81q0 26 37 26h20q48 0 48 -61q0 -41 -19 -72t-44 -31h-11q-37 0 -37 23q0 2 5.5 26t5.5 40q0 8 -2.5 26t-2.5 23zM63 42v426q0 42 41 42h39q42 0 42 -42v-48l-3 -35h2q16 51 57 90t91 39q38 0 38 -42v-39q0 -42 -43 -42q-66 0 -102 -55q-36 -54 -36 -130v-164
q0 -42 -41 -42h-44q-41 0 -41 42z" />
    <glyph glyph-name="Rcaron" unicode="&#x158;" horiz-adv-x="626" 
d="M336 757h-62q-33 0 -51 27l-40 59q-14 21 -9 35.5t27 14.5h26q28 0 43 -28l34 -53h2l33 53q10 16 18.5 22t25.5 6h26q22 0 27 -14.5t-9 -35.5l-40 -59q-18 -27 -51 -27zM82 42v626q0 42 41 42h192q93 0 135 -19q56 -24 87.5 -74.5t31.5 -119.5q0 -65 -32.5 -118.5
t-85.5 -75.5v-2q9 -10 23 -37l117 -214q13 -22 4.5 -36t-33.5 -14h-54q-32 0 -49 29l-125 236h-124v-223q0 -42 -41 -42h-46q-41 0 -41 42zM210 599v-222h116q52 0 82 30.5t30 82.5q0 74 -56 97q-26 12 -77 12h-95z" />
    <glyph glyph-name="rcaron" unicode="&#x159;" horiz-adv-x="375" 
d="M260 573h-62q-33 0 -51 27l-40 59q-14 21 -9 35.5t27 14.5h26q28 0 43 -28l34 -53h2l33 53q10 16 18.5 22t25.5 6h26q22 0 27 -14.5t-9 -35.5l-40 -59q-18 -27 -51 -27zM63 42v426q0 42 41 42h39q42 0 42 -42v-48l-3 -35h2q16 51 57 90t91 39q38 0 38 -42v-39
q0 -42 -43 -42q-66 0 -102 -55q-36 -54 -36 -130v-164q0 -42 -41 -42h-44q-41 0 -41 42z" />
    <glyph glyph-name="Sacute" unicode="&#x15a;" horiz-adv-x="549" 
d="M291 757h-21q-22 0 -29 13.5t4 33.5l35 60q17 29 49 29h36q27 0 33 -15t-11 -35l-45 -61q-21 -25 -51 -25zM57 60q-30 26 -6 58l22 32q21 28 58 9q74 -52 144 -52q48 0 77 22.5t29 58.5q0 37 -34 64t-82.5 47t-97.5 44t-83 68t-34 105q0 92 68 149t171 57q53 0 102.5 -16
t80.5 -38q32 -23 13 -57l-18 -33q-18 -35 -57 -14q-68 39 -123 39q-50 0 -79 -22q-29 -23 -29 -58q0 -37 34 -62q20 -16 49 -30t69 -31t62 -28q52 -25 84.5 -69.5t32.5 -104.5q0 -90 -64 -150q-63 -60 -171 -60q-62 0 -120.5 21t-97.5 51z" />
    <glyph glyph-name="sacute" unicode="&#x15b;" horiz-adv-x="447" 
d="M236 574h-21q-22 0 -29 14t4 33l35 60q17 29 49 29h36q27 0 33 -15t-11 -35l-45 -61q-21 -25 -51 -25zM51 40q-35 20 -10 57l12 18q22 29 57 10q65 -35 114 -35q33 0 52 14t19 38q0 38 -90 66q-34 11 -57 21t-50.5 28.5t-41.5 46.5t-14 65q0 72 55 112q56 41 140 41
q75 0 142 -37q33 -17 15 -56l-10 -18q-16 -33 -56 -16q-54 25 -97 25q-69 0 -69 -50q0 -37 89 -66q33 -10 57 -20.5t51.5 -28.5t42 -46t13.5 -64q0 -68 -54 -113q-53 -44 -140 -44q-94 0 -170 52z" />
    <glyph glyph-name="Scircumflex" unicode="&#x15c;" horiz-adv-x="549" 
d="M197 757h-26q-22 0 -27 14.5t9 36.5l40 58q18 27 51 27h62q33 0 51 -27l40 -58q14 -22 9 -36.5t-27 -14.5h-26q-16 0 -25 6t-19 23l-33 52h-2l-34 -52q-17 -29 -43 -29zM57 60q-30 26 -6 58l22 32q21 28 58 9q74 -52 144 -52q48 0 77 22.5t29 58.5q0 37 -34 64t-82.5 47
t-97.5 44t-83 68t-34 105q0 92 68 149t171 57q53 0 102.5 -16t80.5 -38q32 -23 13 -57l-18 -33q-18 -35 -57 -14q-68 39 -123 39q-50 0 -79 -22q-29 -23 -29 -58q0 -37 34 -62q20 -16 49 -30t69 -31t62 -28q52 -25 84.5 -69.5t32.5 -104.5q0 -90 -64 -150q-63 -60 -171 -60
q-62 0 -120.5 21t-97.5 51z" />
    <glyph glyph-name="scircumflex" unicode="&#x15d;" horiz-adv-x="447" 
d="M144 574h-26q-22 0 -27 14.5t9 36.5l40 58q18 27 51 27h62q33 0 51 -27l40 -58q14 -22 9 -36.5t-27 -14.5h-26q-16 0 -25 6t-19 23l-33 52h-2l-34 -52q-17 -29 -43 -29zM51 40q-35 20 -10 57l12 18q22 29 57 10q65 -35 114 -35q33 0 52 14t19 38q0 38 -90 66
q-34 11 -57 21t-50.5 28.5t-41.5 46.5t-14 65q0 72 55 112q56 41 140 41q75 0 142 -37q33 -17 15 -56l-10 -18q-16 -33 -56 -16q-54 25 -97 25q-69 0 -69 -50q0 -37 89 -66q33 -10 57 -20.5t51.5 -28.5t42 -46t13.5 -64q0 -68 -54 -113q-53 -44 -140 -44q-94 0 -170 52z" />
    <glyph glyph-name="Scedilla" unicode="&#x15e;" horiz-adv-x="550" 
d="M230 -53l11 43q-108 11 -184 70q-30 26 -6 58l22 32q21 28 58 9q74 -52 144 -52q48 0 77 22.5t29 58.5q0 37 -34 64t-82.5 47t-97.5 44t-83 68t-34 105q0 92 68 149t171 57q53 0 102.5 -16t80.5 -38q32 -23 13 -57l-18 -33q-18 -35 -57 -14q-68 39 -123 39q-50 0 -79 -22
q-29 -23 -29 -58q0 -37 34 -62q20 -16 49 -30t69 -31t62 -28q52 -25 84.5 -69.5t32.5 -104.5q0 -83 -55 -141q-53 -58 -149 -67l-7 -34q34 -4 53.5 -23.5t19.5 -52.5q0 -44 -30 -66t-78 -22q-57 0 -57 34q0 35 21 35q2 0 11.5 -1.5t13.5 -1.5q37 0 37 29q0 25 -45 29
q-23 2 -15 31z" />
    <glyph glyph-name="scedilla" unicode="&#x15f;" horiz-adv-x="449" 
d="M171 -53l12 44q-72 7 -132 49q-35 20 -10 57l12 18q22 29 57 10q65 -35 114 -35q33 0 52 14t19 38q0 38 -90 66q-34 11 -57 21t-50.5 28.5t-41.5 46.5t-14 65q0 72 55 112q56 41 140 41q75 0 142 -37q33 -17 15 -56l-10 -18q-16 -33 -56 -16q-54 25 -97 25q-69 0 -69 -50
q0 -37 89 -66q33 -10 57 -20.5t51.5 -28.5t42 -46t13.5 -64q0 -63 -45.5 -106t-122.5 -50l-7 -33q34 -4 53.5 -23.5t19.5 -52.5q0 -44 -30 -66t-78 -22q-57 0 -57 34q0 35 21 35q4 0 13.5 -1.5t11.5 -1.5q37 0 37 29q0 25 -45 29q-23 2 -15 31z" />
    <glyph glyph-name="Scaron" unicode="&#x160;" horiz-adv-x="549" 
d="M306 757h-62q-33 0 -51 27l-40 59q-14 21 -9 35.5t27 14.5h26q28 0 43 -28l34 -53h2l33 53q10 16 18.5 22t25.5 6h26q22 0 27 -14.5t-9 -35.5l-40 -59q-18 -27 -51 -27zM57 60q-30 26 -6 58l22 32q21 28 58 9q74 -52 144 -52q48 0 77 22.5t29 58.5q0 37 -34 64t-82.5 47
t-97.5 44t-83 68t-34 105q0 92 68 149t171 57q53 0 102.5 -16t80.5 -38q32 -23 13 -57l-18 -33q-18 -35 -57 -14q-68 39 -123 39q-50 0 -79 -22q-29 -23 -29 -58q0 -37 34 -62q20 -16 49 -30t69 -31t62 -28q52 -25 84.5 -69.5t32.5 -104.5q0 -90 -64 -150q-63 -60 -171 -60
q-62 0 -120.5 21t-97.5 51z" />
    <glyph glyph-name="scaron" unicode="&#x161;" horiz-adv-x="447" 
d="M253 574h-62q-33 0 -51 27l-40 59q-14 21 -9 35.5t27 14.5h26q28 0 43 -28l34 -53h2l33 53q10 16 18.5 22t25.5 6h26q22 0 27 -14.5t-9 -35.5l-40 -59q-18 -27 -51 -27zM51 40q-35 20 -10 57l12 18q22 29 57 10q65 -35 114 -35q33 0 52 14t19 38q0 38 -90 66
q-34 11 -57 21t-50.5 28.5t-41.5 46.5t-14 65q0 72 55 112q56 41 140 41q75 0 142 -37q33 -17 15 -56l-10 -18q-16 -33 -56 -16q-54 25 -97 25q-69 0 -69 -50q0 -37 89 -66q33 -10 57 -20.5t51.5 -28.5t42 -46t13.5 -64q0 -68 -54 -113q-53 -44 -140 -44q-94 0 -170 52z" />
    <glyph glyph-name="Tcommaaccent" unicode="&#x162;" horiz-adv-x="605" 
d="M253 -53l15 54q-29 6 -29 41v557h-191q-42 0 -42 41v28q0 42 42 42h510q41 0 41 -42v-28q0 -41 -41 -41h-191v-557q0 -39 -36 -42l-9 -44q34 -4 53.5 -23.5t19.5 -52.5q0 -44 -30 -66t-78 -22q-57 0 -57 34q0 35 21 35q4 0 13.5 -1.5t11.5 -1.5q37 0 37 29q0 25 -45 29
q-23 2 -15 31z" />
    <glyph glyph-name="tcommaaccent" unicode="&#x163;" horiz-adv-x="366" 
d="M164 -53l20 73q-92 48 -92 162v220h-27q-41 0 -41 42v17q0 42 42 42h29v104q0 42 42 42h40q42 0 42 -42v-104h74q42 0 42 -42v-17q0 -42 -41 -42h-75v-198q0 -86 82 -95q23 -2 32.5 -11t9.5 -30v-31q0 -42 -52 -42q-17 0 -49 5l-9 -44q34 -4 53.5 -23.5t19.5 -52.5
q0 -44 -30 -66t-78 -22q-57 0 -57 34q0 35 21 35q2 0 11.5 -1.5t13.5 -1.5q37 0 37 29q0 25 -45 29q-23 2 -15 31z" />
    <glyph glyph-name="Tcaron" unicode="&#x164;" horiz-adv-x="605" 
d="M333 757h-62q-33 0 -51 27l-40 59q-14 21 -9 35.5t27 14.5h26q28 0 43 -28l34 -53h2l33 53q10 16 18.5 22t25.5 6h26q22 0 27 -14.5t-9 -35.5l-40 -59q-18 -27 -51 -27zM239 42v557h-191q-42 0 -42 41v28q0 42 42 42h510q41 0 41 -42v-28q0 -41 -41 -41h-191v-557
q0 -42 -42 -42h-45q-41 0 -41 42z" />
    <glyph glyph-name="tcaron" unicode="&#x165;" horiz-adv-x="364" 
d="M275 681q0 26 37 26h20q48 0 48 -61q0 -41 -19 -72t-44 -31h-11q-37 0 -37 23q0 2 5.5 26t5.5 40q0 8 -2.5 26t-2.5 23zM91 182v220h-27q-41 0 -41 42v17q0 42 42 42h29v104q0 42 42 42h40q42 0 42 -42v-104h74q42 0 42 -42v-17q0 -42 -41 -42h-75v-198q0 -86 82 -95
q23 -2 32.5 -11t9.5 -30v-31q0 -42 -52 -42q-80 0 -139 46q-60 47 -60 141z" />
    <glyph glyph-name="Tbar" unicode="&#x166;" horiz-adv-x="607" 
d="M239 42v253h-109q-42 0 -42 42v13q0 41 42 41h109v208h-191q-42 0 -42 41v28q0 42 42 42h510q42 0 42 -42v-28q0 -41 -42 -41h-191v-208h114q42 0 42 -41v-13q0 -42 -42 -42h-114v-253q0 -42 -41 -42h-46q-41 0 -41 42z" />
    <glyph glyph-name="tbar" unicode="&#x167;" horiz-adv-x="366" 
d="M92 182v61h-27q-41 0 -41 41v12q0 42 41 42h27v71h-27q-41 0 -41 41v11q0 42 41 42h30v104q0 42 41 42h41q41 0 41 -42v-104h75q41 0 41 -42v-11q0 -41 -40 -41h-76v-71h75q41 0 41 -42v-12q0 -41 -40 -41h-76v-45q0 -80 82 -89q24 -2 33.5 -11t9.5 -30v-31
q0 -42 -52 -42q-80 0 -139 46q-60 47 -60 141z" />
    <glyph glyph-name="Utilde" unicode="&#x168;" horiz-adv-x="719" 
d="M74 255v413q0 42 41 42h45q42 0 42 -42v-412q0 -71 42 -110.5t115 -39.5t115.5 39.5t42.5 110.5v412q0 42 41 42h46q41 0 41 -42v-413q0 -120 -79 -193q-79 -74 -206 -74q-129 0 -208 73q-78 73 -78 194zM228 758h-10q-36 0 -36 38q0 42 28.5 70.5t72.5 28.5
q28 0 55.5 -16.5t48 -32.5t33.5 -16q32 0 35 39q2 23 36 23h10q37 0 37 -34q0 -46 -28 -74.5t-73 -28.5q-29 0 -56 16.5t-47.5 32.5t-33.5 16q-34 0 -38 -40q-3 -22 -34 -22z" />
    <glyph glyph-name="utilde" unicode="&#x169;" horiz-adv-x="594" 
d="M56 182v286q0 42 42 42h43q42 0 42 -42v-260q0 -53 18 -78.5t61 -25.5q66 0 104 50q39 50 39 122v192q0 42 42 42h43q42 0 42 -42v-426q0 -42 -42 -42h-39q-41 0 -41 42v30l2 23h-2q-21 -45 -70 -76t-107 -31q-177 0 -177 194zM162 575h-10q-36 0 -36 38q0 42 28.5 70.5
t72.5 28.5q50 0 81 -33q32 -32 56 -32q32 0 35 39q2 23 36 23h10q37 0 37 -34q0 -46 -28 -74.5t-73 -28.5q-23 0 -45 10t-36 22.5t-29.5 22.5t-26.5 10q-34 0 -38 -40q-3 -22 -34 -22z" />
    <glyph glyph-name="Umacron" unicode="&#x16a;" horiz-adv-x="719" 
d="M74 255v413q0 42 41 42h45q42 0 42 -42v-412q0 -71 42 -110.5t115 -39.5t115.5 39.5t42.5 110.5v412q0 42 41 42h46q41 0 41 -42v-413q0 -120 -79 -193q-79 -74 -206 -74q-129 0 -208 73q-78 73 -78 194zM449 783h-179q-41 0 -41 40v7q0 40 41 40h179q42 0 42 -40v-7
q0 -40 -42 -40z" />
    <glyph glyph-name="umacron" unicode="&#x16b;" horiz-adv-x="594" 
d="M56 182v286q0 42 42 42h43q42 0 42 -42v-260q0 -53 18 -78.5t61 -25.5q66 0 104 50q39 50 39 122v192q0 42 42 42h43q42 0 42 -42v-426q0 -42 -42 -42h-39q-41 0 -41 42v30l2 23h-2q-21 -45 -70 -76t-107 -31q-177 0 -177 194zM383 600h-179q-41 0 -41 40v7q0 40 41 40
h179q42 0 42 -40v-7q0 -40 -42 -40z" />
    <glyph glyph-name="Ubreve" unicode="&#x16c;" horiz-adv-x="719" 
d="M74 255v413q0 42 41 42h45q42 0 42 -42v-412q0 -71 42 -110.5t115 -39.5t115.5 39.5t42.5 110.5v412q0 42 41 42h46q41 0 41 -42v-413q0 -120 -79 -193q-79 -74 -206 -74q-129 0 -208 73q-78 73 -78 194zM359 753q-55 0 -102 32q-45 33 -45 83q0 25 35 25h19q30 0 36 -28
q9 -43 57 -43q47 0 56 43q9 28 36 28h19q36 0 36 -25q0 -50 -45 -83q-46 -32 -102 -32z" />
    <glyph glyph-name="ubreve" unicode="&#x16d;" horiz-adv-x="594" 
d="M56 182v286q0 42 42 42h43q42 0 42 -42v-260q0 -53 18 -78.5t61 -25.5q66 0 104 50q39 50 39 122v192q0 42 42 42h43q42 0 42 -42v-426q0 -42 -42 -42h-39q-41 0 -41 42v30l2 23h-2q-21 -45 -70 -76t-107 -31q-177 0 -177 194zM294 570q-55 0 -102 32q-45 33 -45 83
q0 25 35 25h19q30 0 36 -28q9 -43 57 -43q47 0 56 43q9 28 36 28h19q36 0 36 -25q0 -50 -45 -83q-46 -32 -102 -32z" />
    <glyph glyph-name="Uring" unicode="&#x16e;" horiz-adv-x="719" 
d="M359 745q-40 0 -67.5 21.5t-27.5 56.5q0 36 27.5 57.5t67.5 21.5t67 -21.5t27 -57.5q0 -35 -27.5 -56.5t-66.5 -21.5zM359 789q15 0 24.5 9.5t9.5 24.5q0 22 -17 31t-34 0t-17 -31q0 -15 9 -24.5t25 -9.5zM74 255v413q0 42 41 42h45q42 0 42 -42v-412q0 -71 42 -110.5
t115 -39.5t115.5 39.5t42.5 110.5v412q0 42 41 42h46q41 0 41 -42v-413q0 -120 -79 -193q-79 -74 -206 -74q-129 0 -208 73q-78 73 -78 194z" />
    <glyph glyph-name="uring" unicode="&#x16f;" horiz-adv-x="594" 
d="M294 562q-40 0 -67.5 21.5t-27.5 56.5q0 36 27.5 57.5t67.5 21.5t67 -21.5t27 -57.5q0 -35 -27.5 -56.5t-66.5 -21.5zM294 606q15 0 24.5 9.5t9.5 24.5q0 22 -17 31t-34 0t-17 -31q0 -15 9 -24.5t25 -9.5zM56 182v286q0 42 42 42h43q42 0 42 -42v-260q0 -53 18 -78.5
t61 -25.5q66 0 104 50q39 50 39 122v192q0 42 42 42h43q42 0 42 -42v-426q0 -42 -42 -42h-39q-41 0 -41 42v30l2 23h-2q-21 -45 -70 -76t-107 -31q-177 0 -177 194z" />
    <glyph glyph-name="Uhungarumlaut" unicode="&#x170;" horiz-adv-x="719" 
d="M74 255v413q0 42 41 42h45q42 0 42 -42v-412q0 -71 42 -110.5t115 -39.5t115.5 39.5t42.5 110.5v412q0 42 41 42h46q41 0 41 -42v-413q0 -120 -79 -193q-79 -74 -206 -74q-129 0 -208 73q-78 73 -78 194zM448 757h-13q-24 0 -31 14t5 36l33 57q17 29 49 29h31
q26 0 32 -15t-10 -35l-45 -61q-21 -25 -51 -25zM279 757h-19q-24 0 -31.5 14t3.5 35l31 57q13 30 49 30h21q24 0 31 -13.5t-5 -35.5l-31 -57q-16 -30 -49 -30z" />
    <glyph glyph-name="uhungarumlaut" unicode="&#x171;" horiz-adv-x="594" 
d="M56 182v286q0 42 42 42h43q42 0 42 -42v-260q0 -53 18 -78.5t61 -25.5q66 0 104 50q39 50 39 122v192q0 42 42 42h43q42 0 42 -42v-426q0 -42 -42 -42h-39q-41 0 -41 42v30l2 23h-2q-21 -45 -70 -76t-107 -31q-177 0 -177 194zM383 574h-13q-24 0 -31 14t5 36l33 57
q17 29 49 29h31q26 0 32 -15t-10 -35l-45 -61q-21 -25 -51 -25zM214 574h-19q-24 0 -31.5 14t3.5 35l31 57q14 30 49 30h21q24 0 31 -13.5t-5 -35.5l-31 -57q-17 -30 -49 -30z" />
    <glyph glyph-name="Uogonek" unicode="&#x172;" horiz-adv-x="719" 
d="M74 255v413q0 42 41 42h45q42 0 42 -42v-412q0 -71 42 -110.5t115 -39.5t115.5 39.5t42.5 110.5v412q0 42 41 42h46q41 0 41 -42v-413q0 -83 -33 -133q-31 -48 -91 -93q-106 -70 -106 -109q0 -21 35 -35q20 -7 15 -39l-3 -21q-5 -33 -38 -28q-40 6 -75 30q-34 22 -34 65
q0 48 52 96q-130 -1 -212 72q-81 74 -81 195z" />
    <glyph glyph-name="uogonek" unicode="&#x173;" horiz-adv-x="594" 
d="M56 182v286q0 42 42 42h43q42 0 42 -42v-260q0 -53 18 -78.5t61 -25.5q66 0 104 50q39 50 39 122v192q0 42 42 42h43q42 0 42 -42v-426q0 -24 -35 -59q-34 -34 -34 -63q0 -21 35 -35q20 -7 15 -39l-3 -21q-5 -32 -39 -28q-39 6 -74 30q-34 22 -34 65q0 58 64 115
q-17 11 -17 35v30l2 23h-2q-21 -45 -70 -76t-107 -31q-177 0 -177 194z" />
    <glyph glyph-name="Wcircumflex" unicode="&#x174;" horiz-adv-x="960" 
d="M403 757h-26q-22 0 -27 14.5t9 36.5l40 58q18 27 51 27h62q33 0 51 -27l40 -58q14 -22 9 -36.5t-27 -14.5h-26q-16 0 -25 6t-19 23l-33 52h-2l-34 -52q-17 -29 -43 -29zM192 36l-157 628q-5 21 4.5 33.5t31.5 12.5h50q36 0 45 -37l103 -454l11 -75h2q4 34 15 75l118 455
q11 36 47 36h34q38 0 45 -36l117 -455l15 -75h2q3 34 12 75l109 454q7 37 46 37h47q22 0 32 -12.5t5 -33.5l-163 -629q-11 -35 -47 -35h-71q-37 0 -46 36l-101 384q-11 41 -19 93h-3q-8 -47 -18 -93l-102 -384q-9 -36 -46 -36h-72q-37 0 -46 36z" />
    <glyph glyph-name="wcircumflex" unicode="&#x175;" horiz-adv-x="810" 
d="M327 574h-26q-22 0 -27 14.5t9 36.5l40 58q18 27 51 27h62q33 0 51 -27l40 -58q14 -22 9 -36.5t-27 -14.5h-26q-16 0 -25 6t-19 23l-33 52h-2l-34 -52q-17 -29 -43 -29zM154 35l-132 428q-6 21 3.5 34t31.5 13h48q38 0 45 -37l82 -298l10 -54h2q6 36 11 54l86 298
q7 36 46 36h38q37 0 46 -36l85 -298l11 -54h2q6 36 11 54l81 298q9 37 46 37h46q22 0 31.5 -13t3.5 -34l-131 -428q-11 -35 -47 -35h-67q-38 0 -47 36l-77 255l-12 55h-2q-3 -19 -13 -55l-77 -255q-9 -36 -46 -36h-69q-35 0 -46 35z" />
    <glyph glyph-name="Ycircumflex" unicode="&#x176;" horiz-adv-x="580" 
d="M226 42v255l-208 363q-13 21 -4.5 35.5t32.5 14.5h56q33 0 48 -31l96 -178l43 -95h2q24 58 43 95l96 178q15 31 48 31h56q25 0 33 -14.5t-4 -35.5l-209 -363v-255q0 -42 -41 -42h-45q-42 0 -42 42zM212 757h-26q-22 0 -27 14.5t9 36.5l40 58q18 27 51 27h62q33 0 51 -27
l40 -58q14 -22 9 -36.5t-27 -14.5h-26q-16 0 -25 6t-19 23l-33 52h-2l-34 -52q-17 -29 -43 -29z" />
    <glyph glyph-name="ycircumflex" unicode="&#x177;" horiz-adv-x="514" 
d="M15 -141l9 22q14 30 45 23q19 -9 36 -9q25 0 47 19t34 49l19 45l-194 453q-10 22 -1 35.5t33 13.5h54q35 0 47 -34l96 -260l19 -69h2q6 29 17 67l90 261q11 35 47 35h50q23 0 32.5 -13t1.5 -35l-210 -538q-24 -65 -73 -99.5t-111 -34.5q-32 0 -71 15q-18 7 -23 22t4 32z
M182 573h-26q-22 0 -27 14.5t9 36.5l40 58q18 27 51 27h62q33 0 51 -27l40 -58q14 -22 9 -36.5t-27 -14.5h-26q-16 0 -25 6t-19 23l-33 52h-2l-34 -52q-17 -29 -43 -29z" />
    <glyph glyph-name="Ydieresis" unicode="&#x178;" horiz-adv-x="580" 
d="M226 42v255l-208 363q-13 21 -4.5 35.5t32.5 14.5h56q33 0 48 -31l96 -178l43 -95h2q24 58 43 95l96 178q15 31 48 31h56q25 0 33 -14.5t-4 -35.5l-209 -363v-255q0 -42 -41 -42h-45q-42 0 -42 42zM388 777h-15q-41 0 -41 42v33q0 41 41 41h15q41 0 41 -41v-33
q0 -42 -41 -42zM204 777h-14q-42 0 -42 42v33q0 41 42 41h14q42 0 42 -41v-33q0 -42 -42 -42z" />
    <glyph glyph-name="Zacute" unicode="&#x179;" horiz-adv-x="601" 
d="M327 757h-21q-22 0 -29 13.5t4 33.5l35 60q17 29 49 29h36q27 0 33 -15t-11 -35l-45 -61q-21 -25 -51 -25zM31 42v12q0 28 17 53l298 428q24 36 45 57l7 7v2q-26 -2 -53 -2h-256q-42 0 -42 41v28q0 42 42 42h430q41 0 41 -41v-12q0 -31 -16 -53l-299 -429
q-24 -36 -45 -57l-7 -7v-2q26 2 53 2h277q42 0 42 -41v-28q0 -42 -42 -42h-450q-42 0 -42 42z" />
    <glyph glyph-name="zacute" unicode="&#x17a;" horiz-adv-x="510" 
d="M266 574h-21q-22 0 -29 14t4 33l35 60q17 29 49 29h36q27 0 33 -15t-11 -35l-45 -61q-21 -25 -51 -25zM28 34v10q0 24 18 47l211 264l43 47v2q-18 -2 -47 -2h-173q-42 0 -42 42v24q0 42 42 42h350q42 0 42 -34v-10q0 -24 -18 -47l-211 -265l-21 -24l-17 -18l-6 -5v-2
q15 3 48 3h190q42 0 42 -42v-24q0 -42 -42 -42h-367q-42 0 -42 34z" />
    <glyph glyph-name="Zdotaccent" unicode="&#x17b;" horiz-adv-x="601" 
d="M31 42v12q0 28 17 53l298 428q24 36 45 57l7 7v2q-26 -2 -53 -2h-256q-42 0 -42 41v28q0 42 42 42h430q41 0 41 -41v-12q0 -31 -16 -53l-299 -429q-24 -36 -45 -57l-7 -7v-2q26 2 53 2h277q42 0 42 -41v-28q0 -42 -42 -42h-450q-42 0 -42 42zM324 782h-26q-41 0 -41 42
v28q0 41 41 41h26q41 0 41 -41v-28q0 -42 -41 -42z" />
    <glyph glyph-name="zdotaccent" unicode="&#x17c;" horiz-adv-x="510" 
d="M28 34v10q0 24 18 47l211 264l43 47v2q-18 -2 -47 -2h-173q-42 0 -42 42v24q0 42 42 42h350q42 0 42 -34v-10q0 -24 -18 -47l-211 -265l-21 -24l-17 -18l-6 -5v-2q15 3 48 3h190q42 0 42 -42v-24q0 -42 -42 -42h-367q-42 0 -42 34zM264 599h-26q-41 0 -41 42v28
q0 41 41 41h26q41 0 41 -41v-28q0 -42 -41 -42z" />
    <glyph glyph-name="Zcaron" unicode="&#x17d;" horiz-adv-x="601" 
d="M342 757h-62q-33 0 -51 27l-40 59q-14 21 -9 35.5t27 14.5h26q28 0 43 -28l34 -53h2l33 53q10 16 18.5 22t25.5 6h26q22 0 27 -14.5t-9 -35.5l-40 -59q-18 -27 -51 -27zM31 42v12q0 28 17 53l298 428q24 36 45 57l7 7v2q-26 -2 -53 -2h-256q-42 0 -42 41v28q0 42 42 42
h430q41 0 41 -41v-12q0 -31 -16 -53l-299 -429q-24 -36 -45 -57l-7 -7v-2q26 2 53 2h277q42 0 42 -41v-28q0 -42 -42 -42h-450q-42 0 -42 42z" />
    <glyph glyph-name="zcaron" unicode="&#x17e;" horiz-adv-x="510" 
d="M281 574h-62q-33 0 -51 27l-40 59q-14 21 -9 35.5t27 14.5h26q28 0 43 -28l34 -53h2l33 53q10 16 18.5 22t25.5 6h26q22 0 27 -14.5t-9 -35.5l-40 -59q-18 -27 -51 -27zM28 34v10q0 24 18 47l211 264l43 47v2q-18 -2 -47 -2h-173q-42 0 -42 42v24q0 42 42 42h350
q42 0 42 -34v-10q0 -24 -18 -47l-211 -265l-21 -24l-17 -18l-6 -5v-2q15 3 48 3h190q42 0 42 -42v-24q0 -42 -42 -42h-367q-42 0 -42 34z" />
    <glyph glyph-name="longs" unicode="&#x17f;" horiz-adv-x="280" 
d="M90 42v360h-25q-41 0 -41 42v17q0 42 41 42h25v24q0 90 53 136q62 51 142 51h15q41 0 41 -42v-26q0 -38 -43 -41q-29 -1 -52 -14q-29 -17 -29 -69v-480q0 -42 -42 -42h-44q-41 0 -41 42z" />
    <glyph glyph-name="florin" unicode="&#x192;" horiz-adv-x="403" 
d="M-8 -7q2 0 13.5 -0.5t15.5 -0.5q97 0 106 92l21 250h-32q-42 0 -42 42v17q0 42 42 42h41l9 97q11 96 65 139q26 21 55 32q49 19 105 19q5 0 47 -3q39 -5 39 -44v-25q0 -44 -31 -41q-27 4 -47 4q-98 0 -107 -93l-8 -85h67q41 0 41 -42v-17q0 -42 -40 -42h-77l-23 -262
q-5 -58 -29.5 -98.5t-62.5 -59.5q-62 -31 -131 -31q-10 0 -36 2q-39 3 -39 44v25q0 21 10 31t28 8z" />
    <glyph glyph-name="Scommaaccent" unicode="&#x218;" horiz-adv-x="549" 
d="M218 -81q0 26 37 26h20q48 0 48 -61q0 -41 -19 -72t-44 -31h-11q-37 0 -37 23q0 2 5.5 26t5.5 40q0 8 -2.5 26t-2.5 23zM57 60q-30 26 -6 58l22 32q21 28 58 9q74 -52 144 -52q48 0 77 22.5t29 58.5q0 37 -34 64t-82.5 47t-97.5 44t-83 68t-34 105q0 92 68 149t171 57
q53 0 102.5 -16t80.5 -38q32 -23 13 -57l-18 -33q-18 -35 -57 -14q-68 39 -123 39q-50 0 -79 -22q-29 -23 -29 -58q0 -37 34 -62q20 -16 49 -30t69 -31t62 -28q52 -25 84.5 -69.5t32.5 -104.5q0 -90 -64 -150q-63 -60 -171 -60q-62 0 -120.5 21t-97.5 51z" />
    <glyph glyph-name="scommaaccent" unicode="&#x219;" horiz-adv-x="447" 
d="M167 -81q0 26 37 26h20q48 0 48 -61q0 -41 -19 -72t-44 -31h-11q-37 0 -37 23q0 2 5.5 26t5.5 40q0 8 -2.5 26t-2.5 23zM51 40q-35 20 -10 57l12 18q22 29 57 10q65 -35 114 -35q33 0 52 14t19 38q0 38 -90 66q-34 11 -57 21t-50.5 28.5t-41.5 46.5t-14 65q0 72 55 112
q56 41 140 41q75 0 142 -37q33 -17 15 -56l-10 -18q-16 -33 -56 -16q-54 25 -97 25q-69 0 -69 -50q0 -37 89 -66q33 -10 57 -20.5t51.5 -28.5t42 -46t13.5 -64q0 -68 -54 -113q-53 -44 -140 -44q-94 0 -170 52z" />
    <glyph glyph-name="uni021A" unicode="&#x21a;" horiz-adv-x="606" 
d="M252 -81q0 26 37 26h20q48 0 48 -61q0 -41 -19 -72t-44 -31h-11q-37 0 -37 23q0 2 5.5 26t5.5 40q0 8 -2.5 26t-2.5 23zM239 42v557h-191q-42 0 -42 41v28q0 42 42 42h510q41 0 41 -42v-28q0 -41 -41 -41h-191v-557q0 -42 -42 -42h-45q-41 0 -41 42z" />
    <glyph glyph-name="uni021B" unicode="&#x21b;" horiz-adv-x="364" 
d="M148 -81q0 26 37 26h20q48 0 48 -61q0 -41 -19 -72t-44 -31h-11q-37 0 -37 23q0 2 5.5 26t5.5 40q0 8 -2.5 26t-2.5 23zM91 182v220h-27q-41 0 -41 42v17q0 42 42 42h29v104q0 42 42 42h40q42 0 42 -42v-104h74q42 0 42 -42v-17q0 -42 -41 -42h-75v-198q0 -86 82 -95
q23 -2 32.5 -11t9.5 -30v-31q0 -42 -52 -42q-80 0 -139 46q-60 47 -60 141z" />
    <glyph glyph-name="circumflex" unicode="&#x2c6;" horiz-adv-x="494" 
d="M169 757h-26q-22 0 -27 14.5t9 36.5l40 58q18 27 51 27h62q33 0 51 -27l40 -58q14 -22 9 -36.5t-27 -14.5h-26q-16 0 -25 6t-19 23l-33 52h-2l-34 -52q-17 -29 -43 -29z" />
    <glyph glyph-name="caron" unicode="&#x2c7;" horiz-adv-x="494" 
d="M278 757h-62q-33 0 -51 27l-40 59q-14 21 -9 35.5t27 14.5h26q28 0 43 -28l34 -53h2l33 53q10 16 18.5 22t25.5 6h26q22 0 27 -14.5t-9 -35.5l-40 -59q-18 -27 -51 -27z" />
    <glyph glyph-name="breve" unicode="&#x2d8;" horiz-adv-x="493" 
d="M247 753q-55 0 -102 32q-45 33 -45 83q0 25 35 25h19q30 0 36 -28q9 -43 57 -43q47 0 56 43q9 28 36 28h19q36 0 36 -25q0 -50 -45 -83q-46 -32 -102 -32z" />
    <glyph glyph-name="dotaccent" unicode="&#x2d9;" horiz-adv-x="494" 
d="M260 782h-26q-41 0 -41 42v28q0 41 41 41h26q41 0 41 -41v-28q0 -42 -41 -42z" />
    <glyph glyph-name="ring" unicode="&#x2da;" horiz-adv-x="494" 
d="M247 745q-40 0 -67.5 21.5t-27.5 56.5q0 36 27.5 57.5t67.5 21.5t67 -21.5t27 -57.5q0 -35 -27.5 -56.5t-66.5 -21.5zM247 789q15 0 24.5 9.5t9.5 24.5q0 22 -17 31t-34 0t-17 -31q0 -15 9 -24.5t25 -9.5z" />
    <glyph glyph-name="ogonek" unicode="&#x2db;" horiz-adv-x="494" 
d="M157 -108q0 62 81 120q24 18 55 11q40 -9 13 -36l-10 -9l-12 -11q-27 -20 -27 -47q0 -8 2.5 -13.5t10 -10l10 -6t11.5 -5.5q21 -7 16 -39l-3 -21q-5 -32 -39 -28q-39 6 -74 30q-34 22 -34 65z" />
    <glyph glyph-name="tilde" unicode="&#x2dc;" horiz-adv-x="493" 
d="M115 758h-10q-36 0 -36 38q0 42 28.5 70.5t72.5 28.5q28 0 55.5 -16.5t48 -32.5t33.5 -16q32 0 35 39q2 23 36 23h10q37 0 37 -34q0 -46 -28 -74.5t-73 -28.5q-29 0 -56 16.5t-47.5 32.5t-33.5 16q-34 0 -38 -40q-3 -22 -34 -22z" />
    <glyph glyph-name="hungarumlaut" unicode="&#x2dd;" horiz-adv-x="493" 
d="M300 757h-13q-24 0 -31 14t5 36l33 57q17 29 49 29h31q26 0 32 -15t-10 -35l-45 -61q-21 -25 -51 -25zM131 757h-19q-24 0 -31.5 14t3.5 35l31 57q13 30 49 30h21q24 0 31 -13.5t-5 -35.5l-31 -57q-16 -30 -49 -30z" />
    <glyph glyph-name="uni1E9E" unicode="&#x1e9e;" horiz-adv-x="680" 
d="M74 42v454q0 94 61 154q62 60 157 60h275q42 0 42 -41v-20q0 -29 -15 -51l-106 -158l-23 -31v-2l19 -1q69 -9 111 -67q43 -58 43 -129q0 -88 -64 -149q-62 -61 -153 -61h-96q-41 0 -41 42v28q0 41 40 41h87q42 0 68.5 28.5t26.5 70.5t-26 69.5t-68 27.5h-43q-41 0 -41 42
v24q0 22 13 47l76 117q21 35 40 57l5 5v2q-14 -2 -44 -2h-123q-39 0 -64.5 -29t-25.5 -72v-456q0 -42 -41 -42h-48q-42 0 -42 42z" />
    <glyph glyph-name="uni2000" unicode="&#x2000;" horiz-adv-x="451" 
 />
    <glyph glyph-name="uni2001" unicode="&#x2001;" horiz-adv-x="902" 
 />
    <glyph glyph-name="uni2002" unicode="&#x2002;" horiz-adv-x="451" 
 />
    <glyph glyph-name="uni2003" unicode="&#x2003;" horiz-adv-x="902" 
 />
    <glyph glyph-name="uni2004" unicode="&#x2004;" horiz-adv-x="300" 
 />
    <glyph glyph-name="uni2005" unicode="&#x2005;" horiz-adv-x="225" 
 />
    <glyph glyph-name="uni2006" unicode="&#x2006;" horiz-adv-x="150" 
 />
    <glyph glyph-name="uni2007" unicode="&#x2007;" horiz-adv-x="150" 
 />
    <glyph glyph-name="uni2008" unicode="&#x2008;" horiz-adv-x="112" 
 />
    <glyph glyph-name="uni2009" unicode="&#x2009;" horiz-adv-x="20" 
 />
    <glyph glyph-name="uni200A" unicode="&#x200a;" horiz-adv-x="50" 
 />
    <glyph glyph-name="uni2010" unicode="&#x2010;" horiz-adv-x="417" 
d="M317 230h-217q-42 0 -42 42v28q0 41 42 41h217q42 0 42 -41v-28q0 -42 -42 -42z" />
    <glyph glyph-name="uni2011" unicode="&#x2011;" horiz-adv-x="417" 
d="M317 230h-217q-42 0 -42 42v28q0 41 42 41h217q42 0 42 -41v-28q0 -42 -42 -42z" />
    <glyph glyph-name="figuredash" unicode="&#x2012;" horiz-adv-x="417" 
d="M317 230h-217q-42 0 -42 42v28q0 41 42 41h217q42 0 42 -41v-28q0 -42 -42 -42z" />
    <glyph glyph-name="endash" unicode="&#x2013;" horiz-adv-x="671" 
d="M571 236h-471q-41 0 -41 42v15q0 42 41 42h471q41 0 41 -42v-15q0 -42 -41 -42z" />
    <glyph glyph-name="emdash" unicode="&#x2014;" horiz-adv-x="871" 
d="M771 236h-671q-41 0 -41 42v15q0 42 41 42h671q41 0 41 -42v-15q0 -42 -41 -42z" />
    <glyph glyph-name="quoteleft" unicode="&#x2018;" horiz-adv-x="217" 
d="M103 490h-29q-23 0 -32.5 12.5t-1.5 34.5l50 152q14 33 48 33h10q44 0 34 -45l-34 -150q-7 -37 -45 -37z" />
    <glyph glyph-name="quoteright" unicode="&#x2019;" horiz-adv-x="215" 
d="M86 490h-10q-44 0 -34 45l34 150q7 37 45 37h28q23 0 32.5 -12.5t2.5 -34.5l-51 -152q-12 -33 -47 -33z" />
    <glyph glyph-name="quotesinglbase" unicode="&#x201a;" horiz-adv-x="231" 
d="M33 -58l34 150q7 37 45 37h29q23 0 32.5 -13t1.5 -35l-50 -151q-13 -33 -48 -33h-10q-44 0 -34 45z" />
    <glyph glyph-name="quotedblleft" unicode="&#x201c;" horiz-adv-x="384" 
d="M270 490h-29q-23 0 -32.5 12.5t-1.5 34.5l50 152q13 33 48 33h11q44 0 33 -45l-33 -150q-9 -37 -46 -37zM104 490h-30q-23 0 -32.5 12.5t-1.5 34.5l50 152q14 33 48 33h11q41 0 34 -45l-34 -150q-9 -37 -45 -37z" />
    <glyph glyph-name="quotedblright" unicode="&#x201d;" horiz-adv-x="382" 
d="M253 490h-10q-45 0 -34 45l34 150q7 37 45 37h29q23 0 32.5 -12.5t1.5 -34.5l-50 -152q-12 -33 -48 -33zM86 490h-10q-44 0 -34 45l34 150q7 37 45 37h29q23 0 32.5 -12.5t1.5 -34.5l-50 -152q-12 -33 -48 -33z" />
    <glyph glyph-name="quotedblbase" unicode="&#x201e;" horiz-adv-x="398" 
d="M200 -58l34 150q7 37 45 37h29q23 0 32.5 -13t1.5 -35l-50 -151q-10 -33 -47 -33h-11q-44 0 -34 45zM33 -58l34 150q7 37 45 37h29q23 0 32.5 -13t1.5 -35l-50 -151q-10 -33 -47 -33h-11q-44 0 -34 45z" />
    <glyph glyph-name="dagger" unicode="&#x2020;" horiz-adv-x="447" 
d="M162 -8v419h-83q-42 0 -42 42v15q0 42 42 42h83v158q0 42 41 42h39q41 0 41 -42v-158h86q41 0 41 -42v-15q0 -42 -41 -42h-86v-419q0 -42 -41 -42h-39q-41 0 -41 42z" />
    <glyph glyph-name="daggerdbl" unicode="&#x2021;" horiz-adv-x="460" 
d="M168 -8v171h-83q-41 0 -41 41v15q0 42 41 42h83v150h-83q-41 0 -41 42v15q0 42 41 42h83v158q0 42 42 42h38q42 0 42 -42v-158h85q41 0 41 -42v-15q0 -42 -41 -42h-85v-150h85q41 0 41 -42v-15q0 -41 -41 -41h-85v-171q0 -42 -42 -42h-38q-42 0 -42 42z" />
    <glyph glyph-name="bullet" unicode="&#x2022;" horiz-adv-x="426" 
d="M331 173q-49 -49 -118 -49t-118 49t-49 118t49 118t118 49t118 -49t49 -118t-49 -118z" />
    <glyph glyph-name="ellipsis" unicode="&#x2026;" horiz-adv-x="803" 
d="M625 42v45q0 41 41 41h41q41 0 41 -41v-45q0 -42 -41 -42h-41q-41 0 -41 42zM340 42v45q0 41 41 41h41q42 0 42 -41v-45q0 -42 -42 -42h-41q-41 0 -41 42zM55 42v45q0 41 42 41h40q42 0 42 -41v-45q0 -42 -42 -42h-40q-42 0 -42 42z" />
    <glyph glyph-name="uni202F" unicode="&#x202f;" horiz-adv-x="180" 
 />
    <glyph glyph-name="perthousand" unicode="&#x2030;" horiz-adv-x="1160" 
d="M42 564q0 64 47 111q49 47 116 47q66 0 115 -47q48 -47 48 -111q0 -66 -48 -112q-46 -46 -115 -46t-116 46q-47 47 -47 112zM107 51l486 634q19 25 51 25h20q27 0 34.5 -15t-9.5 -36l-486 -634q-19 -25 -51 -25h-21q-26 0 -33 15t9 36zM272 564q0 27 -19.5 46.5
t-47.5 19.5t-47 -19.5t-19 -46.5q0 -28 19 -47t47 -19t47.5 19t19.5 47zM966 303q66 0 115 -47q48 -46 48 -111t-48 -111q-46 -46 -115 -46t-116 46q-47 47 -47 111t47 111q49 47 116 47zM593 303q66 0 115 -47q48 -46 48 -111t-48 -111q-46 -46 -115 -46t-116 46
q-47 47 -47 111t47 111q49 47 116 47zM900 146q0 -28 19 -47t47 -19t47.5 19t19.5 47q0 27 -19.5 46.5t-47.5 19.5t-47 -19.5t-19 -46.5zM527 146q0 -28 19 -47t47 -19t47.5 19t19.5 47q0 27 -19.5 46.5t-47.5 19.5t-47 -19.5t-19 -46.5z" />
    <glyph glyph-name="guilsinglleft" unicode="&#x2039;" horiz-adv-x="329" 
d="M170 101l-121 152q-24 29 0 58l121 153q21 24 51 24h25q26 0 33 -15t-9 -36l-123 -155l123 -154q17 -21 11 -36t-31 -15h-29q-30 0 -51 24z" />
    <glyph glyph-name="guilsinglright" unicode="&#x203a;" horiz-adv-x="329" 
d="M108 77h-25q-26 0 -33 15t9 36l123 154l-123 155q-17 21 -11 36t31 15h29q30 0 51 -24l121 -153q24 -29 0 -58l-121 -152q-21 -24 -51 -24z" />
    <glyph glyph-name="fraction" unicode="&#x2044;" horiz-adv-x="179" 
d="M281 661l-299 -630q-15 -31 -48 -31h-14q-20 0 -26 13.5t4 35.5l299 630q15 31 48 31h14q20 0 26 -13.5t-4 -35.5z" />
    <glyph glyph-name="uni205F" unicode="&#x205f;" horiz-adv-x="225" 
 />
    <glyph glyph-name="uni2070" unicode="&#x2070;" horiz-adv-x="396" 
d="M36 643q0 229 162 229t162 -229q0 -230 -162 -230t-162 230zM264 643q0 141 -66 141t-66 -141q0 -143 66 -143t66 143z" />
    <glyph glyph-name="uni2074" unicode="&#x2074;" horiz-adv-x="393" 
d="M269 423h-10q-42 0 -42 42v57h-162q-41 0 -41 32v11q0 21 15 44l156 226q19 27 50 27h34q42 0 42 -42v-216h26q35 0 35 -38v-5q0 -39 -35 -39h-26v-57q0 -42 -42 -42zM110 606v-2h107v110l4 55h-2q-12 -26 -26 -47z" />
    <glyph glyph-name="uni2075" unicode="&#x2075;" horiz-adv-x="362" 
d="M169 413q-60 0 -121 41q-30 22 -6 57l3 4q20 27 54 8q29 -23 63 -23q32 0 54.5 19.5t22.5 48.5q0 30 -23 49.5t-56 19.5q-20 0 -43 -9q-36 -8 -53 0q-26 11 -23 46l15 148q3 40 44 40h163q42 0 42 -39v-4q0 -39 -42 -39h-126l-5 -51l-4 -25l2 -1q21 8 51 8q67 0 111 -42
q43 -40 43 -102t-46 -108t-120 -46z" />
    <glyph glyph-name="uni2076" unicode="&#x2076;" horiz-adv-x="383" 
d="M205 413q-74 0 -123 55t-49 150q0 100 53 177q54 77 155 77q29 0 58 -10q38 -14 22 -51l-2 -5q-9 -21 -16 -27t-22 -2q-29 7 -39 7q-39 0 -65.5 -26.5t-35.5 -70.5h2q24 21 65 21q65 0 106.5 -41t41.5 -102q0 -65 -42 -109q-42 -43 -109 -43zM204 500q27 0 42 18t15 48
q0 32 -19.5 52.5t-53.5 20.5q-24 0 -41 -12.5t-17 -32.5q0 -32 21 -63t53 -31z" />
    <glyph glyph-name="uni2077" unicode="&#x2077;" horiz-adv-x="345" 
d="M96 423h-13q-25 0 -33 14t4 36l147 267l24 38v2q-24 -2 -39 -2h-126q-41 0 -41 40v5q0 39 41 39h232q41 0 41 -32v-7q0 -28 -13 -50l-175 -321q-15 -29 -49 -29z" />
    <glyph glyph-name="uni2078" unicode="&#x2078;" horiz-adv-x="392" 
d="M197 413q-67 0 -116 36q-49 37 -49 101q0 58 68 111q-48 36 -48 89q0 56 42 89t104 33q60 0 104 -33q45 -33 45 -90q0 -44 -52 -108q62 -38 62 -99q0 -58 -48 -94q-47 -35 -112 -35zM196 688l33 -16q29 32 29 71q0 21 -17.5 34t-42.5 13q-24 0 -39.5 -11.5t-15.5 -32.5
q0 -27 28 -44q6 -4 15 -8.5t10 -5.5zM196 494q27 0 46.5 15t19.5 38q0 12 -4 20q-4 9 -18 18l-21 13l-6 3t-11 5t-13 6l-28 14q-37 -34 -37 -71q0 -27 21 -44t51 -17z" />
    <glyph glyph-name="uni2079" unicode="&#x2079;" horiz-adv-x="383" 
d="M84 423q-37 12 -23 51l2 5q9 21 16.5 26.5t22.5 2.5q20 -7 39 -7q38 0 64.5 26t36.5 70h-2q-28 -21 -65 -21q-66 0 -107 40.5t-41 103.5q0 64 41 108q42 44 109 44q74 0 123 -55q50 -56 50 -150q0 -101 -54 -177q-53 -77 -154 -77q-31 0 -58 10zM194 645q25 0 42 12.5
t17 32.5q0 32 -22 63q-21 31 -52 31q-27 0 -42 -18t-15 -48q0 -31 19 -52t53 -21z" />
    <glyph glyph-name="uni2080" unicode="&#x2080;" horiz-adv-x="396" 
d="M36 63q0 229 162 229t162 -229q0 -230 -162 -230t-162 230zM264 63q0 141 -66 141t-66 -141q0 -143 66 -143t66 143z" />
    <glyph glyph-name="uni2081" unicode="&#x2081;" horiz-adv-x="317" 
d="M265 -157h-195q-41 0 -41 39v5q0 39 35 39h56v207l3 28h-2q-2 -4 -14 -16l-16 -15q-17 -15 -36 3l-11 11q-27 28 5 57l61 60q24 21 51 21h13q41 0 41 -42v-314h50q41 0 41 -39v-5q0 -39 -41 -39z" />
    <glyph glyph-name="uni2082" unicode="&#x2082;" horiz-adv-x="367" 
d="M294 -157h-226q-42 0 -42 42q0 45 20.5 83t52.5 61q14 10 39 26t43 28.5t30 24.5q37 35 14 70q-20 30 -61 25q-23 -3 -43 -18q-35 -23 -57 -2l-5 4q-33 29 -2 57q53 48 121 48q63 0 106 -37q45 -36 45 -99q0 -34 -14 -62t-35.5 -45.5t-47 -34t-47 -28.5t-37 -27.5
t-17.5 -32.5h163q42 0 42 -39v-5q0 -39 -42 -39z" />
    <glyph glyph-name="uni2083" unicode="&#x2083;" horiz-adv-x="362" 
d="M166 -167q-71 0 -124 41q-30 20 -8 54l5 6q19 27 54 9q32 -23 68 -23q30 0 50.5 18t20.5 45q0 25 -21.5 41t-51.5 16h-11q-28 0 -39 23q-10 23 13 48l56 64l24 24v2q-20 -3 -35 -3h-88q-41 0 -41 40v5q0 39 41 39h197q42 0 42 -30v-6q0 -24 -20 -47l-79 -90
q50 -9 79.5 -42.5t29.5 -84.5q0 -62 -45 -105q-44 -44 -117 -44z" />
    <glyph glyph-name="uni2084" unicode="&#x2084;" horiz-adv-x="393" 
d="M269 -157h-10q-42 0 -42 42v57h-162q-41 0 -41 32v11q0 22 15 44l156 226q19 27 50 27h34q42 0 42 -42v-216h26q35 0 35 -38v-5q0 -39 -35 -39h-26v-57q0 -42 -42 -42zM110 26v-2h107v110l4 55h-2q-12 -26 -26 -47z" />
    <glyph glyph-name="uni2085" unicode="&#x2085;" horiz-adv-x="362" 
d="M169 -167q-60 0 -121 41q-30 22 -6 57l3 4q20 27 54 8q29 -23 63 -23q32 0 54.5 19.5t22.5 48.5q0 30 -23 49.5t-56 19.5q-20 0 -43 -9q-36 -8 -53 0q-26 11 -23 46l15 148q3 40 44 40h163q42 0 42 -39v-4q0 -39 -42 -39h-126l-5 -51l-4 -25l2 -1q21 8 51 8q67 0 111 -42
q43 -40 43 -102t-46 -108t-120 -46z" />
    <glyph glyph-name="uni2086" unicode="&#x2086;" horiz-adv-x="383" 
d="M205 -167q-74 0 -123 55t-49 150q0 100 53 177q54 77 155 77q29 0 58 -10q38 -14 22 -51l-2 -5q-9 -21 -16 -27t-22 -2q-29 7 -39 7q-39 0 -65.5 -26.5t-35.5 -70.5h2q24 21 65 21q65 0 106.5 -41t41.5 -102q0 -65 -42 -108q-42 -44 -109 -44zM204 -80q27 0 42 18t15 48
q0 32 -19.5 52.5t-53.5 20.5q-24 0 -41 -12.5t-17 -32.5q0 -32 21 -63t53 -31z" />
    <glyph glyph-name="uni2087" unicode="&#x2087;" horiz-adv-x="345" 
d="M96 -157h-13q-25 0 -33 14t4 36l147 267l24 38v2q-24 -2 -39 -2h-126q-41 0 -41 40v5q0 39 41 39h232q41 0 41 -32v-7q0 -28 -13 -50l-175 -321q-15 -29 -49 -29z" />
    <glyph glyph-name="uni2088" unicode="&#x2088;" horiz-adv-x="392" 
d="M197 -166q-67 0 -116 37q-49 36 -49 100q0 58 68 111q-48 36 -48 89q0 56 42 89t104 33q60 0 104 -33q45 -33 45 -90q0 -44 -52 -108q62 -38 62 -99q0 -59 -48 -93q-47 -36 -112 -36zM196 109l33 -16q29 32 29 71q0 21 -17.5 34t-42.5 13q-24 0 -39.5 -11.5t-15.5 -32.5
q0 -27 28 -44q6 -4 15 -8.5t10 -5.5zM196 -85q27 0 46.5 15t19.5 38q0 12 -4 20q-4 9 -18 18l-21 14l-6 3t-11 5t-13 6l-28 13q-37 -34 -37 -71q0 -27 21 -44t51 -17z" />
    <glyph glyph-name="uni2089" unicode="&#x2089;" horiz-adv-x="383" 
d="M84 -157q-37 12 -23 51l2 5q9 21 16.5 26.5t22.5 2.5q20 -7 39 -7q38 0 64.5 26t36.5 70h-2q-28 -21 -65 -21q-66 0 -107 40.5t-41 103.5q0 64 41 108q42 44 109 44q74 0 123 -55q50 -56 50 -150q0 -101 -54 -177q-53 -77 -154 -77q-31 0 -58 10zM194 65q25 0 42 12.5
t17 32.5q0 32 -22 63q-21 31 -52 31q-27 0 -42 -18t-15 -48q0 -31 19 -52t53 -21z" />
    <glyph glyph-name="Euro" unicode="&#x20ac;" horiz-adv-x="603" 
d="M106 250h-31q-38 0 -38 38t38 38h18q-5 28 -1 62h-16q-39 0 -39 39q0 38 39 38h30q33 115 126 185q94 72 216 72q17 0 64 -5q43 -6 32 -50l-10 -37q-10 -37 -42 -32q-21 4 -47 4q-71 0 -124.5 -36.5t-76.5 -100.5h208q46 0 39 -39q-4 -21 -14.5 -29.5t-31.5 -8.5h-219
q-5 -30 0 -62h199q47 0 39 -39q-5 -21 -15 -29t-31 -8h-169q24 -64 78 -102t123 -38q27 0 52 4q42 6 48 -31l8 -38q7 -42 -32 -49q-40 -8 -78 -8q-128 0 -219 72q-92 72 -123 190z" />
    <glyph glyph-name="trademark" unicode="&#x2122;" horiz-adv-x="977" 
d="M460 310l29 360q3 40 43 40h14q34 0 48 -32l78 -177l13 -42h2q9 32 14 42l78 177q14 32 48 32h14q40 0 43 -40l28 -360q1 -43 -40 -43h-13q-39 0 -42 40l-14 188l1 31h-2l-65 -146q-14 -32 -48 -32h-6q-33 0 -47 32l-65 146h-2l1 -31l-15 -188q-3 -40 -43 -40h-12
q-43 0 -40 43zM241 267h-12q-42 0 -42 41v318h-107q-41 0 -41 39v6q0 39 41 39h308q42 0 42 -39v-6q0 -39 -42 -39h-106v-318q0 -41 -41 -41z" />
    <glyph glyph-name="minus" unicode="&#x2212;" horiz-adv-x="619" 
d="M532 236h-445q-41 0 -41 42v15q0 42 41 42h445q42 0 42 -42v-15q0 -42 -42 -42z" />
    <glyph glyph-name="infinity" unicode="&#x221e;" horiz-adv-x="488" 
d="M245 540q78 0 134 -56t56 -135q0 -78 -56 -136q-56 -56 -134 -56t-136 56q-56 58 -56 136q0 79 56 135t136 56z" />
    <glyph glyph-name="approxequal" unicode="&#x2248;" horiz-adv-x="619" 
d="M79 357l-5 7q-23 35 8 58q64 50 127 50q49 0 107 -35q59 -35 91 -35q37 0 74 27q38 23 57 -8l5 -7q23 -35 -8 -57q-61 -51 -128 -51q-49 0 -108 35q-58 35 -90 35q-35 0 -73 -27q-38 -23 -57 8zM79 153l-5 6q-23 35 8 58q64 50 127 50q49 0 107 -35q59 -35 91 -35
q37 0 74 27q38 23 57 -8l5 -6q22 -34 -8 -58q-64 -50 -128 -50q-49 0 -108 35q-58 35 -90 35q-35 0 -73 -27q-36 -24 -57 8z" />
    <glyph glyph-name="notequal" unicode="&#x2260;" horiz-adv-x="619" 
d="M151 44q-32 20 -8 54l26 36h-60q-42 0 -42 41v15q0 42 42 42h124l73 107h-197q-42 0 -42 42v15q0 41 42 41h262l54 78q22 34 53 14q32 -20 15 -44l-34 -48h55q41 0 41 -41v-15q0 -42 -41 -42h-119l-74 -107h193q41 0 41 -42v-15q0 -41 -41 -41h-257l-53 -76
q-22 -34 -53 -14z" />
    <glyph glyph-name="lessequal" unicode="&#x2264;" horiz-adv-x="619" 
d="M489 52l-401 179q-32 14 -32 49v12q0 34 32 49l401 178q22 10 35 1t13 -32v-23q0 -34 -32 -48l-314 -130v-2l314 -130q32 -14 32 -48v-23q0 -24 -13 -32.5t-35 0.5zM100 -85h396q41 0 41 -42v-15q0 -41 -41 -41h-396q-42 0 -42 41v15q0 42 42 42z" />
    <glyph glyph-name="greaterequal" unicode="&#x2265;" horiz-adv-x="619" 
d="M82 84v23q0 34 32 48l315 130v2l-315 130q-32 14 -32 48v23q0 23 13.5 32t35.5 -1l400 -178q32 -15 32 -49v-12q0 -35 -32 -49l-400 -178q-22 -10 -35.5 -1t-13.5 32zM124 -85h396q41 0 41 -42v-15q0 -41 -41 -41h-396q-42 0 -42 41v15q0 42 42 42z" />
    <glyph glyph-name="uniE000" unicode="&#xe000;" horiz-adv-x="510" 
d="M0 0v510h510v-510h-510z" />
    <glyph glyph-name="uniF6C3" unicode="&#xf6c3;" horiz-adv-x="335" 
d="M123 -81q0 26 37 26h20q48 0 48 -61q0 -41 -19 -72t-44 -31h-11q-37 0 -37 23q0 2 5.5 26t5.5 40q0 8 -2.5 26t-2.5 23z" />
    <glyph glyph-name="uniF8FF" unicode="&#xf8ff;" horiz-adv-x="1130" 
d="M433 -146l-265 141v152l-126 72v278l126 71v151l265 142l134 -71l132 71l265 -142v-151l124 -71v-278l-124 -72v-152l-265 -141l-132 71zM208 169v-139l238 -126l121 66l118 -66l238 126v139l114 64v249l-114 66v136l-238 126l-118 -64l-121 64l-238 -126v-136l-114 -66
v-249zM457 -50l-215 114v121l-99 60v225l99 58v123l215 114l110 -59l107 59l214 -114v-123l100 -58v-225l-100 -60v-121l-214 -114l-107 58zM433 517v-426h99v191h194v84h-194v151h125q12 0 16.5 -5.5t4.5 -18.5v-29h89v86q0 27 -11.5 39t-39.5 12h-337v-84h54z" />
    <glyph glyph-name="NULL" horiz-adv-x="0" 
 />
    <glyph glyph-name="CR" horiz-adv-x="333" 
 />
    <glyph glyph-name="zero.tnum" 
d="M35 356q0 366 257 366q200 0 244 -222q14 -67 14 -144q0 -161 -56 -260q-28 -51 -81 -80q-50 -28 -121 -28q-70 0 -122 28q-132 77 -135 340zM417 356q0 247 -125 247t-125 -247q0 -250 125 -250t125 250z" />
    <glyph glyph-name="one.tnum" 
d="M88 42v28q0 41 41 41h113v394l1 48h-2q-9 -19 -27 -36l-31 -30q-31 -28 -58 2l-19 20q-29 29 1 59l126 121q24 21 52 21h42q41 0 41 -42v-557h112q42 0 42 -41v-28q0 -42 -42 -42h-351q-41 0 -41 42z" />
    <glyph glyph-name="two.tnum" 
d="M51 42v21q0 52 18.5 97t47.5 77.5t64.5 60.5t71 52t64.5 47t47.5 49.5t18.5 54.5q0 44 -30.5 71.5t-77.5 27.5q-61 0 -105 -53q-32 -32 -59 -9l-27 21q-33 25 -11 56q81 107 213 107q96 0 164 -57q67 -55 67 -153q0 -63 -33 -115t-80 -86.5t-94.5 -65t-81.5 -64.5
t-35 -70h293q42 0 42 -41v-28q0 -42 -42 -42h-390q-21 0 -33 11t-12 31z" />
    <glyph glyph-name="three.tnum" 
d="M66 57q-32 24 -8 58l20 31q21 32 57 9q64 -45 128 -45q55 0 91.5 30t36.5 76q0 53 -42 81.5t-110 28.5h-15q-32 0 -46 29l-4 8q-14 29 9 54l109 129q27 33 51 54v2q-23 -3 -63 -3h-171q-41 0 -41 41v28q0 42 41 42h350q42 0 42 -41v-11q0 -32 -19 -51l-155 -179
q82 -11 137 -66q57 -54 57 -141q0 -95 -68 -165q-68 -68 -182 -68q-112 0 -205 69z" />
    <glyph glyph-name="four.tnum" 
d="M340 183h-291q-41 0 -41 41v10q0 28 15 51l274 398q17 27 50 27h78q42 0 42 -42v-378h50q42 0 42 -41v-25q0 -41 -34 -41h-58v-141q0 -42 -42 -42h-44q-41 0 -41 42v141zM144 292v-2h196v220l5 74h-2q-19 -42 -35 -65z" />
    <glyph glyph-name="five.tnum" 
d="M75 59q-31 23 -6 57l20 30q21 33 57 8q56 -44 118 -44q54 0 93 33q40 34 40 88q0 55 -40 89t-102 34q-39 0 -82 -18q-32 -11 -56 -2l-9 3q-34 13 -31 50l26 283q3 40 43 40h292q42 0 42 -42v-28q0 -41 -42 -41h-220l-11 -117l-5 -33h2q32 16 76 16q115 0 182 -67
q68 -68 68 -166q0 -105 -73 -175q-73 -69 -183 -69q-113 0 -199 71z" />
    <glyph glyph-name="six.tnum" 
d="M42 321q0 153 81 273q40 59 104.5 93.5t141.5 34.5q62 0 107 -16q39 -12 25 -53l-12 -33q-11 -35 -49 -27q-33 10 -64 10q-80 0 -128 -56q-48 -55 -63 -140h2q19 25 57.5 40.5t85.5 15.5q99 0 159 -66q61 -65 61 -162q0 -103 -66 -175q-64 -72 -168 -72q-116 0 -195 90
q-79 91 -79 243zM176 274q0 -57 41 -113q42 -55 99 -55q48 0 77.5 34t29.5 87q0 58 -36 94t-100 36q-48 0 -79.5 -23t-31.5 -60z" />
    <glyph glyph-name="seven.tnum" 
d="M120 49l242 485q24 46 40 65v2q-14 -2 -46 -2h-262q-41 0 -41 41v28q0 42 41 42h405q42 0 42 -41v-22q0 -29 -12 -51l-284 -566q-17 -30 -50 -30h-45q-24 0 -32.5 13.5t2.5 35.5z" />
    <glyph glyph-name="eight.tnum" 
d="M38 201q0 75 47 127q36 41 62 59q-81 57 -81 142q0 79 59 136t168 57q102 0 167 -53q66 -53 66 -139q0 -41 -18 -83q-25 -58 -62 -95q98 -59 98 -154q0 -85 -69 -148q-70 -62 -183 -62t-184 62q-70 61 -70 151zM326 408l28 -11l6 8l8 13l9 14q24 41 24 83q0 45 -29 70
t-78 25q-48 0 -75 -23t-27 -60q0 -7 2 -21q5 -11 10 -19l11 -16q4 -7 17 -15l19 -12l48 -24zM167 215q0 -50 36 -82.5t90 -32.5q49 0 84 29t35 71q0 30 -18 48l-19 18q-10 9 -60 34l-39 17l-42 18l-28 -26q-10 -10 -24 -37q-15 -28 -15 -57z" />
    <glyph glyph-name="nine.tnum" 
d="M84 56l12 34q6 19 17 24.5t32 2.5q42 -11 64 -11q80 0 128 56t63 141h-2q-19 -25 -59.5 -41t-85.5 -16q-95 0 -157 68q-61 67 -61 165q0 101 65 172t168 71q116 0 195 -91q80 -91 80 -242q0 -99 -35 -189t-111 -151t-181 -61q-62 0 -107 16q-38 12 -25 52zM298 352
q48 0 79.5 23.5t31.5 60.5q0 58 -42 112q-40 55 -98 55q-48 0 -77 -33.5t-29 -87.5q0 -58 35.5 -94t99.5 -36z" />
    <glyph glyph-name="hyphen.case" horiz-adv-x="416" 
d="M317 292h-218q-41 0 -41 42v28q0 41 41 41h218q41 0 41 -41v-28q0 -42 -41 -42z" />
    <glyph glyph-name="parenleft.case" horiz-adv-x="285" 
d="M147 -40q-104 188 -104 413q0 195 101 370q16 28 50 28h19q24 0 32 -13.5t-3 -35.5q-86 -174 -86 -350q0 -199 89 -388q10 -22 2 -35.5t-32 -13.5h-21q-34 0 -47 25z" />
    <glyph glyph-name="parenright.case" horiz-adv-x="285" 
d="M40 -14q88 186 88 386q0 180 -86 350q-11 22 -4 35.5t31 13.5h21q34 0 50 -28q102 -175 102 -370q0 -223 -103 -410q-15 -28 -49 -28h-20q-24 0 -32 14.5t2 36.5z" />
    <glyph glyph-name="bracketleft.case" horiz-adv-x="303" 
d="M72 -23v753q0 41 42 41h114q42 0 42 -41v-9q0 -42 -39 -42h-50v-652h47q42 0 42 -42v-8q0 -42 -42 -42h-114q-42 0 -42 42z" />
    <glyph glyph-name="bracketright.case" horiz-adv-x="303" 
d="M34 -23v8q0 42 41 42h48v652h-48q-41 0 -41 42v9q0 41 41 41h115q41 0 41 -41v-753q0 -42 -41 -42h-115q-41 0 -41 42z" />
    <glyph glyph-name="braceleft.case" horiz-adv-x="343" 
d="M109 101v97q0 66 -51 94q-34 18 -34 46v39q0 16 7 25t26 22q52 22 52 95v85q0 103 61 139q49 31 92 31h13q42 0 42 -42v-15q0 -41 -42 -41q-58 0 -58 -85v-105q0 -83 -68 -121l-14 -6v-2q10 -2 28 -15q54 -32 54 -111v-117q0 -84 58 -84q42 0 42 -42v-15q0 -42 -42 -42
h-13q-43 0 -92 31q-28 16 -44.5 53t-16.5 86z" />
    <glyph glyph-name="braceright.case" horiz-adv-x="344" 
d="M26 -27v15q0 42 42 42q58 0 58 84v117q0 86 67 120l15 6v2q-7 2 -29 16q-53 38 -53 111v105q0 85 -58 85q-42 0 -42 41v15q0 42 42 42h13q43 0 92 -31q61 -36 61 -139v-85q0 -73 52 -95q25 -17 29 -27q4 -8 4 -20v-39q0 -28 -34 -46q-51 -28 -51 -94v-97q0 -49 -16.5 -86
t-44.5 -53q-49 -31 -92 -31h-13q-42 0 -42 42z" />
    <glyph glyph-name="at.case" horiz-adv-x="770" 
d="M30 352q0 156 109 264q109 109 268 109q144 0 209 -61q66 -61 66 -157v-250h31q41 0 41 -41v-8q0 -42 -41 -42h-235q-98 0 -156 55q-59 56 -59 131t58 129q59 54 157 54h84q-1 39 -43.5 63.5t-107.5 24.5q-107 0 -181 -81q-74 -82 -74 -190q0 -103 63 -178
q63 -74 168 -88q40 -6 40 -43v-16q0 -45 -43 -40q-160 14 -256 116q-98 104 -98 249zM389 355q0 -42 27.5 -70t69.5 -28h76v196h-74q-44 0 -71.5 -28t-27.5 -70z" />
    <glyph glyph-name="guillemotleft.case" horiz-adv-x="550" 
d="M391 161l-121 152q-24 29 0 58l121 153q21 24 51 24h24q27 0 34.5 -15t-9.5 -36l-123 -155l123 -154q17 -21 11 -36t-31 -15h-29q-30 0 -51 24zM166 161l-121 152q-24 29 0 58l121 153q21 24 51 24h25q26 0 33 -15t-9 -36l-123 -155l123 -154q16 -21 10.5 -36t-29.5 -15
h-30q-30 0 -51 24z" />
    <glyph glyph-name="guillemotright.case" horiz-adv-x="550" 
d="M284 188l123 154l-123 155q-17 21 -11.5 36t30.5 15h30q31 0 50 -24l121 -153q24 -29 0 -58l-121 -152q-19 -24 -50 -24h-25q-27 0 -34 15t10 36zM108 137h-25q-27 0 -34 15t10 36l123 154l-123 155q-17 21 -11 36t31 15h29q30 0 51 -24l120 -153q24 -29 0 -58l-120 -152
q-21 -24 -51 -24z" />
    <glyph glyph-name="guilsinglleft.case" horiz-adv-x="325" 
d="M166 161l-121 152q-24 29 0 58l121 153q21 24 51 24h25q26 0 33 -15t-9 -36l-123 -155l123 -154q16 -21 10.5 -36t-29.5 -15h-30q-30 0 -51 24z" />
    <glyph glyph-name="guilsinglright.case" horiz-adv-x="325" 
d="M108 137h-25q-27 0 -34 15t10 36l123 154l-123 155q-17 21 -11 36t31 15h29q30 0 51 -24l120 -153q24 -29 0 -58l-120 -152q-21 -24 -51 -24z" />
    <glyph glyph-name="endash.case" horiz-adv-x="668" 
d="M569 296h-471q-41 0 -41 42v15q0 42 41 42h471q42 0 42 -42v-15q0 -42 -42 -42z" />
    <glyph glyph-name="emdash.case" horiz-adv-x="868" 
d="M769 296h-671q-41 0 -41 42v15q0 42 41 42h671q42 0 42 -42v-15q0 -42 -42 -42z" />
    <glyph glyph-name="periodcentered.case" horiz-adv-x="238" 
d="M138 282h-39q-41 0 -41 42v43q0 42 41 42h39q42 0 42 -42v-43q0 -42 -42 -42z" />
    <glyph glyph-name="questiondown.case" horiz-adv-x="428" 
d="M236 504h40q42 0 42 -41v-16q0 -34 -17 -65q-16 -31 -41 -54l-48 -43q-59 -52 -59 -100q0 -35 28 -59t69 -24q32 0 74 20q41 21 60 -10l17 -25q25 -34 -7 -56q-68 -46 -155 -46q-89 0 -154 51q-65 53 -65 137q0 43 17 79t41.5 60.5t49.5 46t44 47t22 52.5l2 17
q8 29 40 29zM318 667v-35q0 -42 -42 -42h-40q-41 0 -41 42v35q0 42 41 42h40q42 0 42 -42z" />
    <glyph glyph-name="exclamdown.case" horiz-adv-x="269" 
d="M120 504h29q40 0 42 -41l8 -421q0 -43 -41 -43h-47q-42 0 -41 43l8 421q0 41 42 41zM195 667v-35q0 -42 -41 -42h-40q-42 0 -42 42v35q0 42 42 42h40q41 0 41 -42z" />
    <glyph glyph-name="bullet.case" horiz-adv-x="425" 
d="M331 236q-49 -49 -118 -49t-118 49t-49 118t49 118t118 49t118 -49t49 -118t-49 -118z" />
    <glyph glyph-name="zero.p_osf" horiz-adv-x="607" 
d="M57 274q0 76 24 139q26 66 85 107.5t138 41.5q82 0 139.5 -43t82 -106.5t24.5 -139.5q0 -56 -14.5 -105.5t-43.5 -90.5t-77.5 -65t-110.5 -24q-82 0 -140 42q-107 79 -107 244zM304 96q60 0 88 52q30 52 30 126t-30 127q-29 53 -88 53q-60 0 -90 -52q-29 -53 -29 -127
t29 -127q30 -52 90 -52z" />
    <glyph glyph-name="one.p_osf" horiz-adv-x="484" 
d="M55 42v24q0 42 41 42h107v249l1 65h-2q-14 -16 -38 -30l-42 -25q-35 -21 -57 13l-13 19q-23 35 13 57l128 79q23 15 51 15h41q41 0 41 -42v-400h95q41 0 41 -42v-24q0 -42 -41 -42h-325q-41 0 -41 42z" />
    <glyph glyph-name="two.p_osf" horiz-adv-x="553" 
d="M54 42v11q0 31 28 50q133 88 199 151.5t66 115.5q0 39 -27 60t-69 21q-55 0 -113 -45q-34 -25 -58 5l-15 19q-27 33 4 58q89 74 199 74q88 0 148 -48t60 -127q0 -80 -57 -144.5t-179 -136.5v-2q20 4 63 4h157q42 0 42 -42v-24q0 -42 -42 -42h-364q-42 0 -42 42z" />
    <glyph glyph-name="three.p_osf" horiz-adv-x="526" 
d="M33 -7l14 21q20 32 58 9q56 -43 121 -43q57 0 92.5 28t35.5 75q0 53 -45 81q-44 28 -104 28h-21q-35 0 -48 31t8 57l97 112q23 27 44 46l7 5v2q-20 -4 -63 -4h-138q-41 0 -41 42v25q0 42 41 42h327q42 0 42 -37v-7q0 -29 -20 -52l-156 -171q80 -10 139 -60t59 -132
q0 -93 -69 -156q-67 -63 -183 -63q-106 0 -189 63q-34 23 -8 58z" />
    <glyph glyph-name="four.p_osf" horiz-adv-x="596" 
d="M23 70v14q0 24 14 47l258 391q15 28 49 28h84q41 0 41 -42v-371h54q41 0 41 -42v-24q0 -42 -33 -42h-62v-103q0 -42 -41 -42h-44q-41 0 -41 42v103h-279q-41 0 -41 41zM311 361l-153 -224h185v217l5 74h-2q-15 -35 -35 -67z" />
    <glyph glyph-name="five.p_osf" horiz-adv-x="535" 
d="M46 -4l14 21q19 31 57 8q56 -41 116 -41q55 0 95 30q41 30 41 84t-39.5 86t-98.5 32q-40 0 -85 -17q-30 -9 -56 0l-8 3q-32 14 -28 48l26 260q3 40 43 40h279q41 0 41 -42v-25q0 -42 -41 -42h-211l-11 -108l-5 -31h2q36 14 77 14q110 0 177 -60q67 -58 67 -152
q0 -104 -72 -165q-72 -63 -184 -63q-106 0 -188 63q-33 23 -8 57z" />
    <glyph glyph-name="six.p_osf" horiz-adv-x="594" 
d="M50 296q0 70 20 136.5t58 122t101.5 89.5t141.5 34q63 0 105 -15q39 -12 24 -53l-8 -24q-13 -32 -50 -25q-48 9 -63 9q-82 0 -130 -56q-48 -57 -61 -134h2q19 24 59 39t87 15q94 0 154 -63q61 -61 61 -153q0 -97 -64 -164q-65 -66 -168 -66q-114 0 -192 83
q-77 83 -77 225zM181 254q0 -54 40 -106t98 -52q48 0 76.5 32t28.5 84q0 56 -34.5 89t-98.5 33q-48 0 -79 -22.5t-31 -57.5z" />
    <glyph glyph-name="seven.p_osf" horiz-adv-x="524" 
d="M98 -67l228 449q7 18 18 34l14 21l5 6v2q-19 -3 -46 -3h-248q-41 0 -41 42v24q0 42 41 42h393q42 0 42 -41v-17q0 -26 -13 -51l-269 -527q-16 -30 -50 -30h-44q-24 0 -32.5 13.5t2.5 35.5z" />
    <glyph glyph-name="eight.p_osf" horiz-adv-x="596" 
d="M49 193q0 87 111 170q-80 53 -80 132q0 77 57 129q59 53 164 53q97 0 161 -50q64 -49 64 -134q0 -73 -78 -165q95 -53 95 -141q0 -82 -67 -140q-68 -59 -179 -59q-109 0 -179 59q-69 58 -69 146zM357 373l3 3q2 3 5 7t5 7l8 14q26 35 26 81q0 39 -28.5 62t-75.5 23
q-45 0 -71.5 -21.5t-26.5 -55.5q0 -27 21 -49q20 -20 42 -31.5t74 -32.5q3 -1 7 -2.5t6.5 -3t4.5 -1.5zM175 203q0 -47 35.5 -77.5t86.5 -30.5t84.5 27t33.5 69q0 47 -68 77l-31 15q-9 4 -35.5 15t-35.5 15q-70 -52 -70 -110z" />
    <glyph glyph-name="nine.p_osf" horiz-adv-x="594" 
d="M91 -61l9 24q13 34 45 28q39 -11 68 -11q83 0 129 55q49 56 62 135h-2q-19 -24 -59 -39t-87 -15q-93 0 -155 62q-60 63 -60 154q0 98 64 163q64 67 168 67q114 0 191 -83t77 -225q0 -146 -78 -258q-37 -57 -101 -90.5t-141 -33.5q-55 0 -105 14q-39 12 -25 53zM301 216
q48 0 79 22t31 57q0 54 -41 107q-40 52 -98 52q-47 0 -75.5 -32t-28.5 -84q0 -56 34.5 -89t98.5 -33z" />
    <glyph glyph-name="zero.t_osf" 
d="M46 274q0 119 63 203q63 85 184 85q82 0 139.5 -43t82 -106.5t24.5 -139.5q0 -56 -14.5 -105.5t-43.5 -90.5t-77.5 -65t-110.5 -24q-121 0 -184 84t-63 202zM293 96q60 0 88 52q30 52 30 126t-30 127q-29 53 -88 53q-60 0 -90 -52q-29 -53 -29 -127t29 -127
q30 -52 90 -52z" />
    <glyph glyph-name="one.t_osf" 
d="M103 42v24q0 42 41 42h107v249l1 65h-2q-14 -16 -38 -30l-42 -25q-35 -21 -57 13l-13 19q-23 35 13 57l128 79q23 15 51 15h41q41 0 41 -42v-400h95q41 0 41 -42v-24q0 -42 -41 -42h-325q-41 0 -41 42z" />
    <glyph glyph-name="two.t_osf" 
d="M68 42v11q0 31 28 50q133 88 199 151.5t66 115.5q0 39 -27 60t-69 21q-55 0 -113 -45q-34 -25 -58 5l-15 19q-27 33 4 58q89 74 199 74q88 0 148 -48t60 -127q0 -80 -57 -144.5t-179 -136.5v-2q20 4 63 4h157q42 0 42 -42v-24q0 -42 -42 -42h-364q-42 0 -42 42z" />
    <glyph glyph-name="three.t_osf" 
d="M61 -6l14 21q20 32 58 9q56 -43 121 -43q57 0 92.5 28t35.5 75q0 52 -45 81q-44 28 -104 28h-21q-35 0 -48 31t8 57l97 112q26 31 44 45l7 6v2q-20 -4 -63 -4h-138q-41 0 -41 42v25q0 42 41 42h327q42 0 42 -37v-7q0 -29 -20 -52l-156 -171q80 -10 139 -60t59 -132
q0 -93 -69 -156q-67 -63 -183 -63q-106 0 -189 63q-34 23 -8 58z" />
    <glyph glyph-name="four.t_osf" 
d="M17 70v14q0 24 14 47l258 391q15 28 49 28h84q41 0 41 -42v-371h54q41 0 41 -42v-24q0 -42 -33 -42h-62v-103q0 -42 -41 -42h-44q-41 0 -41 42v103h-279q-41 0 -41 41zM305 361l-153 -224h185v217l5 74h-2q-15 -35 -35 -67z" />
    <glyph glyph-name="five.t_osf" 
d="M70 -4l14 21q19 31 57 8q56 -41 116 -41q55 0 95 30q41 30 41 84t-39.5 86t-98.5 32q-40 0 -85 -17q-30 -9 -56 0l-8 3q-32 14 -28 48l26 260q3 40 43 40h279q41 0 41 -42v-25q0 -42 -41 -42h-211l-11 -108l-5 -31h2q36 14 77 14q110 0 177 -60q67 -58 67 -152
q0 -104 -72 -165q-72 -63 -184 -63q-106 0 -188 63q-33 23 -8 57z" />
    <glyph glyph-name="six.t_osf" 
d="M47 296q0 70 20 136.5t58 122t101.5 89.5t141.5 34q62 0 105 -15q39 -12 24 -53l-8 -24q-13 -32 -50 -25q-48 9 -63 9q-82 0 -130 -56q-48 -57 -61 -134h2q19 24 59 39t87 15q94 0 154 -63q61 -61 61 -153q0 -97 -64 -164q-64 -66 -168 -66q-114 0 -192 83
q-77 83 -77 225zM178 254q0 -54 40 -106t98 -52q48 0 76.5 32t28.5 84q0 56 -34.5 89t-98.5 33q-48 0 -79 -22.5t-31 -57.5z" />
    <glyph glyph-name="seven.t_osf" 
d="M126 -67l228 449q7 18 18 34l14 21l5 6v2q-20 -3 -46 -3h-248q-41 0 -41 42v24q0 42 41 42h393q42 0 42 -41v-17q0 -26 -13 -51l-269 -527q-16 -30 -50 -30h-44q-24 0 -32.5 13.5t2.5 35.5z" />
    <glyph glyph-name="eight.t_osf" 
d="M44 193q0 87 111 170q-80 53 -80 132q0 77 57 129q59 53 164 53q97 0 161 -50q64 -49 64 -134q0 -73 -78 -165q95 -53 95 -141q0 -82 -67 -140q-68 -59 -179 -59q-109 0 -179 59q-69 58 -69 146zM352 373l2 3q3 3 6 7t5 7l9 14q25 32 25 81q0 39 -28.5 62t-75.5 23
q-45 0 -71.5 -21.5t-26.5 -55.5q0 -27 21 -49q20 -20 42 -31.5t74 -32.5q3 -1 7 -2.5t6.5 -3t4.5 -1.5zM170 203q0 -47 35.5 -77.5t86.5 -30.5t84.5 27t33.5 69q0 47 -68 77l-31 15q-9 4 -36 15t-35 15q-70 -52 -70 -110z" />
    <glyph glyph-name="nine.t_osf" 
d="M85 -61l9 24q13 34 45 28q39 -11 68 -11q83 0 129 55q49 56 62 135h-2q-19 -24 -59 -39t-87 -15q-93 0 -155 62q-60 63 -60 154q0 98 64 163q64 67 168 67q114 0 191 -83t77 -225q0 -146 -78 -258q-37 -57 -101 -90.5t-141 -33.5q-55 0 -105 14q-39 12 -25 53zM295 216
q48 0 79 22t31 57q0 54 -41 107q-40 52 -98 52q-47 0 -75.5 -32t-28.5 -84q0 -56 34.5 -89t98.5 -33z" />
    <glyph glyph-name="dollar.osf" horiz-adv-x="514" 
d="M59 58q-29 23 -8 58l17 26q23 33 57 8q65 -49 125 -49q42 0 66.5 16.5t24.5 45.5q0 20 -21.5 37t-53.5 29t-70 29t-70 36.5t-53.5 53t-21.5 76.5q0 66 45.5 109.5t122.5 55.5v48q0 41 40 41h7q39 0 39 -35v-53q69 -8 124 -40q30 -20 14 -56l-13 -28q-17 -37 -56 -14
q-50 28 -100 28q-91 0 -91 -62q0 -36 102 -74q37 -12 65.5 -25.5t59 -35t47 -53t16.5 -69.5q0 -65 -46.5 -111.5t-125.5 -57.5v-52q0 -41 -39 -41h-7q-40 0 -40 35v57q-85 11 -156 67z" />
    <glyph glyph-name="cent.osf" horiz-adv-x="541" 
d="M245 13v42q-95 18 -150 85t-55 159q0 90 56 158t149 86v43q0 41 41 41h6q42 0 42 -30v-49q70 -7 138 -53q33 -24 9 -58l-15 -23q-19 -31 -57 -10q-42 33 -93 33q-67 0 -108.5 -39t-41.5 -97q0 -60 41.5 -99.5t108.5 -39.5q49 0 93 32q36 23 57 -10l15 -23q23 -35 -9 -57
q-68 -49 -138 -53v-38q0 -41 -42 -41h-6q-41 0 -41 41z" />
    <glyph glyph-name="sterling.osf" horiz-adv-x="594" 
d="M53 42v24q0 42 39 42h20v129h-13q-35 0 -35 39v6q0 39 35 39h13v70q0 87 67 144q67 58 168 58q79 0 146 -36q39 -19 15 -56l-15 -25q-19 -31 -56 -16q-45 20 -87 20q-47 0 -78.5 -26.5t-31.5 -64.5v-68h161q41 0 41 -39v-6q0 -39 -41 -39h-161v-129h269q42 0 42 -42v-24
q0 -42 -42 -42h-414q-42 0 -42 42z" />
    <glyph glyph-name="yen.osf" horiz-adv-x="607" 
d="M238 132h-122q-41 0 -41 35v6q0 35 41 35h122v16l-37 63h-85q-41 0 -41 35v6q0 35 41 35h41l-100 169q-13 21 -4.5 35t33.5 14h55q35 0 48 -30l69 -128q22 -43 43 -98h2q23 56 43 98l70 128q14 30 48 30h55q25 0 33 -14t-5 -35l-99 -169h45q42 0 42 -35v-6q0 -35 -42 -35
h-90l-36 -63v-16h126q42 0 42 -35v-6q0 -35 -42 -35h-126v-90q0 -42 -42 -42h-45q-42 0 -42 42v90z" />
    <glyph glyph-name="florin.osf" horiz-adv-x="405" 
d="M-6 -17q2 0 13.5 -0.5t16.5 -0.5q99 0 107 92l19 215h-34q-42 0 -42 42v17q0 42 42 42h42l9 99q7 92 64 138q26 21 55 32q49 19 105 19q5 0 47 -3q39 -3 39 -44v-25q0 -22 -7.5 -31.5t-23.5 -8.5q-22 3 -47 3q-99 0 -107 -92l-9 -87h68q41 0 41 -42v-17q0 -42 -41 -42
h-77l-19 -227q-5 -58 -29.5 -98.5t-62.5 -59.5q-62 -31 -131 -31q-6 0 -36 2q-39 3 -39 44v25q0 21 10 31t27 8z" />
    <glyph glyph-name="Euro.osf" horiz-adv-x="577" 
d="M117 192h-36q-41 0 -41 31v9q0 30 41 30h23q-3 17 -1 55h-22q-41 0 -41 31v8q0 31 41 31h34q29 90 107 148q79 58 201 58q15 0 57 -5q42 -4 31 -49l-6 -22q-9 -37 -39 -32q-21 4 -45 4q-61 0 -105 -27.5t-66 -74.5h179q22 0 31.5 -8.5t7.5 -25.5l-1 -5q-7 -31 -44 -31
h-192q-4 -18 1 -55h174q45 0 39 -34l-1 -5q-7 -31 -43 -31h-143q22 -45 65 -71.5t102 -26.5q26 0 47 4q41 6 49 -32l4 -22q7 -43 -32 -49q-28 -7 -70 -7q-115 0 -194.5 55.5t-111.5 148.5z" />
    <glyph glyph-name="zero.numerator" horiz-adv-x="396" 
d="M36 492q0 229 162 229t162 -229q0 -230 -162 -230t-162 230zM264 492q0 141 -66 141t-66 -141q0 -143 66 -143t66 143z" />
    <glyph glyph-name="one.numerator" horiz-adv-x="318" 
d="M265 272h-195q-41 0 -41 39v5q0 39 35 39h56v207l3 28h-2q-2 -4 -14 -16l-16 -15q-17 -15 -36 3l-11 11q-27 28 5 57l61 60q24 21 51 21h13q41 0 41 -42v-314h50q41 0 41 -39v-5q0 -39 -41 -39z" />
    <glyph glyph-name="two.numerator" horiz-adv-x="367" 
d="M294 272h-226q-42 0 -42 42q0 45 20.5 83t52.5 61q14 10 39 26t43 28.5t30 24.5q37 35 14 70q-20 30 -61 25q-23 -3 -43 -18q-35 -23 -57 -2l-5 4q-33 29 -2 57q52 48 121 48q63 0 106 -37q45 -36 45 -99q0 -34 -14 -62t-35.5 -45.5t-47 -34t-47 -28.5t-37 -27.5
t-17.5 -32.5h163q42 0 42 -39v-5q0 -39 -42 -39z" />
    <glyph glyph-name="three.numerator" horiz-adv-x="362" 
d="M166 262q-71 0 -124 41q-30 20 -8 54l5 6q19 27 54 9q32 -23 68 -23q30 0 50.5 18t20.5 45q0 25 -21.5 41t-51.5 16h-11q-28 0 -39 23q-10 23 13 48l56 64l24 24v2q-20 -3 -35 -3h-88q-41 0 -41 40v5q0 39 41 39h197q42 0 42 -30v-6q0 -24 -20 -47l-79 -90
q50 -9 79.5 -42.5t29.5 -84.5q0 -61 -45 -105q-44 -44 -117 -44z" />
    <glyph glyph-name="four.numerator" horiz-adv-x="394" 
d="M269 272h-10q-42 0 -42 42v57h-162q-41 0 -41 32v11q0 22 15 44l156 226q19 27 50 27h34q42 0 42 -42v-216h26q35 0 35 -38v-5q0 -39 -35 -39h-26v-57q0 -42 -42 -42zM110 455v-2h107v110l4 55h-2q-12 -26 -26 -47z" />
    <glyph glyph-name="five.numerator" horiz-adv-x="362" 
d="M169 262q-60 0 -121 41q-30 23 -6 57l3 4q20 27 54 8q29 -23 63 -23q32 0 54.5 19.5t22.5 48.5q0 30 -23 49.5t-56 19.5q-20 0 -43 -9q-36 -8 -53 0q-26 11 -23 46l15 148q3 40 44 40h163q42 0 42 -39v-4q0 -39 -42 -39h-126l-5 -51l-4 -25l2 -1q21 8 51 8q67 0 111 -42
q43 -40 43 -102t-46 -108t-120 -46z" />
    <glyph glyph-name="six.numerator" horiz-adv-x="381" 
d="M205 262q-74 0 -123 55t-49 150q0 100 53 177q54 77 155 77q29 0 58 -10q38 -14 22 -51l-2 -5q-9 -21 -16 -27t-22 -2q-29 7 -39 7q-39 0 -65.5 -26.5t-35.5 -70.5h2q24 21 65 21q65 0 106.5 -41t41.5 -102q0 -66 -42 -109t-109 -43zM204 349q27 0 42 18t15 48
q0 32 -19.5 52.5t-53.5 20.5q-24 0 -41 -12.5t-17 -32.5q0 -31 21 -63q21 -31 53 -31z" />
    <glyph glyph-name="seven.numerator" horiz-adv-x="346" 
d="M96 272h-13q-25 0 -33 14t4 36l147 267l24 38v2q-24 -2 -39 -2h-126q-41 0 -41 40v5q0 39 41 39h232q41 0 41 -32v-7q0 -28 -13 -50l-175 -321q-15 -29 -49 -29z" />
    <glyph glyph-name="eight.numerator" horiz-adv-x="392" 
d="M197 261q-67 0 -116 36q-49 37 -49 101q0 58 68 111q-48 36 -48 89q0 56 42 89t104 33q60 0 104 -33q45 -33 45 -90q0 -44 -52 -108q62 -38 62 -99q0 -58 -48 -94q-47 -35 -112 -35zM196 536l33 -16q29 32 29 71q0 21 -17.5 34t-42.5 13q-24 0 -39.5 -11.5t-15.5 -32.5
q0 -27 28 -44q6 -4 15 -8.5t10 -5.5zM196 342q27 0 46.5 15t19.5 38q0 12 -4 20q-4 9 -18 18l-21 13l-6 3t-11 5t-13 6l-28 14q-37 -34 -37 -71q0 -27 21 -44t51 -17z" />
    <glyph glyph-name="nine.numerator" horiz-adv-x="381" 
d="M84 272q-37 12 -23 51l2 5q9 21 16.5 26.5t22.5 2.5q20 -7 39 -7q38 0 64.5 26t36.5 70h-2q-28 -21 -65 -21q-66 0 -107 40.5t-41 103.5q0 64 41 108q42 44 109 44q74 0 123 -55q50 -56 50 -150q0 -100 -54 -177q-53 -77 -154 -77q-31 0 -58 10zM194 494q25 0 42 12.5
t17 32.5q0 32 -22 63q-21 31 -52 31q-27 0 -42 -18t-15 -48q0 -31 19 -52t53 -21z" />
    <glyph glyph-name="zero.denominator" horiz-adv-x="396" 
d="M36 220q0 229 162 229t162 -229q0 -230 -162 -230t-162 230zM264 220q0 141 -66 141t-66 -141q0 -143 66 -143t66 143z" />
    <glyph glyph-name="one.denominator" horiz-adv-x="317" 
d="M265 0h-195q-41 0 -41 39v5q0 39 35 39h56v207l3 28h-2q-2 -4 -14 -16l-16 -15q-17 -15 -36 3l-11 11q-27 28 5 57l61 60q24 21 51 21h13q41 0 41 -42v-314h50q41 0 41 -39v-5q0 -39 -41 -39z" />
    <glyph glyph-name="two.denominator" horiz-adv-x="367" 
d="M294 0h-226q-42 0 -42 42q0 45 20.5 83t52.5 61q14 10 39 26t43 28.5t30 24.5q37 35 14 70q-20 30 -61 25q-23 -3 -43 -18q-35 -23 -57 -2l-5 4q-33 29 -2 57q53 48 121 48q63 0 106 -37q45 -36 45 -99q0 -34 -14 -62t-35.5 -45.5t-47 -34t-47 -28.5t-37 -27.5
t-17.5 -32.5h163q42 0 42 -39v-5q0 -39 -42 -39z" />
    <glyph glyph-name="three.denominator" horiz-adv-x="362" 
d="M166 -10q-71 0 -124 41q-30 20 -8 54l5 6q19 27 54 9q32 -23 68 -23q30 0 50.5 18t20.5 45q0 25 -21.5 41t-51.5 16h-11q-28 0 -39 23q-10 23 13 48l56 64l24 24v2q-19 -3 -35 -3h-88q-41 0 -41 40v5q0 39 41 39h197q42 0 42 -30v-6q0 -24 -20 -47l-79 -90
q50 -9 79.5 -42.5t29.5 -84.5q0 -61 -45 -105q-44 -44 -117 -44z" />
    <glyph glyph-name="four.denominator" horiz-adv-x="393" 
d="M269 0h-10q-42 0 -42 42v57h-162q-41 0 -41 32v11q0 22 15 44l156 226q19 27 50 27h34q42 0 42 -42v-216h26q35 0 35 -38v-5q0 -39 -35 -39h-26v-57q0 -42 -42 -42zM110 183v-2h107v110l4 55h-2q-12 -26 -26 -47z" />
    <glyph glyph-name="five.denominator" horiz-adv-x="362" 
d="M169 -10q-60 0 -121 41q-30 23 -6 57l3 4q20 27 54 8q29 -23 63 -23q32 0 54.5 19.5t22.5 48.5q0 30 -23 49.5t-56 19.5q-20 0 -43 -9q-36 -8 -53 0q-26 11 -23 46l15 148q3 40 44 40h163q42 0 42 -39v-4q0 -39 -42 -39h-126l-5 -51l-4 -25l2 -1q21 8 51 8q67 0 111 -42
q43 -40 43 -102t-46 -108t-120 -46z" />
    <glyph glyph-name="six.denominator" horiz-adv-x="383" 
d="M205 -10q-74 0 -123 55t-49 150q0 100 53 177q54 77 155 77q29 0 58 -10q38 -14 22 -51l-2 -5q-9 -21 -16 -27t-22 -2q-29 7 -39 7q-39 0 -65.5 -26.5t-35.5 -70.5h2q24 21 65 21q65 0 106.5 -41t41.5 -102q0 -66 -42 -109t-109 -43zM204 77q27 0 42 18t15 48
q0 32 -19.5 52.5t-53.5 20.5q-24 0 -41 -12.5t-17 -32.5q0 -31 21 -63q21 -31 53 -31z" />
    <glyph glyph-name="seven.denominator" horiz-adv-x="345" 
d="M96 0h-13q-25 0 -33 14t4 36l147 267l24 38v2q-24 -2 -39 -2h-126q-41 0 -41 40v5q0 39 41 39h232q41 0 41 -32v-7q0 -28 -13 -50l-175 -321q-15 -29 -49 -29z" />
    <glyph glyph-name="eight.denominator" horiz-adv-x="392" 
d="M197 -10q-67 0 -116 36q-49 37 -49 101q0 58 68 111q-48 36 -48 89q0 56 42 89t104 33q60 0 104 -33q45 -33 45 -90q0 -44 -52 -108q62 -38 62 -99q0 -58 -48 -94q-47 -35 -112 -35zM196 265l33 -16q29 32 29 71q0 21 -17.5 34t-42.5 13q-24 0 -39.5 -11.5t-15.5 -32.5
q0 -27 28 -44q6 -4 15 -8.5t10 -5.5zM196 71q27 0 46.5 15t19.5 38q0 12 -4 20q-4 9 -18 18l-21 14l-6 3t-11 5t-13 6l-28 13q-37 -34 -37 -71q0 -27 21 -44t51 -17z" />
    <glyph glyph-name="nine.denominator" horiz-adv-x="383" 
d="M84 0q-37 12 -23 51l2 5q9 21 16.5 26.5t22.5 2.5q20 -7 39 -7q38 0 64.5 26t36.5 70h-2q-28 -21 -65 -21q-66 0 -107 40.5t-41 103.5q0 64 41 108q42 44 109 44q74 0 123 -55q50 -56 50 -150q0 -100 -54 -177q-53 -77 -154 -77q-31 0 -58 10zM194 222q25 0 42 12.5
t17 32.5q0 32 -22 63q-21 31 -52 31q-27 0 -42 -18t-15 -48q0 -31 19 -52t53 -21z" />
    </font>
</defs>
</svg>
